M48
; DRILL file {KiCad (6.0.2-0)} date Wednesday, January 10, 2024 at 11:35:57 AM
; FORMAT={-:-/ absolute / metric / decimal}
; #@! TF.CreationDate,2024-01-10T11:35:57-05:00
; #@! TF.GenerationSoftware,Kicad,Pcbnew,(6.0.2-0)
; #@! TF.FileFunction,MixedPlating,1,2
FMAT,2
METRIC
; #@! TA.AperFunction,Plated,PTH,ComponentDrill
T1C0.700
; #@! TA.AperFunction,Plated,PTH,ComponentDrill
T2C0.800
; #@! TA.AperFunction,Plated,PTH,ComponentDrill
T3C0.900
; #@! TA.AperFunction,Plated,PTH,ComponentDrill
T4C1.000
; #@! TA.AperFunction,Plated,PTH,ComponentDrill
T5C1.100
; #@! TA.AperFunction,Plated,PTH,ComponentDrill
T6C1.200
; #@! TA.AperFunction,NonPlated,NPTH,ComponentDrill
T7C3.200
%
G90
G05
T1
X215.9Y-3.81
X215.9Y-11.43
X215.9Y-16.51
X215.9Y-24.13
X215.9Y-29.21
X215.9Y-36.83
X223.52Y-3.81
X223.52Y-11.43
X223.52Y-16.51
X223.52Y-24.13
X223.52Y-29.21
X223.52Y-36.83
T2
X257.72Y-17.78
X261.22Y-17.78
X267.085Y-11.51
X270.585Y-11.51
X271.865Y-20.39
X271.865Y-28.01
X274.405Y-20.39
X274.405Y-28.01
X276.945Y-20.39
X276.945Y-28.01
X278.245Y-12.78
X279.485Y-20.39
X279.485Y-28.01
X283.245Y-12.78
T3
X270.585Y-34.37
X278.205Y-34.37
X290.84Y-24.21
X290.84Y-26.75
X290.84Y-29.29
T4
X229.085Y-12.7
X229.085Y-15.24
X229.085Y-17.78
X229.085Y-20.32
X229.085Y-22.86
X229.085Y-25.4
X229.085Y-27.94
X229.085Y-30.48
X251.945Y-12.7
X251.945Y-15.24
X251.945Y-17.78
X251.945Y-20.32
X251.945Y-22.86
X251.945Y-25.4
X251.945Y-27.94
X251.945Y-30.48
X264.235Y-26.125
X264.235Y-31.205
T5
X207.01Y-5.08
X207.01Y-7.62
X207.01Y-10.16
X207.01Y-17.78
X207.01Y-20.32
X207.01Y-22.86
X207.01Y-30.48
X207.01Y-33.02
X207.01Y-35.56
T6
X198.22Y-15.24
X198.22Y-18.74
X198.22Y-22.24
X198.22Y-25.74
X292.1Y-15.24
X292.1Y-18.74
T7
X196.85Y-5.08
X196.85Y-35.56
X292.1Y-5.08
X292.1Y-35.56
T0
M30
