%TF.GenerationSoftware,KiCad,Pcbnew,(6.0.2-0)*%
%TF.CreationDate,2024-01-10T11:36:12-05:00*%
%TF.ProjectId,arduino_control_rgb,61726475-696e-46f5-9f63-6f6e74726f6c,rev?*%
%TF.SameCoordinates,Original*%
%TF.FileFunction,Soldermask,Top*%
%TF.FilePolarity,Negative*%
%FSLAX46Y46*%
G04 Gerber Fmt 4.6, Leading zero omitted, Abs format (unit mm)*
G04 Created by KiCad (PCBNEW (6.0.2-0)) date 2024-01-10 11:36:12*
%MOMM*%
%LPD*%
G01*
G04 APERTURE LIST*
G04 Aperture macros list*
%AMRoundRect*
0 Rectangle with rounded corners*
0 $1 Rounding radius*
0 $2 $3 $4 $5 $6 $7 $8 $9 X,Y pos of 4 corners*
0 Add a 4 corners polygon primitive as box body*
4,1,4,$2,$3,$4,$5,$6,$7,$8,$9,$2,$3,0*
0 Add four circle primitives for the rounded corners*
1,1,$1+$1,$2,$3*
1,1,$1+$1,$4,$5*
1,1,$1+$1,$6,$7*
1,1,$1+$1,$8,$9*
0 Add four rect primitives between the rounded corners*
20,1,$1+$1,$2,$3,$4,$5,0*
20,1,$1+$1,$4,$5,$6,$7,0*
20,1,$1+$1,$6,$7,$8,$9,0*
20,1,$1+$1,$8,$9,$2,$3,0*%
G04 Aperture macros list end*
%ADD10C,3.200000*%
%ADD11R,2.000000X2.000000*%
%ADD12O,2.000000X1.600000*%
%ADD13RoundRect,0.250200X0.649800X-0.649800X0.649800X0.649800X-0.649800X0.649800X-0.649800X-0.649800X0*%
%ADD14C,1.800000*%
%ADD15R,1.600000X1.600000*%
%ADD16O,1.600000X1.600000*%
%ADD17C,1.400000*%
%ADD18O,1.400000X1.400000*%
%ADD19R,2.000000X1.905000*%
%ADD20O,2.000000X1.905000*%
%ADD21C,2.000000*%
%ADD22O,2.000000X2.000000*%
%ADD23C,2.400000*%
%ADD24R,2.400000X2.400000*%
%ADD25R,1.800000X1.800000*%
%ADD26O,1.800000X1.800000*%
%ADD27C,1.600000*%
G04 APERTURE END LIST*
D10*
%TO.C,U7*%
X292100000Y-5080000D03*
%TD*%
%TO.C,U6*%
X292100000Y-35560000D03*
%TD*%
D11*
%TO.C,U5*%
X229085000Y-12700000D03*
D12*
X229085000Y-15240000D03*
X229085000Y-17780000D03*
X229085000Y-20320000D03*
X229085000Y-22860000D03*
X229085000Y-25400000D03*
X229085000Y-27940000D03*
X229085000Y-30480000D03*
X251945000Y-30480000D03*
X251945000Y-27940000D03*
X251945000Y-25400000D03*
X251945000Y-22860000D03*
X251945000Y-20320000D03*
X251945000Y-17780000D03*
X251945000Y-15240000D03*
X251945000Y-12700000D03*
%TD*%
D13*
%TO.C,U4*%
X290840302Y-29290000D03*
D14*
X290840302Y-26750000D03*
X290840302Y-24210000D03*
%TD*%
D15*
%TO.C,U3*%
X271865000Y-28010000D03*
D16*
X274405000Y-28010000D03*
X276945000Y-28010000D03*
X279485000Y-28010000D03*
X279485000Y-20390000D03*
X276945000Y-20390000D03*
X274405000Y-20390000D03*
X271865000Y-20390000D03*
%TD*%
D10*
%TO.C,U2*%
X196850000Y-5080000D03*
%TD*%
%TO.C,U1*%
X196850000Y-35560000D03*
%TD*%
D17*
%TO.C,R6*%
X223520000Y-36830000D03*
D18*
X215900000Y-36830000D03*
%TD*%
%TO.C,R5*%
X215900000Y-24130000D03*
D17*
X223520000Y-24130000D03*
%TD*%
%TO.C,R4*%
X223520000Y-11430000D03*
D18*
X215900000Y-11430000D03*
%TD*%
%TO.C,R3*%
X215900000Y-29210000D03*
D17*
X223520000Y-29210000D03*
%TD*%
%TO.C,R2*%
X223520000Y-16510000D03*
D18*
X215900000Y-16510000D03*
%TD*%
D17*
%TO.C,R1*%
X223520000Y-3810000D03*
D18*
X215900000Y-3810000D03*
%TD*%
D19*
%TO.C,Q3*%
X207010000Y-30480000D03*
D20*
X207010000Y-33020000D03*
X207010000Y-35560000D03*
%TD*%
D19*
%TO.C,Q2*%
X207010000Y-17780000D03*
D20*
X207010000Y-20320000D03*
X207010000Y-22860000D03*
%TD*%
D19*
%TO.C,Q1*%
X207010000Y-5080000D03*
D20*
X207010000Y-7620000D03*
X207010000Y-10160000D03*
%TD*%
D21*
%TO.C,L1*%
X264235000Y-31205000D03*
D22*
X264235000Y-26125000D03*
%TD*%
D23*
%TO.C,J2*%
X198220000Y-25740000D03*
X198220000Y-22240000D03*
X198220000Y-18740000D03*
D24*
X198220000Y-15240000D03*
%TD*%
%TO.C,J1*%
X292100000Y-15240000D03*
D23*
X292100000Y-18740000D03*
%TD*%
D25*
%TO.C,D1*%
X270585000Y-34370000D03*
D26*
X278205000Y-34370000D03*
%TD*%
D15*
%TO.C,C3*%
X257719698Y-17780000D03*
D27*
X261219698Y-17780000D03*
%TD*%
%TO.C,C2*%
X278245000Y-12780000D03*
X283245000Y-12780000D03*
%TD*%
%TO.C,C1*%
X267085000Y-11510000D03*
D15*
X270585000Y-11510000D03*
%TD*%
M02*
