%TF.GenerationSoftware,KiCad,Pcbnew,(6.0.2-0)*%
%TF.CreationDate,2024-01-10T11:36:12-05:00*%
%TF.ProjectId,arduino_control_rgb,61726475-696e-46f5-9f63-6f6e74726f6c,rev?*%
%TF.SameCoordinates,Original*%
%TF.FileFunction,Copper,L2,Bot*%
%TF.FilePolarity,Positive*%
%FSLAX46Y46*%
G04 Gerber Fmt 4.6, Leading zero omitted, Abs format (unit mm)*
G04 Created by KiCad (PCBNEW (6.0.2-0)) date 2024-01-10 11:36:12*
%MOMM*%
%LPD*%
G01*
G04 APERTURE LIST*
G04 Aperture macros list*
%AMRoundRect*
0 Rectangle with rounded corners*
0 $1 Rounding radius*
0 $2 $3 $4 $5 $6 $7 $8 $9 X,Y pos of 4 corners*
0 Add a 4 corners polygon primitive as box body*
4,1,4,$2,$3,$4,$5,$6,$7,$8,$9,$2,$3,0*
0 Add four circle primitives for the rounded corners*
1,1,$1+$1,$2,$3*
1,1,$1+$1,$4,$5*
1,1,$1+$1,$6,$7*
1,1,$1+$1,$8,$9*
0 Add four rect primitives between the rounded corners*
20,1,$1+$1,$2,$3,$4,$5,0*
20,1,$1+$1,$4,$5,$6,$7,0*
20,1,$1+$1,$6,$7,$8,$9,0*
20,1,$1+$1,$8,$9,$2,$3,0*%
G04 Aperture macros list end*
%TA.AperFunction,ComponentPad*%
%ADD10R,2.000000X2.000000*%
%TD*%
%TA.AperFunction,ComponentPad*%
%ADD11O,2.000000X1.600000*%
%TD*%
%TA.AperFunction,ComponentPad*%
%ADD12RoundRect,0.250200X0.649800X-0.649800X0.649800X0.649800X-0.649800X0.649800X-0.649800X-0.649800X0*%
%TD*%
%TA.AperFunction,ComponentPad*%
%ADD13C,1.800000*%
%TD*%
%TA.AperFunction,ComponentPad*%
%ADD14R,1.600000X1.600000*%
%TD*%
%TA.AperFunction,ComponentPad*%
%ADD15O,1.600000X1.600000*%
%TD*%
%TA.AperFunction,ComponentPad*%
%ADD16C,1.400000*%
%TD*%
%TA.AperFunction,ComponentPad*%
%ADD17O,1.400000X1.400000*%
%TD*%
%TA.AperFunction,ComponentPad*%
%ADD18R,2.000000X1.905000*%
%TD*%
%TA.AperFunction,ComponentPad*%
%ADD19O,2.000000X1.905000*%
%TD*%
%TA.AperFunction,ComponentPad*%
%ADD20C,2.000000*%
%TD*%
%TA.AperFunction,ComponentPad*%
%ADD21O,2.000000X2.000000*%
%TD*%
%TA.AperFunction,ComponentPad*%
%ADD22C,2.400000*%
%TD*%
%TA.AperFunction,ComponentPad*%
%ADD23R,2.400000X2.400000*%
%TD*%
%TA.AperFunction,ComponentPad*%
%ADD24R,1.800000X1.800000*%
%TD*%
%TA.AperFunction,ComponentPad*%
%ADD25O,1.800000X1.800000*%
%TD*%
%TA.AperFunction,ComponentPad*%
%ADD26C,1.600000*%
%TD*%
%TA.AperFunction,Conductor*%
%ADD27C,0.250000*%
%TD*%
G04 APERTURE END LIST*
D10*
%TO.P,U5,1,~{RST}*%
%TO.N,unconnected-(U5-Pad1)*%
X229085000Y-12700000D03*
D11*
%TO.P,U5,2,A0*%
%TO.N,unconnected-(U5-Pad2)*%
X229085000Y-15240000D03*
%TO.P,U5,3,D0*%
%TO.N,unconnected-(U5-Pad3)*%
X229085000Y-17780000D03*
%TO.P,U5,4,SCK/D5*%
%TO.N,Net-(R1-Pad1)*%
X229085000Y-20320000D03*
%TO.P,U5,5,MISO/D6*%
%TO.N,Net-(R2-Pad1)*%
X229085000Y-22860000D03*
%TO.P,U5,6,MOSI/D7*%
%TO.N,Net-(R3-Pad1)*%
X229085000Y-25400000D03*
%TO.P,U5,7,CS/D8*%
%TO.N,unconnected-(U5-Pad7)*%
X229085000Y-27940000D03*
%TO.P,U5,8,3V3*%
%TO.N,3V3DC*%
X229085000Y-30480000D03*
%TO.P,U5,9,5V*%
%TO.N,unconnected-(U5-Pad9)*%
X251945000Y-30480000D03*
%TO.P,U5,10,GND*%
%TO.N,GND*%
X251945000Y-27940000D03*
%TO.P,U5,11,D4*%
%TO.N,unconnected-(U5-Pad11)*%
X251945000Y-25400000D03*
%TO.P,U5,12,D3*%
%TO.N,unconnected-(U5-Pad12)*%
X251945000Y-22860000D03*
%TO.P,U5,13,SDA/D2*%
%TO.N,unconnected-(U5-Pad13)*%
X251945000Y-20320000D03*
%TO.P,U5,14,SCL/D1*%
%TO.N,Net-(U4-Pad1)*%
X251945000Y-17780000D03*
%TO.P,U5,15,RX*%
%TO.N,unconnected-(U5-Pad15)*%
X251945000Y-15240000D03*
%TO.P,U5,16,TX*%
%TO.N,unconnected-(U5-Pad16)*%
X251945000Y-12700000D03*
%TD*%
D12*
%TO.P,U4,1,OUT*%
%TO.N,Net-(U4-Pad1)*%
X290840302Y-29290000D03*
D13*
%TO.P,U4,2,GND*%
%TO.N,GND*%
X290840302Y-26750000D03*
%TO.P,U4,3,Vs*%
%TO.N,3V3DC*%
X290840302Y-24210000D03*
%TD*%
D14*
%TO.P,U3,1,CB*%
%TO.N,Net-(C2-Pad2)*%
X271865000Y-28010000D03*
D15*
%TO.P,U3,2,NC*%
%TO.N,unconnected-(U3-Pad2)*%
X274405000Y-28010000D03*
%TO.P,U3,3,NC*%
%TO.N,unconnected-(U3-Pad3)*%
X276945000Y-28010000D03*
%TO.P,U3,4,FB*%
%TO.N,3V3DC*%
X279485000Y-28010000D03*
%TO.P,U3,5,ON/~{OFF}*%
%TO.N,unconnected-(U3-Pad5)*%
X279485000Y-20390000D03*
%TO.P,U3,6,GND*%
%TO.N,GND*%
X276945000Y-20390000D03*
%TO.P,U3,7,VIN*%
%TO.N,12VDC*%
X274405000Y-20390000D03*
%TO.P,U3,8,VSW*%
%TO.N,Net-(C2-Pad1)*%
X271865000Y-20390000D03*
%TD*%
D16*
%TO.P,R6,1*%
%TO.N,GND*%
X223520000Y-36830000D03*
D17*
%TO.P,R6,2*%
%TO.N,Net-(Q3-Pad1)*%
X215900000Y-36830000D03*
%TD*%
%TO.P,R5,2*%
%TO.N,Net-(Q2-Pad1)*%
X215900000Y-24130000D03*
D16*
%TO.P,R5,1*%
%TO.N,GND*%
X223520000Y-24130000D03*
%TD*%
%TO.P,R4,1*%
%TO.N,GND*%
X223520000Y-11430000D03*
D17*
%TO.P,R4,2*%
%TO.N,Net-(Q1-Pad1)*%
X215900000Y-11430000D03*
%TD*%
%TO.P,R3,2*%
%TO.N,Net-(Q3-Pad1)*%
X215900000Y-29210000D03*
D16*
%TO.P,R3,1*%
%TO.N,Net-(R3-Pad1)*%
X223520000Y-29210000D03*
%TD*%
%TO.P,R2,1*%
%TO.N,Net-(R2-Pad1)*%
X223520000Y-16510000D03*
D17*
%TO.P,R2,2*%
%TO.N,Net-(Q2-Pad1)*%
X215900000Y-16510000D03*
%TD*%
D16*
%TO.P,R1,1*%
%TO.N,Net-(R1-Pad1)*%
X223520000Y-3810000D03*
D17*
%TO.P,R1,2*%
%TO.N,Net-(Q1-Pad1)*%
X215900000Y-3810000D03*
%TD*%
D18*
%TO.P,Q3,1,G*%
%TO.N,Net-(Q3-Pad1)*%
X207010000Y-30480000D03*
D19*
%TO.P,Q3,2,D*%
%TO.N,Net-(J2-Pad3)*%
X207010000Y-33020000D03*
%TO.P,Q3,3,S*%
%TO.N,GND*%
X207010000Y-35560000D03*
%TD*%
D18*
%TO.P,Q2,1,G*%
%TO.N,Net-(Q2-Pad1)*%
X207010000Y-17780000D03*
D19*
%TO.P,Q2,2,D*%
%TO.N,Net-(J2-Pad2)*%
X207010000Y-20320000D03*
%TO.P,Q2,3,S*%
%TO.N,GND*%
X207010000Y-22860000D03*
%TD*%
D18*
%TO.P,Q1,1,G*%
%TO.N,Net-(Q1-Pad1)*%
X207010000Y-5080000D03*
D19*
%TO.P,Q1,2,D*%
%TO.N,Net-(J2-Pad1)*%
X207010000Y-7620000D03*
%TO.P,Q1,3,S*%
%TO.N,GND*%
X207010000Y-10160000D03*
%TD*%
D20*
%TO.P,L1,1,1*%
%TO.N,Net-(C2-Pad1)*%
X264235000Y-31205000D03*
D21*
%TO.P,L1,2,2*%
%TO.N,3V3DC*%
X264235000Y-26125000D03*
%TD*%
D22*
%TO.P,J2,4,Pin_4*%
%TO.N,12VDC*%
X198220000Y-25740000D03*
%TO.P,J2,3,Pin_3*%
%TO.N,Net-(J2-Pad3)*%
X198220000Y-22240000D03*
%TO.P,J2,2,Pin_2*%
%TO.N,Net-(J2-Pad2)*%
X198220000Y-18740000D03*
D23*
%TO.P,J2,1,Pin_1*%
%TO.N,Net-(J2-Pad1)*%
X198220000Y-15240000D03*
%TD*%
%TO.P,J1,1,Pin_1*%
%TO.N,GND*%
X292100000Y-15240000D03*
D22*
%TO.P,J1,2,Pin_2*%
%TO.N,12VDC*%
X292100000Y-18740000D03*
%TD*%
D24*
%TO.P,D1,1,K*%
%TO.N,Net-(C2-Pad1)*%
X270585000Y-34370000D03*
D25*
%TO.P,D1,2,A*%
%TO.N,GND*%
X278205000Y-34370000D03*
%TD*%
D14*
%TO.P,C3,1*%
%TO.N,3V3DC*%
X257719698Y-17780000D03*
D26*
%TO.P,C3,2*%
%TO.N,GND*%
X261219698Y-17780000D03*
%TD*%
%TO.P,C2,1*%
%TO.N,Net-(C2-Pad1)*%
X278245000Y-12780000D03*
%TO.P,C2,2*%
%TO.N,Net-(C2-Pad2)*%
X283245000Y-12780000D03*
%TD*%
%TO.P,C1,2*%
%TO.N,GND*%
X267085000Y-11510000D03*
D14*
%TO.P,C1,1*%
%TO.N,12VDC*%
X270585000Y-11510000D03*
%TD*%
D27*
%TO.N,Net-(U4-Pad1)*%
X290840302Y-29290000D02*
X269170302Y-7620000D01*
X269170302Y-7620000D02*
X257810000Y-7620000D01*
X257810000Y-7620000D02*
X255270000Y-10160000D01*
X255270000Y-10160000D02*
X255270000Y-14455000D01*
X255270000Y-14455000D02*
X251945000Y-17780000D01*
%TD*%
%TA.AperFunction,Conductor*%
%TO.N,GND*%
G36*
X295344121Y-528002D02*
G01*
X295390614Y-581658D01*
X295402000Y-634000D01*
X295402000Y-38736000D01*
X295381998Y-38804121D01*
X295328342Y-38850614D01*
X295276000Y-38862000D01*
X193674000Y-38862000D01*
X193605879Y-38841998D01*
X193559386Y-38788342D01*
X193548000Y-38736000D01*
X193548000Y-35692703D01*
X194740743Y-35692703D01*
X194741302Y-35696947D01*
X194741302Y-35696951D01*
X194748501Y-35751634D01*
X194778268Y-35977734D01*
X194854129Y-36255036D01*
X194855813Y-36258984D01*
X194940692Y-36457978D01*
X194966923Y-36519476D01*
X195114561Y-36766161D01*
X195294313Y-36990528D01*
X195502851Y-37188423D01*
X195736317Y-37356186D01*
X195740112Y-37358195D01*
X195740113Y-37358196D01*
X195761869Y-37369715D01*
X195990392Y-37490712D01*
X196260373Y-37589511D01*
X196541264Y-37650755D01*
X196569841Y-37653004D01*
X196764282Y-37668307D01*
X196764291Y-37668307D01*
X196766739Y-37668500D01*
X196922271Y-37668500D01*
X196924407Y-37668354D01*
X196924418Y-37668354D01*
X197132548Y-37654165D01*
X197132554Y-37654164D01*
X197136825Y-37653873D01*
X197141020Y-37653004D01*
X197141022Y-37653004D01*
X197330954Y-37613671D01*
X197418342Y-37595574D01*
X197689343Y-37499607D01*
X197802770Y-37441063D01*
X197941005Y-37369715D01*
X197941006Y-37369715D01*
X197944812Y-37367750D01*
X197948313Y-37365289D01*
X197948317Y-37365287D01*
X198112747Y-37249723D01*
X198180023Y-37202441D01*
X198354125Y-37040655D01*
X198387479Y-37009661D01*
X198387481Y-37009658D01*
X198390622Y-37006740D01*
X198572713Y-36784268D01*
X198722927Y-36539142D01*
X198758556Y-36457978D01*
X198836757Y-36279830D01*
X198838483Y-36275898D01*
X198917244Y-35999406D01*
X198941041Y-35832194D01*
X205526573Y-35832194D01*
X205536110Y-35894515D01*
X205538499Y-35904543D01*
X205609898Y-36122988D01*
X205613895Y-36132497D01*
X205720011Y-36336344D01*
X205725505Y-36345069D01*
X205863493Y-36528852D01*
X205870336Y-36536559D01*
X206036491Y-36695339D01*
X206044501Y-36701826D01*
X206234347Y-36831330D01*
X206243321Y-36836429D01*
X206451769Y-36933187D01*
X206461456Y-36936750D01*
X206682908Y-36998165D01*
X206693030Y-37000096D01*
X206737987Y-37004901D01*
X206752608Y-37002253D01*
X206755853Y-36990412D01*
X207264000Y-36990412D01*
X207268325Y-37005141D01*
X207280111Y-37007202D01*
X207291704Y-37006249D01*
X207301866Y-37004567D01*
X207524771Y-36948578D01*
X207534519Y-36945259D01*
X207745289Y-36853615D01*
X207754364Y-36848749D01*
X207783345Y-36830000D01*
X214686884Y-36830000D01*
X214705314Y-37040655D01*
X214760044Y-37244910D01*
X214762366Y-37249891D01*
X214762367Y-37249892D01*
X214818242Y-37369715D01*
X214849411Y-37436558D01*
X214970699Y-37609776D01*
X215120224Y-37759301D01*
X215293442Y-37880589D01*
X215298420Y-37882910D01*
X215298423Y-37882912D01*
X215479092Y-37967159D01*
X215485090Y-37969956D01*
X215490398Y-37971378D01*
X215490400Y-37971379D01*
X215684030Y-38023262D01*
X215684032Y-38023262D01*
X215689345Y-38024686D01*
X215900000Y-38043116D01*
X216110655Y-38024686D01*
X216115968Y-38023262D01*
X216115970Y-38023262D01*
X216309600Y-37971379D01*
X216309602Y-37971378D01*
X216314910Y-37969956D01*
X216320908Y-37967159D01*
X216501577Y-37882912D01*
X216501580Y-37882910D01*
X216506558Y-37880589D01*
X216558440Y-37844261D01*
X222870294Y-37844261D01*
X222879590Y-37856276D01*
X222909189Y-37877001D01*
X222918677Y-37882479D01*
X223100277Y-37967159D01*
X223110571Y-37970907D01*
X223304122Y-38022769D01*
X223314909Y-38024671D01*
X223514525Y-38042135D01*
X223525475Y-38042135D01*
X223725091Y-38024671D01*
X223735878Y-38022769D01*
X223929429Y-37970907D01*
X223939723Y-37967159D01*
X224121323Y-37882479D01*
X224130811Y-37877001D01*
X224161248Y-37855689D01*
X224169623Y-37845212D01*
X224162554Y-37831764D01*
X223532812Y-37202022D01*
X223518868Y-37194408D01*
X223517035Y-37194539D01*
X223510420Y-37198790D01*
X222876724Y-37832486D01*
X222870294Y-37844261D01*
X216558440Y-37844261D01*
X216679776Y-37759301D01*
X216829301Y-37609776D01*
X216950589Y-37436558D01*
X216981759Y-37369715D01*
X217037633Y-37249892D01*
X217037634Y-37249891D01*
X217039956Y-37244910D01*
X217094686Y-37040655D01*
X217112637Y-36835475D01*
X222307865Y-36835475D01*
X222325329Y-37035091D01*
X222327231Y-37045878D01*
X222379093Y-37239429D01*
X222382841Y-37249723D01*
X222467521Y-37431323D01*
X222472999Y-37440811D01*
X222494311Y-37471248D01*
X222504788Y-37479623D01*
X222518236Y-37472554D01*
X223147978Y-36842812D01*
X223154356Y-36831132D01*
X223884408Y-36831132D01*
X223884539Y-36832965D01*
X223888790Y-36839580D01*
X224522486Y-37473276D01*
X224534261Y-37479706D01*
X224546276Y-37470410D01*
X224567001Y-37440811D01*
X224572479Y-37431323D01*
X224657159Y-37249723D01*
X224660907Y-37239429D01*
X224712769Y-37045878D01*
X224714671Y-37035091D01*
X224732135Y-36835475D01*
X224732135Y-36824525D01*
X224714671Y-36624909D01*
X224712769Y-36614122D01*
X224660907Y-36420571D01*
X224657159Y-36410277D01*
X224572479Y-36228677D01*
X224567001Y-36219189D01*
X224545689Y-36188752D01*
X224535212Y-36180377D01*
X224521764Y-36187446D01*
X223892022Y-36817188D01*
X223884408Y-36831132D01*
X223154356Y-36831132D01*
X223155592Y-36828868D01*
X223155461Y-36827035D01*
X223151210Y-36820420D01*
X222517514Y-36186724D01*
X222505739Y-36180294D01*
X222493724Y-36189590D01*
X222472999Y-36219189D01*
X222467521Y-36228677D01*
X222382841Y-36410277D01*
X222379093Y-36420571D01*
X222327231Y-36614122D01*
X222325329Y-36624909D01*
X222307865Y-36824525D01*
X222307865Y-36835475D01*
X217112637Y-36835475D01*
X217113116Y-36830000D01*
X217094686Y-36619345D01*
X217072142Y-36535208D01*
X217041379Y-36420400D01*
X217041378Y-36420398D01*
X217039956Y-36415090D01*
X216965322Y-36255036D01*
X216952912Y-36228423D01*
X216952910Y-36228420D01*
X216950589Y-36223442D01*
X216829301Y-36050224D01*
X216679776Y-35900699D01*
X216557082Y-35814788D01*
X222870377Y-35814788D01*
X222877446Y-35828236D01*
X223507188Y-36457978D01*
X223521132Y-36465592D01*
X223522965Y-36465461D01*
X223529580Y-36461210D01*
X224163276Y-35827514D01*
X224169706Y-35815739D01*
X224160410Y-35803724D01*
X224130811Y-35782999D01*
X224121323Y-35777521D01*
X223939723Y-35692841D01*
X223929429Y-35689093D01*
X223735878Y-35637231D01*
X223725091Y-35635329D01*
X223525475Y-35617865D01*
X223514525Y-35617865D01*
X223314909Y-35635329D01*
X223304122Y-35637231D01*
X223110571Y-35689093D01*
X223100277Y-35692841D01*
X222918677Y-35777521D01*
X222909189Y-35782999D01*
X222878752Y-35804311D01*
X222870377Y-35814788D01*
X216557082Y-35814788D01*
X216506558Y-35779411D01*
X216501580Y-35777090D01*
X216501577Y-35777088D01*
X216319892Y-35692367D01*
X216319891Y-35692366D01*
X216314910Y-35690044D01*
X216309602Y-35688622D01*
X216309600Y-35688621D01*
X216115970Y-35636738D01*
X216115968Y-35636738D01*
X216110655Y-35635314D01*
X215900000Y-35616884D01*
X215689345Y-35635314D01*
X215684032Y-35636738D01*
X215684030Y-35636738D01*
X215490400Y-35688621D01*
X215490398Y-35688622D01*
X215485090Y-35690044D01*
X215480109Y-35692366D01*
X215480108Y-35692367D01*
X215298423Y-35777088D01*
X215298420Y-35777090D01*
X215293442Y-35779411D01*
X215120224Y-35900699D01*
X214970699Y-36050224D01*
X214849411Y-36223442D01*
X214847090Y-36228420D01*
X214847088Y-36228423D01*
X214834678Y-36255036D01*
X214760044Y-36415090D01*
X214758622Y-36420398D01*
X214758621Y-36420400D01*
X214727858Y-36535208D01*
X214705314Y-36619345D01*
X214686884Y-36830000D01*
X207783345Y-36830000D01*
X207947327Y-36723915D01*
X207955498Y-36717622D01*
X208125480Y-36562950D01*
X208132506Y-36555417D01*
X208274945Y-36375056D01*
X208280650Y-36366469D01*
X208391714Y-36165278D01*
X208395944Y-36155866D01*
X208472659Y-35939232D01*
X208475293Y-35929261D01*
X208492647Y-35831837D01*
X208491187Y-35818540D01*
X208476630Y-35814000D01*
X207282115Y-35814000D01*
X207266876Y-35818475D01*
X207265671Y-35819865D01*
X207264000Y-35827548D01*
X207264000Y-36990412D01*
X206755853Y-36990412D01*
X206756000Y-36989876D01*
X206756000Y-35832115D01*
X206751525Y-35816876D01*
X206750135Y-35815671D01*
X206742452Y-35814000D01*
X205541904Y-35814000D01*
X205528560Y-35817918D01*
X205526573Y-35832194D01*
X198941041Y-35832194D01*
X198954315Y-35738928D01*
X198957146Y-35719036D01*
X198957146Y-35719034D01*
X198957751Y-35714784D01*
X198957845Y-35696951D01*
X198959235Y-35431583D01*
X198959235Y-35431576D01*
X198959257Y-35427297D01*
X198953390Y-35382728D01*
X198944886Y-35318134D01*
X269176500Y-35318134D01*
X269183255Y-35380316D01*
X269234385Y-35516705D01*
X269321739Y-35633261D01*
X269438295Y-35720615D01*
X269574684Y-35771745D01*
X269636866Y-35778500D01*
X271533134Y-35778500D01*
X271595316Y-35771745D01*
X271731705Y-35720615D01*
X271848261Y-35633261D01*
X271935615Y-35516705D01*
X271986745Y-35380316D01*
X271993500Y-35318134D01*
X271993500Y-34637966D01*
X276822000Y-34637966D01*
X276855685Y-34787439D01*
X276858773Y-34797292D01*
X276941989Y-35002226D01*
X276946629Y-35011413D01*
X277062208Y-35200022D01*
X277068286Y-35208326D01*
X277213113Y-35375519D01*
X277220475Y-35382728D01*
X277390660Y-35524018D01*
X277399099Y-35529927D01*
X277590077Y-35641525D01*
X277599364Y-35645975D01*
X277806003Y-35724883D01*
X277815901Y-35727759D01*
X277933250Y-35751634D01*
X277947299Y-35750438D01*
X277951000Y-35740093D01*
X277951000Y-35738928D01*
X278459000Y-35738928D01*
X278463064Y-35752770D01*
X278476479Y-35754804D01*
X278493613Y-35752609D01*
X278503698Y-35750466D01*
X278696231Y-35692703D01*
X289990743Y-35692703D01*
X289991302Y-35696947D01*
X289991302Y-35696951D01*
X289998501Y-35751634D01*
X290028268Y-35977734D01*
X290104129Y-36255036D01*
X290105813Y-36258984D01*
X290190692Y-36457978D01*
X290216923Y-36519476D01*
X290364561Y-36766161D01*
X290544313Y-36990528D01*
X290752851Y-37188423D01*
X290986317Y-37356186D01*
X290990112Y-37358195D01*
X290990113Y-37358196D01*
X291011869Y-37369715D01*
X291240392Y-37490712D01*
X291510373Y-37589511D01*
X291791264Y-37650755D01*
X291819841Y-37653004D01*
X292014282Y-37668307D01*
X292014291Y-37668307D01*
X292016739Y-37668500D01*
X292172271Y-37668500D01*
X292174407Y-37668354D01*
X292174418Y-37668354D01*
X292382548Y-37654165D01*
X292382554Y-37654164D01*
X292386825Y-37653873D01*
X292391020Y-37653004D01*
X292391022Y-37653004D01*
X292580954Y-37613671D01*
X292668342Y-37595574D01*
X292939343Y-37499607D01*
X293052770Y-37441063D01*
X293191005Y-37369715D01*
X293191006Y-37369715D01*
X293194812Y-37367750D01*
X293198313Y-37365289D01*
X293198317Y-37365287D01*
X293362747Y-37249723D01*
X293430023Y-37202441D01*
X293604125Y-37040655D01*
X293637479Y-37009661D01*
X293637481Y-37009658D01*
X293640622Y-37006740D01*
X293822713Y-36784268D01*
X293972927Y-36539142D01*
X294008556Y-36457978D01*
X294086757Y-36279830D01*
X294088483Y-36275898D01*
X294167244Y-35999406D01*
X294204315Y-35738928D01*
X294207146Y-35719036D01*
X294207146Y-35719034D01*
X294207751Y-35714784D01*
X294207845Y-35696951D01*
X294209235Y-35431583D01*
X294209235Y-35431576D01*
X294209257Y-35427297D01*
X294203390Y-35382728D01*
X294179336Y-35200022D01*
X294171732Y-35142266D01*
X294095871Y-34864964D01*
X294057468Y-34774931D01*
X293984763Y-34604476D01*
X293984761Y-34604472D01*
X293983077Y-34600524D01*
X293873945Y-34418177D01*
X293837643Y-34357521D01*
X293837640Y-34357517D01*
X293835439Y-34353839D01*
X293655687Y-34129472D01*
X293447149Y-33931577D01*
X293213683Y-33763814D01*
X293191843Y-33752250D01*
X293089420Y-33698020D01*
X292959608Y-33629288D01*
X292689627Y-33530489D01*
X292408736Y-33469245D01*
X292377685Y-33466801D01*
X292185718Y-33451693D01*
X292185709Y-33451693D01*
X292183261Y-33451500D01*
X292027729Y-33451500D01*
X292025593Y-33451646D01*
X292025582Y-33451646D01*
X291817452Y-33465835D01*
X291817446Y-33465836D01*
X291813175Y-33466127D01*
X291808980Y-33466996D01*
X291808978Y-33466996D01*
X291759980Y-33477143D01*
X291531658Y-33524426D01*
X291260657Y-33620393D01*
X291005188Y-33752250D01*
X291001687Y-33754711D01*
X291001683Y-33754713D01*
X290991594Y-33761804D01*
X290769977Y-33917559D01*
X290754892Y-33931577D01*
X290571009Y-34102452D01*
X290559378Y-34113260D01*
X290377287Y-34335732D01*
X290227073Y-34580858D01*
X290225347Y-34584791D01*
X290225346Y-34584792D01*
X290155044Y-34744944D01*
X290111517Y-34844102D01*
X290032756Y-35120594D01*
X289992249Y-35405216D01*
X289992227Y-35409505D01*
X289992226Y-35409512D01*
X289990793Y-35683144D01*
X289990743Y-35692703D01*
X278696231Y-35692703D01*
X278715557Y-35686905D01*
X278725152Y-35683144D01*
X278923778Y-35585838D01*
X278932636Y-35580559D01*
X279112716Y-35452109D01*
X279120578Y-35445465D01*
X279277260Y-35289329D01*
X279283937Y-35281484D01*
X279413010Y-35101859D01*
X279418321Y-35093020D01*
X279516318Y-34894737D01*
X279520117Y-34885142D01*
X279584415Y-34673517D01*
X279586594Y-34663436D01*
X279589422Y-34641960D01*
X279587210Y-34627779D01*
X279574052Y-34624000D01*
X278477115Y-34624000D01*
X278461876Y-34628475D01*
X278460671Y-34629865D01*
X278459000Y-34637548D01*
X278459000Y-35738928D01*
X277951000Y-35738928D01*
X277951000Y-34642115D01*
X277946525Y-34626876D01*
X277945135Y-34625671D01*
X277937452Y-34624000D01*
X276836968Y-34624000D01*
X276823437Y-34627973D01*
X276822000Y-34637966D01*
X271993500Y-34637966D01*
X271993500Y-34100788D01*
X276818484Y-34100788D01*
X276820625Y-34112609D01*
X276833001Y-34116000D01*
X277932885Y-34116000D01*
X277948124Y-34111525D01*
X277949329Y-34110135D01*
X277951000Y-34102452D01*
X277951000Y-34097885D01*
X278459000Y-34097885D01*
X278463475Y-34113124D01*
X278464865Y-34114329D01*
X278472548Y-34116000D01*
X279574900Y-34116000D01*
X279588431Y-34112027D01*
X279589736Y-34102947D01*
X279543710Y-33919708D01*
X279540389Y-33909953D01*
X279452193Y-33707118D01*
X279447315Y-33698020D01*
X279327177Y-33512315D01*
X279320885Y-33504144D01*
X279172023Y-33340547D01*
X279164490Y-33333521D01*
X278990901Y-33196429D01*
X278982323Y-33190730D01*
X278788678Y-33083833D01*
X278779272Y-33079606D01*
X278570772Y-33005772D01*
X278560809Y-33003140D01*
X278476836Y-32988182D01*
X278463541Y-32989641D01*
X278459000Y-33004199D01*
X278459000Y-34097885D01*
X277951000Y-34097885D01*
X277951000Y-33002517D01*
X277947082Y-32989173D01*
X277932806Y-32987186D01*
X277882694Y-32994855D01*
X277872666Y-32997244D01*
X277662426Y-33065961D01*
X277652916Y-33069958D01*
X277456728Y-33172087D01*
X277448003Y-33177581D01*
X277271123Y-33310386D01*
X277263416Y-33317229D01*
X277110600Y-33477143D01*
X277104113Y-33485153D01*
X276979474Y-33667867D01*
X276974376Y-33676841D01*
X276881252Y-33877459D01*
X276877689Y-33887146D01*
X276818581Y-34100279D01*
X276818484Y-34100788D01*
X271993500Y-34100788D01*
X271993500Y-33421866D01*
X271986745Y-33359684D01*
X271935615Y-33223295D01*
X271848261Y-33106739D01*
X271731705Y-33019385D01*
X271595316Y-32968255D01*
X271533134Y-32961500D01*
X269636866Y-32961500D01*
X269574684Y-32968255D01*
X269438295Y-33019385D01*
X269321739Y-33106739D01*
X269234385Y-33223295D01*
X269183255Y-33359684D01*
X269176500Y-33421866D01*
X269176500Y-35318134D01*
X198944886Y-35318134D01*
X198929336Y-35200022D01*
X198921732Y-35142266D01*
X198845871Y-34864964D01*
X198807468Y-34774931D01*
X198734763Y-34604476D01*
X198734761Y-34604472D01*
X198733077Y-34600524D01*
X198623945Y-34418177D01*
X198587643Y-34357521D01*
X198587640Y-34357517D01*
X198585439Y-34353839D01*
X198405687Y-34129472D01*
X198197149Y-33931577D01*
X197963683Y-33763814D01*
X197941843Y-33752250D01*
X197839420Y-33698020D01*
X197709608Y-33629288D01*
X197439627Y-33530489D01*
X197158736Y-33469245D01*
X197127685Y-33466801D01*
X196935718Y-33451693D01*
X196935709Y-33451693D01*
X196933261Y-33451500D01*
X196777729Y-33451500D01*
X196775593Y-33451646D01*
X196775582Y-33451646D01*
X196567452Y-33465835D01*
X196567446Y-33465836D01*
X196563175Y-33466127D01*
X196558980Y-33466996D01*
X196558978Y-33466996D01*
X196509980Y-33477143D01*
X196281658Y-33524426D01*
X196010657Y-33620393D01*
X195755188Y-33752250D01*
X195751687Y-33754711D01*
X195751683Y-33754713D01*
X195741594Y-33761804D01*
X195519977Y-33917559D01*
X195504892Y-33931577D01*
X195321009Y-34102452D01*
X195309378Y-34113260D01*
X195127287Y-34335732D01*
X194977073Y-34580858D01*
X194975347Y-34584791D01*
X194975346Y-34584792D01*
X194905044Y-34744944D01*
X194861517Y-34844102D01*
X194782756Y-35120594D01*
X194742249Y-35405216D01*
X194742227Y-35409505D01*
X194742226Y-35409512D01*
X194740793Y-35683144D01*
X194740743Y-35692703D01*
X193548000Y-35692703D01*
X193548000Y-33122263D01*
X205500064Y-33122263D01*
X205536404Y-33359744D01*
X205566394Y-33451500D01*
X205609434Y-33583183D01*
X205609437Y-33583189D01*
X205611042Y-33588101D01*
X205613429Y-33592687D01*
X205613431Y-33592691D01*
X205672999Y-33707118D01*
X205721975Y-33801200D01*
X205725085Y-33805342D01*
X205817986Y-33929074D01*
X205866223Y-33993320D01*
X205869961Y-33996892D01*
X205992852Y-34114329D01*
X206039912Y-34159301D01*
X206077351Y-34184840D01*
X206122352Y-34239751D01*
X206130523Y-34310275D01*
X206099269Y-34374022D01*
X206074790Y-34394716D01*
X206072674Y-34396085D01*
X206064502Y-34402378D01*
X205894520Y-34557050D01*
X205887494Y-34564583D01*
X205745055Y-34744944D01*
X205739350Y-34753531D01*
X205628286Y-34954722D01*
X205624056Y-34964134D01*
X205547341Y-35180768D01*
X205544707Y-35190739D01*
X205527353Y-35288163D01*
X205528813Y-35301460D01*
X205543370Y-35306000D01*
X208478096Y-35306000D01*
X208491440Y-35302082D01*
X208493427Y-35287806D01*
X208483890Y-35225485D01*
X208481501Y-35215457D01*
X208410102Y-34997012D01*
X208406105Y-34987503D01*
X208299989Y-34783656D01*
X208294495Y-34774931D01*
X208156507Y-34591148D01*
X208149664Y-34583441D01*
X207983509Y-34424661D01*
X207975502Y-34418177D01*
X207942644Y-34395763D01*
X207897641Y-34340852D01*
X207889468Y-34270328D01*
X207920722Y-34206580D01*
X207945204Y-34185884D01*
X207947635Y-34184311D01*
X207951977Y-34181502D01*
X208129670Y-34019814D01*
X208190347Y-33942983D01*
X208275367Y-33835330D01*
X208275370Y-33835325D01*
X208278568Y-33831276D01*
X208292885Y-33805342D01*
X208392177Y-33625474D01*
X208392179Y-33625470D01*
X208394674Y-33620950D01*
X208428856Y-33524426D01*
X208473144Y-33399360D01*
X208473145Y-33399356D01*
X208474870Y-33394485D01*
X208480183Y-33364659D01*
X208516095Y-33163052D01*
X208516096Y-33163046D01*
X208517001Y-33157963D01*
X208519075Y-32988182D01*
X208519873Y-32922907D01*
X208519873Y-32922905D01*
X208519936Y-32917737D01*
X208483596Y-32680256D01*
X208446906Y-32568003D01*
X208410566Y-32456817D01*
X208410563Y-32456811D01*
X208408958Y-32451899D01*
X208318524Y-32278177D01*
X208300416Y-32243393D01*
X208298025Y-32238800D01*
X208181585Y-32083717D01*
X208156680Y-32017235D01*
X208171672Y-31947839D01*
X208221802Y-31897565D01*
X208238115Y-31890085D01*
X208248293Y-31886269D01*
X208248296Y-31886267D01*
X208256705Y-31883115D01*
X208373261Y-31795761D01*
X208460615Y-31679205D01*
X208511745Y-31542816D01*
X208518500Y-31480634D01*
X208518500Y-29479366D01*
X208511745Y-29417184D01*
X208460615Y-29280795D01*
X208407557Y-29210000D01*
X214686884Y-29210000D01*
X214705314Y-29420655D01*
X214706738Y-29425968D01*
X214706738Y-29425970D01*
X214721046Y-29479366D01*
X214760044Y-29624910D01*
X214762366Y-29629891D01*
X214762367Y-29629892D01*
X214826670Y-29767789D01*
X214849411Y-29816558D01*
X214970699Y-29989776D01*
X215120224Y-30139301D01*
X215293442Y-30260589D01*
X215298420Y-30262910D01*
X215298423Y-30262912D01*
X215411379Y-30315584D01*
X215485090Y-30349956D01*
X215490398Y-30351378D01*
X215490400Y-30351379D01*
X215684030Y-30403262D01*
X215684032Y-30403262D01*
X215689345Y-30404686D01*
X215900000Y-30423116D01*
X216110655Y-30404686D01*
X216115968Y-30403262D01*
X216115970Y-30403262D01*
X216309600Y-30351379D01*
X216309602Y-30351378D01*
X216314910Y-30349956D01*
X216388621Y-30315584D01*
X216501577Y-30262912D01*
X216501580Y-30262910D01*
X216506558Y-30260589D01*
X216679776Y-30139301D01*
X216829301Y-29989776D01*
X216950589Y-29816558D01*
X216973331Y-29767789D01*
X217037633Y-29629892D01*
X217037634Y-29629891D01*
X217039956Y-29624910D01*
X217078955Y-29479366D01*
X217093262Y-29425970D01*
X217093262Y-29425968D01*
X217094686Y-29420655D01*
X217113116Y-29210000D01*
X222306884Y-29210000D01*
X222325314Y-29420655D01*
X222326738Y-29425968D01*
X222326738Y-29425970D01*
X222341046Y-29479366D01*
X222380044Y-29624910D01*
X222382366Y-29629891D01*
X222382367Y-29629892D01*
X222446670Y-29767789D01*
X222469411Y-29816558D01*
X222590699Y-29989776D01*
X222740224Y-30139301D01*
X222913442Y-30260589D01*
X222918420Y-30262910D01*
X222918423Y-30262912D01*
X223031379Y-30315584D01*
X223105090Y-30349956D01*
X223110398Y-30351378D01*
X223110400Y-30351379D01*
X223304030Y-30403262D01*
X223304032Y-30403262D01*
X223309345Y-30404686D01*
X223520000Y-30423116D01*
X223730655Y-30404686D01*
X223735968Y-30403262D01*
X223735970Y-30403262D01*
X223929600Y-30351379D01*
X223929602Y-30351378D01*
X223934910Y-30349956D01*
X224008621Y-30315584D01*
X224121577Y-30262912D01*
X224121580Y-30262910D01*
X224126558Y-30260589D01*
X224299776Y-30139301D01*
X224449301Y-29989776D01*
X224570589Y-29816558D01*
X224593331Y-29767789D01*
X224657633Y-29629892D01*
X224657634Y-29629891D01*
X224659956Y-29624910D01*
X224698955Y-29479366D01*
X224713262Y-29425970D01*
X224713262Y-29425968D01*
X224714686Y-29420655D01*
X224733116Y-29210000D01*
X224714686Y-28999345D01*
X224677759Y-28861531D01*
X224661379Y-28800400D01*
X224661378Y-28800398D01*
X224659956Y-28795090D01*
X224652671Y-28779467D01*
X224572912Y-28608423D01*
X224572910Y-28608420D01*
X224570589Y-28603442D01*
X224449301Y-28430224D01*
X224299776Y-28280699D01*
X224126558Y-28159411D01*
X224121580Y-28157090D01*
X224121577Y-28157088D01*
X223939892Y-28072367D01*
X223939891Y-28072366D01*
X223934910Y-28070044D01*
X223929602Y-28068622D01*
X223929600Y-28068621D01*
X223735970Y-28016738D01*
X223735968Y-28016738D01*
X223730655Y-28015314D01*
X223520000Y-27996884D01*
X223309345Y-28015314D01*
X223304032Y-28016738D01*
X223304030Y-28016738D01*
X223110400Y-28068621D01*
X223110398Y-28068622D01*
X223105090Y-28070044D01*
X223100109Y-28072366D01*
X223100108Y-28072367D01*
X222918423Y-28157088D01*
X222918420Y-28157090D01*
X222913442Y-28159411D01*
X222740224Y-28280699D01*
X222590699Y-28430224D01*
X222469411Y-28603442D01*
X222467090Y-28608420D01*
X222467088Y-28608423D01*
X222387329Y-28779467D01*
X222380044Y-28795090D01*
X222378622Y-28800398D01*
X222378621Y-28800400D01*
X222362241Y-28861531D01*
X222325314Y-28999345D01*
X222306884Y-29210000D01*
X217113116Y-29210000D01*
X217094686Y-28999345D01*
X217057759Y-28861531D01*
X217041379Y-28800400D01*
X217041378Y-28800398D01*
X217039956Y-28795090D01*
X217032671Y-28779467D01*
X216952912Y-28608423D01*
X216952910Y-28608420D01*
X216950589Y-28603442D01*
X216829301Y-28430224D01*
X216679776Y-28280699D01*
X216506558Y-28159411D01*
X216501580Y-28157090D01*
X216501577Y-28157088D01*
X216319892Y-28072367D01*
X216319891Y-28072366D01*
X216314910Y-28070044D01*
X216309602Y-28068622D01*
X216309600Y-28068621D01*
X216115970Y-28016738D01*
X216115968Y-28016738D01*
X216110655Y-28015314D01*
X215900000Y-27996884D01*
X215689345Y-28015314D01*
X215684032Y-28016738D01*
X215684030Y-28016738D01*
X215490400Y-28068621D01*
X215490398Y-28068622D01*
X215485090Y-28070044D01*
X215480109Y-28072366D01*
X215480108Y-28072367D01*
X215298423Y-28157088D01*
X215298420Y-28157090D01*
X215293442Y-28159411D01*
X215120224Y-28280699D01*
X214970699Y-28430224D01*
X214849411Y-28603442D01*
X214847090Y-28608420D01*
X214847088Y-28608423D01*
X214767329Y-28779467D01*
X214760044Y-28795090D01*
X214758622Y-28800398D01*
X214758621Y-28800400D01*
X214742241Y-28861531D01*
X214705314Y-28999345D01*
X214686884Y-29210000D01*
X208407557Y-29210000D01*
X208373261Y-29164239D01*
X208256705Y-29076885D01*
X208120316Y-29025755D01*
X208058134Y-29019000D01*
X205961866Y-29019000D01*
X205899684Y-29025755D01*
X205763295Y-29076885D01*
X205646739Y-29164239D01*
X205559385Y-29280795D01*
X205508255Y-29417184D01*
X205501500Y-29479366D01*
X205501500Y-31480634D01*
X205508255Y-31542816D01*
X205559385Y-31679205D01*
X205646739Y-31795761D01*
X205763295Y-31883115D01*
X205783189Y-31890573D01*
X205839953Y-31933213D01*
X205864654Y-31999774D01*
X205849447Y-32069123D01*
X205837842Y-32086647D01*
X205744633Y-32204670D01*
X205744630Y-32204675D01*
X205741432Y-32208724D01*
X205738939Y-32213240D01*
X205738937Y-32213243D01*
X205703092Y-32278177D01*
X205625326Y-32419050D01*
X205623602Y-32423919D01*
X205623600Y-32423923D01*
X205577135Y-32555135D01*
X205545130Y-32645515D01*
X205544223Y-32650608D01*
X205544222Y-32650611D01*
X205535508Y-32699535D01*
X205502999Y-32882037D01*
X205502936Y-32887201D01*
X205500534Y-33083833D01*
X205500064Y-33122263D01*
X193548000Y-33122263D01*
X193548000Y-25695151D01*
X196507296Y-25695151D01*
X196519480Y-25948798D01*
X196569021Y-26197857D01*
X196570600Y-26202255D01*
X196570602Y-26202262D01*
X196636425Y-26385592D01*
X196654831Y-26436858D01*
X196657048Y-26440984D01*
X196743953Y-26602722D01*
X196775025Y-26660551D01*
X196777820Y-26664294D01*
X196777822Y-26664297D01*
X196924171Y-26860282D01*
X196924176Y-26860288D01*
X196926963Y-26864020D01*
X196930272Y-26867300D01*
X196930277Y-26867306D01*
X197067970Y-27003802D01*
X197107307Y-27042797D01*
X197111069Y-27045555D01*
X197111072Y-27045558D01*
X197281078Y-27170211D01*
X197312094Y-27192953D01*
X197316229Y-27195129D01*
X197316233Y-27195131D01*
X197434289Y-27257243D01*
X197536827Y-27311191D01*
X197776568Y-27394912D01*
X198026050Y-27442278D01*
X198146532Y-27447011D01*
X198275125Y-27452064D01*
X198275130Y-27452064D01*
X198279793Y-27452247D01*
X198378774Y-27441407D01*
X198527569Y-27425112D01*
X198527575Y-27425111D01*
X198532222Y-27424602D01*
X198641680Y-27395784D01*
X198773273Y-27361138D01*
X198777793Y-27359948D01*
X198966223Y-27278993D01*
X199006807Y-27261557D01*
X199006810Y-27261555D01*
X199011110Y-27259708D01*
X199015090Y-27257245D01*
X199015094Y-27257243D01*
X199223064Y-27128547D01*
X199223066Y-27128545D01*
X199227047Y-27126082D01*
X199325428Y-27042797D01*
X199417289Y-26965031D01*
X199417291Y-26965029D01*
X199420862Y-26962006D01*
X199588295Y-26771084D01*
X199597848Y-26756233D01*
X199700162Y-26597167D01*
X199725669Y-26557512D01*
X199829967Y-26325980D01*
X199898896Y-26081575D01*
X199913548Y-25966400D01*
X199930545Y-25832798D01*
X199930545Y-25832792D01*
X199930943Y-25829667D01*
X199933291Y-25740000D01*
X199927153Y-25657406D01*
X199914818Y-25491411D01*
X199914817Y-25491407D01*
X199914472Y-25486759D01*
X199904483Y-25442611D01*
X199859459Y-25243639D01*
X199858428Y-25239082D01*
X199852208Y-25223086D01*
X199768084Y-25006762D01*
X199768083Y-25006760D01*
X199766391Y-25002409D01*
X199745866Y-24966498D01*
X199642702Y-24785997D01*
X199642700Y-24785995D01*
X199640383Y-24781940D01*
X199483171Y-24582517D01*
X199389508Y-24494408D01*
X199301610Y-24411722D01*
X199301608Y-24411720D01*
X199298209Y-24408523D01*
X199208039Y-24345970D01*
X199093393Y-24266437D01*
X199093390Y-24266435D01*
X199089561Y-24263779D01*
X199085384Y-24261719D01*
X199085377Y-24261715D01*
X198865996Y-24153528D01*
X198865992Y-24153527D01*
X198861810Y-24151464D01*
X198735901Y-24111160D01*
X198677121Y-24071342D01*
X198649199Y-24006067D01*
X198661000Y-23936058D01*
X198708778Y-23883543D01*
X198742234Y-23869310D01*
X198754054Y-23866198D01*
X198777793Y-23859948D01*
X198896353Y-23809011D01*
X199006807Y-23761557D01*
X199006810Y-23761555D01*
X199011110Y-23759708D01*
X199015090Y-23757245D01*
X199015094Y-23757243D01*
X199223064Y-23628547D01*
X199223066Y-23628545D01*
X199227047Y-23626082D01*
X199326214Y-23542131D01*
X199417289Y-23465031D01*
X199417291Y-23465029D01*
X199420862Y-23462006D01*
X199588295Y-23271084D01*
X199615197Y-23229261D01*
X199677632Y-23132194D01*
X205526573Y-23132194D01*
X205536110Y-23194515D01*
X205538499Y-23204543D01*
X205609898Y-23422988D01*
X205613895Y-23432497D01*
X205720011Y-23636344D01*
X205725505Y-23645069D01*
X205863493Y-23828852D01*
X205870336Y-23836559D01*
X206036491Y-23995339D01*
X206044501Y-24001826D01*
X206234347Y-24131330D01*
X206243321Y-24136429D01*
X206451769Y-24233187D01*
X206461456Y-24236750D01*
X206682908Y-24298165D01*
X206693030Y-24300096D01*
X206737987Y-24304901D01*
X206752608Y-24302253D01*
X206755853Y-24290412D01*
X207264000Y-24290412D01*
X207268325Y-24305141D01*
X207280111Y-24307202D01*
X207291704Y-24306249D01*
X207301866Y-24304567D01*
X207524771Y-24248578D01*
X207534519Y-24245259D01*
X207745289Y-24153615D01*
X207754364Y-24148749D01*
X207783345Y-24130000D01*
X214686884Y-24130000D01*
X214705314Y-24340655D01*
X214706738Y-24345968D01*
X214706738Y-24345970D01*
X214724364Y-24411749D01*
X214760044Y-24544910D01*
X214762366Y-24549891D01*
X214762367Y-24549892D01*
X214846484Y-24730280D01*
X214849411Y-24736558D01*
X214970699Y-24909776D01*
X215120224Y-25059301D01*
X215293442Y-25180589D01*
X215298420Y-25182910D01*
X215298423Y-25182912D01*
X215420416Y-25239798D01*
X215485090Y-25269956D01*
X215490398Y-25271378D01*
X215490400Y-25271379D01*
X215684030Y-25323262D01*
X215684032Y-25323262D01*
X215689345Y-25324686D01*
X215900000Y-25343116D01*
X216110655Y-25324686D01*
X216115968Y-25323262D01*
X216115970Y-25323262D01*
X216309600Y-25271379D01*
X216309602Y-25271378D01*
X216314910Y-25269956D01*
X216379584Y-25239798D01*
X216501577Y-25182912D01*
X216501580Y-25182910D01*
X216506558Y-25180589D01*
X216558440Y-25144261D01*
X222870294Y-25144261D01*
X222879590Y-25156276D01*
X222909189Y-25177001D01*
X222918677Y-25182479D01*
X223100277Y-25267159D01*
X223110571Y-25270907D01*
X223304122Y-25322769D01*
X223314909Y-25324671D01*
X223514525Y-25342135D01*
X223525475Y-25342135D01*
X223725091Y-25324671D01*
X223735878Y-25322769D01*
X223929429Y-25270907D01*
X223939723Y-25267159D01*
X224121323Y-25182479D01*
X224130811Y-25177001D01*
X224161248Y-25155689D01*
X224169623Y-25145212D01*
X224162554Y-25131764D01*
X223532812Y-24502022D01*
X223518868Y-24494408D01*
X223517035Y-24494539D01*
X223510420Y-24498790D01*
X222876724Y-25132486D01*
X222870294Y-25144261D01*
X216558440Y-25144261D01*
X216679776Y-25059301D01*
X216829301Y-24909776D01*
X216950589Y-24736558D01*
X216953517Y-24730280D01*
X217037633Y-24549892D01*
X217037634Y-24549891D01*
X217039956Y-24544910D01*
X217075637Y-24411749D01*
X217093262Y-24345970D01*
X217093262Y-24345968D01*
X217094686Y-24340655D01*
X217112637Y-24135475D01*
X222307865Y-24135475D01*
X222325329Y-24335091D01*
X222327231Y-24345878D01*
X222379093Y-24539429D01*
X222382841Y-24549723D01*
X222467521Y-24731323D01*
X222472999Y-24740811D01*
X222494311Y-24771248D01*
X222504788Y-24779623D01*
X222518236Y-24772554D01*
X223147978Y-24142812D01*
X223154356Y-24131132D01*
X223884408Y-24131132D01*
X223884539Y-24132965D01*
X223888790Y-24139580D01*
X224522486Y-24773276D01*
X224534261Y-24779706D01*
X224546276Y-24770410D01*
X224567001Y-24740811D01*
X224572479Y-24731323D01*
X224657159Y-24549723D01*
X224660907Y-24539429D01*
X224712769Y-24345878D01*
X224714671Y-24335091D01*
X224732135Y-24135475D01*
X224732135Y-24124525D01*
X224714671Y-23924909D01*
X224712769Y-23914122D01*
X224660907Y-23720571D01*
X224657159Y-23710277D01*
X224572479Y-23528677D01*
X224567001Y-23519189D01*
X224545689Y-23488752D01*
X224535212Y-23480377D01*
X224521764Y-23487446D01*
X223892022Y-24117188D01*
X223884408Y-24131132D01*
X223154356Y-24131132D01*
X223155592Y-24128868D01*
X223155461Y-24127035D01*
X223151210Y-24120420D01*
X222517514Y-23486724D01*
X222505739Y-23480294D01*
X222493724Y-23489590D01*
X222472999Y-23519189D01*
X222467521Y-23528677D01*
X222382841Y-23710277D01*
X222379093Y-23720571D01*
X222327231Y-23914122D01*
X222325329Y-23924909D01*
X222307865Y-24124525D01*
X222307865Y-24135475D01*
X217112637Y-24135475D01*
X217113116Y-24130000D01*
X217094686Y-23919345D01*
X217079401Y-23862301D01*
X217041379Y-23720400D01*
X217041378Y-23720398D01*
X217039956Y-23715090D01*
X217030649Y-23695131D01*
X216952912Y-23528423D01*
X216952910Y-23528420D01*
X216950589Y-23523442D01*
X216829301Y-23350224D01*
X216679776Y-23200699D01*
X216557082Y-23114788D01*
X222870377Y-23114788D01*
X222877446Y-23128236D01*
X223507188Y-23757978D01*
X223521132Y-23765592D01*
X223522965Y-23765461D01*
X223529580Y-23761210D01*
X224163276Y-23127514D01*
X224169706Y-23115739D01*
X224160410Y-23103724D01*
X224130811Y-23082999D01*
X224121323Y-23077521D01*
X223939723Y-22992841D01*
X223929429Y-22989093D01*
X223735878Y-22937231D01*
X223725091Y-22935329D01*
X223525475Y-22917865D01*
X223514525Y-22917865D01*
X223314909Y-22935329D01*
X223304122Y-22937231D01*
X223110571Y-22989093D01*
X223100277Y-22992841D01*
X222918677Y-23077521D01*
X222909189Y-23082999D01*
X222878752Y-23104311D01*
X222870377Y-23114788D01*
X216557082Y-23114788D01*
X216506558Y-23079411D01*
X216501580Y-23077090D01*
X216501577Y-23077088D01*
X216319892Y-22992367D01*
X216319891Y-22992366D01*
X216314910Y-22990044D01*
X216309602Y-22988622D01*
X216309600Y-22988621D01*
X216115970Y-22936738D01*
X216115968Y-22936738D01*
X216110655Y-22935314D01*
X215900000Y-22916884D01*
X215689345Y-22935314D01*
X215684032Y-22936738D01*
X215684030Y-22936738D01*
X215490400Y-22988621D01*
X215490398Y-22988622D01*
X215485090Y-22990044D01*
X215480109Y-22992366D01*
X215480108Y-22992367D01*
X215298423Y-23077088D01*
X215298420Y-23077090D01*
X215293442Y-23079411D01*
X215120224Y-23200699D01*
X214970699Y-23350224D01*
X214849411Y-23523442D01*
X214847090Y-23528420D01*
X214847088Y-23528423D01*
X214769351Y-23695131D01*
X214760044Y-23715090D01*
X214758622Y-23720398D01*
X214758621Y-23720400D01*
X214720599Y-23862301D01*
X214705314Y-23919345D01*
X214686884Y-24130000D01*
X207783345Y-24130000D01*
X207947327Y-24023915D01*
X207955498Y-24017622D01*
X208125480Y-23862950D01*
X208132506Y-23855417D01*
X208274945Y-23675056D01*
X208280650Y-23666469D01*
X208391714Y-23465278D01*
X208395944Y-23455866D01*
X208472659Y-23239232D01*
X208475293Y-23229261D01*
X208492647Y-23131837D01*
X208491187Y-23118540D01*
X208476630Y-23114000D01*
X207282115Y-23114000D01*
X207266876Y-23118475D01*
X207265671Y-23119865D01*
X207264000Y-23127548D01*
X207264000Y-24290412D01*
X206755853Y-24290412D01*
X206756000Y-24289876D01*
X206756000Y-23132115D01*
X206751525Y-23116876D01*
X206750135Y-23115671D01*
X206742452Y-23114000D01*
X205541904Y-23114000D01*
X205528560Y-23117918D01*
X205526573Y-23132194D01*
X199677632Y-23132194D01*
X199702584Y-23093402D01*
X199725669Y-23057512D01*
X199829967Y-22825980D01*
X199898896Y-22581575D01*
X199916382Y-22444126D01*
X199930545Y-22332798D01*
X199930545Y-22332792D01*
X199930943Y-22329667D01*
X199933291Y-22240000D01*
X199914472Y-21986759D01*
X199892838Y-21891148D01*
X199859459Y-21743639D01*
X199858428Y-21739082D01*
X199856735Y-21734728D01*
X199768084Y-21506762D01*
X199768083Y-21506760D01*
X199766391Y-21502409D01*
X199743417Y-21462212D01*
X199642702Y-21285997D01*
X199642700Y-21285995D01*
X199640383Y-21281940D01*
X199483171Y-21082517D01*
X199316229Y-20925474D01*
X199301610Y-20911722D01*
X199301608Y-20911720D01*
X199298209Y-20908523D01*
X199262675Y-20883872D01*
X199093393Y-20766437D01*
X199093390Y-20766435D01*
X199089561Y-20763779D01*
X199085384Y-20761719D01*
X199085377Y-20761715D01*
X198865996Y-20653528D01*
X198865992Y-20653527D01*
X198861810Y-20651464D01*
X198735901Y-20611160D01*
X198677121Y-20571342D01*
X198649199Y-20506067D01*
X198661000Y-20436058D01*
X198673551Y-20422263D01*
X205500064Y-20422263D01*
X205536404Y-20659744D01*
X205562493Y-20739565D01*
X205609434Y-20883183D01*
X205609437Y-20883189D01*
X205611042Y-20888101D01*
X205613429Y-20892687D01*
X205613431Y-20892691D01*
X205659536Y-20981257D01*
X205721975Y-21101200D01*
X205725085Y-21105342D01*
X205860725Y-21285997D01*
X205866223Y-21293320D01*
X205869961Y-21296892D01*
X205973879Y-21396198D01*
X206039912Y-21459301D01*
X206077351Y-21484840D01*
X206122352Y-21539751D01*
X206130523Y-21610275D01*
X206099269Y-21674022D01*
X206074790Y-21694716D01*
X206072674Y-21696085D01*
X206064502Y-21702378D01*
X205894520Y-21857050D01*
X205887494Y-21864583D01*
X205745055Y-22044944D01*
X205739350Y-22053531D01*
X205628286Y-22254722D01*
X205624056Y-22264134D01*
X205547341Y-22480768D01*
X205544707Y-22490739D01*
X205527353Y-22588163D01*
X205528813Y-22601460D01*
X205543370Y-22606000D01*
X208478096Y-22606000D01*
X208491440Y-22602082D01*
X208493427Y-22587806D01*
X208483890Y-22525485D01*
X208481501Y-22515457D01*
X208410102Y-22297012D01*
X208406105Y-22287503D01*
X208299989Y-22083656D01*
X208294495Y-22074931D01*
X208156507Y-21891148D01*
X208149664Y-21883441D01*
X207983509Y-21724661D01*
X207975502Y-21718177D01*
X207942644Y-21695763D01*
X207897641Y-21640852D01*
X207889468Y-21570328D01*
X207920722Y-21506580D01*
X207945204Y-21485884D01*
X207947635Y-21484311D01*
X207951977Y-21481502D01*
X208129670Y-21319814D01*
X208249410Y-21168197D01*
X208275367Y-21135330D01*
X208275370Y-21135325D01*
X208278568Y-21131276D01*
X208292885Y-21105342D01*
X208392177Y-20925474D01*
X208392179Y-20925470D01*
X208394674Y-20920950D01*
X208400017Y-20905864D01*
X208473144Y-20699360D01*
X208473145Y-20699356D01*
X208474870Y-20694485D01*
X208480183Y-20664659D01*
X208516095Y-20463052D01*
X208516096Y-20463046D01*
X208517001Y-20457963D01*
X208518687Y-20320000D01*
X208519873Y-20222907D01*
X208519873Y-20222905D01*
X208519936Y-20217737D01*
X208483596Y-19980256D01*
X208433287Y-19826334D01*
X208410566Y-19756817D01*
X208410563Y-19756811D01*
X208408958Y-19751899D01*
X208401978Y-19738489D01*
X208300416Y-19543393D01*
X208298025Y-19538800D01*
X208181585Y-19383717D01*
X208156680Y-19317235D01*
X208171672Y-19247839D01*
X208221802Y-19197565D01*
X208238115Y-19190085D01*
X208248293Y-19186269D01*
X208248296Y-19186267D01*
X208256705Y-19183115D01*
X208373261Y-19095761D01*
X208460615Y-18979205D01*
X208511745Y-18842816D01*
X208518500Y-18780634D01*
X208518500Y-16779366D01*
X208511745Y-16717184D01*
X208460615Y-16580795D01*
X208407557Y-16510000D01*
X214686884Y-16510000D01*
X214705314Y-16720655D01*
X214708701Y-16733295D01*
X214751581Y-16893324D01*
X214760044Y-16924910D01*
X214762366Y-16929891D01*
X214762367Y-16929892D01*
X214837928Y-17091932D01*
X214849411Y-17116558D01*
X214970699Y-17289776D01*
X215120224Y-17439301D01*
X215293442Y-17560589D01*
X215298420Y-17562910D01*
X215298423Y-17562912D01*
X215480108Y-17647633D01*
X215485090Y-17649956D01*
X215490398Y-17651378D01*
X215490400Y-17651379D01*
X215684030Y-17703262D01*
X215684032Y-17703262D01*
X215689345Y-17704686D01*
X215900000Y-17723116D01*
X216110655Y-17704686D01*
X216115968Y-17703262D01*
X216115970Y-17703262D01*
X216309600Y-17651379D01*
X216309602Y-17651378D01*
X216314910Y-17649956D01*
X216319892Y-17647633D01*
X216501577Y-17562912D01*
X216501580Y-17562910D01*
X216506558Y-17560589D01*
X216679776Y-17439301D01*
X216829301Y-17289776D01*
X216950589Y-17116558D01*
X216962073Y-17091932D01*
X217037633Y-16929892D01*
X217037634Y-16929891D01*
X217039956Y-16924910D01*
X217048420Y-16893324D01*
X217091299Y-16733295D01*
X217094686Y-16720655D01*
X217113116Y-16510000D01*
X222306884Y-16510000D01*
X222325314Y-16720655D01*
X222328701Y-16733295D01*
X222371581Y-16893324D01*
X222380044Y-16924910D01*
X222382366Y-16929891D01*
X222382367Y-16929892D01*
X222457928Y-17091932D01*
X222469411Y-17116558D01*
X222590699Y-17289776D01*
X222740224Y-17439301D01*
X222913442Y-17560589D01*
X222918420Y-17562910D01*
X222918423Y-17562912D01*
X223100108Y-17647633D01*
X223105090Y-17649956D01*
X223110398Y-17651378D01*
X223110400Y-17651379D01*
X223304030Y-17703262D01*
X223304032Y-17703262D01*
X223309345Y-17704686D01*
X223520000Y-17723116D01*
X223730655Y-17704686D01*
X223735968Y-17703262D01*
X223735970Y-17703262D01*
X223929600Y-17651379D01*
X223929602Y-17651378D01*
X223934910Y-17649956D01*
X223939892Y-17647633D01*
X224121577Y-17562912D01*
X224121580Y-17562910D01*
X224126558Y-17560589D01*
X224299776Y-17439301D01*
X224449301Y-17289776D01*
X224570589Y-17116558D01*
X224582073Y-17091932D01*
X224657633Y-16929892D01*
X224657634Y-16929891D01*
X224659956Y-16924910D01*
X224668420Y-16893324D01*
X224711299Y-16733295D01*
X224714686Y-16720655D01*
X224733116Y-16510000D01*
X224714686Y-16299345D01*
X224659956Y-16095090D01*
X224570589Y-15903442D01*
X224449301Y-15730224D01*
X224299776Y-15580699D01*
X224126558Y-15459411D01*
X224121580Y-15457090D01*
X224121577Y-15457088D01*
X223939892Y-15372367D01*
X223939891Y-15372366D01*
X223934910Y-15370044D01*
X223929602Y-15368622D01*
X223929600Y-15368621D01*
X223735970Y-15316738D01*
X223735968Y-15316738D01*
X223730655Y-15315314D01*
X223520000Y-15296884D01*
X223309345Y-15315314D01*
X223304032Y-15316738D01*
X223304030Y-15316738D01*
X223110400Y-15368621D01*
X223110398Y-15368622D01*
X223105090Y-15370044D01*
X223100109Y-15372366D01*
X223100108Y-15372367D01*
X222918423Y-15457088D01*
X222918420Y-15457090D01*
X222913442Y-15459411D01*
X222740224Y-15580699D01*
X222590699Y-15730224D01*
X222469411Y-15903442D01*
X222380044Y-16095090D01*
X222325314Y-16299345D01*
X222306884Y-16510000D01*
X217113116Y-16510000D01*
X217094686Y-16299345D01*
X217039956Y-16095090D01*
X216950589Y-15903442D01*
X216829301Y-15730224D01*
X216679776Y-15580699D01*
X216506558Y-15459411D01*
X216501580Y-15457090D01*
X216501577Y-15457088D01*
X216319892Y-15372367D01*
X216319891Y-15372366D01*
X216314910Y-15370044D01*
X216309602Y-15368622D01*
X216309600Y-15368621D01*
X216115970Y-15316738D01*
X216115968Y-15316738D01*
X216110655Y-15315314D01*
X215900000Y-15296884D01*
X215689345Y-15315314D01*
X215684032Y-15316738D01*
X215684030Y-15316738D01*
X215490400Y-15368621D01*
X215490398Y-15368622D01*
X215485090Y-15370044D01*
X215480109Y-15372366D01*
X215480108Y-15372367D01*
X215298423Y-15457088D01*
X215298420Y-15457090D01*
X215293442Y-15459411D01*
X215120224Y-15580699D01*
X214970699Y-15730224D01*
X214849411Y-15903442D01*
X214760044Y-16095090D01*
X214705314Y-16299345D01*
X214686884Y-16510000D01*
X208407557Y-16510000D01*
X208373261Y-16464239D01*
X208256705Y-16376885D01*
X208120316Y-16325755D01*
X208058134Y-16319000D01*
X205961866Y-16319000D01*
X205899684Y-16325755D01*
X205763295Y-16376885D01*
X205646739Y-16464239D01*
X205559385Y-16580795D01*
X205508255Y-16717184D01*
X205501500Y-16779366D01*
X205501500Y-18780634D01*
X205508255Y-18842816D01*
X205559385Y-18979205D01*
X205646739Y-19095761D01*
X205763295Y-19183115D01*
X205783189Y-19190573D01*
X205839953Y-19233213D01*
X205864654Y-19299774D01*
X205849447Y-19369123D01*
X205837842Y-19386647D01*
X205744633Y-19504670D01*
X205744630Y-19504675D01*
X205741432Y-19508724D01*
X205738939Y-19513240D01*
X205738937Y-19513243D01*
X205627823Y-19714526D01*
X205625326Y-19719050D01*
X205623602Y-19723919D01*
X205623600Y-19723923D01*
X205572825Y-19867306D01*
X205545130Y-19945515D01*
X205544223Y-19950608D01*
X205544222Y-19950611D01*
X205506584Y-20161913D01*
X205502999Y-20182037D01*
X205502866Y-20192953D01*
X205500388Y-20395784D01*
X205500064Y-20422263D01*
X198673551Y-20422263D01*
X198708778Y-20383543D01*
X198742234Y-20369310D01*
X198743929Y-20368864D01*
X198777793Y-20359948D01*
X198896353Y-20309011D01*
X199006807Y-20261557D01*
X199006810Y-20261555D01*
X199011110Y-20259708D01*
X199015090Y-20257245D01*
X199015094Y-20257243D01*
X199223064Y-20128547D01*
X199223066Y-20128545D01*
X199227047Y-20126082D01*
X199325428Y-20042797D01*
X199417289Y-19965031D01*
X199417291Y-19965029D01*
X199420862Y-19962006D01*
X199588295Y-19771084D01*
X199600636Y-19751899D01*
X199723141Y-19561442D01*
X199725669Y-19557512D01*
X199829967Y-19325980D01*
X199832303Y-19317699D01*
X199849684Y-19256069D01*
X199898896Y-19081575D01*
X199917405Y-18936081D01*
X199930545Y-18832798D01*
X199930545Y-18832792D01*
X199930943Y-18829667D01*
X199933291Y-18740000D01*
X199929015Y-18682460D01*
X199914818Y-18491411D01*
X199914817Y-18491407D01*
X199914472Y-18486759D01*
X199902028Y-18431762D01*
X199859459Y-18243639D01*
X199858428Y-18239082D01*
X199856539Y-18234225D01*
X199768084Y-18006762D01*
X199768083Y-18006760D01*
X199766391Y-18002409D01*
X199745866Y-17966498D01*
X199642702Y-17785997D01*
X199642700Y-17785995D01*
X199640383Y-17781940D01*
X199483171Y-17582517D01*
X199399625Y-17503925D01*
X199301610Y-17411722D01*
X199301608Y-17411720D01*
X199298209Y-17408523D01*
X199178928Y-17325775D01*
X199093393Y-17266437D01*
X199093390Y-17266435D01*
X199089561Y-17263779D01*
X199044429Y-17241522D01*
X198934896Y-17187506D01*
X198882647Y-17139437D01*
X198864681Y-17070752D01*
X198886700Y-17003256D01*
X198941716Y-16958380D01*
X198990625Y-16948500D01*
X199468134Y-16948500D01*
X199530316Y-16941745D01*
X199666705Y-16890615D01*
X199783261Y-16803261D01*
X199870615Y-16686705D01*
X199921745Y-16550316D01*
X199928500Y-16488134D01*
X199928500Y-13991866D01*
X199921745Y-13929684D01*
X199870615Y-13793295D01*
X199783261Y-13676739D01*
X199666705Y-13589385D01*
X199530316Y-13538255D01*
X199468134Y-13531500D01*
X196971866Y-13531500D01*
X196909684Y-13538255D01*
X196773295Y-13589385D01*
X196656739Y-13676739D01*
X196569385Y-13793295D01*
X196518255Y-13929684D01*
X196511500Y-13991866D01*
X196511500Y-16488134D01*
X196518255Y-16550316D01*
X196569385Y-16686705D01*
X196656739Y-16803261D01*
X196773295Y-16890615D01*
X196909684Y-16941745D01*
X196971866Y-16948500D01*
X197450719Y-16948500D01*
X197518840Y-16968502D01*
X197565333Y-17022158D01*
X197575437Y-17092432D01*
X197545943Y-17157012D01*
X197503471Y-17188926D01*
X197389380Y-17241522D01*
X197385471Y-17244085D01*
X197180928Y-17378189D01*
X197180923Y-17378193D01*
X197177015Y-17380755D01*
X196987562Y-17549848D01*
X196825183Y-17745087D01*
X196693447Y-17962182D01*
X196691638Y-17966496D01*
X196691637Y-17966498D01*
X196613841Y-18152022D01*
X196595246Y-18196365D01*
X196594095Y-18200897D01*
X196594094Y-18200900D01*
X196586896Y-18229243D01*
X196532738Y-18442490D01*
X196507296Y-18695151D01*
X196519480Y-18948798D01*
X196543912Y-19071625D01*
X196566590Y-19185634D01*
X196569021Y-19197857D01*
X196570600Y-19202255D01*
X196570602Y-19202262D01*
X196615022Y-19325980D01*
X196654831Y-19436858D01*
X196657048Y-19440984D01*
X196707381Y-19534658D01*
X196775025Y-19660551D01*
X196777820Y-19664294D01*
X196777822Y-19664297D01*
X196924171Y-19860282D01*
X196924176Y-19860288D01*
X196926963Y-19864020D01*
X196930272Y-19867300D01*
X196930277Y-19867306D01*
X197103990Y-20039509D01*
X197107307Y-20042797D01*
X197111069Y-20045555D01*
X197111072Y-20045558D01*
X197290266Y-20176948D01*
X197312094Y-20192953D01*
X197316229Y-20195129D01*
X197316233Y-20195131D01*
X197369027Y-20222907D01*
X197536827Y-20311191D01*
X197708781Y-20371240D01*
X197766497Y-20412581D01*
X197792701Y-20478565D01*
X197779072Y-20548241D01*
X197729936Y-20599487D01*
X197702497Y-20611160D01*
X197619993Y-20635208D01*
X197389380Y-20741522D01*
X197385471Y-20744085D01*
X197180928Y-20878189D01*
X197180923Y-20878193D01*
X197177015Y-20880755D01*
X197137440Y-20916077D01*
X196996622Y-21041762D01*
X196987562Y-21049848D01*
X196825183Y-21245087D01*
X196693447Y-21462182D01*
X196691638Y-21466496D01*
X196691637Y-21466498D01*
X196600422Y-21684022D01*
X196595246Y-21696365D01*
X196594095Y-21700897D01*
X196594094Y-21700900D01*
X196577479Y-21766322D01*
X196532738Y-21942490D01*
X196507296Y-22195151D01*
X196507520Y-22199817D01*
X196507520Y-22199822D01*
X196511732Y-22287503D01*
X196519480Y-22448798D01*
X196569021Y-22697857D01*
X196570600Y-22702255D01*
X196570602Y-22702262D01*
X196615022Y-22825980D01*
X196654831Y-22936858D01*
X196657048Y-22940984D01*
X196771031Y-23153117D01*
X196775025Y-23160551D01*
X196777820Y-23164294D01*
X196777822Y-23164297D01*
X196924171Y-23360282D01*
X196924176Y-23360288D01*
X196926963Y-23364020D01*
X196930272Y-23367300D01*
X196930277Y-23367306D01*
X197083238Y-23518937D01*
X197107307Y-23542797D01*
X197111069Y-23545555D01*
X197111072Y-23545558D01*
X197308323Y-23690188D01*
X197312094Y-23692953D01*
X197316229Y-23695129D01*
X197316233Y-23695131D01*
X197364262Y-23720400D01*
X197536827Y-23811191D01*
X197708781Y-23871240D01*
X197766497Y-23912581D01*
X197792701Y-23978565D01*
X197779072Y-24048241D01*
X197729936Y-24099487D01*
X197702497Y-24111160D01*
X197619993Y-24135208D01*
X197615740Y-24137168D01*
X197615739Y-24137169D01*
X197590620Y-24148749D01*
X197389380Y-24241522D01*
X197385471Y-24244085D01*
X197180928Y-24378189D01*
X197180923Y-24378193D01*
X197177015Y-24380755D01*
X197142289Y-24411749D01*
X196993095Y-24544910D01*
X196987562Y-24549848D01*
X196825183Y-24745087D01*
X196693447Y-24962182D01*
X196691638Y-24966496D01*
X196691637Y-24966498D01*
X196601069Y-25182479D01*
X196595246Y-25196365D01*
X196594095Y-25200897D01*
X196594094Y-25200900D01*
X196577146Y-25267633D01*
X196532738Y-25442490D01*
X196507296Y-25695151D01*
X193548000Y-25695151D01*
X193548000Y-10432194D01*
X205526573Y-10432194D01*
X205536110Y-10494515D01*
X205538499Y-10504543D01*
X205609898Y-10722988D01*
X205613895Y-10732497D01*
X205720011Y-10936344D01*
X205725505Y-10945069D01*
X205863493Y-11128852D01*
X205870336Y-11136559D01*
X206036491Y-11295339D01*
X206044501Y-11301826D01*
X206234347Y-11431330D01*
X206243321Y-11436429D01*
X206451769Y-11533187D01*
X206461456Y-11536750D01*
X206682908Y-11598165D01*
X206693030Y-11600096D01*
X206737987Y-11604901D01*
X206752608Y-11602253D01*
X206755853Y-11590412D01*
X207264000Y-11590412D01*
X207268325Y-11605141D01*
X207280111Y-11607202D01*
X207291704Y-11606249D01*
X207301866Y-11604567D01*
X207524771Y-11548578D01*
X207534519Y-11545259D01*
X207745289Y-11453615D01*
X207754364Y-11448749D01*
X207783345Y-11430000D01*
X214686884Y-11430000D01*
X214705314Y-11640655D01*
X214706738Y-11645968D01*
X214706738Y-11645970D01*
X214740991Y-11773802D01*
X214760044Y-11844910D01*
X214762366Y-11849891D01*
X214762367Y-11849892D01*
X214804484Y-11940211D01*
X214849411Y-12036558D01*
X214970699Y-12209776D01*
X215120224Y-12359301D01*
X215293442Y-12480589D01*
X215298420Y-12482910D01*
X215298423Y-12482912D01*
X215479092Y-12567159D01*
X215485090Y-12569956D01*
X215490398Y-12571378D01*
X215490400Y-12571379D01*
X215684030Y-12623262D01*
X215684032Y-12623262D01*
X215689345Y-12624686D01*
X215900000Y-12643116D01*
X216110655Y-12624686D01*
X216115968Y-12623262D01*
X216115970Y-12623262D01*
X216309600Y-12571379D01*
X216309602Y-12571378D01*
X216314910Y-12569956D01*
X216320908Y-12567159D01*
X216501577Y-12482912D01*
X216501580Y-12482910D01*
X216506558Y-12480589D01*
X216558440Y-12444261D01*
X222870294Y-12444261D01*
X222879590Y-12456276D01*
X222909189Y-12477001D01*
X222918677Y-12482479D01*
X223100277Y-12567159D01*
X223110571Y-12570907D01*
X223304122Y-12622769D01*
X223314909Y-12624671D01*
X223514525Y-12642135D01*
X223525475Y-12642135D01*
X223725091Y-12624671D01*
X223735878Y-12622769D01*
X223929429Y-12570907D01*
X223939723Y-12567159D01*
X224121323Y-12482479D01*
X224130811Y-12477001D01*
X224161248Y-12455689D01*
X224169623Y-12445212D01*
X224162554Y-12431764D01*
X223532812Y-11802022D01*
X223518868Y-11794408D01*
X223517035Y-11794539D01*
X223510420Y-11798790D01*
X222876724Y-12432486D01*
X222870294Y-12444261D01*
X216558440Y-12444261D01*
X216679776Y-12359301D01*
X216829301Y-12209776D01*
X216950589Y-12036558D01*
X216995517Y-11940211D01*
X217037633Y-11849892D01*
X217037634Y-11849891D01*
X217039956Y-11844910D01*
X217059010Y-11773802D01*
X217093262Y-11645970D01*
X217093262Y-11645968D01*
X217094686Y-11640655D01*
X217112637Y-11435475D01*
X222307865Y-11435475D01*
X222325329Y-11635091D01*
X222327231Y-11645878D01*
X222379093Y-11839429D01*
X222382841Y-11849723D01*
X222467521Y-12031323D01*
X222472999Y-12040811D01*
X222494311Y-12071248D01*
X222504788Y-12079623D01*
X222518236Y-12072554D01*
X223147978Y-11442812D01*
X223154356Y-11431132D01*
X223884408Y-11431132D01*
X223884539Y-11432965D01*
X223888790Y-11439580D01*
X224522486Y-12073276D01*
X224534261Y-12079706D01*
X224546276Y-12070410D01*
X224567001Y-12040811D01*
X224572479Y-12031323D01*
X224657159Y-11849723D01*
X224660907Y-11839429D01*
X224712769Y-11645878D01*
X224714671Y-11635091D01*
X224732135Y-11435475D01*
X224732135Y-11430000D01*
X227330000Y-11430000D01*
X227462765Y-11430000D01*
X227530886Y-11450002D01*
X227577379Y-11503658D01*
X227587483Y-11573932D01*
X227585752Y-11583024D01*
X227583255Y-11589684D01*
X227582402Y-11597534D01*
X227582402Y-11597535D01*
X227581726Y-11603756D01*
X227576500Y-11651866D01*
X227576500Y-13748134D01*
X227583255Y-13810316D01*
X227634385Y-13946705D01*
X227721739Y-14063261D01*
X227838295Y-14150615D01*
X227846704Y-14153767D01*
X227846707Y-14153769D01*
X227862768Y-14159790D01*
X227919533Y-14202431D01*
X227944234Y-14268992D01*
X227929027Y-14338341D01*
X227907635Y-14366867D01*
X227878802Y-14395700D01*
X227875645Y-14400208D01*
X227875643Y-14400211D01*
X227823235Y-14475057D01*
X227747477Y-14583251D01*
X227745154Y-14588233D01*
X227745151Y-14588238D01*
X227659104Y-14772768D01*
X227650716Y-14790757D01*
X227649294Y-14796065D01*
X227649293Y-14796067D01*
X227599972Y-14980135D01*
X227591457Y-15011913D01*
X227571502Y-15240000D01*
X227591457Y-15468087D01*
X227592881Y-15473400D01*
X227592881Y-15473402D01*
X227621632Y-15580699D01*
X227650716Y-15689243D01*
X227653039Y-15694224D01*
X227653039Y-15694225D01*
X227745151Y-15891762D01*
X227745154Y-15891767D01*
X227747477Y-15896749D01*
X227878802Y-16084300D01*
X228040700Y-16246198D01*
X228045208Y-16249355D01*
X228045211Y-16249357D01*
X228109011Y-16294030D01*
X228228251Y-16377523D01*
X228233233Y-16379846D01*
X228233238Y-16379849D01*
X228267457Y-16395805D01*
X228320742Y-16442722D01*
X228340203Y-16510999D01*
X228319661Y-16578959D01*
X228267457Y-16624195D01*
X228233238Y-16640151D01*
X228233233Y-16640154D01*
X228228251Y-16642477D01*
X228124428Y-16715175D01*
X228045211Y-16770643D01*
X228045208Y-16770645D01*
X228040700Y-16773802D01*
X227878802Y-16935700D01*
X227875645Y-16940208D01*
X227875643Y-16940211D01*
X227869839Y-16948500D01*
X227747477Y-17123251D01*
X227745154Y-17128233D01*
X227745151Y-17128238D01*
X227668009Y-17293671D01*
X227650716Y-17330757D01*
X227649294Y-17336065D01*
X227649293Y-17336067D01*
X227620785Y-17442460D01*
X227591457Y-17551913D01*
X227571502Y-17780000D01*
X227591457Y-18008087D01*
X227592881Y-18013400D01*
X227592881Y-18013402D01*
X227630025Y-18152022D01*
X227650716Y-18229243D01*
X227653039Y-18234224D01*
X227653039Y-18234225D01*
X227745151Y-18431762D01*
X227745154Y-18431767D01*
X227747477Y-18436749D01*
X227878802Y-18624300D01*
X228040700Y-18786198D01*
X228045208Y-18789355D01*
X228045211Y-18789357D01*
X228108812Y-18833891D01*
X228228251Y-18917523D01*
X228233233Y-18919846D01*
X228233238Y-18919849D01*
X228267457Y-18935805D01*
X228320742Y-18982722D01*
X228340203Y-19050999D01*
X228319661Y-19118959D01*
X228267457Y-19164195D01*
X228233238Y-19180151D01*
X228233233Y-19180154D01*
X228228251Y-19182477D01*
X228155793Y-19233213D01*
X228045211Y-19310643D01*
X228045208Y-19310645D01*
X228040700Y-19313802D01*
X227878802Y-19475700D01*
X227747477Y-19663251D01*
X227745154Y-19668233D01*
X227745151Y-19668238D01*
X227653857Y-19864020D01*
X227650716Y-19870757D01*
X227649294Y-19876065D01*
X227649293Y-19876067D01*
X227605499Y-20039509D01*
X227591457Y-20091913D01*
X227571502Y-20320000D01*
X227591457Y-20548087D01*
X227592881Y-20553400D01*
X227592881Y-20553402D01*
X227633757Y-20705950D01*
X227650716Y-20769243D01*
X227653039Y-20774224D01*
X227653039Y-20774225D01*
X227745151Y-20971762D01*
X227745154Y-20971767D01*
X227747477Y-20976749D01*
X227878802Y-21164300D01*
X228040700Y-21326198D01*
X228045208Y-21329355D01*
X228045211Y-21329357D01*
X228123389Y-21384098D01*
X228228251Y-21457523D01*
X228233233Y-21459846D01*
X228233238Y-21459849D01*
X228267457Y-21475805D01*
X228320742Y-21522722D01*
X228340203Y-21590999D01*
X228319661Y-21658959D01*
X228267457Y-21704195D01*
X228233238Y-21720151D01*
X228233233Y-21720154D01*
X228228251Y-21722477D01*
X228210755Y-21734728D01*
X228045211Y-21850643D01*
X228045208Y-21850645D01*
X228040700Y-21853802D01*
X227878802Y-22015700D01*
X227875645Y-22020208D01*
X227875643Y-22020211D01*
X227820902Y-22098389D01*
X227747477Y-22203251D01*
X227745154Y-22208233D01*
X227745151Y-22208238D01*
X227653039Y-22405775D01*
X227650716Y-22410757D01*
X227649294Y-22416065D01*
X227649293Y-22416067D01*
X227603180Y-22588163D01*
X227591457Y-22631913D01*
X227571502Y-22860000D01*
X227591457Y-23088087D01*
X227592881Y-23093400D01*
X227592881Y-23093402D01*
X227641433Y-23274597D01*
X227650716Y-23309243D01*
X227653039Y-23314224D01*
X227653039Y-23314225D01*
X227745151Y-23511762D01*
X227745154Y-23511767D01*
X227747477Y-23516749D01*
X227768567Y-23546868D01*
X227872382Y-23695131D01*
X227878802Y-23704300D01*
X228040700Y-23866198D01*
X228045208Y-23869355D01*
X228045211Y-23869357D01*
X228109011Y-23914030D01*
X228228251Y-23997523D01*
X228233233Y-23999846D01*
X228233238Y-23999849D01*
X228267457Y-24015805D01*
X228320742Y-24062722D01*
X228340203Y-24130999D01*
X228319661Y-24198959D01*
X228267457Y-24244195D01*
X228233238Y-24260151D01*
X228233233Y-24260154D01*
X228228251Y-24262477D01*
X228124548Y-24335091D01*
X228045211Y-24390643D01*
X228045208Y-24390645D01*
X228040700Y-24393802D01*
X227878802Y-24555700D01*
X227875645Y-24560208D01*
X227875643Y-24560211D01*
X227826451Y-24630465D01*
X227747477Y-24743251D01*
X227745154Y-24748233D01*
X227745151Y-24748238D01*
X227656703Y-24937917D01*
X227650716Y-24950757D01*
X227649294Y-24956065D01*
X227649293Y-24956067D01*
X227595804Y-25155689D01*
X227591457Y-25171913D01*
X227571502Y-25400000D01*
X227591457Y-25628087D01*
X227592881Y-25633400D01*
X227592881Y-25633402D01*
X227646310Y-25832798D01*
X227650716Y-25849243D01*
X227653039Y-25854224D01*
X227653039Y-25854225D01*
X227745151Y-26051762D01*
X227745154Y-26051767D01*
X227747477Y-26056749D01*
X227768010Y-26086073D01*
X227849367Y-26202262D01*
X227878802Y-26244300D01*
X228040700Y-26406198D01*
X228045208Y-26409355D01*
X228045211Y-26409357D01*
X228078190Y-26432449D01*
X228228251Y-26537523D01*
X228233233Y-26539846D01*
X228233238Y-26539849D01*
X228267457Y-26555805D01*
X228320742Y-26602722D01*
X228340203Y-26670999D01*
X228319661Y-26738959D01*
X228267457Y-26784195D01*
X228233238Y-26800151D01*
X228233233Y-26800154D01*
X228228251Y-26802477D01*
X228145697Y-26860282D01*
X228045211Y-26930643D01*
X228045208Y-26930645D01*
X228040700Y-26933802D01*
X227878802Y-27095700D01*
X227875645Y-27100208D01*
X227875643Y-27100211D01*
X227832516Y-27161803D01*
X227747477Y-27283251D01*
X227745154Y-27288233D01*
X227745151Y-27288238D01*
X227654865Y-27481859D01*
X227650716Y-27490757D01*
X227649294Y-27496065D01*
X227649293Y-27496067D01*
X227616519Y-27618380D01*
X227591457Y-27711913D01*
X227571502Y-27940000D01*
X227591457Y-28168087D01*
X227592881Y-28173400D01*
X227592881Y-28173402D01*
X227633757Y-28325950D01*
X227650716Y-28389243D01*
X227653039Y-28394224D01*
X227653039Y-28394225D01*
X227745151Y-28591762D01*
X227745154Y-28591767D01*
X227747477Y-28596749D01*
X227878802Y-28784300D01*
X228040700Y-28946198D01*
X228045208Y-28949355D01*
X228045211Y-28949357D01*
X228109011Y-28994030D01*
X228228251Y-29077523D01*
X228233233Y-29079846D01*
X228233238Y-29079849D01*
X228267457Y-29095805D01*
X228320742Y-29142722D01*
X228340203Y-29210999D01*
X228319661Y-29278959D01*
X228267457Y-29324195D01*
X228233238Y-29340151D01*
X228233233Y-29340154D01*
X228228251Y-29342477D01*
X228124428Y-29415175D01*
X228045211Y-29470643D01*
X228045208Y-29470645D01*
X228040700Y-29473802D01*
X227878802Y-29635700D01*
X227875645Y-29640208D01*
X227875643Y-29640211D01*
X227826451Y-29710465D01*
X227747477Y-29823251D01*
X227745154Y-29828233D01*
X227745151Y-29828238D01*
X227668106Y-29993463D01*
X227650716Y-30030757D01*
X227649294Y-30036065D01*
X227649293Y-30036067D01*
X227620785Y-30142460D01*
X227591457Y-30251913D01*
X227571502Y-30480000D01*
X227591457Y-30708087D01*
X227650716Y-30929243D01*
X227653039Y-30934224D01*
X227653039Y-30934225D01*
X227745151Y-31131762D01*
X227745154Y-31131767D01*
X227747477Y-31136749D01*
X227878802Y-31324300D01*
X228040700Y-31486198D01*
X228045208Y-31489355D01*
X228045211Y-31489357D01*
X228110339Y-31534960D01*
X228228251Y-31617523D01*
X228233233Y-31619846D01*
X228233238Y-31619849D01*
X228430775Y-31711961D01*
X228435757Y-31714284D01*
X228441065Y-31715706D01*
X228441067Y-31715707D01*
X228651598Y-31772119D01*
X228651600Y-31772119D01*
X228656913Y-31773543D01*
X228756480Y-31782254D01*
X228825149Y-31788262D01*
X228825156Y-31788262D01*
X228827873Y-31788500D01*
X229342127Y-31788500D01*
X229344844Y-31788262D01*
X229344851Y-31788262D01*
X229413520Y-31782254D01*
X229513087Y-31773543D01*
X229518400Y-31772119D01*
X229518402Y-31772119D01*
X229728933Y-31715707D01*
X229728935Y-31715706D01*
X229734243Y-31714284D01*
X229739225Y-31711961D01*
X229936762Y-31619849D01*
X229936767Y-31619846D01*
X229941749Y-31617523D01*
X230059661Y-31534960D01*
X230124789Y-31489357D01*
X230124792Y-31489355D01*
X230129300Y-31486198D01*
X230291198Y-31324300D01*
X230422523Y-31136749D01*
X230424846Y-31131767D01*
X230424849Y-31131762D01*
X230516961Y-30934225D01*
X230516961Y-30934224D01*
X230519284Y-30929243D01*
X230578543Y-30708087D01*
X230598498Y-30480000D01*
X250431502Y-30480000D01*
X250451457Y-30708087D01*
X250510716Y-30929243D01*
X250513039Y-30934224D01*
X250513039Y-30934225D01*
X250605151Y-31131762D01*
X250605154Y-31131767D01*
X250607477Y-31136749D01*
X250738802Y-31324300D01*
X250900700Y-31486198D01*
X250905208Y-31489355D01*
X250905211Y-31489357D01*
X250970339Y-31534960D01*
X251088251Y-31617523D01*
X251093233Y-31619846D01*
X251093238Y-31619849D01*
X251290775Y-31711961D01*
X251295757Y-31714284D01*
X251301065Y-31715706D01*
X251301067Y-31715707D01*
X251511598Y-31772119D01*
X251511600Y-31772119D01*
X251516913Y-31773543D01*
X251616480Y-31782254D01*
X251685149Y-31788262D01*
X251685156Y-31788262D01*
X251687873Y-31788500D01*
X252202127Y-31788500D01*
X252204844Y-31788262D01*
X252204851Y-31788262D01*
X252273520Y-31782254D01*
X252373087Y-31773543D01*
X252378400Y-31772119D01*
X252378402Y-31772119D01*
X252588933Y-31715707D01*
X252588935Y-31715706D01*
X252594243Y-31714284D01*
X252599225Y-31711961D01*
X252796762Y-31619849D01*
X252796767Y-31619846D01*
X252801749Y-31617523D01*
X252919661Y-31534960D01*
X252984789Y-31489357D01*
X252984792Y-31489355D01*
X252989300Y-31486198D01*
X253151198Y-31324300D01*
X253234733Y-31205000D01*
X262721835Y-31205000D01*
X262740465Y-31441711D01*
X262741619Y-31446518D01*
X262741620Y-31446524D01*
X262762852Y-31534960D01*
X262795895Y-31672594D01*
X262797788Y-31677165D01*
X262797789Y-31677167D01*
X262843905Y-31788500D01*
X262886760Y-31891963D01*
X262889346Y-31896183D01*
X263008241Y-32090202D01*
X263008245Y-32090208D01*
X263010824Y-32094416D01*
X263165031Y-32274969D01*
X263345584Y-32429176D01*
X263349792Y-32431755D01*
X263349798Y-32431759D01*
X263543817Y-32550654D01*
X263548037Y-32553240D01*
X263552607Y-32555133D01*
X263552611Y-32555135D01*
X263762833Y-32642211D01*
X263767406Y-32644105D01*
X263847609Y-32663360D01*
X263993476Y-32698380D01*
X263993482Y-32698381D01*
X263998289Y-32699535D01*
X264235000Y-32718165D01*
X264471711Y-32699535D01*
X264476518Y-32698381D01*
X264476524Y-32698380D01*
X264622391Y-32663360D01*
X264702594Y-32644105D01*
X264707167Y-32642211D01*
X264917389Y-32555135D01*
X264917393Y-32555133D01*
X264921963Y-32553240D01*
X264926183Y-32550654D01*
X265120202Y-32431759D01*
X265120208Y-32431755D01*
X265124416Y-32429176D01*
X265304969Y-32274969D01*
X265459176Y-32094416D01*
X265461755Y-32090208D01*
X265461759Y-32090202D01*
X265580654Y-31896183D01*
X265583240Y-31891963D01*
X265626096Y-31788500D01*
X265672211Y-31677167D01*
X265672212Y-31677165D01*
X265674105Y-31672594D01*
X265707148Y-31534960D01*
X265728380Y-31446524D01*
X265728381Y-31446518D01*
X265729535Y-31441711D01*
X265748165Y-31205000D01*
X265729535Y-30968289D01*
X265674105Y-30737406D01*
X265657990Y-30698500D01*
X265585135Y-30522611D01*
X265585133Y-30522607D01*
X265583240Y-30518037D01*
X265519013Y-30413228D01*
X265461759Y-30319798D01*
X265461755Y-30319792D01*
X265459176Y-30315584D01*
X265304969Y-30135031D01*
X265124416Y-29980824D01*
X265120208Y-29978245D01*
X265120202Y-29978241D01*
X264926183Y-29859346D01*
X264921963Y-29856760D01*
X264917393Y-29854867D01*
X264917389Y-29854865D01*
X264707167Y-29767789D01*
X264707165Y-29767788D01*
X264702594Y-29765895D01*
X264622391Y-29746640D01*
X264476524Y-29711620D01*
X264476518Y-29711619D01*
X264471711Y-29710465D01*
X264235000Y-29691835D01*
X263998289Y-29710465D01*
X263993482Y-29711619D01*
X263993476Y-29711620D01*
X263847609Y-29746640D01*
X263767406Y-29765895D01*
X263762835Y-29767788D01*
X263762833Y-29767789D01*
X263552611Y-29854865D01*
X263552607Y-29854867D01*
X263548037Y-29856760D01*
X263543817Y-29859346D01*
X263349798Y-29978241D01*
X263349792Y-29978245D01*
X263345584Y-29980824D01*
X263165031Y-30135031D01*
X263010824Y-30315584D01*
X263008245Y-30319792D01*
X263008241Y-30319798D01*
X262950987Y-30413228D01*
X262886760Y-30518037D01*
X262884867Y-30522607D01*
X262884865Y-30522611D01*
X262812010Y-30698500D01*
X262795895Y-30737406D01*
X262740465Y-30968289D01*
X262721835Y-31205000D01*
X253234733Y-31205000D01*
X253282523Y-31136749D01*
X253284846Y-31131767D01*
X253284849Y-31131762D01*
X253376961Y-30934225D01*
X253376961Y-30934224D01*
X253379284Y-30929243D01*
X253438543Y-30708087D01*
X253458498Y-30480000D01*
X253438543Y-30251913D01*
X253409215Y-30142460D01*
X253380707Y-30036067D01*
X253380706Y-30036065D01*
X253379284Y-30030757D01*
X253361894Y-29993463D01*
X253284849Y-29828238D01*
X253284846Y-29828233D01*
X253282523Y-29823251D01*
X253203549Y-29710465D01*
X253154357Y-29640211D01*
X253154355Y-29640208D01*
X253151198Y-29635700D01*
X252989300Y-29473802D01*
X252984792Y-29470645D01*
X252984789Y-29470643D01*
X252905572Y-29415175D01*
X252801749Y-29342477D01*
X252796767Y-29340154D01*
X252796762Y-29340151D01*
X252761951Y-29323919D01*
X252708666Y-29277002D01*
X252689205Y-29208725D01*
X252709747Y-29140765D01*
X252761951Y-29095529D01*
X252796511Y-29079414D01*
X252806007Y-29073931D01*
X252984467Y-28948972D01*
X252992875Y-28941916D01*
X253076657Y-28858134D01*
X270556500Y-28858134D01*
X270563255Y-28920316D01*
X270614385Y-29056705D01*
X270701739Y-29173261D01*
X270818295Y-29260615D01*
X270954684Y-29311745D01*
X271016866Y-29318500D01*
X272713134Y-29318500D01*
X272775316Y-29311745D01*
X272911705Y-29260615D01*
X273028261Y-29173261D01*
X273115615Y-29056705D01*
X273166745Y-28920316D01*
X273167917Y-28909526D01*
X273168803Y-28907394D01*
X273169425Y-28904778D01*
X273169848Y-28904879D01*
X273195155Y-28843965D01*
X273253517Y-28803537D01*
X273324471Y-28801078D01*
X273385490Y-28837371D01*
X273392489Y-28846031D01*
X273395643Y-28849789D01*
X273398802Y-28854300D01*
X273560700Y-29016198D01*
X273565208Y-29019355D01*
X273565211Y-29019357D01*
X273578310Y-29028529D01*
X273748251Y-29147523D01*
X273753233Y-29149846D01*
X273753238Y-29149849D01*
X273893975Y-29215475D01*
X273955757Y-29244284D01*
X273961065Y-29245706D01*
X273961067Y-29245707D01*
X274171598Y-29302119D01*
X274171600Y-29302119D01*
X274176913Y-29303543D01*
X274405000Y-29323498D01*
X274633087Y-29303543D01*
X274638400Y-29302119D01*
X274638402Y-29302119D01*
X274848933Y-29245707D01*
X274848935Y-29245706D01*
X274854243Y-29244284D01*
X274916025Y-29215475D01*
X275056762Y-29149849D01*
X275056767Y-29149846D01*
X275061749Y-29147523D01*
X275231690Y-29028529D01*
X275244789Y-29019357D01*
X275244792Y-29019355D01*
X275249300Y-29016198D01*
X275411198Y-28854300D01*
X275447251Y-28802812D01*
X275539366Y-28671257D01*
X275542523Y-28666749D01*
X275544846Y-28661767D01*
X275544849Y-28661762D01*
X275560805Y-28627543D01*
X275607722Y-28574258D01*
X275675999Y-28554797D01*
X275743959Y-28575339D01*
X275789195Y-28627543D01*
X275805151Y-28661762D01*
X275805154Y-28661767D01*
X275807477Y-28666749D01*
X275810634Y-28671257D01*
X275902750Y-28802812D01*
X275938802Y-28854300D01*
X276100700Y-29016198D01*
X276105208Y-29019355D01*
X276105211Y-29019357D01*
X276118310Y-29028529D01*
X276288251Y-29147523D01*
X276293233Y-29149846D01*
X276293238Y-29149849D01*
X276433975Y-29215475D01*
X276495757Y-29244284D01*
X276501065Y-29245706D01*
X276501067Y-29245707D01*
X276711598Y-29302119D01*
X276711600Y-29302119D01*
X276716913Y-29303543D01*
X276945000Y-29323498D01*
X277173087Y-29303543D01*
X277178400Y-29302119D01*
X277178402Y-29302119D01*
X277388933Y-29245707D01*
X277388935Y-29245706D01*
X277394243Y-29244284D01*
X277456025Y-29215475D01*
X277596762Y-29149849D01*
X277596767Y-29149846D01*
X277601749Y-29147523D01*
X277771690Y-29028529D01*
X277784789Y-29019357D01*
X277784792Y-29019355D01*
X277789300Y-29016198D01*
X277951198Y-28854300D01*
X277987251Y-28802812D01*
X278079366Y-28671257D01*
X278082523Y-28666749D01*
X278084846Y-28661767D01*
X278084849Y-28661762D01*
X278100805Y-28627543D01*
X278147722Y-28574258D01*
X278215999Y-28554797D01*
X278283959Y-28575339D01*
X278329195Y-28627543D01*
X278345151Y-28661762D01*
X278345154Y-28661767D01*
X278347477Y-28666749D01*
X278350634Y-28671257D01*
X278442750Y-28802812D01*
X278478802Y-28854300D01*
X278640700Y-29016198D01*
X278645208Y-29019355D01*
X278645211Y-29019357D01*
X278658310Y-29028529D01*
X278828251Y-29147523D01*
X278833233Y-29149846D01*
X278833238Y-29149849D01*
X278973975Y-29215475D01*
X279035757Y-29244284D01*
X279041065Y-29245706D01*
X279041067Y-29245707D01*
X279251598Y-29302119D01*
X279251600Y-29302119D01*
X279256913Y-29303543D01*
X279485000Y-29323498D01*
X279713087Y-29303543D01*
X279718400Y-29302119D01*
X279718402Y-29302119D01*
X279928933Y-29245707D01*
X279928935Y-29245706D01*
X279934243Y-29244284D01*
X279996025Y-29215475D01*
X280136762Y-29149849D01*
X280136767Y-29149846D01*
X280141749Y-29147523D01*
X280311690Y-29028529D01*
X280324789Y-29019357D01*
X280324792Y-29019355D01*
X280329300Y-29016198D01*
X280491198Y-28854300D01*
X280527251Y-28802812D01*
X280619366Y-28671257D01*
X280622523Y-28666749D01*
X280624846Y-28661767D01*
X280624849Y-28661762D01*
X280716961Y-28464225D01*
X280716961Y-28464224D01*
X280719284Y-28459243D01*
X280728104Y-28426329D01*
X280777119Y-28243402D01*
X280777119Y-28243400D01*
X280778543Y-28238087D01*
X280798498Y-28010000D01*
X280778543Y-27781913D01*
X280761255Y-27717393D01*
X280720707Y-27566067D01*
X280720706Y-27566065D01*
X280719284Y-27560757D01*
X280679358Y-27475135D01*
X280624849Y-27358238D01*
X280624846Y-27358233D01*
X280622523Y-27353251D01*
X280511806Y-27195131D01*
X280494357Y-27170211D01*
X280494355Y-27170208D01*
X280491198Y-27165700D01*
X280329300Y-27003802D01*
X280324792Y-27000645D01*
X280324789Y-27000643D01*
X280224818Y-26930643D01*
X280141749Y-26872477D01*
X280136767Y-26870154D01*
X280136762Y-26870151D01*
X279939225Y-26778039D01*
X279939224Y-26778039D01*
X279934243Y-26775716D01*
X279928935Y-26774294D01*
X279928933Y-26774293D01*
X279718402Y-26717881D01*
X279718400Y-26717881D01*
X279713087Y-26716457D01*
X279485000Y-26696502D01*
X279256913Y-26716457D01*
X279251600Y-26717881D01*
X279251598Y-26717881D01*
X279041067Y-26774293D01*
X279041065Y-26774294D01*
X279035757Y-26775716D01*
X279030776Y-26778039D01*
X279030775Y-26778039D01*
X278833238Y-26870151D01*
X278833233Y-26870154D01*
X278828251Y-26872477D01*
X278745182Y-26930643D01*
X278645211Y-27000643D01*
X278645208Y-27000645D01*
X278640700Y-27003802D01*
X278478802Y-27165700D01*
X278475645Y-27170208D01*
X278475643Y-27170211D01*
X278458194Y-27195131D01*
X278347477Y-27353251D01*
X278345154Y-27358233D01*
X278345151Y-27358238D01*
X278329195Y-27392457D01*
X278282278Y-27445742D01*
X278214001Y-27465203D01*
X278146041Y-27444661D01*
X278100805Y-27392457D01*
X278084849Y-27358238D01*
X278084846Y-27358233D01*
X278082523Y-27353251D01*
X277971806Y-27195131D01*
X277954357Y-27170211D01*
X277954355Y-27170208D01*
X277951198Y-27165700D01*
X277789300Y-27003802D01*
X277784792Y-27000645D01*
X277784789Y-27000643D01*
X277684818Y-26930643D01*
X277601749Y-26872477D01*
X277596767Y-26870154D01*
X277596762Y-26870151D01*
X277399225Y-26778039D01*
X277399224Y-26778039D01*
X277394243Y-26775716D01*
X277388935Y-26774294D01*
X277388933Y-26774293D01*
X277178402Y-26717881D01*
X277178400Y-26717881D01*
X277173087Y-26716457D01*
X276945000Y-26696502D01*
X276716913Y-26716457D01*
X276711600Y-26717881D01*
X276711598Y-26717881D01*
X276501067Y-26774293D01*
X276501065Y-26774294D01*
X276495757Y-26775716D01*
X276490776Y-26778039D01*
X276490775Y-26778039D01*
X276293238Y-26870151D01*
X276293233Y-26870154D01*
X276288251Y-26872477D01*
X276205182Y-26930643D01*
X276105211Y-27000643D01*
X276105208Y-27000645D01*
X276100700Y-27003802D01*
X275938802Y-27165700D01*
X275935645Y-27170208D01*
X275935643Y-27170211D01*
X275918194Y-27195131D01*
X275807477Y-27353251D01*
X275805154Y-27358233D01*
X275805151Y-27358238D01*
X275789195Y-27392457D01*
X275742278Y-27445742D01*
X275674001Y-27465203D01*
X275606041Y-27444661D01*
X275560805Y-27392457D01*
X275544849Y-27358238D01*
X275544846Y-27358233D01*
X275542523Y-27353251D01*
X275431806Y-27195131D01*
X275414357Y-27170211D01*
X275414355Y-27170208D01*
X275411198Y-27165700D01*
X275249300Y-27003802D01*
X275244792Y-27000645D01*
X275244789Y-27000643D01*
X275144818Y-26930643D01*
X275061749Y-26872477D01*
X275056767Y-26870154D01*
X275056762Y-26870151D01*
X274859225Y-26778039D01*
X274859224Y-26778039D01*
X274854243Y-26775716D01*
X274848935Y-26774294D01*
X274848933Y-26774293D01*
X274638402Y-26717881D01*
X274638400Y-26717881D01*
X274633087Y-26716457D01*
X274405000Y-26696502D01*
X274176913Y-26716457D01*
X274171600Y-26717881D01*
X274171598Y-26717881D01*
X273961067Y-26774293D01*
X273961065Y-26774294D01*
X273955757Y-26775716D01*
X273950776Y-26778039D01*
X273950775Y-26778039D01*
X273753238Y-26870151D01*
X273753233Y-26870154D01*
X273748251Y-26872477D01*
X273665182Y-26930643D01*
X273565211Y-27000643D01*
X273565208Y-27000645D01*
X273560700Y-27003802D01*
X273398802Y-27165700D01*
X273395643Y-27170211D01*
X273392108Y-27174424D01*
X273390974Y-27173473D01*
X273340929Y-27213471D01*
X273270310Y-27220776D01*
X273206951Y-27188742D01*
X273170970Y-27127538D01*
X273167918Y-27110483D01*
X273166745Y-27099684D01*
X273115615Y-26963295D01*
X273028261Y-26846739D01*
X272911705Y-26759385D01*
X272775316Y-26708255D01*
X272713134Y-26701500D01*
X271016866Y-26701500D01*
X270954684Y-26708255D01*
X270818295Y-26759385D01*
X270701739Y-26846739D01*
X270614385Y-26963295D01*
X270563255Y-27099684D01*
X270556500Y-27161866D01*
X270556500Y-28858134D01*
X253076657Y-28858134D01*
X253146916Y-28787875D01*
X253153972Y-28779467D01*
X253278931Y-28601007D01*
X253284414Y-28591511D01*
X253376490Y-28394053D01*
X253380236Y-28383761D01*
X253426394Y-28211497D01*
X253426058Y-28197401D01*
X253418116Y-28194000D01*
X250477033Y-28194000D01*
X250463502Y-28197973D01*
X250462273Y-28206522D01*
X250509764Y-28383761D01*
X250513510Y-28394053D01*
X250605586Y-28591511D01*
X250611069Y-28601007D01*
X250736028Y-28779467D01*
X250743084Y-28787875D01*
X250897125Y-28941916D01*
X250905533Y-28948972D01*
X251083993Y-29073931D01*
X251093489Y-29079414D01*
X251128049Y-29095529D01*
X251181334Y-29142446D01*
X251200795Y-29210723D01*
X251180253Y-29278683D01*
X251128049Y-29323919D01*
X251093238Y-29340151D01*
X251093233Y-29340154D01*
X251088251Y-29342477D01*
X250984428Y-29415175D01*
X250905211Y-29470643D01*
X250905208Y-29470645D01*
X250900700Y-29473802D01*
X250738802Y-29635700D01*
X250735645Y-29640208D01*
X250735643Y-29640211D01*
X250686451Y-29710465D01*
X250607477Y-29823251D01*
X250605154Y-29828233D01*
X250605151Y-29828238D01*
X250528106Y-29993463D01*
X250510716Y-30030757D01*
X250509294Y-30036065D01*
X250509293Y-30036067D01*
X250480785Y-30142460D01*
X250451457Y-30251913D01*
X250431502Y-30480000D01*
X230598498Y-30480000D01*
X230578543Y-30251913D01*
X230549215Y-30142460D01*
X230520707Y-30036067D01*
X230520706Y-30036065D01*
X230519284Y-30030757D01*
X230501894Y-29993463D01*
X230424849Y-29828238D01*
X230424846Y-29828233D01*
X230422523Y-29823251D01*
X230343549Y-29710465D01*
X230294357Y-29640211D01*
X230294355Y-29640208D01*
X230291198Y-29635700D01*
X230129300Y-29473802D01*
X230124792Y-29470645D01*
X230124789Y-29470643D01*
X230045572Y-29415175D01*
X229941749Y-29342477D01*
X229936767Y-29340154D01*
X229936762Y-29340151D01*
X229902543Y-29324195D01*
X229849258Y-29277278D01*
X229829797Y-29209001D01*
X229850339Y-29141041D01*
X229902543Y-29095805D01*
X229936762Y-29079849D01*
X229936767Y-29079846D01*
X229941749Y-29077523D01*
X230060989Y-28994030D01*
X230124789Y-28949357D01*
X230124792Y-28949355D01*
X230129300Y-28946198D01*
X230291198Y-28784300D01*
X230422523Y-28596749D01*
X230424846Y-28591767D01*
X230424849Y-28591762D01*
X230516961Y-28394225D01*
X230516961Y-28394224D01*
X230519284Y-28389243D01*
X230536244Y-28325950D01*
X230577119Y-28173402D01*
X230577119Y-28173400D01*
X230578543Y-28168087D01*
X230598498Y-27940000D01*
X230578543Y-27711913D01*
X230553481Y-27618380D01*
X230520707Y-27496067D01*
X230520706Y-27496065D01*
X230519284Y-27490757D01*
X230515135Y-27481859D01*
X230424849Y-27288238D01*
X230424846Y-27288233D01*
X230422523Y-27283251D01*
X230337484Y-27161803D01*
X230294357Y-27100211D01*
X230294355Y-27100208D01*
X230291198Y-27095700D01*
X230129300Y-26933802D01*
X230124792Y-26930645D01*
X230124789Y-26930643D01*
X230024303Y-26860282D01*
X229941749Y-26802477D01*
X229936767Y-26800154D01*
X229936762Y-26800151D01*
X229902543Y-26784195D01*
X229849258Y-26737278D01*
X229829797Y-26669001D01*
X229850339Y-26601041D01*
X229902543Y-26555805D01*
X229936762Y-26539849D01*
X229936767Y-26539846D01*
X229941749Y-26537523D01*
X230091810Y-26432449D01*
X230124789Y-26409357D01*
X230124792Y-26409355D01*
X230129300Y-26406198D01*
X230291198Y-26244300D01*
X230320634Y-26202262D01*
X230401990Y-26086073D01*
X230422523Y-26056749D01*
X230424846Y-26051767D01*
X230424849Y-26051762D01*
X230516961Y-25854225D01*
X230516961Y-25854224D01*
X230519284Y-25849243D01*
X230523691Y-25832798D01*
X230577119Y-25633402D01*
X230577119Y-25633400D01*
X230578543Y-25628087D01*
X230598498Y-25400000D01*
X230578543Y-25171913D01*
X230574196Y-25155689D01*
X230520707Y-24956067D01*
X230520706Y-24956065D01*
X230519284Y-24950757D01*
X230513297Y-24937917D01*
X230424849Y-24748238D01*
X230424846Y-24748233D01*
X230422523Y-24743251D01*
X230343549Y-24630465D01*
X230294357Y-24560211D01*
X230294355Y-24560208D01*
X230291198Y-24555700D01*
X230129300Y-24393802D01*
X230124792Y-24390645D01*
X230124789Y-24390643D01*
X230045452Y-24335091D01*
X229941749Y-24262477D01*
X229936767Y-24260154D01*
X229936762Y-24260151D01*
X229902543Y-24244195D01*
X229849258Y-24197278D01*
X229829797Y-24129001D01*
X229850339Y-24061041D01*
X229902543Y-24015805D01*
X229936762Y-23999849D01*
X229936767Y-23999846D01*
X229941749Y-23997523D01*
X230060989Y-23914030D01*
X230124789Y-23869357D01*
X230124792Y-23869355D01*
X230129300Y-23866198D01*
X230291198Y-23704300D01*
X230297619Y-23695131D01*
X230401433Y-23546868D01*
X230422523Y-23516749D01*
X230424846Y-23511767D01*
X230424849Y-23511762D01*
X230516961Y-23314225D01*
X230516961Y-23314224D01*
X230519284Y-23309243D01*
X230528568Y-23274597D01*
X230577119Y-23093402D01*
X230577119Y-23093400D01*
X230578543Y-23088087D01*
X230598498Y-22860000D01*
X230578543Y-22631913D01*
X230566820Y-22588163D01*
X230520707Y-22416067D01*
X230520706Y-22416065D01*
X230519284Y-22410757D01*
X230516961Y-22405775D01*
X230424849Y-22208238D01*
X230424846Y-22208233D01*
X230422523Y-22203251D01*
X230349098Y-22098389D01*
X230294357Y-22020211D01*
X230294355Y-22020208D01*
X230291198Y-22015700D01*
X230129300Y-21853802D01*
X230124792Y-21850645D01*
X230124789Y-21850643D01*
X229959245Y-21734728D01*
X229941749Y-21722477D01*
X229936767Y-21720154D01*
X229936762Y-21720151D01*
X229902543Y-21704195D01*
X229849258Y-21657278D01*
X229829797Y-21589001D01*
X229850339Y-21521041D01*
X229902543Y-21475805D01*
X229936762Y-21459849D01*
X229936767Y-21459846D01*
X229941749Y-21457523D01*
X230046611Y-21384098D01*
X230124789Y-21329357D01*
X230124792Y-21329355D01*
X230129300Y-21326198D01*
X230291198Y-21164300D01*
X230422523Y-20976749D01*
X230424846Y-20971767D01*
X230424849Y-20971762D01*
X230516961Y-20774225D01*
X230516961Y-20774224D01*
X230519284Y-20769243D01*
X230536244Y-20705950D01*
X230577119Y-20553402D01*
X230577119Y-20553400D01*
X230578543Y-20548087D01*
X230598498Y-20320000D01*
X230578543Y-20091913D01*
X230564501Y-20039509D01*
X230520707Y-19876067D01*
X230520706Y-19876065D01*
X230519284Y-19870757D01*
X230516143Y-19864020D01*
X230424849Y-19668238D01*
X230424846Y-19668233D01*
X230422523Y-19663251D01*
X230291198Y-19475700D01*
X230129300Y-19313802D01*
X230124792Y-19310645D01*
X230124789Y-19310643D01*
X230014207Y-19233213D01*
X229941749Y-19182477D01*
X229936767Y-19180154D01*
X229936762Y-19180151D01*
X229902543Y-19164195D01*
X229849258Y-19117278D01*
X229829797Y-19049001D01*
X229850339Y-18981041D01*
X229902543Y-18935805D01*
X229936762Y-18919849D01*
X229936767Y-18919846D01*
X229941749Y-18917523D01*
X230061188Y-18833891D01*
X230124789Y-18789357D01*
X230124792Y-18789355D01*
X230129300Y-18786198D01*
X230291198Y-18624300D01*
X230422523Y-18436749D01*
X230424846Y-18431767D01*
X230424849Y-18431762D01*
X230516961Y-18234225D01*
X230516961Y-18234224D01*
X230519284Y-18229243D01*
X230539976Y-18152022D01*
X230577119Y-18013402D01*
X230577119Y-18013400D01*
X230578543Y-18008087D01*
X230598498Y-17780000D01*
X230578543Y-17551913D01*
X230549215Y-17442460D01*
X230520707Y-17336067D01*
X230520706Y-17336065D01*
X230519284Y-17330757D01*
X230501991Y-17293671D01*
X230424849Y-17128238D01*
X230424846Y-17128233D01*
X230422523Y-17123251D01*
X230300161Y-16948500D01*
X230294357Y-16940211D01*
X230294355Y-16940208D01*
X230291198Y-16935700D01*
X230129300Y-16773802D01*
X230124792Y-16770645D01*
X230124789Y-16770643D01*
X230045572Y-16715175D01*
X229941749Y-16642477D01*
X229936767Y-16640154D01*
X229936762Y-16640151D01*
X229902543Y-16624195D01*
X229849258Y-16577278D01*
X229829797Y-16509001D01*
X229850339Y-16441041D01*
X229902543Y-16395805D01*
X229936762Y-16379849D01*
X229936767Y-16379846D01*
X229941749Y-16377523D01*
X230060989Y-16294030D01*
X230124789Y-16249357D01*
X230124792Y-16249355D01*
X230129300Y-16246198D01*
X230291198Y-16084300D01*
X230422523Y-15896749D01*
X230424846Y-15891767D01*
X230424849Y-15891762D01*
X230516961Y-15694225D01*
X230516961Y-15694224D01*
X230519284Y-15689243D01*
X230548369Y-15580699D01*
X230577119Y-15473402D01*
X230577119Y-15473400D01*
X230578543Y-15468087D01*
X230598498Y-15240000D01*
X230578543Y-15011913D01*
X230570028Y-14980135D01*
X230520707Y-14796067D01*
X230520706Y-14796065D01*
X230519284Y-14790757D01*
X230510896Y-14772768D01*
X230424849Y-14588238D01*
X230424846Y-14588233D01*
X230422523Y-14583251D01*
X230346765Y-14475057D01*
X230294357Y-14400211D01*
X230294355Y-14400208D01*
X230291198Y-14395700D01*
X230262365Y-14366867D01*
X230228339Y-14304555D01*
X230233404Y-14233740D01*
X230275951Y-14176904D01*
X230307232Y-14159790D01*
X230323293Y-14153769D01*
X230323296Y-14153767D01*
X230331705Y-14150615D01*
X230448261Y-14063261D01*
X230535615Y-13946705D01*
X230586745Y-13810316D01*
X230593500Y-13748134D01*
X230593500Y-11651866D01*
X230588274Y-11603756D01*
X230587598Y-11597535D01*
X230587598Y-11597534D01*
X230586745Y-11589684D01*
X230584700Y-11584228D01*
X230588355Y-11514244D01*
X230629802Y-11456601D01*
X230695833Y-11430517D01*
X230707235Y-11430000D01*
X250877827Y-11430000D01*
X250945948Y-11450002D01*
X250992441Y-11503658D01*
X251002545Y-11573932D01*
X250973051Y-11638512D01*
X250950098Y-11659213D01*
X250905211Y-11690643D01*
X250905208Y-11690645D01*
X250900700Y-11693802D01*
X250738802Y-11855700D01*
X250735645Y-11860208D01*
X250735643Y-11860211D01*
X250722634Y-11878790D01*
X250607477Y-12043251D01*
X250605154Y-12048233D01*
X250605151Y-12048238D01*
X250528009Y-12213671D01*
X250510716Y-12250757D01*
X250509294Y-12256065D01*
X250458612Y-12445212D01*
X250451457Y-12471913D01*
X250431502Y-12700000D01*
X250451457Y-12928087D01*
X250510716Y-13149243D01*
X250513039Y-13154224D01*
X250513039Y-13154225D01*
X250605151Y-13351762D01*
X250605154Y-13351767D01*
X250607477Y-13356749D01*
X250610634Y-13361257D01*
X250730448Y-13532369D01*
X250738802Y-13544300D01*
X250900700Y-13706198D01*
X250905208Y-13709355D01*
X250905211Y-13709357D01*
X250965442Y-13751531D01*
X251088251Y-13837523D01*
X251093233Y-13839846D01*
X251093238Y-13839849D01*
X251127457Y-13855805D01*
X251180742Y-13902722D01*
X251200203Y-13970999D01*
X251179661Y-14038959D01*
X251127457Y-14084195D01*
X251093238Y-14100151D01*
X251093233Y-14100154D01*
X251088251Y-14102477D01*
X251034083Y-14140406D01*
X250905211Y-14230643D01*
X250905208Y-14230645D01*
X250900700Y-14233802D01*
X250738802Y-14395700D01*
X250735645Y-14400208D01*
X250735643Y-14400211D01*
X250683235Y-14475057D01*
X250607477Y-14583251D01*
X250605154Y-14588233D01*
X250605151Y-14588238D01*
X250519104Y-14772768D01*
X250510716Y-14790757D01*
X250509294Y-14796065D01*
X250509293Y-14796067D01*
X250459972Y-14980135D01*
X250451457Y-15011913D01*
X250431502Y-15240000D01*
X250451457Y-15468087D01*
X250452881Y-15473400D01*
X250452881Y-15473402D01*
X250481632Y-15580699D01*
X250510716Y-15689243D01*
X250513039Y-15694224D01*
X250513039Y-15694225D01*
X250605151Y-15891762D01*
X250605154Y-15891767D01*
X250607477Y-15896749D01*
X250738802Y-16084300D01*
X250900700Y-16246198D01*
X250905208Y-16249355D01*
X250905211Y-16249357D01*
X250969011Y-16294030D01*
X251088251Y-16377523D01*
X251093233Y-16379846D01*
X251093238Y-16379849D01*
X251127457Y-16395805D01*
X251180742Y-16442722D01*
X251200203Y-16510999D01*
X251179661Y-16578959D01*
X251127457Y-16624195D01*
X251093238Y-16640151D01*
X251093233Y-16640154D01*
X251088251Y-16642477D01*
X250984428Y-16715175D01*
X250905211Y-16770643D01*
X250905208Y-16770645D01*
X250900700Y-16773802D01*
X250738802Y-16935700D01*
X250735645Y-16940208D01*
X250735643Y-16940211D01*
X250729839Y-16948500D01*
X250607477Y-17123251D01*
X250605154Y-17128233D01*
X250605151Y-17128238D01*
X250528009Y-17293671D01*
X250510716Y-17330757D01*
X250509294Y-17336065D01*
X250509293Y-17336067D01*
X250480785Y-17442460D01*
X250451457Y-17551913D01*
X250431502Y-17780000D01*
X250451457Y-18008087D01*
X250452881Y-18013400D01*
X250452881Y-18013402D01*
X250490025Y-18152022D01*
X250510716Y-18229243D01*
X250513039Y-18234224D01*
X250513039Y-18234225D01*
X250605151Y-18431762D01*
X250605154Y-18431767D01*
X250607477Y-18436749D01*
X250738802Y-18624300D01*
X250900700Y-18786198D01*
X250905208Y-18789355D01*
X250905211Y-18789357D01*
X250968812Y-18833891D01*
X251088251Y-18917523D01*
X251093233Y-18919846D01*
X251093238Y-18919849D01*
X251127457Y-18935805D01*
X251180742Y-18982722D01*
X251200203Y-19050999D01*
X251179661Y-19118959D01*
X251127457Y-19164195D01*
X251093238Y-19180151D01*
X251093233Y-19180154D01*
X251088251Y-19182477D01*
X251015793Y-19233213D01*
X250905211Y-19310643D01*
X250905208Y-19310645D01*
X250900700Y-19313802D01*
X250738802Y-19475700D01*
X250607477Y-19663251D01*
X250605154Y-19668233D01*
X250605151Y-19668238D01*
X250513857Y-19864020D01*
X250510716Y-19870757D01*
X250509294Y-19876065D01*
X250509293Y-19876067D01*
X250465499Y-20039509D01*
X250451457Y-20091913D01*
X250431502Y-20320000D01*
X250451457Y-20548087D01*
X250452881Y-20553400D01*
X250452881Y-20553402D01*
X250493757Y-20705950D01*
X250510716Y-20769243D01*
X250513039Y-20774224D01*
X250513039Y-20774225D01*
X250605151Y-20971762D01*
X250605154Y-20971767D01*
X250607477Y-20976749D01*
X250738802Y-21164300D01*
X250900700Y-21326198D01*
X250905208Y-21329355D01*
X250905211Y-21329357D01*
X250983389Y-21384098D01*
X251088251Y-21457523D01*
X251093233Y-21459846D01*
X251093238Y-21459849D01*
X251127457Y-21475805D01*
X251180742Y-21522722D01*
X251200203Y-21590999D01*
X251179661Y-21658959D01*
X251127457Y-21704195D01*
X251093238Y-21720151D01*
X251093233Y-21720154D01*
X251088251Y-21722477D01*
X251070755Y-21734728D01*
X250905211Y-21850643D01*
X250905208Y-21850645D01*
X250900700Y-21853802D01*
X250738802Y-22015700D01*
X250735645Y-22020208D01*
X250735643Y-22020211D01*
X250680902Y-22098389D01*
X250607477Y-22203251D01*
X250605154Y-22208233D01*
X250605151Y-22208238D01*
X250513039Y-22405775D01*
X250510716Y-22410757D01*
X250509294Y-22416065D01*
X250509293Y-22416067D01*
X250463180Y-22588163D01*
X250451457Y-22631913D01*
X250431502Y-22860000D01*
X250451457Y-23088087D01*
X250452881Y-23093400D01*
X250452881Y-23093402D01*
X250501433Y-23274597D01*
X250510716Y-23309243D01*
X250513039Y-23314224D01*
X250513039Y-23314225D01*
X250605151Y-23511762D01*
X250605154Y-23511767D01*
X250607477Y-23516749D01*
X250628567Y-23546868D01*
X250732382Y-23695131D01*
X250738802Y-23704300D01*
X250900700Y-23866198D01*
X250905208Y-23869355D01*
X250905211Y-23869357D01*
X250969011Y-23914030D01*
X251088251Y-23997523D01*
X251093233Y-23999846D01*
X251093238Y-23999849D01*
X251127457Y-24015805D01*
X251180742Y-24062722D01*
X251200203Y-24130999D01*
X251179661Y-24198959D01*
X251127457Y-24244195D01*
X251093238Y-24260151D01*
X251093233Y-24260154D01*
X251088251Y-24262477D01*
X250984548Y-24335091D01*
X250905211Y-24390643D01*
X250905208Y-24390645D01*
X250900700Y-24393802D01*
X250738802Y-24555700D01*
X250735645Y-24560208D01*
X250735643Y-24560211D01*
X250686451Y-24630465D01*
X250607477Y-24743251D01*
X250605154Y-24748233D01*
X250605151Y-24748238D01*
X250516703Y-24937917D01*
X250510716Y-24950757D01*
X250509294Y-24956065D01*
X250509293Y-24956067D01*
X250455804Y-25155689D01*
X250451457Y-25171913D01*
X250431502Y-25400000D01*
X250451457Y-25628087D01*
X250452881Y-25633400D01*
X250452881Y-25633402D01*
X250506310Y-25832798D01*
X250510716Y-25849243D01*
X250513039Y-25854224D01*
X250513039Y-25854225D01*
X250605151Y-26051762D01*
X250605154Y-26051767D01*
X250607477Y-26056749D01*
X250628010Y-26086073D01*
X250709367Y-26202262D01*
X250738802Y-26244300D01*
X250900700Y-26406198D01*
X250905208Y-26409355D01*
X250905211Y-26409357D01*
X250938190Y-26432449D01*
X251088251Y-26537523D01*
X251093233Y-26539846D01*
X251093238Y-26539849D01*
X251128049Y-26556081D01*
X251181334Y-26602998D01*
X251200795Y-26671275D01*
X251180253Y-26739235D01*
X251128049Y-26784471D01*
X251093489Y-26800586D01*
X251083993Y-26806069D01*
X250905533Y-26931028D01*
X250897125Y-26938084D01*
X250743084Y-27092125D01*
X250736028Y-27100533D01*
X250611069Y-27278993D01*
X250605586Y-27288489D01*
X250513510Y-27485947D01*
X250509764Y-27496239D01*
X250463606Y-27668503D01*
X250463942Y-27682599D01*
X250471884Y-27686000D01*
X253412967Y-27686000D01*
X253426498Y-27682027D01*
X253427727Y-27673478D01*
X253380236Y-27496239D01*
X253376490Y-27485947D01*
X253284414Y-27288489D01*
X253278931Y-27278993D01*
X253153972Y-27100533D01*
X253146916Y-27092125D01*
X252992875Y-26938084D01*
X252984467Y-26931028D01*
X252806007Y-26806069D01*
X252796511Y-26800586D01*
X252761951Y-26784471D01*
X252708666Y-26737554D01*
X252689205Y-26669277D01*
X252709747Y-26601317D01*
X252761951Y-26556081D01*
X252796762Y-26539849D01*
X252796767Y-26539846D01*
X252801749Y-26537523D01*
X252951810Y-26432449D01*
X252984789Y-26409357D01*
X252984792Y-26409355D01*
X252989300Y-26406198D01*
X253151198Y-26244300D01*
X253180634Y-26202262D01*
X253234733Y-26125000D01*
X262721835Y-26125000D01*
X262740465Y-26361711D01*
X262741619Y-26366518D01*
X262741620Y-26366524D01*
X262768931Y-26480280D01*
X262795895Y-26592594D01*
X262797788Y-26597165D01*
X262797789Y-26597167D01*
X262884319Y-26806069D01*
X262886760Y-26811963D01*
X262889346Y-26816183D01*
X263008241Y-27010202D01*
X263008245Y-27010208D01*
X263010824Y-27014416D01*
X263165031Y-27194969D01*
X263345584Y-27349176D01*
X263349792Y-27351755D01*
X263349798Y-27351759D01*
X263512949Y-27451738D01*
X263548037Y-27473240D01*
X263552607Y-27475133D01*
X263552611Y-27475135D01*
X263744910Y-27554787D01*
X263767406Y-27564105D01*
X263847609Y-27583360D01*
X263993476Y-27618380D01*
X263993482Y-27618381D01*
X263998289Y-27619535D01*
X264235000Y-27638165D01*
X264471711Y-27619535D01*
X264476518Y-27618381D01*
X264476524Y-27618380D01*
X264622391Y-27583360D01*
X264702594Y-27564105D01*
X264725090Y-27554787D01*
X264917389Y-27475135D01*
X264917393Y-27475133D01*
X264921963Y-27473240D01*
X264957051Y-27451738D01*
X265120202Y-27351759D01*
X265120208Y-27351755D01*
X265124416Y-27349176D01*
X265304969Y-27194969D01*
X265459176Y-27014416D01*
X265461755Y-27010208D01*
X265461759Y-27010202D01*
X265580654Y-26816183D01*
X265583240Y-26811963D01*
X265585682Y-26806069D01*
X265672211Y-26597167D01*
X265672212Y-26597165D01*
X265674105Y-26592594D01*
X265701069Y-26480280D01*
X265728380Y-26366524D01*
X265728381Y-26366518D01*
X265729535Y-26361711D01*
X265748165Y-26125000D01*
X265729535Y-25888289D01*
X265714704Y-25826510D01*
X265675260Y-25662218D01*
X265674105Y-25657406D01*
X265659691Y-25622607D01*
X265585135Y-25442611D01*
X265585133Y-25442607D01*
X265583240Y-25438037D01*
X265543246Y-25372773D01*
X265461759Y-25239798D01*
X265461755Y-25239792D01*
X265459176Y-25235584D01*
X265304969Y-25055031D01*
X265124416Y-24900824D01*
X265120208Y-24898245D01*
X265120202Y-24898241D01*
X264926183Y-24779346D01*
X264921963Y-24776760D01*
X264917393Y-24774867D01*
X264917389Y-24774865D01*
X264707167Y-24687789D01*
X264707165Y-24687788D01*
X264702594Y-24685895D01*
X264622391Y-24666640D01*
X264476524Y-24631620D01*
X264476518Y-24631619D01*
X264471711Y-24630465D01*
X264235000Y-24611835D01*
X263998289Y-24630465D01*
X263993482Y-24631619D01*
X263993476Y-24631620D01*
X263847609Y-24666640D01*
X263767406Y-24685895D01*
X263762835Y-24687788D01*
X263762833Y-24687789D01*
X263552611Y-24774865D01*
X263552607Y-24774867D01*
X263548037Y-24776760D01*
X263543817Y-24779346D01*
X263349798Y-24898241D01*
X263349792Y-24898245D01*
X263345584Y-24900824D01*
X263165031Y-25055031D01*
X263010824Y-25235584D01*
X263008245Y-25239792D01*
X263008241Y-25239798D01*
X262926754Y-25372773D01*
X262886760Y-25438037D01*
X262884867Y-25442607D01*
X262884865Y-25442611D01*
X262810309Y-25622607D01*
X262795895Y-25657406D01*
X262794740Y-25662218D01*
X262755297Y-25826510D01*
X262740465Y-25888289D01*
X262721835Y-26125000D01*
X253234733Y-26125000D01*
X253261990Y-26086073D01*
X253282523Y-26056749D01*
X253284846Y-26051767D01*
X253284849Y-26051762D01*
X253376961Y-25854225D01*
X253376961Y-25854224D01*
X253379284Y-25849243D01*
X253383691Y-25832798D01*
X253437119Y-25633402D01*
X253437119Y-25633400D01*
X253438543Y-25628087D01*
X253458498Y-25400000D01*
X253438543Y-25171913D01*
X253434196Y-25155689D01*
X253380707Y-24956067D01*
X253380706Y-24956065D01*
X253379284Y-24950757D01*
X253373297Y-24937917D01*
X253284849Y-24748238D01*
X253284846Y-24748233D01*
X253282523Y-24743251D01*
X253203549Y-24630465D01*
X253154357Y-24560211D01*
X253154355Y-24560208D01*
X253151198Y-24555700D01*
X252989300Y-24393802D01*
X252984792Y-24390645D01*
X252984789Y-24390643D01*
X252905452Y-24335091D01*
X252801749Y-24262477D01*
X252796767Y-24260154D01*
X252796762Y-24260151D01*
X252762543Y-24244195D01*
X252709258Y-24197278D01*
X252689797Y-24129001D01*
X252710339Y-24061041D01*
X252762543Y-24015805D01*
X252796762Y-23999849D01*
X252796767Y-23999846D01*
X252801749Y-23997523D01*
X252920989Y-23914030D01*
X252984789Y-23869357D01*
X252984792Y-23869355D01*
X252989300Y-23866198D01*
X253151198Y-23704300D01*
X253157619Y-23695131D01*
X253261433Y-23546868D01*
X253282523Y-23516749D01*
X253284846Y-23511767D01*
X253284849Y-23511762D01*
X253376961Y-23314225D01*
X253376961Y-23314224D01*
X253379284Y-23309243D01*
X253388568Y-23274597D01*
X253437119Y-23093402D01*
X253437119Y-23093400D01*
X253438543Y-23088087D01*
X253458498Y-22860000D01*
X253438543Y-22631913D01*
X253426820Y-22588163D01*
X253380707Y-22416067D01*
X253380706Y-22416065D01*
X253379284Y-22410757D01*
X253376961Y-22405775D01*
X253284849Y-22208238D01*
X253284846Y-22208233D01*
X253282523Y-22203251D01*
X253209098Y-22098389D01*
X253154357Y-22020211D01*
X253154355Y-22020208D01*
X253151198Y-22015700D01*
X252989300Y-21853802D01*
X252984792Y-21850645D01*
X252984789Y-21850643D01*
X252819245Y-21734728D01*
X252801749Y-21722477D01*
X252796767Y-21720154D01*
X252796762Y-21720151D01*
X252762543Y-21704195D01*
X252709258Y-21657278D01*
X252689797Y-21589001D01*
X252710339Y-21521041D01*
X252762543Y-21475805D01*
X252796762Y-21459849D01*
X252796767Y-21459846D01*
X252801749Y-21457523D01*
X252906611Y-21384098D01*
X252984789Y-21329357D01*
X252984792Y-21329355D01*
X252989300Y-21326198D01*
X253151198Y-21164300D01*
X253282523Y-20976749D01*
X253284846Y-20971767D01*
X253284849Y-20971762D01*
X253376961Y-20774225D01*
X253376961Y-20774224D01*
X253379284Y-20769243D01*
X253396244Y-20705950D01*
X253437119Y-20553402D01*
X253437119Y-20553400D01*
X253438543Y-20548087D01*
X253452374Y-20390000D01*
X270551502Y-20390000D01*
X270571457Y-20618087D01*
X270572881Y-20623400D01*
X270572881Y-20623402D01*
X270611208Y-20766437D01*
X270630716Y-20839243D01*
X270633039Y-20844224D01*
X270633039Y-20844225D01*
X270725151Y-21041762D01*
X270725154Y-21041767D01*
X270727477Y-21046749D01*
X270858802Y-21234300D01*
X271020700Y-21396198D01*
X271025208Y-21399355D01*
X271025211Y-21399357D01*
X271103389Y-21454098D01*
X271208251Y-21527523D01*
X271213233Y-21529846D01*
X271213238Y-21529849D01*
X271352283Y-21594686D01*
X271415757Y-21624284D01*
X271421065Y-21625706D01*
X271421067Y-21625707D01*
X271631598Y-21682119D01*
X271631600Y-21682119D01*
X271636913Y-21683543D01*
X271865000Y-21703498D01*
X272093087Y-21683543D01*
X272098400Y-21682119D01*
X272098402Y-21682119D01*
X272308933Y-21625707D01*
X272308935Y-21625706D01*
X272314243Y-21624284D01*
X272377717Y-21594686D01*
X272516762Y-21529849D01*
X272516767Y-21529846D01*
X272521749Y-21527523D01*
X272626611Y-21454098D01*
X272704789Y-21399357D01*
X272704792Y-21399355D01*
X272709300Y-21396198D01*
X272871198Y-21234300D01*
X273002523Y-21046749D01*
X273004846Y-21041767D01*
X273004849Y-21041762D01*
X273020805Y-21007543D01*
X273067722Y-20954258D01*
X273135999Y-20934797D01*
X273203959Y-20955339D01*
X273249195Y-21007543D01*
X273265151Y-21041762D01*
X273265154Y-21041767D01*
X273267477Y-21046749D01*
X273398802Y-21234300D01*
X273560700Y-21396198D01*
X273565208Y-21399355D01*
X273565211Y-21399357D01*
X273643389Y-21454098D01*
X273748251Y-21527523D01*
X273753233Y-21529846D01*
X273753238Y-21529849D01*
X273892283Y-21594686D01*
X273955757Y-21624284D01*
X273961065Y-21625706D01*
X273961067Y-21625707D01*
X274171598Y-21682119D01*
X274171600Y-21682119D01*
X274176913Y-21683543D01*
X274405000Y-21703498D01*
X274633087Y-21683543D01*
X274638400Y-21682119D01*
X274638402Y-21682119D01*
X274848933Y-21625707D01*
X274848935Y-21625706D01*
X274854243Y-21624284D01*
X274917717Y-21594686D01*
X275056762Y-21529849D01*
X275056767Y-21529846D01*
X275061749Y-21527523D01*
X275166611Y-21454098D01*
X275244789Y-21399357D01*
X275244792Y-21399355D01*
X275249300Y-21396198D01*
X275411198Y-21234300D01*
X275542523Y-21046749D01*
X275544846Y-21041767D01*
X275544849Y-21041762D01*
X275561081Y-21006951D01*
X275607998Y-20953666D01*
X275676275Y-20934205D01*
X275744235Y-20954747D01*
X275789471Y-21006951D01*
X275805586Y-21041511D01*
X275811069Y-21051007D01*
X275936028Y-21229467D01*
X275943084Y-21237875D01*
X276097125Y-21391916D01*
X276105533Y-21398972D01*
X276283993Y-21523931D01*
X276293489Y-21529414D01*
X276490947Y-21621490D01*
X276501239Y-21625236D01*
X276673503Y-21671394D01*
X276687599Y-21671058D01*
X276691000Y-21663116D01*
X276691000Y-19122033D01*
X276687027Y-19108502D01*
X276678478Y-19107273D01*
X276501239Y-19154764D01*
X276490947Y-19158510D01*
X276293489Y-19250586D01*
X276283993Y-19256069D01*
X276105533Y-19381028D01*
X276097125Y-19388084D01*
X275943084Y-19542125D01*
X275936028Y-19550533D01*
X275811069Y-19728993D01*
X275805586Y-19738489D01*
X275789471Y-19773049D01*
X275742554Y-19826334D01*
X275674277Y-19845795D01*
X275606317Y-19825253D01*
X275561081Y-19773049D01*
X275544849Y-19738238D01*
X275544846Y-19738233D01*
X275542523Y-19733251D01*
X275419469Y-19557512D01*
X275414357Y-19550211D01*
X275414355Y-19550208D01*
X275411198Y-19545700D01*
X275249300Y-19383802D01*
X275244792Y-19380645D01*
X275244789Y-19380643D01*
X275129296Y-19299774D01*
X275061749Y-19252477D01*
X275056767Y-19250154D01*
X275056762Y-19250151D01*
X274859225Y-19158039D01*
X274859224Y-19158039D01*
X274854243Y-19155716D01*
X274848935Y-19154294D01*
X274848933Y-19154293D01*
X274638402Y-19097881D01*
X274638400Y-19097881D01*
X274633087Y-19096457D01*
X274405000Y-19076502D01*
X274176913Y-19096457D01*
X274171600Y-19097881D01*
X274171598Y-19097881D01*
X273961067Y-19154293D01*
X273961065Y-19154294D01*
X273955757Y-19155716D01*
X273950776Y-19158039D01*
X273950775Y-19158039D01*
X273753238Y-19250151D01*
X273753233Y-19250154D01*
X273748251Y-19252477D01*
X273680704Y-19299774D01*
X273565211Y-19380643D01*
X273565208Y-19380645D01*
X273560700Y-19383802D01*
X273398802Y-19545700D01*
X273395645Y-19550208D01*
X273395643Y-19550211D01*
X273390531Y-19557512D01*
X273267477Y-19733251D01*
X273265154Y-19738233D01*
X273265151Y-19738238D01*
X273249195Y-19772457D01*
X273202278Y-19825742D01*
X273134001Y-19845203D01*
X273066041Y-19824661D01*
X273020805Y-19772457D01*
X273004849Y-19738238D01*
X273004846Y-19738233D01*
X273002523Y-19733251D01*
X272879469Y-19557512D01*
X272874357Y-19550211D01*
X272874355Y-19550208D01*
X272871198Y-19545700D01*
X272709300Y-19383802D01*
X272704792Y-19380645D01*
X272704789Y-19380643D01*
X272589296Y-19299774D01*
X272521749Y-19252477D01*
X272516767Y-19250154D01*
X272516762Y-19250151D01*
X272319225Y-19158039D01*
X272319224Y-19158039D01*
X272314243Y-19155716D01*
X272308935Y-19154294D01*
X272308933Y-19154293D01*
X272098402Y-19097881D01*
X272098400Y-19097881D01*
X272093087Y-19096457D01*
X271865000Y-19076502D01*
X271636913Y-19096457D01*
X271631600Y-19097881D01*
X271631598Y-19097881D01*
X271421067Y-19154293D01*
X271421065Y-19154294D01*
X271415757Y-19155716D01*
X271410776Y-19158039D01*
X271410775Y-19158039D01*
X271213238Y-19250151D01*
X271213233Y-19250154D01*
X271208251Y-19252477D01*
X271140704Y-19299774D01*
X271025211Y-19380643D01*
X271025208Y-19380645D01*
X271020700Y-19383802D01*
X270858802Y-19545700D01*
X270855645Y-19550208D01*
X270855643Y-19550211D01*
X270850531Y-19557512D01*
X270727477Y-19733251D01*
X270725154Y-19738233D01*
X270725151Y-19738238D01*
X270663357Y-19870757D01*
X270630716Y-19940757D01*
X270629294Y-19946065D01*
X270629293Y-19946067D01*
X270588745Y-20097393D01*
X270571457Y-20161913D01*
X270551502Y-20390000D01*
X253452374Y-20390000D01*
X253458498Y-20320000D01*
X253438543Y-20091913D01*
X253424501Y-20039509D01*
X253380707Y-19876067D01*
X253380706Y-19876065D01*
X253379284Y-19870757D01*
X253376143Y-19864020D01*
X253284849Y-19668238D01*
X253284846Y-19668233D01*
X253282523Y-19663251D01*
X253151198Y-19475700D01*
X252989300Y-19313802D01*
X252984792Y-19310645D01*
X252984789Y-19310643D01*
X252874207Y-19233213D01*
X252801749Y-19182477D01*
X252796767Y-19180154D01*
X252796762Y-19180151D01*
X252762543Y-19164195D01*
X252709258Y-19117278D01*
X252689797Y-19049001D01*
X252710339Y-18981041D01*
X252762543Y-18935805D01*
X252796762Y-18919849D01*
X252796767Y-18919846D01*
X252801749Y-18917523D01*
X252921188Y-18833891D01*
X252984789Y-18789357D01*
X252984792Y-18789355D01*
X252989300Y-18786198D01*
X253147364Y-18628134D01*
X256411198Y-18628134D01*
X256417953Y-18690316D01*
X256469083Y-18826705D01*
X256556437Y-18943261D01*
X256672993Y-19030615D01*
X256809382Y-19081745D01*
X256871564Y-19088500D01*
X258567832Y-19088500D01*
X258630014Y-19081745D01*
X258766403Y-19030615D01*
X258882959Y-18943261D01*
X258940817Y-18866062D01*
X260498191Y-18866062D01*
X260507487Y-18878077D01*
X260558692Y-18913931D01*
X260568187Y-18919414D01*
X260765645Y-19011490D01*
X260775937Y-19015236D01*
X260986386Y-19071625D01*
X260997179Y-19073528D01*
X261214223Y-19092517D01*
X261225173Y-19092517D01*
X261442217Y-19073528D01*
X261453010Y-19071625D01*
X261663459Y-19015236D01*
X261673751Y-19011490D01*
X261871209Y-18919414D01*
X261880704Y-18913931D01*
X261932746Y-18877491D01*
X261941122Y-18867012D01*
X261934054Y-18853566D01*
X261232510Y-18152022D01*
X261218566Y-18144408D01*
X261216733Y-18144539D01*
X261210118Y-18148790D01*
X260504621Y-18854287D01*
X260498191Y-18866062D01*
X258940817Y-18866062D01*
X258970313Y-18826705D01*
X259021443Y-18690316D01*
X259028198Y-18628134D01*
X259028198Y-17785475D01*
X259907181Y-17785475D01*
X259926170Y-18002519D01*
X259928073Y-18013312D01*
X259984462Y-18223761D01*
X259988208Y-18234053D01*
X260080284Y-18431511D01*
X260085767Y-18441006D01*
X260122207Y-18493048D01*
X260132686Y-18501424D01*
X260146132Y-18494356D01*
X260847676Y-17792812D01*
X260854054Y-17781132D01*
X261584106Y-17781132D01*
X261584237Y-17782965D01*
X261588488Y-17789580D01*
X262293985Y-18495077D01*
X262305760Y-18501507D01*
X262317775Y-18492211D01*
X262353629Y-18441006D01*
X262359112Y-18431511D01*
X262451188Y-18234053D01*
X262454934Y-18223761D01*
X262511323Y-18013312D01*
X262513226Y-18002519D01*
X262532215Y-17785475D01*
X262532215Y-17774525D01*
X262513226Y-17557481D01*
X262511323Y-17546688D01*
X262454934Y-17336239D01*
X262451188Y-17325947D01*
X262359112Y-17128489D01*
X262353629Y-17118994D01*
X262317189Y-17066952D01*
X262306710Y-17058576D01*
X262293264Y-17065644D01*
X261591720Y-17767188D01*
X261584106Y-17781132D01*
X260854054Y-17781132D01*
X260855290Y-17778868D01*
X260855159Y-17777035D01*
X260850908Y-17770420D01*
X260145411Y-17064923D01*
X260133636Y-17058493D01*
X260121621Y-17067789D01*
X260085767Y-17118994D01*
X260080284Y-17128489D01*
X259988208Y-17325947D01*
X259984462Y-17336239D01*
X259928073Y-17546688D01*
X259926170Y-17557481D01*
X259907181Y-17774525D01*
X259907181Y-17785475D01*
X259028198Y-17785475D01*
X259028198Y-16931866D01*
X259021443Y-16869684D01*
X258970313Y-16733295D01*
X258940105Y-16692988D01*
X260498274Y-16692988D01*
X260505342Y-16706434D01*
X261206886Y-17407978D01*
X261220830Y-17415592D01*
X261222663Y-17415461D01*
X261229278Y-17411210D01*
X261934775Y-16705713D01*
X261941205Y-16693938D01*
X261931909Y-16681923D01*
X261880704Y-16646069D01*
X261871209Y-16640586D01*
X261673751Y-16548510D01*
X261663459Y-16544764D01*
X261453010Y-16488375D01*
X261442217Y-16486472D01*
X261225173Y-16467483D01*
X261214223Y-16467483D01*
X260997179Y-16486472D01*
X260986386Y-16488375D01*
X260775937Y-16544764D01*
X260765645Y-16548510D01*
X260568187Y-16640586D01*
X260558692Y-16646069D01*
X260506650Y-16682509D01*
X260498274Y-16692988D01*
X258940105Y-16692988D01*
X258882959Y-16616739D01*
X258766403Y-16529385D01*
X258630014Y-16478255D01*
X258567832Y-16471500D01*
X256871564Y-16471500D01*
X256809382Y-16478255D01*
X256672993Y-16529385D01*
X256556437Y-16616739D01*
X256469083Y-16733295D01*
X256417953Y-16869684D01*
X256411198Y-16931866D01*
X256411198Y-18628134D01*
X253147364Y-18628134D01*
X253151198Y-18624300D01*
X253282523Y-18436749D01*
X253284846Y-18431767D01*
X253284849Y-18431762D01*
X253376961Y-18234225D01*
X253376961Y-18234224D01*
X253379284Y-18229243D01*
X253399976Y-18152022D01*
X253437119Y-18013402D01*
X253437119Y-18013400D01*
X253438543Y-18008087D01*
X253458498Y-17780000D01*
X253438543Y-17551913D01*
X253408369Y-17439301D01*
X253379284Y-17330757D01*
X253381418Y-17330185D01*
X253378594Y-17268151D01*
X253411885Y-17209019D01*
X254520505Y-16100400D01*
X255662253Y-14958652D01*
X255670539Y-14951112D01*
X255677018Y-14947000D01*
X255723644Y-14897348D01*
X255726398Y-14894507D01*
X255746135Y-14874770D01*
X255748615Y-14871573D01*
X255756320Y-14862551D01*
X255781159Y-14836100D01*
X255786586Y-14830321D01*
X255790405Y-14823375D01*
X255790407Y-14823372D01*
X255796348Y-14812566D01*
X255807199Y-14796047D01*
X255814758Y-14786301D01*
X255819614Y-14780041D01*
X255822759Y-14772772D01*
X255822762Y-14772768D01*
X255837174Y-14739463D01*
X255842391Y-14728813D01*
X255863695Y-14690060D01*
X255868733Y-14670437D01*
X255875137Y-14651734D01*
X255880033Y-14640420D01*
X255880033Y-14640419D01*
X255883181Y-14633145D01*
X255884420Y-14625322D01*
X255884423Y-14625312D01*
X255890099Y-14589476D01*
X255892505Y-14577856D01*
X255901528Y-14542711D01*
X255901528Y-14542710D01*
X255903500Y-14535030D01*
X255903500Y-14514776D01*
X255905051Y-14495065D01*
X255906980Y-14482886D01*
X255908220Y-14475057D01*
X255904059Y-14431038D01*
X255903500Y-14419181D01*
X255903500Y-12596062D01*
X266363493Y-12596062D01*
X266372789Y-12608077D01*
X266423994Y-12643931D01*
X266433489Y-12649414D01*
X266630947Y-12741490D01*
X266641239Y-12745236D01*
X266851688Y-12801625D01*
X266862481Y-12803528D01*
X267079525Y-12822517D01*
X267090475Y-12822517D01*
X267307519Y-12803528D01*
X267318312Y-12801625D01*
X267528761Y-12745236D01*
X267539053Y-12741490D01*
X267736511Y-12649414D01*
X267746006Y-12643931D01*
X267798048Y-12607491D01*
X267806424Y-12597012D01*
X267799356Y-12583566D01*
X267097812Y-11882022D01*
X267083868Y-11874408D01*
X267082035Y-11874539D01*
X267075420Y-11878790D01*
X266369923Y-12584287D01*
X266363493Y-12596062D01*
X255903500Y-12596062D01*
X255903500Y-11515475D01*
X265772483Y-11515475D01*
X265791472Y-11732519D01*
X265793375Y-11743312D01*
X265849764Y-11953761D01*
X265853510Y-11964053D01*
X265945586Y-12161511D01*
X265951069Y-12171006D01*
X265987509Y-12223048D01*
X265997988Y-12231424D01*
X266011434Y-12224356D01*
X266712978Y-11522812D01*
X266719356Y-11511132D01*
X267449408Y-11511132D01*
X267449539Y-11512965D01*
X267453790Y-11519580D01*
X268159287Y-12225077D01*
X268171062Y-12231507D01*
X268183077Y-12222211D01*
X268218931Y-12171006D01*
X268224414Y-12161511D01*
X268316490Y-11964053D01*
X268320236Y-11953761D01*
X268376625Y-11743312D01*
X268378528Y-11732519D01*
X268397517Y-11515475D01*
X268397517Y-11504525D01*
X268378528Y-11287481D01*
X268376625Y-11276688D01*
X268320236Y-11066239D01*
X268316490Y-11055947D01*
X268224414Y-10858489D01*
X268218931Y-10848994D01*
X268182491Y-10796952D01*
X268172012Y-10788576D01*
X268158566Y-10795644D01*
X267457022Y-11497188D01*
X267449408Y-11511132D01*
X266719356Y-11511132D01*
X266720592Y-11508868D01*
X266720461Y-11507035D01*
X266716210Y-11500420D01*
X266010713Y-10794923D01*
X265998938Y-10788493D01*
X265986923Y-10797789D01*
X265951069Y-10848994D01*
X265945586Y-10858489D01*
X265853510Y-11055947D01*
X265849764Y-11066239D01*
X265793375Y-11276688D01*
X265791472Y-11287481D01*
X265772483Y-11504525D01*
X265772483Y-11515475D01*
X255903500Y-11515475D01*
X255903500Y-10474594D01*
X255918653Y-10422988D01*
X266363576Y-10422988D01*
X266370644Y-10436434D01*
X267072188Y-11137978D01*
X267086132Y-11145592D01*
X267087965Y-11145461D01*
X267094580Y-11141210D01*
X267800077Y-10435713D01*
X267806507Y-10423938D01*
X267797211Y-10411923D01*
X267746006Y-10376069D01*
X267736511Y-10370586D01*
X267539053Y-10278510D01*
X267528761Y-10274764D01*
X267318312Y-10218375D01*
X267307519Y-10216472D01*
X267090475Y-10197483D01*
X267079525Y-10197483D01*
X266862481Y-10216472D01*
X266851688Y-10218375D01*
X266641239Y-10274764D01*
X266630947Y-10278510D01*
X266433489Y-10370586D01*
X266423994Y-10376069D01*
X266371952Y-10412509D01*
X266363576Y-10422988D01*
X255918653Y-10422988D01*
X255923502Y-10406473D01*
X255940405Y-10385499D01*
X258035499Y-8290405D01*
X258097811Y-8256379D01*
X258124594Y-8253500D01*
X268855708Y-8253500D01*
X268923829Y-8273502D01*
X268944803Y-8290405D01*
X270640803Y-9986405D01*
X270674829Y-10048717D01*
X270669764Y-10119532D01*
X270627217Y-10176368D01*
X270560697Y-10201179D01*
X270551708Y-10201500D01*
X269736866Y-10201500D01*
X269674684Y-10208255D01*
X269538295Y-10259385D01*
X269421739Y-10346739D01*
X269334385Y-10463295D01*
X269283255Y-10599684D01*
X269276500Y-10661866D01*
X269276500Y-12358134D01*
X269283255Y-12420316D01*
X269334385Y-12556705D01*
X269421739Y-12673261D01*
X269538295Y-12760615D01*
X269674684Y-12811745D01*
X269736866Y-12818500D01*
X271433134Y-12818500D01*
X271495316Y-12811745D01*
X271631705Y-12760615D01*
X271748261Y-12673261D01*
X271835615Y-12556705D01*
X271886745Y-12420316D01*
X271893500Y-12358134D01*
X271893500Y-11543292D01*
X271913502Y-11475171D01*
X271967158Y-11428678D01*
X272037432Y-11418574D01*
X272102012Y-11448068D01*
X272108595Y-11454197D01*
X279520052Y-18865655D01*
X279554077Y-18927965D01*
X279549012Y-18998780D01*
X279506465Y-19055616D01*
X279441938Y-19080269D01*
X279352730Y-19088074D01*
X279256913Y-19096457D01*
X279251600Y-19097881D01*
X279251598Y-19097881D01*
X279041067Y-19154293D01*
X279041065Y-19154294D01*
X279035757Y-19155716D01*
X279030776Y-19158039D01*
X279030775Y-19158039D01*
X278833238Y-19250151D01*
X278833233Y-19250154D01*
X278828251Y-19252477D01*
X278760704Y-19299774D01*
X278645211Y-19380643D01*
X278645208Y-19380645D01*
X278640700Y-19383802D01*
X278478802Y-19545700D01*
X278475645Y-19550208D01*
X278475643Y-19550211D01*
X278470531Y-19557512D01*
X278347477Y-19733251D01*
X278345154Y-19738233D01*
X278345151Y-19738238D01*
X278328919Y-19773049D01*
X278282002Y-19826334D01*
X278213725Y-19845795D01*
X278145765Y-19825253D01*
X278100529Y-19773049D01*
X278084414Y-19738489D01*
X278078931Y-19728993D01*
X277953972Y-19550533D01*
X277946916Y-19542125D01*
X277792875Y-19388084D01*
X277784467Y-19381028D01*
X277606007Y-19256069D01*
X277596511Y-19250586D01*
X277399053Y-19158510D01*
X277388761Y-19154764D01*
X277216497Y-19108606D01*
X277202401Y-19108942D01*
X277199000Y-19116884D01*
X277199000Y-21657967D01*
X277202973Y-21671498D01*
X277211522Y-21672727D01*
X277388761Y-21625236D01*
X277399053Y-21621490D01*
X277596511Y-21529414D01*
X277606007Y-21523931D01*
X277784467Y-21398972D01*
X277792875Y-21391916D01*
X277946916Y-21237875D01*
X277953972Y-21229467D01*
X278078931Y-21051007D01*
X278084414Y-21041511D01*
X278100529Y-21006951D01*
X278147446Y-20953666D01*
X278215723Y-20934205D01*
X278283683Y-20954747D01*
X278328919Y-21006951D01*
X278345151Y-21041762D01*
X278345154Y-21041767D01*
X278347477Y-21046749D01*
X278478802Y-21234300D01*
X278640700Y-21396198D01*
X278645208Y-21399355D01*
X278645211Y-21399357D01*
X278723389Y-21454098D01*
X278828251Y-21527523D01*
X278833233Y-21529846D01*
X278833238Y-21529849D01*
X278972283Y-21594686D01*
X279035757Y-21624284D01*
X279041065Y-21625706D01*
X279041067Y-21625707D01*
X279251598Y-21682119D01*
X279251600Y-21682119D01*
X279256913Y-21683543D01*
X279485000Y-21703498D01*
X279713087Y-21683543D01*
X279718400Y-21682119D01*
X279718402Y-21682119D01*
X279928933Y-21625707D01*
X279928935Y-21625706D01*
X279934243Y-21624284D01*
X279997717Y-21594686D01*
X280136762Y-21529849D01*
X280136767Y-21529846D01*
X280141749Y-21527523D01*
X280246611Y-21454098D01*
X280324789Y-21399357D01*
X280324792Y-21399355D01*
X280329300Y-21396198D01*
X280491198Y-21234300D01*
X280622523Y-21046749D01*
X280624846Y-21041767D01*
X280624849Y-21041762D01*
X280716961Y-20844225D01*
X280716961Y-20844224D01*
X280719284Y-20839243D01*
X280738793Y-20766437D01*
X280777119Y-20623402D01*
X280777119Y-20623400D01*
X280778543Y-20618087D01*
X280786258Y-20529905D01*
X280794731Y-20433063D01*
X280820595Y-20366945D01*
X280878098Y-20325305D01*
X280948986Y-20321365D01*
X281009347Y-20354950D01*
X289394897Y-28740500D01*
X289428923Y-28802812D01*
X289431802Y-28829595D01*
X289431803Y-29990210D01*
X289442779Y-30096007D01*
X289444963Y-30102553D01*
X289493021Y-30246598D01*
X289498770Y-30263831D01*
X289591866Y-30414273D01*
X289717074Y-30539263D01*
X289867679Y-30632097D01*
X290035600Y-30687794D01*
X290042436Y-30688494D01*
X290042439Y-30688495D01*
X290085747Y-30692932D01*
X290140091Y-30698500D01*
X290834902Y-30698500D01*
X291540512Y-30698499D01*
X291646309Y-30687523D01*
X291805534Y-30634401D01*
X291807189Y-30633849D01*
X291807191Y-30633848D01*
X291814133Y-30631532D01*
X291964575Y-30538436D01*
X291984939Y-30518037D01*
X292084394Y-30418408D01*
X292089565Y-30413228D01*
X292094535Y-30405165D01*
X292178559Y-30268853D01*
X292178560Y-30268852D01*
X292182399Y-30262623D01*
X292238096Y-30094702D01*
X292248802Y-29990211D01*
X292248801Y-28589790D01*
X292237825Y-28483993D01*
X292207876Y-28394225D01*
X292184151Y-28323113D01*
X292184150Y-28323111D01*
X292181834Y-28316169D01*
X292130125Y-28232607D01*
X292092592Y-28171955D01*
X292088738Y-28165727D01*
X291963530Y-28040737D01*
X291957299Y-28036896D01*
X291819155Y-27951743D01*
X291819154Y-27951742D01*
X291812925Y-27947903D01*
X291645004Y-27892206D01*
X291645689Y-27890141D01*
X291592041Y-27860950D01*
X290482224Y-26751132D01*
X291204710Y-26751132D01*
X291204841Y-26752966D01*
X291209092Y-26759580D01*
X291986609Y-27537096D01*
X291998615Y-27543652D01*
X292010354Y-27534684D01*
X292048312Y-27481859D01*
X292053623Y-27473020D01*
X292151620Y-27274737D01*
X292155419Y-27265142D01*
X292219717Y-27053517D01*
X292221896Y-27043436D01*
X292251004Y-26822338D01*
X292251523Y-26815663D01*
X292253046Y-26753364D01*
X292252852Y-26746646D01*
X292234581Y-26524400D01*
X292232898Y-26514238D01*
X292179012Y-26299708D01*
X292175691Y-26289953D01*
X292087495Y-26087118D01*
X292082617Y-26078020D01*
X292009526Y-25965038D01*
X291998840Y-25955835D01*
X291989275Y-25960238D01*
X291212323Y-26737189D01*
X291204710Y-26751132D01*
X290482224Y-26751132D01*
X290481092Y-26750000D01*
X289694166Y-25963075D01*
X289682632Y-25956777D01*
X289670349Y-25966400D01*
X289614769Y-26047877D01*
X289609681Y-26056833D01*
X289516554Y-26257459D01*
X289512991Y-26267146D01*
X289453883Y-26480280D01*
X289451952Y-26490400D01*
X289430203Y-26693909D01*
X289403075Y-26759519D01*
X289344783Y-26800047D01*
X289273833Y-26802626D01*
X289215821Y-26769615D01*
X286621675Y-24175469D01*
X289427397Y-24175469D01*
X289427694Y-24180622D01*
X289427694Y-24180625D01*
X289440210Y-24397699D01*
X289440729Y-24406697D01*
X289441866Y-24411743D01*
X289441867Y-24411749D01*
X289470680Y-24539600D01*
X289491648Y-24632642D01*
X289493590Y-24637424D01*
X289493591Y-24637428D01*
X289553919Y-24785997D01*
X289578786Y-24847237D01*
X289699803Y-25044719D01*
X289851449Y-25219784D01*
X290029651Y-25367730D01*
X290034116Y-25370339D01*
X290038281Y-25372773D01*
X290087002Y-25424414D01*
X290100069Y-25494198D01*
X290073335Y-25559968D01*
X290056625Y-25576221D01*
X290045810Y-25590711D01*
X290052553Y-25603040D01*
X290827491Y-26377979D01*
X290841434Y-26385592D01*
X290843268Y-26385461D01*
X290849882Y-26381210D01*
X291629296Y-25601795D01*
X291636313Y-25588944D01*
X291628539Y-25578275D01*
X291626957Y-25577025D01*
X291585894Y-25519109D01*
X291582661Y-25448186D01*
X291618285Y-25386774D01*
X291631880Y-25375563D01*
X291677369Y-25343116D01*
X291752545Y-25289494D01*
X291916605Y-25126005D01*
X292051760Y-24937917D01*
X292068506Y-24904035D01*
X292152086Y-24734922D01*
X292152087Y-24734920D01*
X292154380Y-24730280D01*
X292221710Y-24508671D01*
X292251942Y-24279041D01*
X292252347Y-24262477D01*
X292253547Y-24213365D01*
X292253547Y-24213361D01*
X292253629Y-24210000D01*
X292244543Y-24099487D01*
X292235075Y-23984318D01*
X292235074Y-23984312D01*
X292234651Y-23979167D01*
X292203567Y-23855417D01*
X292179486Y-23759544D01*
X292179485Y-23759540D01*
X292178227Y-23754533D01*
X292176168Y-23749797D01*
X292087932Y-23546868D01*
X292087930Y-23546865D01*
X292085872Y-23542131D01*
X291960066Y-23347665D01*
X291804189Y-23176358D01*
X291800138Y-23173159D01*
X291800134Y-23173155D01*
X291626479Y-23036011D01*
X291626474Y-23036008D01*
X291622425Y-23032810D01*
X291617909Y-23030317D01*
X291617906Y-23030315D01*
X291424181Y-22923373D01*
X291424177Y-22923371D01*
X291419657Y-22920876D01*
X291414788Y-22919152D01*
X291414784Y-22919150D01*
X291206205Y-22845288D01*
X291206201Y-22845287D01*
X291201330Y-22843562D01*
X291196237Y-22842655D01*
X291196234Y-22842654D01*
X290978397Y-22803851D01*
X290978391Y-22803850D01*
X290973308Y-22802945D01*
X290900398Y-22802054D01*
X290746883Y-22800179D01*
X290746881Y-22800179D01*
X290741713Y-22800116D01*
X290512766Y-22835150D01*
X290292616Y-22907106D01*
X290288028Y-22909494D01*
X290288024Y-22909496D01*
X290127920Y-22992841D01*
X290087174Y-23014052D01*
X290083041Y-23017155D01*
X290083038Y-23017157D01*
X289906092Y-23150012D01*
X289901957Y-23153117D01*
X289898385Y-23156855D01*
X289752760Y-23309243D01*
X289741941Y-23320564D01*
X289739027Y-23324836D01*
X289739026Y-23324837D01*
X289724365Y-23346329D01*
X289611421Y-23511899D01*
X289513904Y-23721981D01*
X289452009Y-23945169D01*
X289427397Y-24175469D01*
X286621675Y-24175469D01*
X281141358Y-18695151D01*
X290387296Y-18695151D01*
X290399480Y-18948798D01*
X290423912Y-19071625D01*
X290446590Y-19185634D01*
X290449021Y-19197857D01*
X290450600Y-19202255D01*
X290450602Y-19202262D01*
X290495022Y-19325980D01*
X290534831Y-19436858D01*
X290537048Y-19440984D01*
X290587381Y-19534658D01*
X290655025Y-19660551D01*
X290657820Y-19664294D01*
X290657822Y-19664297D01*
X290804171Y-19860282D01*
X290804176Y-19860288D01*
X290806963Y-19864020D01*
X290810272Y-19867300D01*
X290810277Y-19867306D01*
X290983990Y-20039509D01*
X290987307Y-20042797D01*
X290991069Y-20045555D01*
X290991072Y-20045558D01*
X291170266Y-20176948D01*
X291192094Y-20192953D01*
X291196229Y-20195129D01*
X291196233Y-20195131D01*
X291249027Y-20222907D01*
X291416827Y-20311191D01*
X291542134Y-20354950D01*
X291576483Y-20366945D01*
X291656568Y-20394912D01*
X291906050Y-20442278D01*
X292026532Y-20447011D01*
X292155125Y-20452064D01*
X292155130Y-20452064D01*
X292159793Y-20452247D01*
X292258774Y-20441407D01*
X292407569Y-20425112D01*
X292407575Y-20425111D01*
X292412222Y-20424602D01*
X292521680Y-20395784D01*
X292653273Y-20361138D01*
X292657793Y-20359948D01*
X292776353Y-20309011D01*
X292886807Y-20261557D01*
X292886810Y-20261555D01*
X292891110Y-20259708D01*
X292895090Y-20257245D01*
X292895094Y-20257243D01*
X293103064Y-20128547D01*
X293103066Y-20128545D01*
X293107047Y-20126082D01*
X293205428Y-20042797D01*
X293297289Y-19965031D01*
X293297291Y-19965029D01*
X293300862Y-19962006D01*
X293468295Y-19771084D01*
X293480636Y-19751899D01*
X293603141Y-19561442D01*
X293605669Y-19557512D01*
X293709967Y-19325980D01*
X293712303Y-19317699D01*
X293729684Y-19256069D01*
X293778896Y-19081575D01*
X293797405Y-18936081D01*
X293810545Y-18832798D01*
X293810545Y-18832792D01*
X293810943Y-18829667D01*
X293813291Y-18740000D01*
X293809015Y-18682460D01*
X293794818Y-18491411D01*
X293794817Y-18491407D01*
X293794472Y-18486759D01*
X293782028Y-18431762D01*
X293739459Y-18243639D01*
X293738428Y-18239082D01*
X293736539Y-18234225D01*
X293648084Y-18006762D01*
X293648083Y-18006760D01*
X293646391Y-18002409D01*
X293625866Y-17966498D01*
X293522702Y-17785997D01*
X293522700Y-17785995D01*
X293520383Y-17781940D01*
X293363171Y-17582517D01*
X293279625Y-17503925D01*
X293181610Y-17411722D01*
X293181608Y-17411720D01*
X293178209Y-17408523D01*
X293058928Y-17325775D01*
X292973393Y-17266437D01*
X292973390Y-17266435D01*
X292969561Y-17263779D01*
X292924429Y-17241522D01*
X292813880Y-17187005D01*
X292761631Y-17138936D01*
X292743665Y-17070251D01*
X292765684Y-17002755D01*
X292820699Y-16957879D01*
X292869609Y-16947999D01*
X293344669Y-16947999D01*
X293351490Y-16947629D01*
X293402352Y-16942105D01*
X293417604Y-16938479D01*
X293538054Y-16893324D01*
X293553649Y-16884786D01*
X293655724Y-16808285D01*
X293668285Y-16795724D01*
X293744786Y-16693649D01*
X293753324Y-16678054D01*
X293798478Y-16557606D01*
X293802105Y-16542351D01*
X293807631Y-16491486D01*
X293808000Y-16484672D01*
X293808000Y-15512115D01*
X293803525Y-15496876D01*
X293802135Y-15495671D01*
X293794452Y-15494000D01*
X290410116Y-15494000D01*
X290394877Y-15498475D01*
X290393672Y-15499865D01*
X290392001Y-15507548D01*
X290392001Y-16484669D01*
X290392371Y-16491490D01*
X290397895Y-16542352D01*
X290401521Y-16557604D01*
X290446676Y-16678054D01*
X290455214Y-16693649D01*
X290531715Y-16795724D01*
X290544276Y-16808285D01*
X290646351Y-16884786D01*
X290661946Y-16893324D01*
X290782394Y-16938478D01*
X290797649Y-16942105D01*
X290848514Y-16947631D01*
X290855328Y-16948000D01*
X291331804Y-16948000D01*
X291399925Y-16968002D01*
X291446418Y-17021658D01*
X291456522Y-17091932D01*
X291427028Y-17156512D01*
X291384556Y-17188425D01*
X291269380Y-17241522D01*
X291265471Y-17244085D01*
X291060928Y-17378189D01*
X291060923Y-17378193D01*
X291057015Y-17380755D01*
X290867562Y-17549848D01*
X290705183Y-17745087D01*
X290573447Y-17962182D01*
X290571638Y-17966496D01*
X290571637Y-17966498D01*
X290493841Y-18152022D01*
X290475246Y-18196365D01*
X290474095Y-18200897D01*
X290474094Y-18200900D01*
X290466896Y-18229243D01*
X290412738Y-18442490D01*
X290387296Y-18695151D01*
X281141358Y-18695151D01*
X279996055Y-17549848D01*
X277414092Y-14967885D01*
X290392000Y-14967885D01*
X290396475Y-14983124D01*
X290397865Y-14984329D01*
X290405548Y-14986000D01*
X291827885Y-14986000D01*
X291843124Y-14981525D01*
X291844329Y-14980135D01*
X291846000Y-14972452D01*
X291846000Y-14967885D01*
X292354000Y-14967885D01*
X292358475Y-14983124D01*
X292359865Y-14984329D01*
X292367548Y-14986000D01*
X293789884Y-14986000D01*
X293805123Y-14981525D01*
X293806328Y-14980135D01*
X293807999Y-14972452D01*
X293807999Y-13995331D01*
X293807629Y-13988510D01*
X293802105Y-13937648D01*
X293798479Y-13922396D01*
X293753324Y-13801946D01*
X293744786Y-13786351D01*
X293668285Y-13684276D01*
X293655724Y-13671715D01*
X293553649Y-13595214D01*
X293538054Y-13586676D01*
X293417606Y-13541522D01*
X293402351Y-13537895D01*
X293351486Y-13532369D01*
X293344672Y-13532000D01*
X292372115Y-13532000D01*
X292356876Y-13536475D01*
X292355671Y-13537865D01*
X292354000Y-13545548D01*
X292354000Y-14967885D01*
X291846000Y-14967885D01*
X291846000Y-13550116D01*
X291841525Y-13534877D01*
X291840135Y-13533672D01*
X291832452Y-13532001D01*
X290855331Y-13532001D01*
X290848510Y-13532371D01*
X290797648Y-13537895D01*
X290782396Y-13541521D01*
X290661946Y-13586676D01*
X290646351Y-13595214D01*
X290544276Y-13671715D01*
X290531715Y-13684276D01*
X290455214Y-13786351D01*
X290446676Y-13801946D01*
X290401522Y-13922394D01*
X290397895Y-13937649D01*
X290392369Y-13988514D01*
X290392000Y-13995328D01*
X290392000Y-14967885D01*
X277414092Y-14967885D01*
X275226207Y-12780000D01*
X276931502Y-12780000D01*
X276951457Y-13008087D01*
X277010716Y-13229243D01*
X277013039Y-13234224D01*
X277013039Y-13234225D01*
X277105151Y-13431762D01*
X277105154Y-13431767D01*
X277107477Y-13436749D01*
X277110634Y-13441257D01*
X277218436Y-13595214D01*
X277238802Y-13624300D01*
X277400700Y-13786198D01*
X277405208Y-13789355D01*
X277405211Y-13789357D01*
X277422843Y-13801703D01*
X277588251Y-13917523D01*
X277593233Y-13919846D01*
X277593238Y-13919849D01*
X277790775Y-14011961D01*
X277795757Y-14014284D01*
X277801065Y-14015706D01*
X277801067Y-14015707D01*
X278011598Y-14072119D01*
X278011600Y-14072119D01*
X278016913Y-14073543D01*
X278245000Y-14093498D01*
X278473087Y-14073543D01*
X278478400Y-14072119D01*
X278478402Y-14072119D01*
X278688933Y-14015707D01*
X278688935Y-14015706D01*
X278694243Y-14014284D01*
X278699225Y-14011961D01*
X278896762Y-13919849D01*
X278896767Y-13919846D01*
X278901749Y-13917523D01*
X279067157Y-13801703D01*
X279084789Y-13789357D01*
X279084792Y-13789355D01*
X279089300Y-13786198D01*
X279251198Y-13624300D01*
X279271565Y-13595214D01*
X279379366Y-13441257D01*
X279382523Y-13436749D01*
X279384846Y-13431767D01*
X279384849Y-13431762D01*
X279476961Y-13234225D01*
X279476961Y-13234224D01*
X279479284Y-13229243D01*
X279538543Y-13008087D01*
X279558498Y-12780000D01*
X281931502Y-12780000D01*
X281951457Y-13008087D01*
X282010716Y-13229243D01*
X282013039Y-13234224D01*
X282013039Y-13234225D01*
X282105151Y-13431762D01*
X282105154Y-13431767D01*
X282107477Y-13436749D01*
X282110634Y-13441257D01*
X282218436Y-13595214D01*
X282238802Y-13624300D01*
X282400700Y-13786198D01*
X282405208Y-13789355D01*
X282405211Y-13789357D01*
X282422843Y-13801703D01*
X282588251Y-13917523D01*
X282593233Y-13919846D01*
X282593238Y-13919849D01*
X282790775Y-14011961D01*
X282795757Y-14014284D01*
X282801065Y-14015706D01*
X282801067Y-14015707D01*
X283011598Y-14072119D01*
X283011600Y-14072119D01*
X283016913Y-14073543D01*
X283245000Y-14093498D01*
X283473087Y-14073543D01*
X283478400Y-14072119D01*
X283478402Y-14072119D01*
X283688933Y-14015707D01*
X283688935Y-14015706D01*
X283694243Y-14014284D01*
X283699225Y-14011961D01*
X283896762Y-13919849D01*
X283896767Y-13919846D01*
X283901749Y-13917523D01*
X284067157Y-13801703D01*
X284084789Y-13789357D01*
X284084792Y-13789355D01*
X284089300Y-13786198D01*
X284251198Y-13624300D01*
X284271565Y-13595214D01*
X284379366Y-13441257D01*
X284382523Y-13436749D01*
X284384846Y-13431767D01*
X284384849Y-13431762D01*
X284476961Y-13234225D01*
X284476961Y-13234224D01*
X284479284Y-13229243D01*
X284538543Y-13008087D01*
X284558498Y-12780000D01*
X284538543Y-12551913D01*
X284512760Y-12455689D01*
X284480707Y-12336067D01*
X284480706Y-12336065D01*
X284479284Y-12330757D01*
X284439657Y-12245775D01*
X284384849Y-12128238D01*
X284384846Y-12128233D01*
X284382523Y-12123251D01*
X284271051Y-11964053D01*
X284254357Y-11940211D01*
X284254355Y-11940208D01*
X284251198Y-11935700D01*
X284089300Y-11773802D01*
X284084792Y-11770645D01*
X284084789Y-11770643D01*
X283925650Y-11659213D01*
X283901749Y-11642477D01*
X283896767Y-11640154D01*
X283896762Y-11640151D01*
X283699225Y-11548039D01*
X283699224Y-11548039D01*
X283694243Y-11545716D01*
X283688935Y-11544294D01*
X283688933Y-11544293D01*
X283478402Y-11487881D01*
X283478400Y-11487881D01*
X283473087Y-11486457D01*
X283245000Y-11466502D01*
X283016913Y-11486457D01*
X283011600Y-11487881D01*
X283011598Y-11487881D01*
X282801067Y-11544293D01*
X282801065Y-11544294D01*
X282795757Y-11545716D01*
X282790776Y-11548039D01*
X282790775Y-11548039D01*
X282593238Y-11640151D01*
X282593233Y-11640154D01*
X282588251Y-11642477D01*
X282564350Y-11659213D01*
X282405211Y-11770643D01*
X282405208Y-11770645D01*
X282400700Y-11773802D01*
X282238802Y-11935700D01*
X282235645Y-11940208D01*
X282235643Y-11940211D01*
X282218949Y-11964053D01*
X282107477Y-12123251D01*
X282105154Y-12128233D01*
X282105151Y-12128238D01*
X282050343Y-12245775D01*
X282010716Y-12330757D01*
X282009294Y-12336065D01*
X282009293Y-12336067D01*
X281977240Y-12455689D01*
X281951457Y-12551913D01*
X281931502Y-12780000D01*
X279558498Y-12780000D01*
X279538543Y-12551913D01*
X279512760Y-12455689D01*
X279480707Y-12336067D01*
X279480706Y-12336065D01*
X279479284Y-12330757D01*
X279439657Y-12245775D01*
X279384849Y-12128238D01*
X279384846Y-12128233D01*
X279382523Y-12123251D01*
X279271051Y-11964053D01*
X279254357Y-11940211D01*
X279254355Y-11940208D01*
X279251198Y-11935700D01*
X279089300Y-11773802D01*
X279084792Y-11770645D01*
X279084789Y-11770643D01*
X278925650Y-11659213D01*
X278901749Y-11642477D01*
X278896767Y-11640154D01*
X278896762Y-11640151D01*
X278699225Y-11548039D01*
X278699224Y-11548039D01*
X278694243Y-11545716D01*
X278688935Y-11544294D01*
X278688933Y-11544293D01*
X278478402Y-11487881D01*
X278478400Y-11487881D01*
X278473087Y-11486457D01*
X278245000Y-11466502D01*
X278016913Y-11486457D01*
X278011600Y-11487881D01*
X278011598Y-11487881D01*
X277801067Y-11544293D01*
X277801065Y-11544294D01*
X277795757Y-11545716D01*
X277790776Y-11548039D01*
X277790775Y-11548039D01*
X277593238Y-11640151D01*
X277593233Y-11640154D01*
X277588251Y-11642477D01*
X277564350Y-11659213D01*
X277405211Y-11770643D01*
X277405208Y-11770645D01*
X277400700Y-11773802D01*
X277238802Y-11935700D01*
X277235645Y-11940208D01*
X277235643Y-11940211D01*
X277218949Y-11964053D01*
X277107477Y-12123251D01*
X277105154Y-12128233D01*
X277105151Y-12128238D01*
X277050343Y-12245775D01*
X277010716Y-12330757D01*
X277009294Y-12336065D01*
X277009293Y-12336067D01*
X276977240Y-12455689D01*
X276951457Y-12551913D01*
X276931502Y-12780000D01*
X275226207Y-12780000D01*
X269673954Y-7227747D01*
X269666414Y-7219461D01*
X269662302Y-7212982D01*
X269612650Y-7166356D01*
X269609809Y-7163602D01*
X269590072Y-7143865D01*
X269586875Y-7141385D01*
X269577853Y-7133680D01*
X269564418Y-7121064D01*
X269545623Y-7103414D01*
X269538677Y-7099595D01*
X269538674Y-7099593D01*
X269527868Y-7093652D01*
X269511349Y-7082801D01*
X269510885Y-7082441D01*
X269495343Y-7070386D01*
X269488074Y-7067241D01*
X269488070Y-7067238D01*
X269454765Y-7052826D01*
X269444115Y-7047609D01*
X269405362Y-7026305D01*
X269385739Y-7021267D01*
X269367036Y-7014863D01*
X269355722Y-7009967D01*
X269355721Y-7009967D01*
X269348447Y-7006819D01*
X269340624Y-7005580D01*
X269340614Y-7005577D01*
X269304778Y-6999901D01*
X269293158Y-6997495D01*
X269258013Y-6988472D01*
X269258012Y-6988472D01*
X269250332Y-6986500D01*
X269230078Y-6986500D01*
X269210367Y-6984949D01*
X269207836Y-6984548D01*
X269190359Y-6981780D01*
X269182467Y-6982526D01*
X269146341Y-6985941D01*
X269134483Y-6986500D01*
X257888763Y-6986500D01*
X257877579Y-6985973D01*
X257870091Y-6984299D01*
X257862168Y-6984548D01*
X257802033Y-6986438D01*
X257798075Y-6986500D01*
X257770144Y-6986500D01*
X257766229Y-6986995D01*
X257766225Y-6986995D01*
X257766167Y-6987003D01*
X257766138Y-6987006D01*
X257754296Y-6987939D01*
X257710110Y-6989327D01*
X257692744Y-6994372D01*
X257690658Y-6994978D01*
X257671306Y-6998986D01*
X257659068Y-7000532D01*
X257659066Y-7000533D01*
X257651203Y-7001526D01*
X257610086Y-7017806D01*
X257598885Y-7021641D01*
X257556406Y-7033982D01*
X257549587Y-7038015D01*
X257549582Y-7038017D01*
X257538971Y-7044293D01*
X257521221Y-7052990D01*
X257502383Y-7060448D01*
X257495967Y-7065109D01*
X257495966Y-7065110D01*
X257466625Y-7086428D01*
X257456701Y-7092947D01*
X257425460Y-7111422D01*
X257425455Y-7111426D01*
X257418637Y-7115458D01*
X257404313Y-7129782D01*
X257389281Y-7142621D01*
X257372893Y-7154528D01*
X257356648Y-7174165D01*
X257344712Y-7188593D01*
X257336722Y-7197373D01*
X254877747Y-9656348D01*
X254869461Y-9663888D01*
X254862982Y-9668000D01*
X254857557Y-9673777D01*
X254816357Y-9717651D01*
X254813602Y-9720493D01*
X254793865Y-9740230D01*
X254791385Y-9743427D01*
X254783682Y-9752447D01*
X254753414Y-9784679D01*
X254749595Y-9791625D01*
X254749593Y-9791628D01*
X254743652Y-9802434D01*
X254732801Y-9818953D01*
X254720386Y-9834959D01*
X254717241Y-9842228D01*
X254717238Y-9842232D01*
X254702826Y-9875537D01*
X254697609Y-9886187D01*
X254676305Y-9924940D01*
X254674334Y-9932615D01*
X254674334Y-9932616D01*
X254671267Y-9944562D01*
X254664863Y-9963266D01*
X254656819Y-9981855D01*
X254655580Y-9989678D01*
X254655577Y-9989688D01*
X254649901Y-10025524D01*
X254647495Y-10037144D01*
X254636500Y-10079970D01*
X254636500Y-10100224D01*
X254634949Y-10119934D01*
X254631780Y-10139943D01*
X254632526Y-10147835D01*
X254635941Y-10183961D01*
X254636500Y-10195819D01*
X254636500Y-14140406D01*
X254616498Y-14208527D01*
X254599595Y-14229501D01*
X253660071Y-15169025D01*
X253597759Y-15203051D01*
X253526944Y-15197986D01*
X253470108Y-15155439D01*
X253445456Y-15090912D01*
X253439024Y-15017405D01*
X253439022Y-15017393D01*
X253438543Y-15011913D01*
X253430028Y-14980135D01*
X253380707Y-14796067D01*
X253380706Y-14796065D01*
X253379284Y-14790757D01*
X253370896Y-14772768D01*
X253284849Y-14588238D01*
X253284846Y-14588233D01*
X253282523Y-14583251D01*
X253206765Y-14475057D01*
X253154357Y-14400211D01*
X253154355Y-14400208D01*
X253151198Y-14395700D01*
X252989300Y-14233802D01*
X252984792Y-14230645D01*
X252984789Y-14230643D01*
X252855917Y-14140406D01*
X252801749Y-14102477D01*
X252796767Y-14100154D01*
X252796762Y-14100151D01*
X252762543Y-14084195D01*
X252709258Y-14037278D01*
X252689797Y-13969001D01*
X252710339Y-13901041D01*
X252762543Y-13855805D01*
X252796762Y-13839849D01*
X252796767Y-13839846D01*
X252801749Y-13837523D01*
X252924558Y-13751531D01*
X252984789Y-13709357D01*
X252984792Y-13709355D01*
X252989300Y-13706198D01*
X253151198Y-13544300D01*
X253159553Y-13532369D01*
X253279366Y-13361257D01*
X253282523Y-13356749D01*
X253284846Y-13351767D01*
X253284849Y-13351762D01*
X253376961Y-13154225D01*
X253376961Y-13154224D01*
X253379284Y-13149243D01*
X253438543Y-12928087D01*
X253458498Y-12700000D01*
X253438543Y-12471913D01*
X253431389Y-12445212D01*
X253380706Y-12256065D01*
X253379284Y-12250757D01*
X253361991Y-12213671D01*
X253284849Y-12048238D01*
X253284846Y-12048233D01*
X253282523Y-12043251D01*
X253167366Y-11878790D01*
X253154357Y-11860211D01*
X253154355Y-11860208D01*
X253151198Y-11855700D01*
X252989300Y-11693802D01*
X252984792Y-11690645D01*
X252984789Y-11690643D01*
X252939902Y-11659213D01*
X252895574Y-11603756D01*
X252888265Y-11533136D01*
X252920296Y-11469776D01*
X252981497Y-11433791D01*
X253012173Y-11430000D01*
X254000000Y-11430000D01*
X254000000Y-5212703D01*
X289990743Y-5212703D01*
X290028268Y-5497734D01*
X290104129Y-5775036D01*
X290216923Y-6039476D01*
X290228693Y-6059142D01*
X290355366Y-6270797D01*
X290364561Y-6286161D01*
X290544313Y-6510528D01*
X290752851Y-6708423D01*
X290986317Y-6876186D01*
X290990112Y-6878195D01*
X290990113Y-6878196D01*
X291011869Y-6889715D01*
X291240392Y-7010712D01*
X291349028Y-7050467D01*
X291483271Y-7099593D01*
X291510373Y-7109511D01*
X291791264Y-7170755D01*
X291819841Y-7173004D01*
X292014282Y-7188307D01*
X292014291Y-7188307D01*
X292016739Y-7188500D01*
X292172271Y-7188500D01*
X292174407Y-7188354D01*
X292174418Y-7188354D01*
X292382548Y-7174165D01*
X292382554Y-7174164D01*
X292386825Y-7173873D01*
X292391020Y-7173004D01*
X292391022Y-7173004D01*
X292543671Y-7141392D01*
X292668342Y-7115574D01*
X292939343Y-7019607D01*
X293194812Y-6887750D01*
X293198313Y-6885289D01*
X293198317Y-6885287D01*
X293313023Y-6804670D01*
X293430023Y-6722441D01*
X293617917Y-6547839D01*
X293637479Y-6529661D01*
X293637481Y-6529658D01*
X293640622Y-6526740D01*
X293822713Y-6304268D01*
X293972927Y-6059142D01*
X294088483Y-5795898D01*
X294167244Y-5519406D01*
X294207751Y-5234784D01*
X294207845Y-5216951D01*
X294209235Y-4951583D01*
X294209235Y-4951576D01*
X294209257Y-4947297D01*
X294171732Y-4662266D01*
X294095871Y-4384964D01*
X293983077Y-4120524D01*
X293835439Y-3873839D01*
X293655687Y-3649472D01*
X293447149Y-3451577D01*
X293213683Y-3283814D01*
X293191843Y-3272250D01*
X293071294Y-3208423D01*
X292959608Y-3149288D01*
X292689627Y-3050489D01*
X292408736Y-2989245D01*
X292377685Y-2986801D01*
X292185718Y-2971693D01*
X292185709Y-2971693D01*
X292183261Y-2971500D01*
X292027729Y-2971500D01*
X292025593Y-2971646D01*
X292025582Y-2971646D01*
X291817452Y-2985835D01*
X291817446Y-2985836D01*
X291813175Y-2986127D01*
X291808980Y-2986996D01*
X291808978Y-2986996D01*
X291672416Y-3015277D01*
X291531658Y-3044426D01*
X291260657Y-3140393D01*
X291005188Y-3272250D01*
X291001687Y-3274711D01*
X291001683Y-3274713D01*
X290991594Y-3281804D01*
X290769977Y-3437559D01*
X290754892Y-3451577D01*
X290574724Y-3619000D01*
X290559378Y-3633260D01*
X290377287Y-3855732D01*
X290227073Y-4100858D01*
X290111517Y-4364102D01*
X290032756Y-4640594D01*
X289992249Y-4925216D01*
X289992227Y-4929505D01*
X289992226Y-4929512D01*
X289991736Y-5023116D01*
X289990743Y-5212703D01*
X254000000Y-5212703D01*
X254000000Y-3810000D01*
X227330000Y-3810000D01*
X227330000Y-11430000D01*
X224732135Y-11430000D01*
X224732135Y-11424525D01*
X224714671Y-11224909D01*
X224712769Y-11214122D01*
X224660907Y-11020571D01*
X224657159Y-11010277D01*
X224572479Y-10828677D01*
X224567001Y-10819189D01*
X224545689Y-10788752D01*
X224535212Y-10780377D01*
X224521764Y-10787446D01*
X223892022Y-11417188D01*
X223884408Y-11431132D01*
X223154356Y-11431132D01*
X223155592Y-11428868D01*
X223155461Y-11427035D01*
X223151210Y-11420420D01*
X222517514Y-10786724D01*
X222505739Y-10780294D01*
X222493724Y-10789590D01*
X222472999Y-10819189D01*
X222467521Y-10828677D01*
X222382841Y-11010277D01*
X222379093Y-11020571D01*
X222327231Y-11214122D01*
X222325329Y-11224909D01*
X222307865Y-11424525D01*
X222307865Y-11435475D01*
X217112637Y-11435475D01*
X217113116Y-11430000D01*
X217094686Y-11219345D01*
X217072504Y-11136559D01*
X217041379Y-11020400D01*
X217041378Y-11020398D01*
X217039956Y-11015090D01*
X216950589Y-10823442D01*
X216829301Y-10650224D01*
X216679776Y-10500699D01*
X216557082Y-10414788D01*
X222870377Y-10414788D01*
X222877446Y-10428236D01*
X223507188Y-11057978D01*
X223521132Y-11065592D01*
X223522965Y-11065461D01*
X223529580Y-11061210D01*
X224163276Y-10427514D01*
X224169706Y-10415739D01*
X224160410Y-10403724D01*
X224130811Y-10382999D01*
X224121323Y-10377521D01*
X223939723Y-10292841D01*
X223929429Y-10289093D01*
X223735878Y-10237231D01*
X223725091Y-10235329D01*
X223525475Y-10217865D01*
X223514525Y-10217865D01*
X223314909Y-10235329D01*
X223304122Y-10237231D01*
X223110571Y-10289093D01*
X223100277Y-10292841D01*
X222918677Y-10377521D01*
X222909189Y-10382999D01*
X222878752Y-10404311D01*
X222870377Y-10414788D01*
X216557082Y-10414788D01*
X216506558Y-10379411D01*
X216501580Y-10377090D01*
X216501577Y-10377088D01*
X216319892Y-10292367D01*
X216319891Y-10292366D01*
X216314910Y-10290044D01*
X216309602Y-10288622D01*
X216309600Y-10288621D01*
X216115970Y-10236738D01*
X216115968Y-10236738D01*
X216110655Y-10235314D01*
X215900000Y-10216884D01*
X215689345Y-10235314D01*
X215684032Y-10236738D01*
X215684030Y-10236738D01*
X215490400Y-10288621D01*
X215490398Y-10288622D01*
X215485090Y-10290044D01*
X215480109Y-10292366D01*
X215480108Y-10292367D01*
X215298423Y-10377088D01*
X215298420Y-10377090D01*
X215293442Y-10379411D01*
X215120224Y-10500699D01*
X214970699Y-10650224D01*
X214849411Y-10823442D01*
X214760044Y-11015090D01*
X214758622Y-11020398D01*
X214758621Y-11020400D01*
X214727496Y-11136559D01*
X214705314Y-11219345D01*
X214686884Y-11430000D01*
X207783345Y-11430000D01*
X207947327Y-11323915D01*
X207955498Y-11317622D01*
X208125480Y-11162950D01*
X208132506Y-11155417D01*
X208274945Y-10975056D01*
X208280650Y-10966469D01*
X208391714Y-10765278D01*
X208395944Y-10755866D01*
X208472659Y-10539232D01*
X208475293Y-10529261D01*
X208492647Y-10431837D01*
X208491187Y-10418540D01*
X208476630Y-10414000D01*
X207282115Y-10414000D01*
X207266876Y-10418475D01*
X207265671Y-10419865D01*
X207264000Y-10427548D01*
X207264000Y-11590412D01*
X206755853Y-11590412D01*
X206756000Y-11589876D01*
X206756000Y-10432115D01*
X206751525Y-10416876D01*
X206750135Y-10415671D01*
X206742452Y-10414000D01*
X205541904Y-10414000D01*
X205528560Y-10417918D01*
X205526573Y-10432194D01*
X193548000Y-10432194D01*
X193548000Y-7722263D01*
X205500064Y-7722263D01*
X205536404Y-7959744D01*
X205573094Y-8071997D01*
X205609434Y-8183183D01*
X205609437Y-8183189D01*
X205611042Y-8188101D01*
X205613429Y-8192687D01*
X205613431Y-8192691D01*
X205646585Y-8256379D01*
X205721975Y-8401200D01*
X205866223Y-8593320D01*
X206039912Y-8759301D01*
X206077351Y-8784840D01*
X206122352Y-8839751D01*
X206130523Y-8910275D01*
X206099269Y-8974022D01*
X206074790Y-8994716D01*
X206072674Y-8996085D01*
X206064502Y-9002378D01*
X205894520Y-9157050D01*
X205887494Y-9164583D01*
X205745055Y-9344944D01*
X205739350Y-9353531D01*
X205628286Y-9554722D01*
X205624056Y-9564134D01*
X205547341Y-9780768D01*
X205544707Y-9790739D01*
X205527353Y-9888163D01*
X205528813Y-9901460D01*
X205543370Y-9906000D01*
X208478096Y-9906000D01*
X208491440Y-9902082D01*
X208493427Y-9887806D01*
X208483890Y-9825485D01*
X208481501Y-9815457D01*
X208410102Y-9597012D01*
X208406105Y-9587503D01*
X208299989Y-9383656D01*
X208294495Y-9374931D01*
X208156507Y-9191148D01*
X208149664Y-9183441D01*
X207983509Y-9024661D01*
X207975502Y-9018177D01*
X207942644Y-8995763D01*
X207897641Y-8940852D01*
X207889468Y-8870328D01*
X207920722Y-8806580D01*
X207945204Y-8785884D01*
X207947635Y-8784311D01*
X207951977Y-8781502D01*
X208129670Y-8619814D01*
X208190347Y-8542983D01*
X208275367Y-8435330D01*
X208275370Y-8435325D01*
X208278568Y-8431276D01*
X208292885Y-8405342D01*
X208392177Y-8225474D01*
X208392179Y-8225470D01*
X208394674Y-8220950D01*
X208474870Y-7994485D01*
X208480183Y-7964659D01*
X208516095Y-7763052D01*
X208516096Y-7763046D01*
X208517001Y-7757963D01*
X208519936Y-7517737D01*
X208483596Y-7280256D01*
X208437017Y-7137745D01*
X208410566Y-7056817D01*
X208410563Y-7056811D01*
X208408958Y-7051899D01*
X208401732Y-7038017D01*
X208300416Y-6843393D01*
X208298025Y-6838800D01*
X208181585Y-6683717D01*
X208156680Y-6617235D01*
X208171672Y-6547839D01*
X208221802Y-6497565D01*
X208238115Y-6490085D01*
X208248293Y-6486269D01*
X208248296Y-6486267D01*
X208256705Y-6483115D01*
X208373261Y-6395761D01*
X208460615Y-6279205D01*
X208511745Y-6142816D01*
X208518500Y-6080634D01*
X208518500Y-4079366D01*
X208511745Y-4017184D01*
X208460615Y-3880795D01*
X208407557Y-3810000D01*
X214686884Y-3810000D01*
X214705314Y-4020655D01*
X214706738Y-4025968D01*
X214706738Y-4025970D01*
X214721046Y-4079366D01*
X214760044Y-4224910D01*
X214762366Y-4229891D01*
X214762367Y-4229892D01*
X214836609Y-4389103D01*
X214849411Y-4416558D01*
X214970699Y-4589776D01*
X215120224Y-4739301D01*
X215293442Y-4860589D01*
X215298420Y-4862910D01*
X215298423Y-4862912D01*
X215480108Y-4947633D01*
X215485090Y-4949956D01*
X215490398Y-4951378D01*
X215490400Y-4951379D01*
X215684030Y-5003262D01*
X215684032Y-5003262D01*
X215689345Y-5004686D01*
X215900000Y-5023116D01*
X216110655Y-5004686D01*
X216115968Y-5003262D01*
X216115970Y-5003262D01*
X216309600Y-4951379D01*
X216309602Y-4951378D01*
X216314910Y-4949956D01*
X216319892Y-4947633D01*
X216501577Y-4862912D01*
X216501580Y-4862910D01*
X216506558Y-4860589D01*
X216679776Y-4739301D01*
X216829301Y-4589776D01*
X216950589Y-4416558D01*
X216963392Y-4389103D01*
X217037633Y-4229892D01*
X217037634Y-4229891D01*
X217039956Y-4224910D01*
X217078955Y-4079366D01*
X217093262Y-4025970D01*
X217093262Y-4025968D01*
X217094686Y-4020655D01*
X217113116Y-3810000D01*
X222306884Y-3810000D01*
X222325314Y-4020655D01*
X222326738Y-4025968D01*
X222326738Y-4025970D01*
X222341046Y-4079366D01*
X222380044Y-4224910D01*
X222382366Y-4229891D01*
X222382367Y-4229892D01*
X222456609Y-4389103D01*
X222469411Y-4416558D01*
X222590699Y-4589776D01*
X222740224Y-4739301D01*
X222913442Y-4860589D01*
X222918420Y-4862910D01*
X222918423Y-4862912D01*
X223100108Y-4947633D01*
X223105090Y-4949956D01*
X223110398Y-4951378D01*
X223110400Y-4951379D01*
X223304030Y-5003262D01*
X223304032Y-5003262D01*
X223309345Y-5004686D01*
X223520000Y-5023116D01*
X223730655Y-5004686D01*
X223735968Y-5003262D01*
X223735970Y-5003262D01*
X223929600Y-4951379D01*
X223929602Y-4951378D01*
X223934910Y-4949956D01*
X223939892Y-4947633D01*
X224121577Y-4862912D01*
X224121580Y-4862910D01*
X224126558Y-4860589D01*
X224299776Y-4739301D01*
X224449301Y-4589776D01*
X224570589Y-4416558D01*
X224583392Y-4389103D01*
X224657633Y-4229892D01*
X224657634Y-4229891D01*
X224659956Y-4224910D01*
X224698955Y-4079366D01*
X224713262Y-4025970D01*
X224713262Y-4025968D01*
X224714686Y-4020655D01*
X224733116Y-3810000D01*
X224714686Y-3599345D01*
X224659956Y-3395090D01*
X224602675Y-3272250D01*
X224572912Y-3208423D01*
X224572910Y-3208420D01*
X224570589Y-3203442D01*
X224449301Y-3030224D01*
X224299776Y-2880699D01*
X224126558Y-2759411D01*
X224121580Y-2757090D01*
X224121577Y-2757088D01*
X223939892Y-2672367D01*
X223939891Y-2672366D01*
X223934910Y-2670044D01*
X223929602Y-2668622D01*
X223929600Y-2668621D01*
X223735970Y-2616738D01*
X223735968Y-2616738D01*
X223730655Y-2615314D01*
X223520000Y-2596884D01*
X223309345Y-2615314D01*
X223304032Y-2616738D01*
X223304030Y-2616738D01*
X223110400Y-2668621D01*
X223110398Y-2668622D01*
X223105090Y-2670044D01*
X223100109Y-2672366D01*
X223100108Y-2672367D01*
X222918423Y-2757088D01*
X222918420Y-2757090D01*
X222913442Y-2759411D01*
X222740224Y-2880699D01*
X222590699Y-3030224D01*
X222469411Y-3203442D01*
X222467090Y-3208420D01*
X222467088Y-3208423D01*
X222437325Y-3272250D01*
X222380044Y-3395090D01*
X222325314Y-3599345D01*
X222306884Y-3810000D01*
X217113116Y-3810000D01*
X217094686Y-3599345D01*
X217039956Y-3395090D01*
X216982675Y-3272250D01*
X216952912Y-3208423D01*
X216952910Y-3208420D01*
X216950589Y-3203442D01*
X216829301Y-3030224D01*
X216679776Y-2880699D01*
X216506558Y-2759411D01*
X216501580Y-2757090D01*
X216501577Y-2757088D01*
X216319892Y-2672367D01*
X216319891Y-2672366D01*
X216314910Y-2670044D01*
X216309602Y-2668622D01*
X216309600Y-2668621D01*
X216115970Y-2616738D01*
X216115968Y-2616738D01*
X216110655Y-2615314D01*
X215900000Y-2596884D01*
X215689345Y-2615314D01*
X215684032Y-2616738D01*
X215684030Y-2616738D01*
X215490400Y-2668621D01*
X215490398Y-2668622D01*
X215485090Y-2670044D01*
X215480109Y-2672366D01*
X215480108Y-2672367D01*
X215298423Y-2757088D01*
X215298420Y-2757090D01*
X215293442Y-2759411D01*
X215120224Y-2880699D01*
X214970699Y-3030224D01*
X214849411Y-3203442D01*
X214847090Y-3208420D01*
X214847088Y-3208423D01*
X214817325Y-3272250D01*
X214760044Y-3395090D01*
X214705314Y-3599345D01*
X214686884Y-3810000D01*
X208407557Y-3810000D01*
X208373261Y-3764239D01*
X208256705Y-3676885D01*
X208120316Y-3625755D01*
X208058134Y-3619000D01*
X205961866Y-3619000D01*
X205899684Y-3625755D01*
X205763295Y-3676885D01*
X205646739Y-3764239D01*
X205559385Y-3880795D01*
X205508255Y-4017184D01*
X205501500Y-4079366D01*
X205501500Y-6080634D01*
X205508255Y-6142816D01*
X205559385Y-6279205D01*
X205646739Y-6395761D01*
X205763295Y-6483115D01*
X205783189Y-6490573D01*
X205839953Y-6533213D01*
X205864654Y-6599774D01*
X205849447Y-6669123D01*
X205837842Y-6686647D01*
X205744633Y-6804670D01*
X205744630Y-6804675D01*
X205741432Y-6808724D01*
X205738939Y-6813240D01*
X205738937Y-6813243D01*
X205627823Y-7014526D01*
X205625326Y-7019050D01*
X205623602Y-7023919D01*
X205623600Y-7023923D01*
X205551422Y-7227747D01*
X205545130Y-7245515D01*
X205544223Y-7250608D01*
X205544222Y-7250611D01*
X205538942Y-7280256D01*
X205502999Y-7482037D01*
X205500064Y-7722263D01*
X193548000Y-7722263D01*
X193548000Y-5212703D01*
X194740743Y-5212703D01*
X194778268Y-5497734D01*
X194854129Y-5775036D01*
X194966923Y-6039476D01*
X194978693Y-6059142D01*
X195105366Y-6270797D01*
X195114561Y-6286161D01*
X195294313Y-6510528D01*
X195502851Y-6708423D01*
X195736317Y-6876186D01*
X195740112Y-6878195D01*
X195740113Y-6878196D01*
X195761869Y-6889715D01*
X195990392Y-7010712D01*
X196099028Y-7050467D01*
X196233271Y-7099593D01*
X196260373Y-7109511D01*
X196541264Y-7170755D01*
X196569841Y-7173004D01*
X196764282Y-7188307D01*
X196764291Y-7188307D01*
X196766739Y-7188500D01*
X196922271Y-7188500D01*
X196924407Y-7188354D01*
X196924418Y-7188354D01*
X197132548Y-7174165D01*
X197132554Y-7174164D01*
X197136825Y-7173873D01*
X197141020Y-7173004D01*
X197141022Y-7173004D01*
X197293671Y-7141392D01*
X197418342Y-7115574D01*
X197689343Y-7019607D01*
X197944812Y-6887750D01*
X197948313Y-6885289D01*
X197948317Y-6885287D01*
X198063023Y-6804670D01*
X198180023Y-6722441D01*
X198367917Y-6547839D01*
X198387479Y-6529661D01*
X198387481Y-6529658D01*
X198390622Y-6526740D01*
X198572713Y-6304268D01*
X198722927Y-6059142D01*
X198838483Y-5795898D01*
X198917244Y-5519406D01*
X198957751Y-5234784D01*
X198957845Y-5216951D01*
X198959235Y-4951583D01*
X198959235Y-4951576D01*
X198959257Y-4947297D01*
X198921732Y-4662266D01*
X198845871Y-4384964D01*
X198733077Y-4120524D01*
X198585439Y-3873839D01*
X198405687Y-3649472D01*
X198197149Y-3451577D01*
X197963683Y-3283814D01*
X197941843Y-3272250D01*
X197821294Y-3208423D01*
X197709608Y-3149288D01*
X197439627Y-3050489D01*
X197158736Y-2989245D01*
X197127685Y-2986801D01*
X196935718Y-2971693D01*
X196935709Y-2971693D01*
X196933261Y-2971500D01*
X196777729Y-2971500D01*
X196775593Y-2971646D01*
X196775582Y-2971646D01*
X196567452Y-2985835D01*
X196567446Y-2985836D01*
X196563175Y-2986127D01*
X196558980Y-2986996D01*
X196558978Y-2986996D01*
X196422416Y-3015277D01*
X196281658Y-3044426D01*
X196010657Y-3140393D01*
X195755188Y-3272250D01*
X195751687Y-3274711D01*
X195751683Y-3274713D01*
X195741594Y-3281804D01*
X195519977Y-3437559D01*
X195504892Y-3451577D01*
X195324724Y-3619000D01*
X195309378Y-3633260D01*
X195127287Y-3855732D01*
X194977073Y-4100858D01*
X194861517Y-4364102D01*
X194782756Y-4640594D01*
X194742249Y-4925216D01*
X194742227Y-4929505D01*
X194742226Y-4929512D01*
X194741736Y-5023116D01*
X194740743Y-5212703D01*
X193548000Y-5212703D01*
X193548000Y-634000D01*
X193568002Y-565879D01*
X193621658Y-519386D01*
X193674000Y-508000D01*
X295276000Y-508000D01*
X295344121Y-528002D01*
G37*
%TD.AperFunction*%
%TD*%
M02*
