%TF.GenerationSoftware,KiCad,Pcbnew,(6.0.2-0)*%
%TF.CreationDate,2024-01-10T11:36:12-05:00*%
%TF.ProjectId,arduino_control_rgb,61726475-696e-46f5-9f63-6f6e74726f6c,rev?*%
%TF.SameCoordinates,Original*%
%TF.FileFunction,Copper,L1,Top*%
%TF.FilePolarity,Positive*%
%FSLAX46Y46*%
G04 Gerber Fmt 4.6, Leading zero omitted, Abs format (unit mm)*
G04 Created by KiCad (PCBNEW (6.0.2-0)) date 2024-01-10 11:36:12*
%MOMM*%
%LPD*%
G01*
G04 APERTURE LIST*
G04 Aperture macros list*
%AMRoundRect*
0 Rectangle with rounded corners*
0 $1 Rounding radius*
0 $2 $3 $4 $5 $6 $7 $8 $9 X,Y pos of 4 corners*
0 Add a 4 corners polygon primitive as box body*
4,1,4,$2,$3,$4,$5,$6,$7,$8,$9,$2,$3,0*
0 Add four circle primitives for the rounded corners*
1,1,$1+$1,$2,$3*
1,1,$1+$1,$4,$5*
1,1,$1+$1,$6,$7*
1,1,$1+$1,$8,$9*
0 Add four rect primitives between the rounded corners*
20,1,$1+$1,$2,$3,$4,$5,0*
20,1,$1+$1,$4,$5,$6,$7,0*
20,1,$1+$1,$6,$7,$8,$9,0*
20,1,$1+$1,$8,$9,$2,$3,0*%
G04 Aperture macros list end*
%TA.AperFunction,ComponentPad*%
%ADD10R,2.000000X2.000000*%
%TD*%
%TA.AperFunction,ComponentPad*%
%ADD11O,2.000000X1.600000*%
%TD*%
%TA.AperFunction,ComponentPad*%
%ADD12RoundRect,0.250200X0.649800X-0.649800X0.649800X0.649800X-0.649800X0.649800X-0.649800X-0.649800X0*%
%TD*%
%TA.AperFunction,ComponentPad*%
%ADD13C,1.800000*%
%TD*%
%TA.AperFunction,ComponentPad*%
%ADD14R,1.600000X1.600000*%
%TD*%
%TA.AperFunction,ComponentPad*%
%ADD15O,1.600000X1.600000*%
%TD*%
%TA.AperFunction,ComponentPad*%
%ADD16C,1.400000*%
%TD*%
%TA.AperFunction,ComponentPad*%
%ADD17O,1.400000X1.400000*%
%TD*%
%TA.AperFunction,ComponentPad*%
%ADD18R,2.000000X1.905000*%
%TD*%
%TA.AperFunction,ComponentPad*%
%ADD19O,2.000000X1.905000*%
%TD*%
%TA.AperFunction,ComponentPad*%
%ADD20C,2.000000*%
%TD*%
%TA.AperFunction,ComponentPad*%
%ADD21O,2.000000X2.000000*%
%TD*%
%TA.AperFunction,ComponentPad*%
%ADD22C,2.400000*%
%TD*%
%TA.AperFunction,ComponentPad*%
%ADD23R,2.400000X2.400000*%
%TD*%
%TA.AperFunction,ComponentPad*%
%ADD24R,1.800000X1.800000*%
%TD*%
%TA.AperFunction,ComponentPad*%
%ADD25O,1.800000X1.800000*%
%TD*%
%TA.AperFunction,ComponentPad*%
%ADD26C,1.600000*%
%TD*%
%TA.AperFunction,Conductor*%
%ADD27C,0.250000*%
%TD*%
G04 APERTURE END LIST*
D10*
%TO.P,U5,1,~{RST}*%
%TO.N,unconnected-(U5-Pad1)*%
X229085000Y-12700000D03*
D11*
%TO.P,U5,2,A0*%
%TO.N,unconnected-(U5-Pad2)*%
X229085000Y-15240000D03*
%TO.P,U5,3,D0*%
%TO.N,unconnected-(U5-Pad3)*%
X229085000Y-17780000D03*
%TO.P,U5,4,SCK/D5*%
%TO.N,Net-(R1-Pad1)*%
X229085000Y-20320000D03*
%TO.P,U5,5,MISO/D6*%
%TO.N,Net-(R2-Pad1)*%
X229085000Y-22860000D03*
%TO.P,U5,6,MOSI/D7*%
%TO.N,Net-(R3-Pad1)*%
X229085000Y-25400000D03*
%TO.P,U5,7,CS/D8*%
%TO.N,unconnected-(U5-Pad7)*%
X229085000Y-27940000D03*
%TO.P,U5,8,3V3*%
%TO.N,3V3DC*%
X229085000Y-30480000D03*
%TO.P,U5,9,5V*%
%TO.N,unconnected-(U5-Pad9)*%
X251945000Y-30480000D03*
%TO.P,U5,10,GND*%
%TO.N,GND*%
X251945000Y-27940000D03*
%TO.P,U5,11,D4*%
%TO.N,unconnected-(U5-Pad11)*%
X251945000Y-25400000D03*
%TO.P,U5,12,D3*%
%TO.N,unconnected-(U5-Pad12)*%
X251945000Y-22860000D03*
%TO.P,U5,13,SDA/D2*%
%TO.N,unconnected-(U5-Pad13)*%
X251945000Y-20320000D03*
%TO.P,U5,14,SCL/D1*%
%TO.N,Net-(U4-Pad1)*%
X251945000Y-17780000D03*
%TO.P,U5,15,RX*%
%TO.N,unconnected-(U5-Pad15)*%
X251945000Y-15240000D03*
%TO.P,U5,16,TX*%
%TO.N,unconnected-(U5-Pad16)*%
X251945000Y-12700000D03*
%TD*%
D12*
%TO.P,U4,1,OUT*%
%TO.N,Net-(U4-Pad1)*%
X290840302Y-29290000D03*
D13*
%TO.P,U4,2,GND*%
%TO.N,GND*%
X290840302Y-26750000D03*
%TO.P,U4,3,Vs*%
%TO.N,3V3DC*%
X290840302Y-24210000D03*
%TD*%
D14*
%TO.P,U3,1,CB*%
%TO.N,Net-(C2-Pad2)*%
X271865000Y-28010000D03*
D15*
%TO.P,U3,2,NC*%
%TO.N,unconnected-(U3-Pad2)*%
X274405000Y-28010000D03*
%TO.P,U3,3,NC*%
%TO.N,unconnected-(U3-Pad3)*%
X276945000Y-28010000D03*
%TO.P,U3,4,FB*%
%TO.N,3V3DC*%
X279485000Y-28010000D03*
%TO.P,U3,5,ON/~{OFF}*%
%TO.N,unconnected-(U3-Pad5)*%
X279485000Y-20390000D03*
%TO.P,U3,6,GND*%
%TO.N,GND*%
X276945000Y-20390000D03*
%TO.P,U3,7,VIN*%
%TO.N,12VDC*%
X274405000Y-20390000D03*
%TO.P,U3,8,VSW*%
%TO.N,Net-(C2-Pad1)*%
X271865000Y-20390000D03*
%TD*%
D16*
%TO.P,R6,1*%
%TO.N,GND*%
X223520000Y-36830000D03*
D17*
%TO.P,R6,2*%
%TO.N,Net-(Q3-Pad1)*%
X215900000Y-36830000D03*
%TD*%
%TO.P,R5,2*%
%TO.N,Net-(Q2-Pad1)*%
X215900000Y-24130000D03*
D16*
%TO.P,R5,1*%
%TO.N,GND*%
X223520000Y-24130000D03*
%TD*%
%TO.P,R4,1*%
%TO.N,GND*%
X223520000Y-11430000D03*
D17*
%TO.P,R4,2*%
%TO.N,Net-(Q1-Pad1)*%
X215900000Y-11430000D03*
%TD*%
%TO.P,R3,2*%
%TO.N,Net-(Q3-Pad1)*%
X215900000Y-29210000D03*
D16*
%TO.P,R3,1*%
%TO.N,Net-(R3-Pad1)*%
X223520000Y-29210000D03*
%TD*%
%TO.P,R2,1*%
%TO.N,Net-(R2-Pad1)*%
X223520000Y-16510000D03*
D17*
%TO.P,R2,2*%
%TO.N,Net-(Q2-Pad1)*%
X215900000Y-16510000D03*
%TD*%
D16*
%TO.P,R1,1*%
%TO.N,Net-(R1-Pad1)*%
X223520000Y-3810000D03*
D17*
%TO.P,R1,2*%
%TO.N,Net-(Q1-Pad1)*%
X215900000Y-3810000D03*
%TD*%
D18*
%TO.P,Q3,1,G*%
%TO.N,Net-(Q3-Pad1)*%
X207010000Y-30480000D03*
D19*
%TO.P,Q3,2,D*%
%TO.N,Net-(J2-Pad3)*%
X207010000Y-33020000D03*
%TO.P,Q3,3,S*%
%TO.N,GND*%
X207010000Y-35560000D03*
%TD*%
D18*
%TO.P,Q2,1,G*%
%TO.N,Net-(Q2-Pad1)*%
X207010000Y-17780000D03*
D19*
%TO.P,Q2,2,D*%
%TO.N,Net-(J2-Pad2)*%
X207010000Y-20320000D03*
%TO.P,Q2,3,S*%
%TO.N,GND*%
X207010000Y-22860000D03*
%TD*%
D18*
%TO.P,Q1,1,G*%
%TO.N,Net-(Q1-Pad1)*%
X207010000Y-5080000D03*
D19*
%TO.P,Q1,2,D*%
%TO.N,Net-(J2-Pad1)*%
X207010000Y-7620000D03*
%TO.P,Q1,3,S*%
%TO.N,GND*%
X207010000Y-10160000D03*
%TD*%
D20*
%TO.P,L1,1,1*%
%TO.N,Net-(C2-Pad1)*%
X264235000Y-31205000D03*
D21*
%TO.P,L1,2,2*%
%TO.N,3V3DC*%
X264235000Y-26125000D03*
%TD*%
D22*
%TO.P,J2,4,Pin_4*%
%TO.N,12VDC*%
X198220000Y-25740000D03*
%TO.P,J2,3,Pin_3*%
%TO.N,Net-(J2-Pad3)*%
X198220000Y-22240000D03*
%TO.P,J2,2,Pin_2*%
%TO.N,Net-(J2-Pad2)*%
X198220000Y-18740000D03*
D23*
%TO.P,J2,1,Pin_1*%
%TO.N,Net-(J2-Pad1)*%
X198220000Y-15240000D03*
%TD*%
%TO.P,J1,1,Pin_1*%
%TO.N,GND*%
X292100000Y-15240000D03*
D22*
%TO.P,J1,2,Pin_2*%
%TO.N,12VDC*%
X292100000Y-18740000D03*
%TD*%
D24*
%TO.P,D1,1,K*%
%TO.N,Net-(C2-Pad1)*%
X270585000Y-34370000D03*
D25*
%TO.P,D1,2,A*%
%TO.N,GND*%
X278205000Y-34370000D03*
%TD*%
D14*
%TO.P,C3,1*%
%TO.N,3V3DC*%
X257719698Y-17780000D03*
D26*
%TO.P,C3,2*%
%TO.N,GND*%
X261219698Y-17780000D03*
%TD*%
%TO.P,C2,1*%
%TO.N,Net-(C2-Pad1)*%
X278245000Y-12780000D03*
%TO.P,C2,2*%
%TO.N,Net-(C2-Pad2)*%
X283245000Y-12780000D03*
%TD*%
%TO.P,C1,2*%
%TO.N,GND*%
X267085000Y-11510000D03*
D14*
%TO.P,C1,1*%
%TO.N,12VDC*%
X270585000Y-11510000D03*
%TD*%
D27*
%TO.N,Net-(J2-Pad3)*%
X201930000Y-25950000D02*
X198220000Y-22240000D01*
X201930000Y-29210000D02*
X201930000Y-26670000D01*
X201930000Y-26670000D02*
X201930000Y-25950000D01*
%TO.N,Net-(J2-Pad2)*%
X207010000Y-20320000D02*
X205740000Y-20320000D01*
X205740000Y-20320000D02*
X204160000Y-18740000D01*
X204160000Y-18740000D02*
X198220000Y-18740000D01*
%TO.N,Net-(J2-Pad1)*%
X198220000Y-15240000D02*
X198220000Y-10060000D01*
X198220000Y-10060000D02*
X200660000Y-7620000D01*
X200660000Y-7620000D02*
X207010000Y-7620000D01*
%TO.N,Net-(C2-Pad1)*%
X285825000Y-12780000D02*
X285825000Y-24205000D01*
X283285000Y-26745000D02*
X285825000Y-24205000D01*
X283285000Y-26750000D02*
X283285000Y-26745000D01*
X278205000Y-31830000D02*
X273130000Y-31830000D01*
X273130000Y-31830000D02*
X270590000Y-34370000D01*
X270590000Y-34370000D02*
X270585000Y-34370000D01*
X278245000Y-12780000D02*
X279515000Y-11510000D01*
X279515000Y-11510000D02*
X284555000Y-11510000D01*
X284555000Y-11510000D02*
X285825000Y-12780000D01*
X283285000Y-26750000D02*
X278205000Y-31830000D01*
%TO.N,Net-(R1-Pad1)*%
X229085000Y-20320000D02*
X227815000Y-20320000D01*
X227815000Y-20320000D02*
X226060000Y-18565000D01*
X226060000Y-18565000D02*
X226060000Y-6350000D01*
X226060000Y-6350000D02*
X223520000Y-3810000D01*
%TO.N,Net-(R2-Pad1)*%
X229085000Y-22860000D02*
X226060000Y-22860000D01*
X223520000Y-20320000D02*
X223520000Y-16510000D01*
X226060000Y-22860000D02*
X223520000Y-20320000D01*
%TO.N,Net-(J2-Pad3)*%
X205740000Y-33020000D02*
X201930000Y-29210000D01*
%TO.N,Net-(R3-Pad1)*%
X229085000Y-25400000D02*
X227330000Y-25400000D01*
X227330000Y-25400000D02*
X223520000Y-29210000D01*
%TO.N,Net-(Q1-Pad1)*%
X215900000Y-3810000D02*
X215900000Y-11430000D01*
%TO.N,3V3DC*%
X252730000Y-34290000D02*
X232410000Y-34290000D01*
X232410000Y-34290000D02*
X229085000Y-30965000D01*
X257719698Y-29455302D02*
X257564698Y-29455302D01*
X229085000Y-30965000D02*
X229085000Y-30480000D01*
X257564698Y-29455302D02*
X252730000Y-34290000D01*
X290840302Y-24210000D02*
X278220302Y-36830000D01*
X278220302Y-36830000D02*
X265094396Y-36830000D01*
X265094396Y-36830000D02*
X257719698Y-29455302D01*
X279485000Y-28010000D02*
X277015000Y-30480000D01*
X277015000Y-30480000D02*
X268590000Y-30480000D01*
X268590000Y-30480000D02*
X264235000Y-26125000D01*
%TO.N,Net-(J2-Pad3)*%
X207010000Y-33020000D02*
X205740000Y-33020000D01*
%TO.N,Net-(Q3-Pad1)*%
X215900000Y-29210000D02*
X208280000Y-29210000D01*
X208280000Y-29210000D02*
X207010000Y-30480000D01*
X215900000Y-29210000D02*
X215900000Y-36830000D01*
%TO.N,Net-(Q2-Pad1)*%
X215900000Y-16510000D02*
X208280000Y-16510000D01*
X208280000Y-16510000D02*
X207010000Y-17780000D01*
X215900000Y-16510000D02*
X215900000Y-24130000D01*
%TO.N,Net-(Q1-Pad1)*%
X215900000Y-3810000D02*
X208280000Y-3810000D01*
X208280000Y-3810000D02*
X207010000Y-5080000D01*
%TO.N,Net-(C2-Pad2)*%
X283245000Y-12780000D02*
X283245000Y-24170000D01*
X274395000Y-25480000D02*
X271865000Y-28010000D01*
X283245000Y-24170000D02*
X281935000Y-25480000D01*
X281935000Y-25480000D02*
X274395000Y-25480000D01*
%TO.N,Net-(C2-Pad1)*%
X278245000Y-12780000D02*
X278245000Y-14010000D01*
X278245000Y-14010000D02*
X271865000Y-20390000D01*
%TO.N,3V3DC*%
X257719698Y-17780000D02*
X257719698Y-29455302D01*
%TO.N,Net-(C2-Pad1)*%
X264235000Y-31205000D02*
X267400000Y-34370000D01*
X267400000Y-34370000D02*
X270585000Y-34370000D01*
%TO.N,3V3DC*%
X257719698Y-19609698D02*
X264235000Y-26125000D01*
%TD*%
%TA.AperFunction,Conductor*%
%TO.N,12VDC*%
G36*
X295344121Y-528002D02*
G01*
X295390614Y-581658D01*
X295402000Y-634000D01*
X295402000Y-38736000D01*
X295381998Y-38804121D01*
X295328342Y-38850614D01*
X295276000Y-38862000D01*
X193674000Y-38862000D01*
X193605879Y-38841998D01*
X193559386Y-38788342D01*
X193548000Y-38736000D01*
X193548000Y-35692703D01*
X194740743Y-35692703D01*
X194741302Y-35696947D01*
X194741302Y-35696951D01*
X194754642Y-35798276D01*
X194778268Y-35977734D01*
X194854129Y-36255036D01*
X194966923Y-36519476D01*
X195026693Y-36619345D01*
X195089514Y-36724310D01*
X195114561Y-36766161D01*
X195294313Y-36990528D01*
X195502851Y-37188423D01*
X195736317Y-37356186D01*
X195740112Y-37358195D01*
X195740113Y-37358196D01*
X195761869Y-37369715D01*
X195990392Y-37490712D01*
X196260373Y-37589511D01*
X196541264Y-37650755D01*
X196569841Y-37653004D01*
X196764282Y-37668307D01*
X196764291Y-37668307D01*
X196766739Y-37668500D01*
X196922271Y-37668500D01*
X196924407Y-37668354D01*
X196924418Y-37668354D01*
X197132548Y-37654165D01*
X197132554Y-37654164D01*
X197136825Y-37653873D01*
X197141020Y-37653004D01*
X197141022Y-37653004D01*
X197330954Y-37613671D01*
X197418342Y-37595574D01*
X197689343Y-37499607D01*
X197827399Y-37428351D01*
X197941005Y-37369715D01*
X197941006Y-37369715D01*
X197944812Y-37367750D01*
X197948313Y-37365289D01*
X197948317Y-37365287D01*
X198096140Y-37261395D01*
X198180023Y-37202441D01*
X198354125Y-37040655D01*
X198387479Y-37009661D01*
X198387481Y-37009658D01*
X198390622Y-37006740D01*
X198572713Y-36784268D01*
X198722927Y-36539142D01*
X198838483Y-36275898D01*
X198917244Y-35999406D01*
X198957751Y-35714784D01*
X198957813Y-35703052D01*
X198959235Y-35431583D01*
X198959235Y-35431576D01*
X198959257Y-35427297D01*
X198952488Y-35375877D01*
X198932673Y-35225369D01*
X198921732Y-35142266D01*
X198845871Y-34864964D01*
X198804771Y-34768608D01*
X198734763Y-34604476D01*
X198734761Y-34604472D01*
X198733077Y-34600524D01*
X198610486Y-34395689D01*
X198587643Y-34357521D01*
X198587640Y-34357517D01*
X198585439Y-34353839D01*
X198405687Y-34129472D01*
X198197149Y-33931577D01*
X197963683Y-33763814D01*
X197941843Y-33752250D01*
X197912096Y-33736500D01*
X197709608Y-33629288D01*
X197512624Y-33557202D01*
X197443658Y-33531964D01*
X197443656Y-33531963D01*
X197439627Y-33530489D01*
X197158736Y-33469245D01*
X197127685Y-33466801D01*
X196935718Y-33451693D01*
X196935709Y-33451693D01*
X196933261Y-33451500D01*
X196777729Y-33451500D01*
X196775593Y-33451646D01*
X196775582Y-33451646D01*
X196567452Y-33465835D01*
X196567446Y-33465836D01*
X196563175Y-33466127D01*
X196558980Y-33466996D01*
X196558978Y-33466996D01*
X196520333Y-33474999D01*
X196281658Y-33524426D01*
X196010657Y-33620393D01*
X195755188Y-33752250D01*
X195751687Y-33754711D01*
X195751683Y-33754713D01*
X195685539Y-33801200D01*
X195519977Y-33917559D01*
X195309378Y-34113260D01*
X195127287Y-34335732D01*
X194977073Y-34580858D01*
X194975347Y-34584791D01*
X194975346Y-34584792D01*
X194868937Y-34827199D01*
X194861517Y-34844102D01*
X194860342Y-34848229D01*
X194860341Y-34848230D01*
X194826015Y-34968733D01*
X194782756Y-35120594D01*
X194770228Y-35208622D01*
X194745399Y-35383086D01*
X194742249Y-35405216D01*
X194742227Y-35409505D01*
X194742226Y-35409512D01*
X194740765Y-35688417D01*
X194740743Y-35692703D01*
X193548000Y-35692703D01*
X193548000Y-27113359D01*
X197211386Y-27113359D01*
X197220099Y-27124879D01*
X197308586Y-27189760D01*
X197316505Y-27194708D01*
X197532877Y-27308547D01*
X197541451Y-27312275D01*
X197772282Y-27392885D01*
X197781291Y-27395299D01*
X198021518Y-27440908D01*
X198030775Y-27441962D01*
X198275107Y-27451563D01*
X198284420Y-27451237D01*
X198527478Y-27424618D01*
X198536655Y-27422917D01*
X198773107Y-27360665D01*
X198781926Y-27357628D01*
X199006584Y-27261107D01*
X199014856Y-27256800D01*
X199222777Y-27128135D01*
X199224620Y-27126796D01*
X199232038Y-27115541D01*
X199225974Y-27105184D01*
X198232812Y-26112022D01*
X198218868Y-26104408D01*
X198217035Y-26104539D01*
X198210420Y-26108790D01*
X197218044Y-27101166D01*
X197211386Y-27113359D01*
X193548000Y-27113359D01*
X193548000Y-25699835D01*
X196508022Y-25699835D01*
X196519754Y-25944064D01*
X196520891Y-25953324D01*
X196568593Y-26193143D01*
X196571082Y-26202118D01*
X196653708Y-26432250D01*
X196657505Y-26440778D01*
X196773234Y-26656160D01*
X196778245Y-26664027D01*
X196835173Y-26740263D01*
X196846431Y-26748712D01*
X196858850Y-26741940D01*
X197847978Y-25752812D01*
X197855592Y-25738868D01*
X197855461Y-25737035D01*
X197851210Y-25730420D01*
X196856828Y-24736038D01*
X196843520Y-24728771D01*
X196833481Y-24735893D01*
X196828581Y-24741784D01*
X196823168Y-24749373D01*
X196696322Y-24958409D01*
X196692084Y-24966726D01*
X196597529Y-25192214D01*
X196594572Y-25201052D01*
X196534385Y-25438037D01*
X196532763Y-25447232D01*
X196508267Y-25690510D01*
X196508022Y-25699835D01*
X193548000Y-25699835D01*
X193548000Y-22195151D01*
X196507296Y-22195151D01*
X196507520Y-22199817D01*
X196507520Y-22199822D01*
X196513033Y-22314579D01*
X196519480Y-22448798D01*
X196569021Y-22697857D01*
X196570600Y-22702255D01*
X196570602Y-22702262D01*
X196621334Y-22843562D01*
X196654831Y-22936858D01*
X196657048Y-22940984D01*
X196771031Y-23153117D01*
X196775025Y-23160551D01*
X196777820Y-23164294D01*
X196777822Y-23164297D01*
X196924171Y-23360282D01*
X196924176Y-23360288D01*
X196926963Y-23364020D01*
X196930272Y-23367300D01*
X196930277Y-23367306D01*
X197083238Y-23518937D01*
X197107307Y-23542797D01*
X197111069Y-23545555D01*
X197111072Y-23545558D01*
X197112859Y-23546868D01*
X197312094Y-23692953D01*
X197316229Y-23695129D01*
X197316233Y-23695131D01*
X197364262Y-23720400D01*
X197536827Y-23811191D01*
X197610424Y-23836892D01*
X197709594Y-23871524D01*
X197767312Y-23912866D01*
X197793515Y-23978850D01*
X197779886Y-24048526D01*
X197730750Y-24099773D01*
X197703311Y-24111446D01*
X197624655Y-24134371D01*
X197615915Y-24137639D01*
X197393869Y-24240004D01*
X197385714Y-24244524D01*
X197218468Y-24354175D01*
X197209330Y-24364917D01*
X197213903Y-24374693D01*
X199583732Y-26744522D01*
X199596112Y-26751282D01*
X199604453Y-26745038D01*
X199722700Y-26561202D01*
X199727147Y-26553011D01*
X199827572Y-26330076D01*
X199830767Y-26321298D01*
X199897135Y-26085973D01*
X199898993Y-26076844D01*
X199930044Y-25832770D01*
X199930525Y-25826483D01*
X199932706Y-25743160D01*
X199932555Y-25736851D01*
X199914321Y-25491486D01*
X199912944Y-25482280D01*
X199858979Y-25243786D01*
X199856255Y-25234875D01*
X199778987Y-25036181D01*
X199772940Y-24965443D01*
X199806096Y-24902664D01*
X199867930Y-24867777D01*
X199938809Y-24871858D01*
X199985515Y-24901419D01*
X201259595Y-26175499D01*
X201293621Y-26237811D01*
X201296500Y-26264594D01*
X201296500Y-29131233D01*
X201295973Y-29142416D01*
X201294298Y-29149909D01*
X201294547Y-29157835D01*
X201294547Y-29157836D01*
X201296438Y-29217986D01*
X201296500Y-29221945D01*
X201296500Y-29249856D01*
X201296997Y-29253790D01*
X201296997Y-29253791D01*
X201297005Y-29253856D01*
X201297938Y-29265693D01*
X201299327Y-29309889D01*
X201304978Y-29329339D01*
X201308987Y-29348700D01*
X201311526Y-29368797D01*
X201314445Y-29376168D01*
X201314445Y-29376170D01*
X201327804Y-29409912D01*
X201331649Y-29421142D01*
X201333052Y-29425970D01*
X201343982Y-29463593D01*
X201348015Y-29470412D01*
X201348017Y-29470417D01*
X201354293Y-29481028D01*
X201362988Y-29498776D01*
X201370448Y-29517617D01*
X201375110Y-29524033D01*
X201375110Y-29524034D01*
X201396436Y-29553387D01*
X201402952Y-29563307D01*
X201425458Y-29601362D01*
X201439779Y-29615683D01*
X201452619Y-29630716D01*
X201464528Y-29647107D01*
X201470634Y-29652158D01*
X201498605Y-29675298D01*
X201507384Y-29683288D01*
X205236343Y-33412247D01*
X205243887Y-33420537D01*
X205248000Y-33427018D01*
X205253777Y-33432443D01*
X205297667Y-33473658D01*
X205300509Y-33476413D01*
X205320231Y-33496135D01*
X205323355Y-33498558D01*
X205323359Y-33498562D01*
X205323424Y-33498612D01*
X205332445Y-33506317D01*
X205364679Y-33536586D01*
X205371627Y-33540405D01*
X205371629Y-33540407D01*
X205382432Y-33546346D01*
X205398959Y-33557202D01*
X205408698Y-33564757D01*
X205408700Y-33564758D01*
X205414960Y-33569614D01*
X205455540Y-33587174D01*
X205466188Y-33592391D01*
X205504940Y-33613695D01*
X205512616Y-33615666D01*
X205512619Y-33615667D01*
X205524562Y-33618733D01*
X205543266Y-33625137D01*
X205552859Y-33629288D01*
X205561855Y-33633181D01*
X205569678Y-33634420D01*
X205569688Y-33634423D01*
X205578314Y-33635789D01*
X205642467Y-33666202D01*
X205670364Y-33702056D01*
X205721975Y-33801200D01*
X205725078Y-33805333D01*
X205725080Y-33805336D01*
X205819865Y-33931577D01*
X205866223Y-33993320D01*
X206039912Y-34159301D01*
X206076903Y-34184535D01*
X206121904Y-34239444D01*
X206130075Y-34309968D01*
X206098821Y-34373716D01*
X206074340Y-34394411D01*
X206072707Y-34395468D01*
X206068023Y-34398498D01*
X205890330Y-34560186D01*
X205866141Y-34590815D01*
X205744633Y-34744670D01*
X205744630Y-34744675D01*
X205741432Y-34748724D01*
X205738939Y-34753240D01*
X205738937Y-34753243D01*
X205642345Y-34928220D01*
X205625326Y-34959050D01*
X205623602Y-34963919D01*
X205623600Y-34963923D01*
X205568120Y-35120594D01*
X205545130Y-35185515D01*
X205544223Y-35190608D01*
X205544222Y-35190611D01*
X205506753Y-35400964D01*
X205502999Y-35422037D01*
X205502936Y-35427201D01*
X205500353Y-35638642D01*
X205500064Y-35662263D01*
X205536404Y-35899744D01*
X205560504Y-35973478D01*
X205609434Y-36123183D01*
X205609437Y-36123189D01*
X205611042Y-36128101D01*
X205613429Y-36132687D01*
X205613431Y-36132691D01*
X205719584Y-36336607D01*
X205721975Y-36341200D01*
X205725085Y-36345342D01*
X205855829Y-36519476D01*
X205866223Y-36533320D01*
X206039912Y-36699301D01*
X206044184Y-36702215D01*
X206231509Y-36830000D01*
X206238378Y-36834686D01*
X206243061Y-36836860D01*
X206243065Y-36836862D01*
X206451595Y-36933658D01*
X206451599Y-36933659D01*
X206456290Y-36935837D01*
X206687798Y-37000040D01*
X206692935Y-37000589D01*
X206880593Y-37020644D01*
X206880601Y-37020644D01*
X206883928Y-37021000D01*
X207118402Y-37021000D01*
X207120975Y-37020788D01*
X207120986Y-37020788D01*
X207221946Y-37012487D01*
X207296937Y-37006322D01*
X207529944Y-36947794D01*
X207658771Y-36891779D01*
X207745526Y-36854057D01*
X207745529Y-36854055D01*
X207750263Y-36851997D01*
X207951977Y-36721502D01*
X208129670Y-36559814D01*
X208190347Y-36482983D01*
X208275367Y-36375330D01*
X208275370Y-36375325D01*
X208278568Y-36371276D01*
X208292885Y-36345342D01*
X208392177Y-36165474D01*
X208392179Y-36165470D01*
X208394674Y-36160950D01*
X208433885Y-36050224D01*
X208473144Y-35939360D01*
X208473145Y-35939356D01*
X208474870Y-35934485D01*
X208480183Y-35904659D01*
X208516095Y-35703052D01*
X208516096Y-35703046D01*
X208517001Y-35697963D01*
X208519936Y-35457737D01*
X208483596Y-35220256D01*
X208436825Y-35077158D01*
X208410566Y-34996817D01*
X208410563Y-34996811D01*
X208408958Y-34991899D01*
X208405067Y-34984423D01*
X208300416Y-34783393D01*
X208298025Y-34778800D01*
X208248333Y-34712616D01*
X208156882Y-34590815D01*
X208156880Y-34590812D01*
X208153777Y-34586680D01*
X207980088Y-34420699D01*
X207943097Y-34395465D01*
X207898096Y-34340556D01*
X207889925Y-34270032D01*
X207921179Y-34206284D01*
X207945660Y-34185589D01*
X207947635Y-34184311D01*
X207951977Y-34181502D01*
X208129670Y-34019814D01*
X208190347Y-33942983D01*
X208275367Y-33835330D01*
X208275370Y-33835325D01*
X208278568Y-33831276D01*
X208297702Y-33796616D01*
X208392177Y-33625474D01*
X208392179Y-33625470D01*
X208394674Y-33620950D01*
X208397244Y-33613695D01*
X208473144Y-33399360D01*
X208473145Y-33399356D01*
X208474870Y-33394485D01*
X208510794Y-33192810D01*
X208516095Y-33163052D01*
X208516096Y-33163046D01*
X208517001Y-33157963D01*
X208519384Y-32962945D01*
X208519873Y-32922907D01*
X208519873Y-32922905D01*
X208519936Y-32917737D01*
X208483596Y-32680256D01*
X208446906Y-32568003D01*
X208410566Y-32456817D01*
X208410563Y-32456811D01*
X208408958Y-32451899D01*
X208398702Y-32432196D01*
X208300416Y-32243393D01*
X208298025Y-32238800D01*
X208181585Y-32083717D01*
X208156680Y-32017235D01*
X208171672Y-31947839D01*
X208221802Y-31897565D01*
X208238115Y-31890085D01*
X208248293Y-31886269D01*
X208248296Y-31886267D01*
X208256705Y-31883115D01*
X208373261Y-31795761D01*
X208460615Y-31679205D01*
X208511745Y-31542816D01*
X208518500Y-31480634D01*
X208518500Y-29969500D01*
X208538502Y-29901379D01*
X208592158Y-29854886D01*
X208644500Y-29843500D01*
X214802685Y-29843500D01*
X214870806Y-29863502D01*
X214905898Y-29897230D01*
X214970699Y-29989776D01*
X215120224Y-30139301D01*
X215124736Y-30142460D01*
X215212770Y-30204102D01*
X215257099Y-30259559D01*
X215266500Y-30307315D01*
X215266500Y-35732685D01*
X215246498Y-35800806D01*
X215212770Y-35835898D01*
X215120224Y-35900699D01*
X214970699Y-36050224D01*
X214849411Y-36223442D01*
X214847090Y-36228420D01*
X214847088Y-36228423D01*
X214834678Y-36255036D01*
X214760044Y-36415090D01*
X214705314Y-36619345D01*
X214686884Y-36830000D01*
X214705314Y-37040655D01*
X214760044Y-37244910D01*
X214762366Y-37249891D01*
X214762367Y-37249892D01*
X214846358Y-37430010D01*
X214849411Y-37436558D01*
X214970699Y-37609776D01*
X215120224Y-37759301D01*
X215293442Y-37880589D01*
X215298420Y-37882910D01*
X215298423Y-37882912D01*
X215480108Y-37967633D01*
X215485090Y-37969956D01*
X215490398Y-37971378D01*
X215490400Y-37971379D01*
X215684030Y-38023262D01*
X215684032Y-38023262D01*
X215689345Y-38024686D01*
X215900000Y-38043116D01*
X216110655Y-38024686D01*
X216115968Y-38023262D01*
X216115970Y-38023262D01*
X216309600Y-37971379D01*
X216309602Y-37971378D01*
X216314910Y-37969956D01*
X216319892Y-37967633D01*
X216501577Y-37882912D01*
X216501580Y-37882910D01*
X216506558Y-37880589D01*
X216679776Y-37759301D01*
X216829301Y-37609776D01*
X216950589Y-37436558D01*
X216953643Y-37430010D01*
X217037633Y-37249892D01*
X217037634Y-37249891D01*
X217039956Y-37244910D01*
X217094686Y-37040655D01*
X217113116Y-36830000D01*
X222306884Y-36830000D01*
X222325314Y-37040655D01*
X222380044Y-37244910D01*
X222382366Y-37249891D01*
X222382367Y-37249892D01*
X222466358Y-37430010D01*
X222469411Y-37436558D01*
X222590699Y-37609776D01*
X222740224Y-37759301D01*
X222913442Y-37880589D01*
X222918420Y-37882910D01*
X222918423Y-37882912D01*
X223100108Y-37967633D01*
X223105090Y-37969956D01*
X223110398Y-37971378D01*
X223110400Y-37971379D01*
X223304030Y-38023262D01*
X223304032Y-38023262D01*
X223309345Y-38024686D01*
X223520000Y-38043116D01*
X223730655Y-38024686D01*
X223735968Y-38023262D01*
X223735970Y-38023262D01*
X223929600Y-37971379D01*
X223929602Y-37971378D01*
X223934910Y-37969956D01*
X223939892Y-37967633D01*
X224121577Y-37882912D01*
X224121580Y-37882910D01*
X224126558Y-37880589D01*
X224299776Y-37759301D01*
X224449301Y-37609776D01*
X224570589Y-37436558D01*
X224573643Y-37430010D01*
X224657633Y-37249892D01*
X224657634Y-37249891D01*
X224659956Y-37244910D01*
X224714686Y-37040655D01*
X224733116Y-36830000D01*
X224714686Y-36619345D01*
X224659956Y-36415090D01*
X224585322Y-36255036D01*
X224572912Y-36228423D01*
X224572910Y-36228420D01*
X224570589Y-36223442D01*
X224449301Y-36050224D01*
X224299776Y-35900699D01*
X224126558Y-35779411D01*
X224121580Y-35777090D01*
X224121577Y-35777088D01*
X223939892Y-35692367D01*
X223939891Y-35692366D01*
X223934910Y-35690044D01*
X223929602Y-35688622D01*
X223929600Y-35688621D01*
X223735970Y-35636738D01*
X223735968Y-35636738D01*
X223730655Y-35635314D01*
X223520000Y-35616884D01*
X223309345Y-35635314D01*
X223304032Y-35636738D01*
X223304030Y-35636738D01*
X223110400Y-35688621D01*
X223110398Y-35688622D01*
X223105090Y-35690044D01*
X223100109Y-35692366D01*
X223100108Y-35692367D01*
X222918423Y-35777088D01*
X222918420Y-35777090D01*
X222913442Y-35779411D01*
X222740224Y-35900699D01*
X222590699Y-36050224D01*
X222469411Y-36223442D01*
X222467090Y-36228420D01*
X222467088Y-36228423D01*
X222454678Y-36255036D01*
X222380044Y-36415090D01*
X222325314Y-36619345D01*
X222306884Y-36830000D01*
X217113116Y-36830000D01*
X217094686Y-36619345D01*
X217039956Y-36415090D01*
X216965322Y-36255036D01*
X216952912Y-36228423D01*
X216952910Y-36228420D01*
X216950589Y-36223442D01*
X216829301Y-36050224D01*
X216679776Y-35900699D01*
X216587230Y-35835898D01*
X216542901Y-35780441D01*
X216533500Y-35732685D01*
X216533500Y-30307315D01*
X216553502Y-30239194D01*
X216587230Y-30204102D01*
X216675264Y-30142460D01*
X216679776Y-30139301D01*
X216829301Y-29989776D01*
X216950589Y-29816558D01*
X216973331Y-29767789D01*
X217037633Y-29629892D01*
X217037634Y-29629891D01*
X217039956Y-29624910D01*
X217042429Y-29615683D01*
X217093262Y-29425970D01*
X217093262Y-29425968D01*
X217094686Y-29420655D01*
X217113116Y-29210000D01*
X222306884Y-29210000D01*
X222325314Y-29420655D01*
X222326738Y-29425968D01*
X222326738Y-29425970D01*
X222377572Y-29615683D01*
X222380044Y-29624910D01*
X222382366Y-29629891D01*
X222382367Y-29629892D01*
X222446670Y-29767789D01*
X222469411Y-29816558D01*
X222590699Y-29989776D01*
X222740224Y-30139301D01*
X222913442Y-30260589D01*
X222918420Y-30262910D01*
X222918423Y-30262912D01*
X223031379Y-30315584D01*
X223105090Y-30349956D01*
X223110398Y-30351378D01*
X223110400Y-30351379D01*
X223304030Y-30403262D01*
X223304032Y-30403262D01*
X223309345Y-30404686D01*
X223520000Y-30423116D01*
X223730655Y-30404686D01*
X223735968Y-30403262D01*
X223735970Y-30403262D01*
X223929600Y-30351379D01*
X223929602Y-30351378D01*
X223934910Y-30349956D01*
X224008621Y-30315584D01*
X224121577Y-30262912D01*
X224121580Y-30262910D01*
X224126558Y-30260589D01*
X224299776Y-30139301D01*
X224449301Y-29989776D01*
X224570589Y-29816558D01*
X224593331Y-29767789D01*
X224657633Y-29629892D01*
X224657634Y-29629891D01*
X224659956Y-29624910D01*
X224662429Y-29615683D01*
X224713262Y-29425970D01*
X224713262Y-29425968D01*
X224714686Y-29420655D01*
X224733116Y-29210000D01*
X224714686Y-28999345D01*
X224713262Y-28994029D01*
X224712452Y-28989437D01*
X224720321Y-28918877D01*
X224747443Y-28878461D01*
X227555499Y-26070405D01*
X227617811Y-26036379D01*
X227644594Y-26033500D01*
X227665606Y-26033500D01*
X227733727Y-26053502D01*
X227768819Y-26087229D01*
X227856468Y-26212404D01*
X227878802Y-26244300D01*
X228040700Y-26406198D01*
X228045208Y-26409355D01*
X228045211Y-26409357D01*
X228077906Y-26432250D01*
X228228251Y-26537523D01*
X228233233Y-26539846D01*
X228233238Y-26539849D01*
X228267457Y-26555805D01*
X228320742Y-26602722D01*
X228340203Y-26670999D01*
X228319661Y-26738959D01*
X228267457Y-26784195D01*
X228233238Y-26800151D01*
X228233233Y-26800154D01*
X228228251Y-26802477D01*
X228131603Y-26870151D01*
X228045211Y-26930643D01*
X228045208Y-26930645D01*
X228040700Y-26933802D01*
X227878802Y-27095700D01*
X227875645Y-27100208D01*
X227875643Y-27100211D01*
X227832516Y-27161803D01*
X227747477Y-27283251D01*
X227745154Y-27288233D01*
X227745151Y-27288238D01*
X227656703Y-27477917D01*
X227650716Y-27490757D01*
X227649294Y-27496065D01*
X227649293Y-27496067D01*
X227596243Y-27694050D01*
X227591457Y-27711913D01*
X227571502Y-27940000D01*
X227591457Y-28168087D01*
X227592881Y-28173400D01*
X227592881Y-28173402D01*
X227633757Y-28325950D01*
X227650716Y-28389243D01*
X227653039Y-28394224D01*
X227653039Y-28394225D01*
X227745151Y-28591762D01*
X227745154Y-28591767D01*
X227747477Y-28596749D01*
X227878802Y-28784300D01*
X228040700Y-28946198D01*
X228045208Y-28949355D01*
X228045211Y-28949357D01*
X228109011Y-28994030D01*
X228228251Y-29077523D01*
X228233233Y-29079846D01*
X228233238Y-29079849D01*
X228267457Y-29095805D01*
X228320742Y-29142722D01*
X228340203Y-29210999D01*
X228319661Y-29278959D01*
X228267457Y-29324195D01*
X228233238Y-29340151D01*
X228233233Y-29340154D01*
X228228251Y-29342477D01*
X228131944Y-29409912D01*
X228045211Y-29470643D01*
X228045208Y-29470645D01*
X228040700Y-29473802D01*
X227878802Y-29635700D01*
X227875645Y-29640208D01*
X227875643Y-29640211D01*
X227826451Y-29710465D01*
X227747477Y-29823251D01*
X227745154Y-29828233D01*
X227745151Y-29828238D01*
X227668106Y-29993463D01*
X227650716Y-30030757D01*
X227649294Y-30036065D01*
X227649293Y-30036067D01*
X227620785Y-30142460D01*
X227591457Y-30251913D01*
X227571502Y-30480000D01*
X227591457Y-30708087D01*
X227592881Y-30713400D01*
X227592881Y-30713402D01*
X227645934Y-30911395D01*
X227650716Y-30929243D01*
X227653039Y-30934224D01*
X227653039Y-30934225D01*
X227745151Y-31131762D01*
X227745154Y-31131767D01*
X227747477Y-31136749D01*
X227797977Y-31208870D01*
X227861734Y-31299924D01*
X227878802Y-31324300D01*
X228040700Y-31486198D01*
X228045208Y-31489355D01*
X228045211Y-31489357D01*
X228110339Y-31534960D01*
X228228251Y-31617523D01*
X228233233Y-31619846D01*
X228233238Y-31619849D01*
X228385290Y-31690751D01*
X228435757Y-31714284D01*
X228441065Y-31715706D01*
X228441067Y-31715707D01*
X228651598Y-31772119D01*
X228651600Y-31772119D01*
X228656913Y-31773543D01*
X228756480Y-31782254D01*
X228825149Y-31788262D01*
X228825156Y-31788262D01*
X228827873Y-31788500D01*
X228960406Y-31788500D01*
X229028527Y-31808502D01*
X229049501Y-31825405D01*
X231906348Y-34682253D01*
X231913888Y-34690539D01*
X231918000Y-34697018D01*
X231923777Y-34702443D01*
X231967651Y-34743643D01*
X231970493Y-34746398D01*
X231990230Y-34766135D01*
X231993427Y-34768615D01*
X232002447Y-34776318D01*
X232034679Y-34806586D01*
X232041625Y-34810405D01*
X232041628Y-34810407D01*
X232052434Y-34816348D01*
X232068953Y-34827199D01*
X232084959Y-34839614D01*
X232092228Y-34842759D01*
X232092232Y-34842762D01*
X232125537Y-34857174D01*
X232136187Y-34862391D01*
X232174940Y-34883695D01*
X232182615Y-34885666D01*
X232182616Y-34885666D01*
X232194562Y-34888733D01*
X232213266Y-34895137D01*
X232216065Y-34896348D01*
X232231855Y-34903181D01*
X232239678Y-34904420D01*
X232239688Y-34904423D01*
X232275524Y-34910099D01*
X232287144Y-34912505D01*
X232314834Y-34919614D01*
X232329970Y-34923500D01*
X232350224Y-34923500D01*
X232369934Y-34925051D01*
X232389943Y-34928220D01*
X232397835Y-34927474D01*
X232416580Y-34925702D01*
X232433962Y-34924059D01*
X232445819Y-34923500D01*
X252651233Y-34923500D01*
X252662416Y-34924027D01*
X252669909Y-34925702D01*
X252677835Y-34925453D01*
X252677836Y-34925453D01*
X252737986Y-34923562D01*
X252741945Y-34923500D01*
X252769856Y-34923500D01*
X252773791Y-34923003D01*
X252773856Y-34922995D01*
X252785693Y-34922062D01*
X252817951Y-34921048D01*
X252821970Y-34920922D01*
X252829889Y-34920673D01*
X252849343Y-34915021D01*
X252868700Y-34911013D01*
X252880930Y-34909468D01*
X252880931Y-34909468D01*
X252888797Y-34908474D01*
X252896168Y-34905555D01*
X252896170Y-34905555D01*
X252929912Y-34892196D01*
X252941142Y-34888351D01*
X252975983Y-34878229D01*
X252975984Y-34878229D01*
X252983593Y-34876018D01*
X252990412Y-34871985D01*
X252990417Y-34871983D01*
X253001028Y-34865707D01*
X253018776Y-34857012D01*
X253037617Y-34849552D01*
X253045119Y-34844102D01*
X253073387Y-34823564D01*
X253083307Y-34817048D01*
X253114535Y-34798580D01*
X253114538Y-34798578D01*
X253121362Y-34794542D01*
X253135683Y-34780221D01*
X253150717Y-34767380D01*
X253156290Y-34763331D01*
X253167107Y-34755472D01*
X253195298Y-34721395D01*
X253203288Y-34712616D01*
X257553103Y-30362801D01*
X257615415Y-30328775D01*
X257686230Y-30333840D01*
X257731293Y-30362801D01*
X261165107Y-33796616D01*
X264590744Y-37222253D01*
X264598284Y-37230539D01*
X264602396Y-37237018D01*
X264608173Y-37242443D01*
X264652047Y-37283643D01*
X264654889Y-37286398D01*
X264674626Y-37306135D01*
X264677823Y-37308615D01*
X264686843Y-37316318D01*
X264719075Y-37346586D01*
X264726021Y-37350405D01*
X264726024Y-37350407D01*
X264736830Y-37356348D01*
X264753349Y-37367199D01*
X264769355Y-37379614D01*
X264776624Y-37382759D01*
X264776628Y-37382762D01*
X264809933Y-37397174D01*
X264820583Y-37402391D01*
X264859336Y-37423695D01*
X264867011Y-37425666D01*
X264867012Y-37425666D01*
X264878958Y-37428733D01*
X264897663Y-37435137D01*
X264916251Y-37443181D01*
X264924074Y-37444420D01*
X264924084Y-37444423D01*
X264959920Y-37450099D01*
X264971540Y-37452505D01*
X265003355Y-37460673D01*
X265014366Y-37463500D01*
X265034620Y-37463500D01*
X265054330Y-37465051D01*
X265074339Y-37468220D01*
X265082231Y-37467474D01*
X265100976Y-37465702D01*
X265118358Y-37464059D01*
X265130215Y-37463500D01*
X278141535Y-37463500D01*
X278152718Y-37464027D01*
X278160211Y-37465702D01*
X278168137Y-37465453D01*
X278168138Y-37465453D01*
X278228288Y-37463562D01*
X278232247Y-37463500D01*
X278260158Y-37463500D01*
X278264093Y-37463003D01*
X278264158Y-37462995D01*
X278275995Y-37462062D01*
X278308253Y-37461048D01*
X278312272Y-37460922D01*
X278320191Y-37460673D01*
X278339645Y-37455021D01*
X278359002Y-37451013D01*
X278371232Y-37449468D01*
X278371233Y-37449468D01*
X278379099Y-37448474D01*
X278386470Y-37445555D01*
X278386472Y-37445555D01*
X278420214Y-37432196D01*
X278431444Y-37428351D01*
X278466285Y-37418229D01*
X278466286Y-37418229D01*
X278473895Y-37416018D01*
X278480714Y-37411985D01*
X278480719Y-37411983D01*
X278491330Y-37405707D01*
X278509078Y-37397012D01*
X278527919Y-37389552D01*
X278563689Y-37363564D01*
X278573609Y-37357048D01*
X278604837Y-37338580D01*
X278604840Y-37338578D01*
X278611664Y-37334542D01*
X278625985Y-37320221D01*
X278641019Y-37307380D01*
X278650996Y-37300131D01*
X278657409Y-37295472D01*
X278685600Y-37261395D01*
X278693590Y-37252616D01*
X280253503Y-35692703D01*
X289990743Y-35692703D01*
X289991302Y-35696947D01*
X289991302Y-35696951D01*
X290004642Y-35798276D01*
X290028268Y-35977734D01*
X290104129Y-36255036D01*
X290216923Y-36519476D01*
X290276693Y-36619345D01*
X290339514Y-36724310D01*
X290364561Y-36766161D01*
X290544313Y-36990528D01*
X290752851Y-37188423D01*
X290986317Y-37356186D01*
X290990112Y-37358195D01*
X290990113Y-37358196D01*
X291011869Y-37369715D01*
X291240392Y-37490712D01*
X291510373Y-37589511D01*
X291791264Y-37650755D01*
X291819841Y-37653004D01*
X292014282Y-37668307D01*
X292014291Y-37668307D01*
X292016739Y-37668500D01*
X292172271Y-37668500D01*
X292174407Y-37668354D01*
X292174418Y-37668354D01*
X292382548Y-37654165D01*
X292382554Y-37654164D01*
X292386825Y-37653873D01*
X292391020Y-37653004D01*
X292391022Y-37653004D01*
X292580954Y-37613671D01*
X292668342Y-37595574D01*
X292939343Y-37499607D01*
X293077399Y-37428351D01*
X293191005Y-37369715D01*
X293191006Y-37369715D01*
X293194812Y-37367750D01*
X293198313Y-37365289D01*
X293198317Y-37365287D01*
X293346140Y-37261395D01*
X293430023Y-37202441D01*
X293604125Y-37040655D01*
X293637479Y-37009661D01*
X293637481Y-37009658D01*
X293640622Y-37006740D01*
X293822713Y-36784268D01*
X293972927Y-36539142D01*
X294088483Y-36275898D01*
X294167244Y-35999406D01*
X294207751Y-35714784D01*
X294207813Y-35703052D01*
X294209235Y-35431583D01*
X294209235Y-35431576D01*
X294209257Y-35427297D01*
X294202488Y-35375877D01*
X294182673Y-35225369D01*
X294171732Y-35142266D01*
X294095871Y-34864964D01*
X294054771Y-34768608D01*
X293984763Y-34604476D01*
X293984761Y-34604472D01*
X293983077Y-34600524D01*
X293860486Y-34395689D01*
X293837643Y-34357521D01*
X293837640Y-34357517D01*
X293835439Y-34353839D01*
X293655687Y-34129472D01*
X293447149Y-33931577D01*
X293213683Y-33763814D01*
X293191843Y-33752250D01*
X293162096Y-33736500D01*
X292959608Y-33629288D01*
X292762624Y-33557202D01*
X292693658Y-33531964D01*
X292693656Y-33531963D01*
X292689627Y-33530489D01*
X292408736Y-33469245D01*
X292377685Y-33466801D01*
X292185718Y-33451693D01*
X292185709Y-33451693D01*
X292183261Y-33451500D01*
X292027729Y-33451500D01*
X292025593Y-33451646D01*
X292025582Y-33451646D01*
X291817452Y-33465835D01*
X291817446Y-33465836D01*
X291813175Y-33466127D01*
X291808980Y-33466996D01*
X291808978Y-33466996D01*
X291770333Y-33474999D01*
X291531658Y-33524426D01*
X291260657Y-33620393D01*
X291005188Y-33752250D01*
X291001687Y-33754711D01*
X291001683Y-33754713D01*
X290935539Y-33801200D01*
X290769977Y-33917559D01*
X290559378Y-34113260D01*
X290377287Y-34335732D01*
X290227073Y-34580858D01*
X290225347Y-34584791D01*
X290225346Y-34584792D01*
X290118937Y-34827199D01*
X290111517Y-34844102D01*
X290110342Y-34848229D01*
X290110341Y-34848230D01*
X290076015Y-34968733D01*
X290032756Y-35120594D01*
X290020228Y-35208622D01*
X289995399Y-35383086D01*
X289992249Y-35405216D01*
X289992227Y-35409505D01*
X289992226Y-35409512D01*
X289990765Y-35688417D01*
X289990743Y-35692703D01*
X280253503Y-35692703D01*
X289217966Y-26728240D01*
X289280278Y-26694214D01*
X289351093Y-26699279D01*
X289407929Y-26741826D01*
X289432852Y-26810082D01*
X289440210Y-26937699D01*
X289440729Y-26946697D01*
X289441866Y-26951743D01*
X289441867Y-26951749D01*
X289473430Y-27091803D01*
X289491648Y-27172642D01*
X289493590Y-27177424D01*
X289493591Y-27177428D01*
X289566763Y-27357628D01*
X289578786Y-27387237D01*
X289614638Y-27445742D01*
X289687879Y-27565260D01*
X289699803Y-27584719D01*
X289851449Y-27759784D01*
X289855428Y-27763087D01*
X289859121Y-27766704D01*
X289857819Y-27768034D01*
X289892932Y-27820238D01*
X289894417Y-27891219D01*
X289857291Y-27951735D01*
X289839118Y-27965395D01*
X289716029Y-28041564D01*
X289591039Y-28166772D01*
X289587199Y-28173002D01*
X289587198Y-28173003D01*
X289518413Y-28284594D01*
X289498205Y-28317377D01*
X289442508Y-28485298D01*
X289431802Y-28589789D01*
X289431803Y-29990210D01*
X289442779Y-30096007D01*
X289444963Y-30102553D01*
X289493021Y-30246598D01*
X289498770Y-30263831D01*
X289591866Y-30414273D01*
X289717074Y-30539263D01*
X289867679Y-30632097D01*
X290035600Y-30687794D01*
X290042436Y-30688494D01*
X290042439Y-30688495D01*
X290085747Y-30692932D01*
X290140091Y-30698500D01*
X290834902Y-30698500D01*
X291540512Y-30698499D01*
X291646309Y-30687523D01*
X291805534Y-30634401D01*
X291807189Y-30633849D01*
X291807191Y-30633848D01*
X291814133Y-30631532D01*
X291964575Y-30538436D01*
X291984939Y-30518037D01*
X292084394Y-30418408D01*
X292089565Y-30413228D01*
X292094535Y-30405165D01*
X292178559Y-30268853D01*
X292178560Y-30268852D01*
X292182399Y-30262623D01*
X292238096Y-30094702D01*
X292248802Y-29990211D01*
X292248801Y-28589790D01*
X292237825Y-28483993D01*
X292204442Y-28383933D01*
X292184151Y-28323113D01*
X292184150Y-28323111D01*
X292181834Y-28316169D01*
X292088738Y-28165727D01*
X291963530Y-28040737D01*
X291957299Y-28036896D01*
X291838144Y-27963448D01*
X291790651Y-27910676D01*
X291779227Y-27840604D01*
X291807501Y-27775480D01*
X291815320Y-27766937D01*
X291865038Y-27717393D01*
X291916605Y-27666005D01*
X292051760Y-27477917D01*
X292098943Y-27382450D01*
X292152086Y-27274922D01*
X292152087Y-27274920D01*
X292154380Y-27270280D01*
X292221710Y-27048671D01*
X292251942Y-26819041D01*
X292252404Y-26800151D01*
X292253547Y-26753365D01*
X292253547Y-26753361D01*
X292253629Y-26750000D01*
X292244145Y-26634639D01*
X292235075Y-26524318D01*
X292235074Y-26524312D01*
X292234651Y-26519167D01*
X292189007Y-26337449D01*
X292179486Y-26299544D01*
X292179485Y-26299540D01*
X292178227Y-26294533D01*
X292153564Y-26237811D01*
X292087932Y-26086868D01*
X292087930Y-26086865D01*
X292085872Y-26082131D01*
X291960066Y-25887665D01*
X291956255Y-25883476D01*
X291890585Y-25811306D01*
X291804189Y-25716358D01*
X291800138Y-25713159D01*
X291800134Y-25713155D01*
X291627379Y-25576722D01*
X291586316Y-25518805D01*
X291583084Y-25447882D01*
X291618709Y-25386470D01*
X291632303Y-25375261D01*
X291677369Y-25343116D01*
X291752545Y-25289494D01*
X291916605Y-25126005D01*
X292051760Y-24937917D01*
X292068378Y-24904294D01*
X292152086Y-24734922D01*
X292152087Y-24734920D01*
X292154380Y-24730280D01*
X292221710Y-24508671D01*
X292251942Y-24279041D01*
X292252756Y-24245733D01*
X292253547Y-24213365D01*
X292253547Y-24213361D01*
X292253629Y-24210000D01*
X292244567Y-24099773D01*
X292235075Y-23984318D01*
X292235074Y-23984312D01*
X292234651Y-23979167D01*
X292192846Y-23812734D01*
X292179486Y-23759544D01*
X292179485Y-23759540D01*
X292178227Y-23754533D01*
X292176168Y-23749797D01*
X292087932Y-23546868D01*
X292087930Y-23546865D01*
X292085872Y-23542131D01*
X291960066Y-23347665D01*
X291951778Y-23338556D01*
X291878928Y-23258495D01*
X291804189Y-23176358D01*
X291800138Y-23173159D01*
X291800134Y-23173155D01*
X291626479Y-23036011D01*
X291626474Y-23036008D01*
X291622425Y-23032810D01*
X291617909Y-23030317D01*
X291617906Y-23030315D01*
X291424181Y-22923373D01*
X291424177Y-22923371D01*
X291419657Y-22920876D01*
X291414788Y-22919152D01*
X291414784Y-22919150D01*
X291206205Y-22845288D01*
X291206201Y-22845287D01*
X291201330Y-22843562D01*
X291196237Y-22842655D01*
X291196234Y-22842654D01*
X290978397Y-22803851D01*
X290978391Y-22803850D01*
X290973308Y-22802945D01*
X290900398Y-22802054D01*
X290746883Y-22800179D01*
X290746881Y-22800179D01*
X290741713Y-22800116D01*
X290512766Y-22835150D01*
X290292616Y-22907106D01*
X290288028Y-22909494D01*
X290288024Y-22909496D01*
X290108305Y-23003052D01*
X290087174Y-23014052D01*
X290083041Y-23017155D01*
X290083038Y-23017157D01*
X289906092Y-23150012D01*
X289901957Y-23153117D01*
X289898385Y-23156855D01*
X289748541Y-23313658D01*
X289741941Y-23320564D01*
X289739027Y-23324836D01*
X289739026Y-23324837D01*
X289693809Y-23391123D01*
X289611421Y-23511899D01*
X289513904Y-23721981D01*
X289452009Y-23945169D01*
X289427397Y-24175469D01*
X289427694Y-24180622D01*
X289427694Y-24180625D01*
X289440192Y-24397384D01*
X289440729Y-24406697D01*
X289441866Y-24411743D01*
X289441867Y-24411749D01*
X289481925Y-24589498D01*
X289477389Y-24660350D01*
X289448103Y-24706294D01*
X279823322Y-34331075D01*
X279761010Y-34365101D01*
X279690195Y-34360036D01*
X279633359Y-34317489D01*
X279608651Y-34252305D01*
X279604867Y-34206284D01*
X279599349Y-34139167D01*
X279547206Y-33931577D01*
X279544184Y-33919544D01*
X279544183Y-33919540D01*
X279542925Y-33914533D01*
X279540866Y-33909797D01*
X279452630Y-33706868D01*
X279452628Y-33706865D01*
X279450570Y-33702131D01*
X279324764Y-33507665D01*
X279316527Y-33498612D01*
X279243602Y-33418469D01*
X279168887Y-33336358D01*
X279164836Y-33333159D01*
X279164832Y-33333155D01*
X278991177Y-33196011D01*
X278991172Y-33196008D01*
X278987123Y-33192810D01*
X278982607Y-33190317D01*
X278982604Y-33190315D01*
X278788879Y-33083373D01*
X278788875Y-33083371D01*
X278784355Y-33080876D01*
X278779486Y-33079152D01*
X278779482Y-33079150D01*
X278570903Y-33005288D01*
X278570899Y-33005287D01*
X278566028Y-33003562D01*
X278560935Y-33002655D01*
X278560932Y-33002654D01*
X278343095Y-32963851D01*
X278343089Y-32963850D01*
X278338006Y-32962945D01*
X278265096Y-32962054D01*
X278111581Y-32960179D01*
X278111579Y-32960179D01*
X278106411Y-32960116D01*
X277877464Y-32995150D01*
X277657314Y-33067106D01*
X277652726Y-33069494D01*
X277652722Y-33069496D01*
X277473003Y-33163052D01*
X277451872Y-33174052D01*
X277447739Y-33177155D01*
X277447736Y-33177157D01*
X277375088Y-33231703D01*
X277266655Y-33313117D01*
X277263083Y-33316855D01*
X277113239Y-33473658D01*
X277106639Y-33480564D01*
X277103725Y-33484836D01*
X277103724Y-33484837D01*
X277054360Y-33557202D01*
X276976119Y-33671899D01*
X276878602Y-33881981D01*
X276816707Y-34105169D01*
X276792095Y-34335469D01*
X276792392Y-34340622D01*
X276792392Y-34340625D01*
X276796841Y-34417791D01*
X276805427Y-34566697D01*
X276806564Y-34571743D01*
X276806565Y-34571749D01*
X276831469Y-34682253D01*
X276856346Y-34792642D01*
X276858288Y-34797424D01*
X276858289Y-34797428D01*
X276933716Y-34983181D01*
X276943484Y-35007237D01*
X277064501Y-35204719D01*
X277216147Y-35379784D01*
X277394349Y-35527730D01*
X277594322Y-35644584D01*
X277599147Y-35646426D01*
X277599148Y-35646427D01*
X277673665Y-35674883D01*
X277810694Y-35727209D01*
X277815760Y-35728240D01*
X277815761Y-35728240D01*
X277837609Y-35732685D01*
X278037656Y-35773385D01*
X278064436Y-35774367D01*
X278079973Y-35774937D01*
X278147315Y-35797422D01*
X278191810Y-35852746D01*
X278199331Y-35923343D01*
X278164450Y-35989947D01*
X277994802Y-36159595D01*
X277932490Y-36193621D01*
X277905707Y-36196500D01*
X265408990Y-36196500D01*
X265340869Y-36176498D01*
X265319895Y-36159595D01*
X258390103Y-29229802D01*
X258356077Y-29167490D01*
X258353198Y-29140707D01*
X258353198Y-21443292D01*
X258373200Y-21375171D01*
X258426856Y-21328678D01*
X258497130Y-21318574D01*
X258561710Y-21348068D01*
X258568293Y-21354197D01*
X262760636Y-25546540D01*
X262794662Y-25608852D01*
X262794060Y-25665049D01*
X262747730Y-25858029D01*
X262740465Y-25888289D01*
X262721835Y-26125000D01*
X262740465Y-26361711D01*
X262741619Y-26366518D01*
X262741620Y-26366524D01*
X262772531Y-26495277D01*
X262795895Y-26592594D01*
X262797788Y-26597165D01*
X262797789Y-26597167D01*
X262882831Y-26802477D01*
X262886760Y-26811963D01*
X262889346Y-26816183D01*
X263008241Y-27010202D01*
X263008245Y-27010208D01*
X263010824Y-27014416D01*
X263165031Y-27194969D01*
X263345584Y-27349176D01*
X263349792Y-27351755D01*
X263349798Y-27351759D01*
X263534922Y-27465203D01*
X263548037Y-27473240D01*
X263552607Y-27475133D01*
X263552611Y-27475135D01*
X263747295Y-27555775D01*
X263767406Y-27564105D01*
X263834938Y-27580318D01*
X263993476Y-27618380D01*
X263993482Y-27618381D01*
X263998289Y-27619535D01*
X264235000Y-27638165D01*
X264471711Y-27619535D01*
X264476518Y-27618381D01*
X264476524Y-27618380D01*
X264694951Y-27565940D01*
X264765859Y-27569487D01*
X264813460Y-27599364D01*
X266456056Y-29241961D01*
X268086348Y-30872253D01*
X268093888Y-30880539D01*
X268098000Y-30887018D01*
X268103777Y-30892443D01*
X268147651Y-30933643D01*
X268150493Y-30936398D01*
X268170230Y-30956135D01*
X268173427Y-30958615D01*
X268182447Y-30966318D01*
X268214679Y-30996586D01*
X268221625Y-31000405D01*
X268221628Y-31000407D01*
X268232434Y-31006348D01*
X268248953Y-31017199D01*
X268264959Y-31029614D01*
X268272228Y-31032759D01*
X268272232Y-31032762D01*
X268305537Y-31047174D01*
X268316187Y-31052391D01*
X268354940Y-31073695D01*
X268362615Y-31075666D01*
X268362616Y-31075666D01*
X268374562Y-31078733D01*
X268393267Y-31085137D01*
X268411855Y-31093181D01*
X268419678Y-31094420D01*
X268419688Y-31094423D01*
X268455524Y-31100099D01*
X268467144Y-31102505D01*
X268498959Y-31110673D01*
X268509970Y-31113500D01*
X268530224Y-31113500D01*
X268549934Y-31115051D01*
X268569943Y-31118220D01*
X268577835Y-31117474D01*
X268613961Y-31114059D01*
X268625819Y-31113500D01*
X272646405Y-31113500D01*
X272714526Y-31133502D01*
X272761019Y-31187158D01*
X272771123Y-31257432D01*
X272741629Y-31322012D01*
X272735500Y-31328595D01*
X272724313Y-31339782D01*
X272709281Y-31352621D01*
X272692893Y-31364528D01*
X272664712Y-31398593D01*
X272656722Y-31407373D01*
X271139500Y-32924595D01*
X271077188Y-32958621D01*
X271050405Y-32961500D01*
X269636866Y-32961500D01*
X269574684Y-32968255D01*
X269438295Y-33019385D01*
X269321739Y-33106739D01*
X269234385Y-33223295D01*
X269183255Y-33359684D01*
X269176500Y-33421866D01*
X269176500Y-33610500D01*
X269156498Y-33678621D01*
X269102842Y-33725114D01*
X269050500Y-33736500D01*
X267714594Y-33736500D01*
X267646473Y-33716498D01*
X267625499Y-33699595D01*
X265709364Y-31783459D01*
X265675338Y-31721147D01*
X265675940Y-31664950D01*
X265728380Y-31446524D01*
X265728381Y-31446518D01*
X265729535Y-31441711D01*
X265748165Y-31205000D01*
X265729535Y-30968289D01*
X265728087Y-30962255D01*
X265675260Y-30742218D01*
X265674105Y-30737406D01*
X265657990Y-30698500D01*
X265585135Y-30522611D01*
X265585133Y-30522607D01*
X265583240Y-30518037D01*
X265519013Y-30413228D01*
X265461759Y-30319798D01*
X265461755Y-30319792D01*
X265459176Y-30315584D01*
X265304969Y-30135031D01*
X265124416Y-29980824D01*
X265120208Y-29978245D01*
X265120202Y-29978241D01*
X264926183Y-29859346D01*
X264921963Y-29856760D01*
X264917393Y-29854867D01*
X264917389Y-29854865D01*
X264707167Y-29767789D01*
X264707165Y-29767788D01*
X264702594Y-29765895D01*
X264622391Y-29746640D01*
X264476524Y-29711620D01*
X264476518Y-29711619D01*
X264471711Y-29710465D01*
X264235000Y-29691835D01*
X263998289Y-29710465D01*
X263993482Y-29711619D01*
X263993476Y-29711620D01*
X263847609Y-29746640D01*
X263767406Y-29765895D01*
X263762835Y-29767788D01*
X263762833Y-29767789D01*
X263552611Y-29854865D01*
X263552607Y-29854867D01*
X263548037Y-29856760D01*
X263543817Y-29859346D01*
X263349798Y-29978241D01*
X263349792Y-29978245D01*
X263345584Y-29980824D01*
X263165031Y-30135031D01*
X263010824Y-30315584D01*
X263008245Y-30319792D01*
X263008241Y-30319798D01*
X262950987Y-30413228D01*
X262886760Y-30518037D01*
X262884867Y-30522607D01*
X262884865Y-30522611D01*
X262812010Y-30698500D01*
X262795895Y-30737406D01*
X262794740Y-30742218D01*
X262741914Y-30962255D01*
X262740465Y-30968289D01*
X262721835Y-31205000D01*
X262740465Y-31441711D01*
X262741619Y-31446518D01*
X262741620Y-31446524D01*
X262762852Y-31534960D01*
X262795895Y-31672594D01*
X262797788Y-31677165D01*
X262797789Y-31677167D01*
X262852190Y-31808502D01*
X262886760Y-31891963D01*
X262889346Y-31896183D01*
X263008241Y-32090202D01*
X263008245Y-32090208D01*
X263010824Y-32094416D01*
X263165031Y-32274969D01*
X263345584Y-32429176D01*
X263349792Y-32431755D01*
X263349798Y-32431759D01*
X263543817Y-32550654D01*
X263548037Y-32553240D01*
X263552607Y-32555133D01*
X263552611Y-32555135D01*
X263762833Y-32642211D01*
X263767406Y-32644105D01*
X263847609Y-32663360D01*
X263993476Y-32698380D01*
X263993482Y-32698381D01*
X263998289Y-32699535D01*
X264235000Y-32718165D01*
X264471711Y-32699535D01*
X264476518Y-32698381D01*
X264476524Y-32698380D01*
X264694951Y-32645940D01*
X264765859Y-32649487D01*
X264813460Y-32679364D01*
X265859209Y-33725114D01*
X266896348Y-34762253D01*
X266903888Y-34770539D01*
X266908000Y-34777018D01*
X266913777Y-34782443D01*
X266957651Y-34823643D01*
X266960493Y-34826398D01*
X266980230Y-34846135D01*
X266983427Y-34848615D01*
X266992447Y-34856318D01*
X267024679Y-34886586D01*
X267031625Y-34890405D01*
X267031628Y-34890407D01*
X267042434Y-34896348D01*
X267058953Y-34907199D01*
X267074959Y-34919614D01*
X267082228Y-34922759D01*
X267082232Y-34922762D01*
X267115537Y-34937174D01*
X267126187Y-34942391D01*
X267164940Y-34963695D01*
X267172615Y-34965666D01*
X267172616Y-34965666D01*
X267184562Y-34968733D01*
X267203267Y-34975137D01*
X267221855Y-34983181D01*
X267229678Y-34984420D01*
X267229688Y-34984423D01*
X267265524Y-34990099D01*
X267277144Y-34992505D01*
X267312289Y-35001528D01*
X267319970Y-35003500D01*
X267340224Y-35003500D01*
X267359934Y-35005051D01*
X267379943Y-35008220D01*
X267387835Y-35007474D01*
X267423961Y-35004059D01*
X267435819Y-35003500D01*
X269050500Y-35003500D01*
X269118621Y-35023502D01*
X269165114Y-35077158D01*
X269176500Y-35129500D01*
X269176500Y-35318134D01*
X269183255Y-35380316D01*
X269234385Y-35516705D01*
X269321739Y-35633261D01*
X269438295Y-35720615D01*
X269574684Y-35771745D01*
X269636866Y-35778500D01*
X271533134Y-35778500D01*
X271595316Y-35771745D01*
X271731705Y-35720615D01*
X271848261Y-35633261D01*
X271935615Y-35516705D01*
X271986745Y-35380316D01*
X271993500Y-35318134D01*
X271993500Y-33914594D01*
X272013502Y-33846473D01*
X272030405Y-33825499D01*
X273355499Y-32500405D01*
X273417811Y-32466379D01*
X273444594Y-32463500D01*
X278126233Y-32463500D01*
X278137416Y-32464027D01*
X278144909Y-32465702D01*
X278152835Y-32465453D01*
X278152836Y-32465453D01*
X278212986Y-32463562D01*
X278216945Y-32463500D01*
X278244856Y-32463500D01*
X278248791Y-32463003D01*
X278248856Y-32462995D01*
X278260693Y-32462062D01*
X278292951Y-32461048D01*
X278296970Y-32460922D01*
X278304889Y-32460673D01*
X278324343Y-32455021D01*
X278343700Y-32451013D01*
X278355930Y-32449468D01*
X278355931Y-32449468D01*
X278363797Y-32448474D01*
X278371168Y-32445555D01*
X278371170Y-32445555D01*
X278404912Y-32432196D01*
X278416142Y-32428351D01*
X278450983Y-32418229D01*
X278450984Y-32418229D01*
X278458593Y-32416018D01*
X278465412Y-32411985D01*
X278465417Y-32411983D01*
X278476028Y-32405707D01*
X278493776Y-32397012D01*
X278512617Y-32389552D01*
X278548387Y-32363564D01*
X278558307Y-32357048D01*
X278589535Y-32338580D01*
X278589538Y-32338578D01*
X278596362Y-32334542D01*
X278610683Y-32320221D01*
X278625717Y-32307380D01*
X278635694Y-32300131D01*
X278642107Y-32295472D01*
X278670298Y-32261395D01*
X278678288Y-32252616D01*
X283677253Y-27253652D01*
X283685539Y-27246112D01*
X283692018Y-27242000D01*
X283738644Y-27192348D01*
X283741398Y-27189507D01*
X283761135Y-27169770D01*
X283763615Y-27166573D01*
X283771320Y-27157551D01*
X283800479Y-27126500D01*
X283800480Y-27126498D01*
X283801586Y-27125321D01*
X283801767Y-27124993D01*
X283806776Y-27119128D01*
X286217247Y-24708657D01*
X286225537Y-24701113D01*
X286232018Y-24697000D01*
X286278659Y-24647332D01*
X286281413Y-24644491D01*
X286301134Y-24624770D01*
X286303612Y-24621575D01*
X286311318Y-24612553D01*
X286314178Y-24609507D01*
X286341586Y-24580321D01*
X286351346Y-24562568D01*
X286362199Y-24546045D01*
X286369753Y-24536306D01*
X286374613Y-24530041D01*
X286392176Y-24489457D01*
X286397383Y-24478827D01*
X286418695Y-24440060D01*
X286420666Y-24432383D01*
X286420668Y-24432378D01*
X286423732Y-24420442D01*
X286430138Y-24401730D01*
X286435034Y-24390417D01*
X286438181Y-24383145D01*
X286440781Y-24366734D01*
X286445097Y-24339481D01*
X286447504Y-24327860D01*
X286456528Y-24292711D01*
X286456528Y-24292710D01*
X286458500Y-24285030D01*
X286458500Y-24264769D01*
X286460051Y-24245058D01*
X286460520Y-24242101D01*
X286463219Y-24225057D01*
X286459059Y-24181046D01*
X286458500Y-24169189D01*
X286458500Y-20113359D01*
X291091386Y-20113359D01*
X291100099Y-20124879D01*
X291188586Y-20189760D01*
X291196505Y-20194708D01*
X291412877Y-20308547D01*
X291421451Y-20312275D01*
X291652282Y-20392885D01*
X291661291Y-20395299D01*
X291901518Y-20440908D01*
X291910775Y-20441962D01*
X292155107Y-20451563D01*
X292164420Y-20451237D01*
X292407478Y-20424618D01*
X292416655Y-20422917D01*
X292653107Y-20360665D01*
X292661926Y-20357628D01*
X292886584Y-20261107D01*
X292894856Y-20256800D01*
X293102777Y-20128135D01*
X293104620Y-20126796D01*
X293112038Y-20115541D01*
X293105974Y-20105184D01*
X292112812Y-19112022D01*
X292098868Y-19104408D01*
X292097035Y-19104539D01*
X292090420Y-19108790D01*
X291098044Y-20101166D01*
X291091386Y-20113359D01*
X286458500Y-20113359D01*
X286458500Y-18699835D01*
X290388022Y-18699835D01*
X290399754Y-18944064D01*
X290400891Y-18953324D01*
X290448593Y-19193143D01*
X290451082Y-19202118D01*
X290533708Y-19432250D01*
X290537505Y-19440778D01*
X290653234Y-19656160D01*
X290658245Y-19664027D01*
X290715173Y-19740263D01*
X290726431Y-19748712D01*
X290738850Y-19741940D01*
X291727978Y-18752812D01*
X291734356Y-18741132D01*
X292464408Y-18741132D01*
X292464539Y-18742965D01*
X292468790Y-18749580D01*
X293463732Y-19744522D01*
X293476112Y-19751282D01*
X293484453Y-19745038D01*
X293602700Y-19561202D01*
X293607147Y-19553011D01*
X293707572Y-19330076D01*
X293710767Y-19321298D01*
X293777135Y-19085973D01*
X293778993Y-19076844D01*
X293810044Y-18832770D01*
X293810525Y-18826483D01*
X293812706Y-18743160D01*
X293812555Y-18736851D01*
X293794321Y-18491486D01*
X293792944Y-18482280D01*
X293738979Y-18243786D01*
X293736255Y-18234875D01*
X293647633Y-18006983D01*
X293643619Y-17998567D01*
X293522284Y-17786276D01*
X293517074Y-17778553D01*
X293485787Y-17738865D01*
X293473863Y-17730395D01*
X293462328Y-17736882D01*
X292472022Y-18727188D01*
X292464408Y-18741132D01*
X291734356Y-18741132D01*
X291735592Y-18738868D01*
X291735461Y-18737035D01*
X291731210Y-18730420D01*
X290736828Y-17736038D01*
X290723520Y-17728771D01*
X290713481Y-17735893D01*
X290708581Y-17741784D01*
X290703168Y-17749373D01*
X290576322Y-17958409D01*
X290572084Y-17966726D01*
X290477529Y-18192214D01*
X290474572Y-18201052D01*
X290414384Y-18438042D01*
X290412763Y-18447232D01*
X290388267Y-18690510D01*
X290388022Y-18699835D01*
X286458500Y-18699835D01*
X286458500Y-16488134D01*
X290391500Y-16488134D01*
X290398255Y-16550316D01*
X290449385Y-16686705D01*
X290536739Y-16803261D01*
X290653295Y-16890615D01*
X290789684Y-16941745D01*
X290851866Y-16948500D01*
X291331914Y-16948500D01*
X291400035Y-16968502D01*
X291446528Y-17022158D01*
X291456632Y-17092432D01*
X291427138Y-17157012D01*
X291384665Y-17188926D01*
X291273869Y-17240004D01*
X291265714Y-17244524D01*
X291098468Y-17354175D01*
X291089330Y-17364917D01*
X291093903Y-17374693D01*
X292087188Y-18367978D01*
X292101132Y-18375592D01*
X292102965Y-18375461D01*
X292109580Y-18371210D01*
X293102488Y-17378302D01*
X293108872Y-17366612D01*
X293099460Y-17354502D01*
X292973144Y-17266873D01*
X292965116Y-17262145D01*
X292813763Y-17187506D01*
X292761514Y-17139438D01*
X292743547Y-17070752D01*
X292765566Y-17003257D01*
X292820581Y-16958380D01*
X292869491Y-16948500D01*
X293348134Y-16948500D01*
X293410316Y-16941745D01*
X293546705Y-16890615D01*
X293663261Y-16803261D01*
X293750615Y-16686705D01*
X293801745Y-16550316D01*
X293808500Y-16488134D01*
X293808500Y-13991866D01*
X293801745Y-13929684D01*
X293750615Y-13793295D01*
X293663261Y-13676739D01*
X293546705Y-13589385D01*
X293410316Y-13538255D01*
X293348134Y-13531500D01*
X290851866Y-13531500D01*
X290789684Y-13538255D01*
X290653295Y-13589385D01*
X290536739Y-13676739D01*
X290449385Y-13793295D01*
X290398255Y-13929684D01*
X290391500Y-13991866D01*
X290391500Y-16488134D01*
X286458500Y-16488134D01*
X286458500Y-12858767D01*
X286459027Y-12847584D01*
X286460702Y-12840091D01*
X286460181Y-12823498D01*
X286458562Y-12772014D01*
X286458500Y-12768055D01*
X286458500Y-12740144D01*
X286457995Y-12736144D01*
X286457062Y-12724301D01*
X286455922Y-12688029D01*
X286455673Y-12680110D01*
X286450022Y-12660658D01*
X286446014Y-12641306D01*
X286444467Y-12629063D01*
X286443474Y-12621203D01*
X286427932Y-12581947D01*
X286427200Y-12580097D01*
X286423355Y-12568870D01*
X286416882Y-12546591D01*
X286411018Y-12526407D01*
X286406984Y-12519585D01*
X286406981Y-12519579D01*
X286400706Y-12508968D01*
X286392010Y-12491218D01*
X286387472Y-12479756D01*
X286387469Y-12479751D01*
X286384552Y-12472383D01*
X286358573Y-12436625D01*
X286352057Y-12426707D01*
X286333575Y-12395457D01*
X286329542Y-12388637D01*
X286315218Y-12374313D01*
X286302376Y-12359278D01*
X286299563Y-12355406D01*
X286290472Y-12342893D01*
X286256406Y-12314711D01*
X286247627Y-12306722D01*
X285058652Y-11117747D01*
X285051112Y-11109461D01*
X285047000Y-11102982D01*
X284997348Y-11056356D01*
X284994507Y-11053602D01*
X284974770Y-11033865D01*
X284971573Y-11031385D01*
X284962551Y-11023680D01*
X284948098Y-11010108D01*
X284930321Y-10993414D01*
X284923375Y-10989595D01*
X284923372Y-10989593D01*
X284912566Y-10983652D01*
X284896047Y-10972801D01*
X284894081Y-10971276D01*
X284880041Y-10960386D01*
X284872772Y-10957241D01*
X284872768Y-10957238D01*
X284839463Y-10942826D01*
X284828813Y-10937609D01*
X284790060Y-10916305D01*
X284770437Y-10911267D01*
X284751734Y-10904863D01*
X284740420Y-10899967D01*
X284740419Y-10899967D01*
X284733145Y-10896819D01*
X284725322Y-10895580D01*
X284725312Y-10895577D01*
X284689476Y-10889901D01*
X284677856Y-10887495D01*
X284642711Y-10878472D01*
X284642710Y-10878472D01*
X284635030Y-10876500D01*
X284614776Y-10876500D01*
X284595065Y-10874949D01*
X284582886Y-10873020D01*
X284575057Y-10871780D01*
X284545786Y-10874547D01*
X284531039Y-10875941D01*
X284519181Y-10876500D01*
X279593767Y-10876500D01*
X279582584Y-10875973D01*
X279575091Y-10874298D01*
X279567165Y-10874547D01*
X279567164Y-10874547D01*
X279507014Y-10876438D01*
X279503055Y-10876500D01*
X279475144Y-10876500D01*
X279471210Y-10876997D01*
X279471209Y-10876997D01*
X279471144Y-10877005D01*
X279459307Y-10877938D01*
X279427490Y-10878938D01*
X279423029Y-10879078D01*
X279415110Y-10879327D01*
X279397454Y-10884456D01*
X279395658Y-10884978D01*
X279376306Y-10888986D01*
X279369235Y-10889880D01*
X279356203Y-10891526D01*
X279348834Y-10894443D01*
X279348832Y-10894444D01*
X279315097Y-10907800D01*
X279303869Y-10911645D01*
X279261407Y-10923982D01*
X279254585Y-10928016D01*
X279254579Y-10928019D01*
X279243968Y-10934294D01*
X279226218Y-10942990D01*
X279214756Y-10947528D01*
X279214751Y-10947531D01*
X279207383Y-10950448D01*
X279189970Y-10963099D01*
X279171625Y-10976427D01*
X279161707Y-10982943D01*
X279150463Y-10989593D01*
X279123637Y-11005458D01*
X279109313Y-11019782D01*
X279094281Y-11032621D01*
X279077893Y-11044528D01*
X279049712Y-11078593D01*
X279041722Y-11087373D01*
X278658247Y-11470848D01*
X278595935Y-11504874D01*
X278536542Y-11503460D01*
X278473087Y-11486457D01*
X278245000Y-11466502D01*
X278016913Y-11486457D01*
X278011600Y-11487881D01*
X278011598Y-11487881D01*
X277801067Y-11544293D01*
X277801065Y-11544294D01*
X277795757Y-11545716D01*
X277790776Y-11548039D01*
X277790775Y-11548039D01*
X277593238Y-11640151D01*
X277593233Y-11640154D01*
X277588251Y-11642477D01*
X277564350Y-11659213D01*
X277405211Y-11770643D01*
X277405208Y-11770645D01*
X277400700Y-11773802D01*
X277238802Y-11935700D01*
X277235645Y-11940208D01*
X277235643Y-11940211D01*
X277180902Y-12018389D01*
X277107477Y-12123251D01*
X277105154Y-12128233D01*
X277105151Y-12128238D01*
X277019962Y-12310928D01*
X277010716Y-12330757D01*
X277009294Y-12336065D01*
X277009293Y-12336067D01*
X276952883Y-12546591D01*
X276951457Y-12551913D01*
X276931502Y-12780000D01*
X276951457Y-13008087D01*
X276952881Y-13013400D01*
X276952881Y-13013402D01*
X276974637Y-13094594D01*
X277010716Y-13229243D01*
X277013039Y-13234224D01*
X277013039Y-13234225D01*
X277105151Y-13431762D01*
X277105154Y-13431767D01*
X277107477Y-13436749D01*
X277110634Y-13441257D01*
X277218126Y-13594771D01*
X277238802Y-13624300D01*
X277397704Y-13783202D01*
X277431730Y-13845514D01*
X277426665Y-13916329D01*
X277397704Y-13961392D01*
X272278248Y-19080848D01*
X272215936Y-19114874D01*
X272156541Y-19113459D01*
X272098409Y-19097882D01*
X272098398Y-19097880D01*
X272093087Y-19096457D01*
X271865000Y-19076502D01*
X271636913Y-19096457D01*
X271631600Y-19097881D01*
X271631598Y-19097881D01*
X271421067Y-19154293D01*
X271421065Y-19154294D01*
X271415757Y-19155716D01*
X271410776Y-19158039D01*
X271410775Y-19158039D01*
X271213238Y-19250151D01*
X271213233Y-19250154D01*
X271208251Y-19252477D01*
X271147375Y-19295103D01*
X271025211Y-19380643D01*
X271025208Y-19380645D01*
X271020700Y-19383802D01*
X270858802Y-19545700D01*
X270855645Y-19550208D01*
X270855643Y-19550211D01*
X270847947Y-19561202D01*
X270727477Y-19733251D01*
X270725154Y-19738233D01*
X270725151Y-19738238D01*
X270663357Y-19870757D01*
X270630716Y-19940757D01*
X270629294Y-19946065D01*
X270629293Y-19946067D01*
X270580508Y-20128135D01*
X270571457Y-20161913D01*
X270551502Y-20390000D01*
X270571457Y-20618087D01*
X270572881Y-20623400D01*
X270572881Y-20623402D01*
X270628550Y-20831158D01*
X270630716Y-20839243D01*
X270633039Y-20844224D01*
X270633039Y-20844225D01*
X270725151Y-21041762D01*
X270725154Y-21041767D01*
X270727477Y-21046749D01*
X270858802Y-21234300D01*
X271020700Y-21396198D01*
X271025208Y-21399355D01*
X271025211Y-21399357D01*
X271087957Y-21443292D01*
X271208251Y-21527523D01*
X271213233Y-21529846D01*
X271213238Y-21529849D01*
X271385056Y-21609968D01*
X271415757Y-21624284D01*
X271421065Y-21625706D01*
X271421067Y-21625707D01*
X271631598Y-21682119D01*
X271631600Y-21682119D01*
X271636913Y-21683543D01*
X271865000Y-21703498D01*
X272093087Y-21683543D01*
X272098400Y-21682119D01*
X272098402Y-21682119D01*
X272308933Y-21625707D01*
X272308935Y-21625706D01*
X272314243Y-21624284D01*
X272344944Y-21609968D01*
X272516762Y-21529849D01*
X272516767Y-21529846D01*
X272521749Y-21527523D01*
X272642043Y-21443292D01*
X272704789Y-21399357D01*
X272704792Y-21399355D01*
X272709300Y-21396198D01*
X272871198Y-21234300D01*
X273002523Y-21046749D01*
X273004846Y-21041767D01*
X273004849Y-21041762D01*
X273021081Y-21006951D01*
X273067998Y-20953666D01*
X273136275Y-20934205D01*
X273204235Y-20954747D01*
X273249471Y-21006951D01*
X273265586Y-21041511D01*
X273271069Y-21051007D01*
X273396028Y-21229467D01*
X273403084Y-21237875D01*
X273557125Y-21391916D01*
X273565533Y-21398972D01*
X273743993Y-21523931D01*
X273753489Y-21529414D01*
X273950947Y-21621490D01*
X273961239Y-21625236D01*
X274133503Y-21671394D01*
X274147599Y-21671058D01*
X274151000Y-21663116D01*
X274151000Y-21657967D01*
X274659000Y-21657967D01*
X274662973Y-21671498D01*
X274671522Y-21672727D01*
X274848761Y-21625236D01*
X274859053Y-21621490D01*
X275056511Y-21529414D01*
X275066007Y-21523931D01*
X275244467Y-21398972D01*
X275252875Y-21391916D01*
X275406916Y-21237875D01*
X275413972Y-21229467D01*
X275538931Y-21051007D01*
X275544414Y-21041511D01*
X275560529Y-21006951D01*
X275607446Y-20953666D01*
X275675723Y-20934205D01*
X275743683Y-20954747D01*
X275788919Y-21006951D01*
X275805151Y-21041762D01*
X275805154Y-21041767D01*
X275807477Y-21046749D01*
X275938802Y-21234300D01*
X276100700Y-21396198D01*
X276105208Y-21399355D01*
X276105211Y-21399357D01*
X276167957Y-21443292D01*
X276288251Y-21527523D01*
X276293233Y-21529846D01*
X276293238Y-21529849D01*
X276465056Y-21609968D01*
X276495757Y-21624284D01*
X276501065Y-21625706D01*
X276501067Y-21625707D01*
X276711598Y-21682119D01*
X276711600Y-21682119D01*
X276716913Y-21683543D01*
X276945000Y-21703498D01*
X277173087Y-21683543D01*
X277178400Y-21682119D01*
X277178402Y-21682119D01*
X277388933Y-21625707D01*
X277388935Y-21625706D01*
X277394243Y-21624284D01*
X277424944Y-21609968D01*
X277596762Y-21529849D01*
X277596767Y-21529846D01*
X277601749Y-21527523D01*
X277722043Y-21443292D01*
X277784789Y-21399357D01*
X277784792Y-21399355D01*
X277789300Y-21396198D01*
X277951198Y-21234300D01*
X278082523Y-21046749D01*
X278084846Y-21041767D01*
X278084849Y-21041762D01*
X278100805Y-21007543D01*
X278147722Y-20954258D01*
X278215999Y-20934797D01*
X278283959Y-20955339D01*
X278329195Y-21007543D01*
X278345151Y-21041762D01*
X278345154Y-21041767D01*
X278347477Y-21046749D01*
X278478802Y-21234300D01*
X278640700Y-21396198D01*
X278645208Y-21399355D01*
X278645211Y-21399357D01*
X278707957Y-21443292D01*
X278828251Y-21527523D01*
X278833233Y-21529846D01*
X278833238Y-21529849D01*
X279005056Y-21609968D01*
X279035757Y-21624284D01*
X279041065Y-21625706D01*
X279041067Y-21625707D01*
X279251598Y-21682119D01*
X279251600Y-21682119D01*
X279256913Y-21683543D01*
X279485000Y-21703498D01*
X279713087Y-21683543D01*
X279718400Y-21682119D01*
X279718402Y-21682119D01*
X279928933Y-21625707D01*
X279928935Y-21625706D01*
X279934243Y-21624284D01*
X279964944Y-21609968D01*
X280136762Y-21529849D01*
X280136767Y-21529846D01*
X280141749Y-21527523D01*
X280262043Y-21443292D01*
X280324789Y-21399357D01*
X280324792Y-21399355D01*
X280329300Y-21396198D01*
X280491198Y-21234300D01*
X280622523Y-21046749D01*
X280624846Y-21041767D01*
X280624849Y-21041762D01*
X280716961Y-20844225D01*
X280716961Y-20844224D01*
X280719284Y-20839243D01*
X280721451Y-20831158D01*
X280777119Y-20623402D01*
X280777119Y-20623400D01*
X280778543Y-20618087D01*
X280798498Y-20390000D01*
X280778543Y-20161913D01*
X280769492Y-20128135D01*
X280720707Y-19946067D01*
X280720706Y-19946065D01*
X280719284Y-19940757D01*
X280686643Y-19870757D01*
X280624849Y-19738238D01*
X280624846Y-19738233D01*
X280622523Y-19733251D01*
X280502053Y-19561202D01*
X280494357Y-19550211D01*
X280494355Y-19550208D01*
X280491198Y-19545700D01*
X280329300Y-19383802D01*
X280324792Y-19380645D01*
X280324789Y-19380643D01*
X280202625Y-19295103D01*
X280141749Y-19252477D01*
X280136767Y-19250154D01*
X280136762Y-19250151D01*
X279939225Y-19158039D01*
X279939224Y-19158039D01*
X279934243Y-19155716D01*
X279928935Y-19154294D01*
X279928933Y-19154293D01*
X279718402Y-19097881D01*
X279718400Y-19097881D01*
X279713087Y-19096457D01*
X279485000Y-19076502D01*
X279256913Y-19096457D01*
X279251600Y-19097881D01*
X279251598Y-19097881D01*
X279041067Y-19154293D01*
X279041065Y-19154294D01*
X279035757Y-19155716D01*
X279030776Y-19158039D01*
X279030775Y-19158039D01*
X278833238Y-19250151D01*
X278833233Y-19250154D01*
X278828251Y-19252477D01*
X278767375Y-19295103D01*
X278645211Y-19380643D01*
X278645208Y-19380645D01*
X278640700Y-19383802D01*
X278478802Y-19545700D01*
X278475645Y-19550208D01*
X278475643Y-19550211D01*
X278467947Y-19561202D01*
X278347477Y-19733251D01*
X278345154Y-19738233D01*
X278345151Y-19738238D01*
X278329195Y-19772457D01*
X278282278Y-19825742D01*
X278214001Y-19845203D01*
X278146041Y-19824661D01*
X278100805Y-19772457D01*
X278084849Y-19738238D01*
X278084846Y-19738233D01*
X278082523Y-19733251D01*
X277962053Y-19561202D01*
X277954357Y-19550211D01*
X277954355Y-19550208D01*
X277951198Y-19545700D01*
X277789300Y-19383802D01*
X277784792Y-19380645D01*
X277784789Y-19380643D01*
X277662625Y-19295103D01*
X277601749Y-19252477D01*
X277596767Y-19250154D01*
X277596762Y-19250151D01*
X277399225Y-19158039D01*
X277399224Y-19158039D01*
X277394243Y-19155716D01*
X277388935Y-19154294D01*
X277388933Y-19154293D01*
X277178402Y-19097881D01*
X277178400Y-19097881D01*
X277173087Y-19096457D01*
X276945000Y-19076502D01*
X276716913Y-19096457D01*
X276711600Y-19097881D01*
X276711598Y-19097881D01*
X276501067Y-19154293D01*
X276501065Y-19154294D01*
X276495757Y-19155716D01*
X276490776Y-19158039D01*
X276490775Y-19158039D01*
X276293238Y-19250151D01*
X276293233Y-19250154D01*
X276288251Y-19252477D01*
X276227375Y-19295103D01*
X276105211Y-19380643D01*
X276105208Y-19380645D01*
X276100700Y-19383802D01*
X275938802Y-19545700D01*
X275935645Y-19550208D01*
X275935643Y-19550211D01*
X275927947Y-19561202D01*
X275807477Y-19733251D01*
X275805154Y-19738233D01*
X275805151Y-19738238D01*
X275788919Y-19773049D01*
X275742002Y-19826334D01*
X275673725Y-19845795D01*
X275605765Y-19825253D01*
X275560529Y-19773049D01*
X275544414Y-19738489D01*
X275538931Y-19728993D01*
X275413972Y-19550533D01*
X275406916Y-19542125D01*
X275252875Y-19388084D01*
X275244467Y-19381028D01*
X275066007Y-19256069D01*
X275056511Y-19250586D01*
X274859053Y-19158510D01*
X274848761Y-19154764D01*
X274676497Y-19108606D01*
X274662401Y-19108942D01*
X274659000Y-19116884D01*
X274659000Y-21657967D01*
X274151000Y-21657967D01*
X274151000Y-19122033D01*
X274144341Y-19099355D01*
X274144341Y-19028359D01*
X274176142Y-18974762D01*
X278637247Y-14513657D01*
X278645537Y-14506113D01*
X278652018Y-14502000D01*
X278698659Y-14452332D01*
X278701413Y-14449491D01*
X278721135Y-14429769D01*
X278723612Y-14426576D01*
X278731317Y-14417555D01*
X278747604Y-14400211D01*
X278761586Y-14385321D01*
X278765407Y-14378371D01*
X278771346Y-14367568D01*
X278782202Y-14351041D01*
X278789757Y-14341302D01*
X278789758Y-14341300D01*
X278794614Y-14335040D01*
X278812174Y-14294460D01*
X278817391Y-14283812D01*
X278834875Y-14252009D01*
X278834876Y-14252007D01*
X278838695Y-14245060D01*
X278841602Y-14233740D01*
X278843733Y-14225438D01*
X278850137Y-14206734D01*
X278855033Y-14195420D01*
X278855033Y-14195419D01*
X278858181Y-14188145D01*
X278859420Y-14180322D01*
X278859423Y-14180312D01*
X278865099Y-14144476D01*
X278867505Y-14132856D01*
X278876528Y-14097711D01*
X278876528Y-14097710D01*
X278878500Y-14090030D01*
X278878500Y-14069776D01*
X278880051Y-14050065D01*
X278881980Y-14037886D01*
X278883220Y-14030057D01*
X278881294Y-14009686D01*
X278894796Y-13939987D01*
X278934465Y-13894615D01*
X279084784Y-13789361D01*
X279084790Y-13789356D01*
X279089300Y-13786198D01*
X279251198Y-13624300D01*
X279271875Y-13594771D01*
X279379366Y-13441257D01*
X279382523Y-13436749D01*
X279384846Y-13431767D01*
X279384849Y-13431762D01*
X279476961Y-13234225D01*
X279476961Y-13234224D01*
X279479284Y-13229243D01*
X279515364Y-13094594D01*
X279537119Y-13013402D01*
X279537119Y-13013400D01*
X279538543Y-13008087D01*
X279558498Y-12780000D01*
X279538543Y-12551913D01*
X279537119Y-12546598D01*
X279537118Y-12546591D01*
X279521541Y-12488459D01*
X279523230Y-12417483D01*
X279554152Y-12366752D01*
X279740499Y-12180405D01*
X279802811Y-12146379D01*
X279829594Y-12143500D01*
X281900255Y-12143500D01*
X281968376Y-12163502D01*
X282014869Y-12217158D01*
X282024973Y-12287432D01*
X282014448Y-12322753D01*
X282010716Y-12330757D01*
X282009294Y-12336065D01*
X282009293Y-12336067D01*
X281952883Y-12546591D01*
X281951457Y-12551913D01*
X281931502Y-12780000D01*
X281951457Y-13008087D01*
X281952881Y-13013400D01*
X281952881Y-13013402D01*
X281974637Y-13094594D01*
X282010716Y-13229243D01*
X282013039Y-13234224D01*
X282013039Y-13234225D01*
X282105151Y-13431762D01*
X282105154Y-13431767D01*
X282107477Y-13436749D01*
X282110634Y-13441257D01*
X282218126Y-13594771D01*
X282238802Y-13624300D01*
X282400700Y-13786198D01*
X282405208Y-13789355D01*
X282405211Y-13789357D01*
X282557771Y-13896181D01*
X282602099Y-13951638D01*
X282611500Y-13999394D01*
X282611500Y-23855405D01*
X282591498Y-23923526D01*
X282574595Y-23944501D01*
X281709499Y-24809596D01*
X281647187Y-24843621D01*
X281620404Y-24846500D01*
X274473767Y-24846500D01*
X274462584Y-24845973D01*
X274455091Y-24844298D01*
X274447165Y-24844547D01*
X274447164Y-24844547D01*
X274387014Y-24846438D01*
X274383055Y-24846500D01*
X274355144Y-24846500D01*
X274351210Y-24846997D01*
X274351209Y-24846997D01*
X274351144Y-24847005D01*
X274339307Y-24847938D01*
X274307490Y-24848938D01*
X274303029Y-24849078D01*
X274295110Y-24849327D01*
X274277454Y-24854456D01*
X274275658Y-24854978D01*
X274256306Y-24858986D01*
X274249235Y-24859880D01*
X274236203Y-24861526D01*
X274228834Y-24864443D01*
X274228832Y-24864444D01*
X274195097Y-24877800D01*
X274183869Y-24881645D01*
X274141407Y-24893982D01*
X274134585Y-24898016D01*
X274134579Y-24898019D01*
X274123968Y-24904294D01*
X274106218Y-24912990D01*
X274094756Y-24917528D01*
X274094751Y-24917531D01*
X274087383Y-24920448D01*
X274080968Y-24925109D01*
X274051625Y-24946427D01*
X274041707Y-24952943D01*
X274036425Y-24956067D01*
X274003637Y-24975458D01*
X273989313Y-24989782D01*
X273974281Y-25002621D01*
X273957893Y-25014528D01*
X273939980Y-25036181D01*
X273929712Y-25048593D01*
X273921722Y-25057373D01*
X272314500Y-26664595D01*
X272252188Y-26698621D01*
X272225405Y-26701500D01*
X271016866Y-26701500D01*
X270954684Y-26708255D01*
X270818295Y-26759385D01*
X270701739Y-26846739D01*
X270614385Y-26963295D01*
X270563255Y-27099684D01*
X270556500Y-27161866D01*
X270556500Y-28858134D01*
X270563255Y-28920316D01*
X270614385Y-29056705D01*
X270701739Y-29173261D01*
X270818295Y-29260615D01*
X270954684Y-29311745D01*
X271016866Y-29318500D01*
X272713134Y-29318500D01*
X272775316Y-29311745D01*
X272911705Y-29260615D01*
X273028261Y-29173261D01*
X273115615Y-29056705D01*
X273166745Y-28920316D01*
X273167917Y-28909526D01*
X273168803Y-28907394D01*
X273169425Y-28904778D01*
X273169848Y-28904879D01*
X273195155Y-28843965D01*
X273253517Y-28803537D01*
X273324471Y-28801078D01*
X273385490Y-28837371D01*
X273392489Y-28846031D01*
X273395643Y-28849789D01*
X273398802Y-28854300D01*
X273560700Y-29016198D01*
X273565208Y-29019355D01*
X273565211Y-29019357D01*
X273578310Y-29028529D01*
X273748251Y-29147523D01*
X273753233Y-29149846D01*
X273753238Y-29149849D01*
X273924700Y-29229802D01*
X273955757Y-29244284D01*
X273961065Y-29245706D01*
X273961067Y-29245707D01*
X274171598Y-29302119D01*
X274171600Y-29302119D01*
X274176913Y-29303543D01*
X274405000Y-29323498D01*
X274633087Y-29303543D01*
X274638400Y-29302119D01*
X274638402Y-29302119D01*
X274848933Y-29245707D01*
X274848935Y-29245706D01*
X274854243Y-29244284D01*
X274885300Y-29229802D01*
X275056762Y-29149849D01*
X275056767Y-29149846D01*
X275061749Y-29147523D01*
X275231690Y-29028529D01*
X275244789Y-29019357D01*
X275244792Y-29019355D01*
X275249300Y-29016198D01*
X275411198Y-28854300D01*
X275452658Y-28795090D01*
X275496397Y-28732624D01*
X275542523Y-28666749D01*
X275544846Y-28661767D01*
X275544849Y-28661762D01*
X275560805Y-28627543D01*
X275607722Y-28574258D01*
X275675999Y-28554797D01*
X275743959Y-28575339D01*
X275789195Y-28627543D01*
X275805151Y-28661762D01*
X275805154Y-28661767D01*
X275807477Y-28666749D01*
X275853603Y-28732624D01*
X275897343Y-28795090D01*
X275938802Y-28854300D01*
X276100700Y-29016198D01*
X276105208Y-29019355D01*
X276105211Y-29019357D01*
X276118310Y-29028529D01*
X276288251Y-29147523D01*
X276293233Y-29149846D01*
X276293238Y-29149849D01*
X276464700Y-29229802D01*
X276495757Y-29244284D01*
X276501065Y-29245706D01*
X276501067Y-29245707D01*
X276711598Y-29302119D01*
X276711600Y-29302119D01*
X276716913Y-29303543D01*
X276945000Y-29323498D01*
X276950475Y-29323019D01*
X276950485Y-29323019D01*
X276962428Y-29321974D01*
X277032033Y-29335962D01*
X277083026Y-29385361D01*
X277099217Y-29454486D01*
X277075465Y-29521392D01*
X277062506Y-29536589D01*
X276789500Y-29809595D01*
X276727188Y-29843621D01*
X276700405Y-29846500D01*
X268904594Y-29846500D01*
X268836473Y-29826498D01*
X268815499Y-29809595D01*
X265709364Y-26703459D01*
X265675338Y-26641147D01*
X265675940Y-26584950D01*
X265680607Y-26565513D01*
X265697469Y-26495277D01*
X265728380Y-26366524D01*
X265728381Y-26366518D01*
X265729535Y-26361711D01*
X265748165Y-26125000D01*
X265729535Y-25888289D01*
X265722271Y-25858029D01*
X265683468Y-25696407D01*
X265674105Y-25657406D01*
X265670936Y-25649756D01*
X265585135Y-25442611D01*
X265585133Y-25442607D01*
X265583240Y-25438037D01*
X265513778Y-25324686D01*
X265461759Y-25239798D01*
X265461755Y-25239792D01*
X265459176Y-25235584D01*
X265304969Y-25055031D01*
X265124416Y-24900824D01*
X265120208Y-24898245D01*
X265120202Y-24898241D01*
X264926183Y-24779346D01*
X264921963Y-24776760D01*
X264917393Y-24774867D01*
X264917389Y-24774865D01*
X264707167Y-24687789D01*
X264707165Y-24687788D01*
X264702594Y-24685895D01*
X264622391Y-24666640D01*
X264476524Y-24631620D01*
X264476518Y-24631619D01*
X264471711Y-24630465D01*
X264235000Y-24611835D01*
X263998289Y-24630465D01*
X263993482Y-24631619D01*
X263993476Y-24631620D01*
X263844414Y-24667407D01*
X263775049Y-24684060D01*
X263704142Y-24680513D01*
X263656541Y-24650636D01*
X258390103Y-19384198D01*
X258356077Y-19321886D01*
X258353198Y-19295103D01*
X258353198Y-19214500D01*
X258373200Y-19146379D01*
X258426856Y-19099886D01*
X258479198Y-19088500D01*
X258567832Y-19088500D01*
X258630014Y-19081745D01*
X258766403Y-19030615D01*
X258882959Y-18943261D01*
X258970313Y-18826705D01*
X259021443Y-18690316D01*
X259028198Y-18628134D01*
X259028198Y-17780000D01*
X259906200Y-17780000D01*
X259926155Y-18008087D01*
X259927579Y-18013400D01*
X259927579Y-18013402D01*
X259963191Y-18146305D01*
X259985414Y-18229243D01*
X259987737Y-18234224D01*
X259987737Y-18234225D01*
X260079849Y-18431762D01*
X260079852Y-18431767D01*
X260082175Y-18436749D01*
X260123004Y-18495058D01*
X260180342Y-18576945D01*
X260213500Y-18624300D01*
X260375398Y-18786198D01*
X260379906Y-18789355D01*
X260379909Y-18789357D01*
X260443510Y-18833891D01*
X260562949Y-18917523D01*
X260567931Y-18919846D01*
X260567936Y-18919849D01*
X260730588Y-18995694D01*
X260770455Y-19014284D01*
X260775763Y-19015706D01*
X260775765Y-19015707D01*
X260986296Y-19072119D01*
X260986298Y-19072119D01*
X260991611Y-19073543D01*
X261219698Y-19093498D01*
X261447785Y-19073543D01*
X261453098Y-19072119D01*
X261453100Y-19072119D01*
X261663631Y-19015707D01*
X261663633Y-19015706D01*
X261668941Y-19014284D01*
X261708808Y-18995694D01*
X261871460Y-18919849D01*
X261871465Y-18919846D01*
X261876447Y-18917523D01*
X261995886Y-18833891D01*
X262059487Y-18789357D01*
X262059490Y-18789355D01*
X262063998Y-18786198D01*
X262225896Y-18624300D01*
X262259055Y-18576945D01*
X262316392Y-18495058D01*
X262357221Y-18436749D01*
X262359544Y-18431767D01*
X262359547Y-18431762D01*
X262451659Y-18234225D01*
X262451659Y-18234224D01*
X262453982Y-18229243D01*
X262476206Y-18146305D01*
X262511817Y-18013402D01*
X262511817Y-18013400D01*
X262513241Y-18008087D01*
X262533196Y-17780000D01*
X262513241Y-17551913D01*
X262483913Y-17442460D01*
X262455405Y-17336067D01*
X262455404Y-17336065D01*
X262453982Y-17330757D01*
X262436689Y-17293671D01*
X262359547Y-17128238D01*
X262359544Y-17128233D01*
X262357221Y-17123251D01*
X262234859Y-16948500D01*
X262229055Y-16940211D01*
X262229053Y-16940208D01*
X262225896Y-16935700D01*
X262063998Y-16773802D01*
X262059490Y-16770645D01*
X262059487Y-16770643D01*
X261980270Y-16715175D01*
X261876447Y-16642477D01*
X261871465Y-16640154D01*
X261871460Y-16640151D01*
X261673923Y-16548039D01*
X261673922Y-16548039D01*
X261668941Y-16545716D01*
X261663633Y-16544294D01*
X261663631Y-16544293D01*
X261453100Y-16487881D01*
X261453098Y-16487881D01*
X261447785Y-16486457D01*
X261219698Y-16466502D01*
X260991611Y-16486457D01*
X260986298Y-16487881D01*
X260986296Y-16487881D01*
X260775765Y-16544293D01*
X260775763Y-16544294D01*
X260770455Y-16545716D01*
X260765474Y-16548039D01*
X260765473Y-16548039D01*
X260567936Y-16640151D01*
X260567931Y-16640154D01*
X260562949Y-16642477D01*
X260459126Y-16715175D01*
X260379909Y-16770643D01*
X260379906Y-16770645D01*
X260375398Y-16773802D01*
X260213500Y-16935700D01*
X260210343Y-16940208D01*
X260210341Y-16940211D01*
X260204537Y-16948500D01*
X260082175Y-17123251D01*
X260079852Y-17128233D01*
X260079849Y-17128238D01*
X260002707Y-17293671D01*
X259985414Y-17330757D01*
X259983992Y-17336065D01*
X259983991Y-17336067D01*
X259955483Y-17442460D01*
X259926155Y-17551913D01*
X259906200Y-17780000D01*
X259028198Y-17780000D01*
X259028198Y-16931866D01*
X259021443Y-16869684D01*
X258970313Y-16733295D01*
X258882959Y-16616739D01*
X258766403Y-16529385D01*
X258630014Y-16478255D01*
X258567832Y-16471500D01*
X256871564Y-16471500D01*
X256809382Y-16478255D01*
X256672993Y-16529385D01*
X256556437Y-16616739D01*
X256469083Y-16733295D01*
X256417953Y-16869684D01*
X256411198Y-16931866D01*
X256411198Y-18628134D01*
X256417953Y-18690316D01*
X256469083Y-18826705D01*
X256556437Y-18943261D01*
X256672993Y-19030615D01*
X256809382Y-19081745D01*
X256871564Y-19088500D01*
X256960198Y-19088500D01*
X257028319Y-19108502D01*
X257074812Y-19162158D01*
X257086198Y-19214500D01*
X257086198Y-19530931D01*
X257085671Y-19542114D01*
X257083996Y-19549607D01*
X257084245Y-19557533D01*
X257084245Y-19557534D01*
X257086136Y-19617684D01*
X257086198Y-19621643D01*
X257086198Y-28985707D01*
X257066196Y-29053828D01*
X257049293Y-29074802D01*
X252504500Y-33619595D01*
X252442188Y-33653621D01*
X252415405Y-33656500D01*
X232724594Y-33656500D01*
X232656473Y-33636498D01*
X232635499Y-33619595D01*
X230386141Y-31370236D01*
X230352115Y-31307924D01*
X230357180Y-31237108D01*
X230372023Y-31208870D01*
X230422523Y-31136749D01*
X230424846Y-31131767D01*
X230424849Y-31131762D01*
X230516961Y-30934225D01*
X230516961Y-30934224D01*
X230519284Y-30929243D01*
X230524067Y-30911395D01*
X230577119Y-30713402D01*
X230577119Y-30713400D01*
X230578543Y-30708087D01*
X230598498Y-30480000D01*
X230578543Y-30251913D01*
X230549215Y-30142460D01*
X230520707Y-30036067D01*
X230520706Y-30036065D01*
X230519284Y-30030757D01*
X230501894Y-29993463D01*
X230424849Y-29828238D01*
X230424846Y-29828233D01*
X230422523Y-29823251D01*
X230343549Y-29710465D01*
X230294357Y-29640211D01*
X230294355Y-29640208D01*
X230291198Y-29635700D01*
X230129300Y-29473802D01*
X230124792Y-29470645D01*
X230124789Y-29470643D01*
X230038056Y-29409912D01*
X229941749Y-29342477D01*
X229936767Y-29340154D01*
X229936762Y-29340151D01*
X229902543Y-29324195D01*
X229849258Y-29277278D01*
X229829797Y-29209001D01*
X229850339Y-29141041D01*
X229902543Y-29095805D01*
X229936762Y-29079849D01*
X229936767Y-29079846D01*
X229941749Y-29077523D01*
X230060989Y-28994030D01*
X230124789Y-28949357D01*
X230124792Y-28949355D01*
X230129300Y-28946198D01*
X230291198Y-28784300D01*
X230422523Y-28596749D01*
X230424846Y-28591767D01*
X230424849Y-28591762D01*
X230516961Y-28394225D01*
X230516961Y-28394224D01*
X230519284Y-28389243D01*
X230536244Y-28325950D01*
X230577119Y-28173402D01*
X230577119Y-28173400D01*
X230578543Y-28168087D01*
X230598498Y-27940000D01*
X230578543Y-27711913D01*
X230573757Y-27694050D01*
X230520707Y-27496067D01*
X230520706Y-27496065D01*
X230519284Y-27490757D01*
X230513297Y-27477917D01*
X230424849Y-27288238D01*
X230424846Y-27288233D01*
X230422523Y-27283251D01*
X230337484Y-27161803D01*
X230294357Y-27100211D01*
X230294355Y-27100208D01*
X230291198Y-27095700D01*
X230129300Y-26933802D01*
X230124792Y-26930645D01*
X230124789Y-26930643D01*
X230038397Y-26870151D01*
X229941749Y-26802477D01*
X229936767Y-26800154D01*
X229936762Y-26800151D01*
X229902543Y-26784195D01*
X229849258Y-26737278D01*
X229829797Y-26669001D01*
X229850339Y-26601041D01*
X229902543Y-26555805D01*
X229936762Y-26539849D01*
X229936767Y-26539846D01*
X229941749Y-26537523D01*
X230092094Y-26432250D01*
X230124789Y-26409357D01*
X230124792Y-26409355D01*
X230129300Y-26406198D01*
X230291198Y-26244300D01*
X230422523Y-26056749D01*
X230424846Y-26051767D01*
X230424849Y-26051762D01*
X230516961Y-25854225D01*
X230516961Y-25854224D01*
X230519284Y-25849243D01*
X230564910Y-25678968D01*
X230577119Y-25633402D01*
X230577119Y-25633400D01*
X230578543Y-25628087D01*
X230598498Y-25400000D01*
X230578543Y-25171913D01*
X230577119Y-25166598D01*
X230520707Y-24956067D01*
X230520706Y-24956065D01*
X230519284Y-24950757D01*
X230511716Y-24934528D01*
X230424849Y-24748238D01*
X230424846Y-24748233D01*
X230422523Y-24743251D01*
X230343549Y-24630465D01*
X230294357Y-24560211D01*
X230294355Y-24560208D01*
X230291198Y-24555700D01*
X230129300Y-24393802D01*
X230124792Y-24390645D01*
X230124789Y-24390643D01*
X230024820Y-24320644D01*
X229941749Y-24262477D01*
X229936767Y-24260154D01*
X229936762Y-24260151D01*
X229902543Y-24244195D01*
X229849258Y-24197278D01*
X229829797Y-24129001D01*
X229850339Y-24061041D01*
X229902543Y-24015805D01*
X229936762Y-23999849D01*
X229936767Y-23999846D01*
X229941749Y-23997523D01*
X230070178Y-23907596D01*
X230124789Y-23869357D01*
X230124792Y-23869355D01*
X230129300Y-23866198D01*
X230291198Y-23704300D01*
X230297619Y-23695131D01*
X230349098Y-23621611D01*
X230422523Y-23516749D01*
X230424846Y-23511767D01*
X230424849Y-23511762D01*
X230516961Y-23314225D01*
X230516961Y-23314224D01*
X230519284Y-23309243D01*
X230539316Y-23234485D01*
X230577119Y-23093402D01*
X230577119Y-23093400D01*
X230578543Y-23088087D01*
X230598498Y-22860000D01*
X230578543Y-22631913D01*
X230563814Y-22576944D01*
X230520707Y-22416067D01*
X230520706Y-22416065D01*
X230519284Y-22410757D01*
X230516961Y-22405775D01*
X230424849Y-22208238D01*
X230424846Y-22208233D01*
X230422523Y-22203251D01*
X230291198Y-22015700D01*
X230129300Y-21853802D01*
X230124792Y-21850645D01*
X230124789Y-21850643D01*
X229959245Y-21734728D01*
X229941749Y-21722477D01*
X229936767Y-21720154D01*
X229936762Y-21720151D01*
X229902543Y-21704195D01*
X229849258Y-21657278D01*
X229829797Y-21589001D01*
X229850339Y-21521041D01*
X229902543Y-21475805D01*
X229936762Y-21459849D01*
X229936767Y-21459846D01*
X229941749Y-21457523D01*
X230059360Y-21375171D01*
X230124789Y-21329357D01*
X230124792Y-21329355D01*
X230129300Y-21326198D01*
X230291198Y-21164300D01*
X230422523Y-20976749D01*
X230424846Y-20971767D01*
X230424849Y-20971762D01*
X230516961Y-20774225D01*
X230516961Y-20774224D01*
X230519284Y-20769243D01*
X230521183Y-20762158D01*
X230577119Y-20553402D01*
X230577119Y-20553400D01*
X230578543Y-20548087D01*
X230598498Y-20320000D01*
X230578543Y-20091913D01*
X230573757Y-20074050D01*
X230520707Y-19876067D01*
X230520706Y-19876065D01*
X230519284Y-19870757D01*
X230516143Y-19864020D01*
X230424849Y-19668238D01*
X230424846Y-19668233D01*
X230422523Y-19663251D01*
X230329871Y-19530931D01*
X230294357Y-19480211D01*
X230294355Y-19480208D01*
X230291198Y-19475700D01*
X230129300Y-19313802D01*
X230124792Y-19310645D01*
X230124789Y-19310643D01*
X229987482Y-19214500D01*
X229941749Y-19182477D01*
X229936767Y-19180154D01*
X229936762Y-19180151D01*
X229902543Y-19164195D01*
X229849258Y-19117278D01*
X229829797Y-19049001D01*
X229850339Y-18981041D01*
X229902543Y-18935805D01*
X229936762Y-18919849D01*
X229936767Y-18919846D01*
X229941749Y-18917523D01*
X230061188Y-18833891D01*
X230124789Y-18789357D01*
X230124792Y-18789355D01*
X230129300Y-18786198D01*
X230291198Y-18624300D01*
X230324357Y-18576945D01*
X230381694Y-18495058D01*
X230422523Y-18436749D01*
X230424846Y-18431767D01*
X230424849Y-18431762D01*
X230516961Y-18234225D01*
X230516961Y-18234224D01*
X230519284Y-18229243D01*
X230541508Y-18146305D01*
X230577119Y-18013402D01*
X230577119Y-18013400D01*
X230578543Y-18008087D01*
X230598498Y-17780000D01*
X230578543Y-17551913D01*
X230549215Y-17442460D01*
X230520707Y-17336067D01*
X230520706Y-17336065D01*
X230519284Y-17330757D01*
X230501991Y-17293671D01*
X230424849Y-17128238D01*
X230424846Y-17128233D01*
X230422523Y-17123251D01*
X230300161Y-16948500D01*
X230294357Y-16940211D01*
X230294355Y-16940208D01*
X230291198Y-16935700D01*
X230129300Y-16773802D01*
X230124792Y-16770645D01*
X230124789Y-16770643D01*
X230045572Y-16715175D01*
X229941749Y-16642477D01*
X229936767Y-16640154D01*
X229936762Y-16640151D01*
X229902543Y-16624195D01*
X229849258Y-16577278D01*
X229829797Y-16509001D01*
X229850339Y-16441041D01*
X229902543Y-16395805D01*
X229936762Y-16379849D01*
X229936767Y-16379846D01*
X229941749Y-16377523D01*
X230078034Y-16282095D01*
X230124789Y-16249357D01*
X230124792Y-16249355D01*
X230129300Y-16246198D01*
X230291198Y-16084300D01*
X230422523Y-15896749D01*
X230424846Y-15891767D01*
X230424849Y-15891762D01*
X230516961Y-15694225D01*
X230516961Y-15694224D01*
X230519284Y-15689243D01*
X230548369Y-15580699D01*
X230577119Y-15473402D01*
X230577119Y-15473400D01*
X230578543Y-15468087D01*
X230598498Y-15240000D01*
X230578543Y-15011913D01*
X230519284Y-14790757D01*
X230516961Y-14785775D01*
X230424849Y-14588238D01*
X230424846Y-14588233D01*
X230422523Y-14583251D01*
X230317016Y-14432572D01*
X230294357Y-14400211D01*
X230294355Y-14400208D01*
X230291198Y-14395700D01*
X230262365Y-14366867D01*
X230228339Y-14304555D01*
X230233404Y-14233740D01*
X230275951Y-14176904D01*
X230307232Y-14159790D01*
X230323293Y-14153769D01*
X230323296Y-14153767D01*
X230331705Y-14150615D01*
X230448261Y-14063261D01*
X230535615Y-13946705D01*
X230586745Y-13810316D01*
X230593500Y-13748134D01*
X230593500Y-11651866D01*
X230590108Y-11620644D01*
X230587598Y-11597535D01*
X230587598Y-11597534D01*
X230586745Y-11589684D01*
X230584700Y-11584228D01*
X230588355Y-11514244D01*
X230629802Y-11456601D01*
X230695833Y-11430517D01*
X230707235Y-11430000D01*
X250877827Y-11430000D01*
X250945948Y-11450002D01*
X250992441Y-11503658D01*
X251002545Y-11573932D01*
X250973051Y-11638512D01*
X250950098Y-11659213D01*
X250905211Y-11690643D01*
X250905208Y-11690645D01*
X250900700Y-11693802D01*
X250738802Y-11855700D01*
X250607477Y-12043251D01*
X250605154Y-12048233D01*
X250605151Y-12048238D01*
X250528009Y-12213671D01*
X250510716Y-12250757D01*
X250509294Y-12256065D01*
X250509293Y-12256067D01*
X250463329Y-12427606D01*
X250451457Y-12471913D01*
X250431502Y-12700000D01*
X250451457Y-12928087D01*
X250452881Y-12933400D01*
X250452881Y-12933402D01*
X250472200Y-13005499D01*
X250510716Y-13149243D01*
X250513039Y-13154224D01*
X250513039Y-13154225D01*
X250605151Y-13351762D01*
X250605154Y-13351767D01*
X250607477Y-13356749D01*
X250610634Y-13361257D01*
X250730098Y-13531869D01*
X250738802Y-13544300D01*
X250900700Y-13706198D01*
X250905208Y-13709355D01*
X250905211Y-13709357D01*
X250965442Y-13751531D01*
X251088251Y-13837523D01*
X251093233Y-13839846D01*
X251093238Y-13839849D01*
X251127457Y-13855805D01*
X251180742Y-13902722D01*
X251200203Y-13970999D01*
X251179661Y-14038959D01*
X251127457Y-14084195D01*
X251093238Y-14100151D01*
X251093233Y-14100154D01*
X251088251Y-14102477D01*
X251027195Y-14145229D01*
X250905211Y-14230643D01*
X250905208Y-14230645D01*
X250900700Y-14233802D01*
X250738802Y-14395700D01*
X250735645Y-14400208D01*
X250735643Y-14400211D01*
X250712984Y-14432572D01*
X250607477Y-14583251D01*
X250605154Y-14588233D01*
X250605151Y-14588238D01*
X250513039Y-14785775D01*
X250510716Y-14790757D01*
X250451457Y-15011913D01*
X250431502Y-15240000D01*
X250451457Y-15468087D01*
X250452881Y-15473400D01*
X250452881Y-15473402D01*
X250481632Y-15580699D01*
X250510716Y-15689243D01*
X250513039Y-15694224D01*
X250513039Y-15694225D01*
X250605151Y-15891762D01*
X250605154Y-15891767D01*
X250607477Y-15896749D01*
X250738802Y-16084300D01*
X250900700Y-16246198D01*
X250905208Y-16249355D01*
X250905211Y-16249357D01*
X250951966Y-16282095D01*
X251088251Y-16377523D01*
X251093233Y-16379846D01*
X251093238Y-16379849D01*
X251127457Y-16395805D01*
X251180742Y-16442722D01*
X251200203Y-16510999D01*
X251179661Y-16578959D01*
X251127457Y-16624195D01*
X251093238Y-16640151D01*
X251093233Y-16640154D01*
X251088251Y-16642477D01*
X250984428Y-16715175D01*
X250905211Y-16770643D01*
X250905208Y-16770645D01*
X250900700Y-16773802D01*
X250738802Y-16935700D01*
X250735645Y-16940208D01*
X250735643Y-16940211D01*
X250729839Y-16948500D01*
X250607477Y-17123251D01*
X250605154Y-17128233D01*
X250605151Y-17128238D01*
X250528009Y-17293671D01*
X250510716Y-17330757D01*
X250509294Y-17336065D01*
X250509293Y-17336067D01*
X250480785Y-17442460D01*
X250451457Y-17551913D01*
X250431502Y-17780000D01*
X250451457Y-18008087D01*
X250452881Y-18013400D01*
X250452881Y-18013402D01*
X250488493Y-18146305D01*
X250510716Y-18229243D01*
X250513039Y-18234224D01*
X250513039Y-18234225D01*
X250605151Y-18431762D01*
X250605154Y-18431767D01*
X250607477Y-18436749D01*
X250648306Y-18495058D01*
X250705644Y-18576945D01*
X250738802Y-18624300D01*
X250900700Y-18786198D01*
X250905208Y-18789355D01*
X250905211Y-18789357D01*
X250968812Y-18833891D01*
X251088251Y-18917523D01*
X251093233Y-18919846D01*
X251093238Y-18919849D01*
X251127457Y-18935805D01*
X251180742Y-18982722D01*
X251200203Y-19050999D01*
X251179661Y-19118959D01*
X251127457Y-19164195D01*
X251093238Y-19180151D01*
X251093233Y-19180154D01*
X251088251Y-19182477D01*
X251042518Y-19214500D01*
X250905211Y-19310643D01*
X250905208Y-19310645D01*
X250900700Y-19313802D01*
X250738802Y-19475700D01*
X250735645Y-19480208D01*
X250735643Y-19480211D01*
X250700129Y-19530931D01*
X250607477Y-19663251D01*
X250605154Y-19668233D01*
X250605151Y-19668238D01*
X250513857Y-19864020D01*
X250510716Y-19870757D01*
X250509294Y-19876065D01*
X250509293Y-19876067D01*
X250456243Y-20074050D01*
X250451457Y-20091913D01*
X250431502Y-20320000D01*
X250451457Y-20548087D01*
X250452881Y-20553400D01*
X250452881Y-20553402D01*
X250508818Y-20762158D01*
X250510716Y-20769243D01*
X250513039Y-20774224D01*
X250513039Y-20774225D01*
X250605151Y-20971762D01*
X250605154Y-20971767D01*
X250607477Y-20976749D01*
X250738802Y-21164300D01*
X250900700Y-21326198D01*
X250905208Y-21329355D01*
X250905211Y-21329357D01*
X250970640Y-21375171D01*
X251088251Y-21457523D01*
X251093233Y-21459846D01*
X251093238Y-21459849D01*
X251127457Y-21475805D01*
X251180742Y-21522722D01*
X251200203Y-21590999D01*
X251179661Y-21658959D01*
X251127457Y-21704195D01*
X251093238Y-21720151D01*
X251093233Y-21720154D01*
X251088251Y-21722477D01*
X251070755Y-21734728D01*
X250905211Y-21850643D01*
X250905208Y-21850645D01*
X250900700Y-21853802D01*
X250738802Y-22015700D01*
X250607477Y-22203251D01*
X250605154Y-22208233D01*
X250605151Y-22208238D01*
X250513039Y-22405775D01*
X250510716Y-22410757D01*
X250509294Y-22416065D01*
X250509293Y-22416067D01*
X250466186Y-22576944D01*
X250451457Y-22631913D01*
X250431502Y-22860000D01*
X250451457Y-23088087D01*
X250452881Y-23093400D01*
X250452881Y-23093402D01*
X250490685Y-23234485D01*
X250510716Y-23309243D01*
X250513039Y-23314224D01*
X250513039Y-23314225D01*
X250605151Y-23511762D01*
X250605154Y-23511767D01*
X250607477Y-23516749D01*
X250680902Y-23621611D01*
X250732382Y-23695131D01*
X250738802Y-23704300D01*
X250900700Y-23866198D01*
X250905208Y-23869355D01*
X250905211Y-23869357D01*
X250959822Y-23907596D01*
X251088251Y-23997523D01*
X251093233Y-23999846D01*
X251093238Y-23999849D01*
X251127457Y-24015805D01*
X251180742Y-24062722D01*
X251200203Y-24130999D01*
X251179661Y-24198959D01*
X251127457Y-24244195D01*
X251093238Y-24260151D01*
X251093233Y-24260154D01*
X251088251Y-24262477D01*
X251005180Y-24320644D01*
X250905211Y-24390643D01*
X250905208Y-24390645D01*
X250900700Y-24393802D01*
X250738802Y-24555700D01*
X250735645Y-24560208D01*
X250735643Y-24560211D01*
X250686451Y-24630465D01*
X250607477Y-24743251D01*
X250605154Y-24748233D01*
X250605151Y-24748238D01*
X250518284Y-24934528D01*
X250510716Y-24950757D01*
X250509294Y-24956065D01*
X250509293Y-24956067D01*
X250452881Y-25166598D01*
X250451457Y-25171913D01*
X250431502Y-25400000D01*
X250451457Y-25628087D01*
X250452881Y-25633400D01*
X250452881Y-25633402D01*
X250465091Y-25678968D01*
X250510716Y-25849243D01*
X250513039Y-25854224D01*
X250513039Y-25854225D01*
X250605151Y-26051762D01*
X250605154Y-26051767D01*
X250607477Y-26056749D01*
X250738802Y-26244300D01*
X250900700Y-26406198D01*
X250905208Y-26409355D01*
X250905211Y-26409357D01*
X250937906Y-26432250D01*
X251088251Y-26537523D01*
X251093233Y-26539846D01*
X251093238Y-26539849D01*
X251127457Y-26555805D01*
X251180742Y-26602722D01*
X251200203Y-26670999D01*
X251179661Y-26738959D01*
X251127457Y-26784195D01*
X251093238Y-26800151D01*
X251093233Y-26800154D01*
X251088251Y-26802477D01*
X250991603Y-26870151D01*
X250905211Y-26930643D01*
X250905208Y-26930645D01*
X250900700Y-26933802D01*
X250738802Y-27095700D01*
X250735645Y-27100208D01*
X250735643Y-27100211D01*
X250692516Y-27161803D01*
X250607477Y-27283251D01*
X250605154Y-27288233D01*
X250605151Y-27288238D01*
X250516703Y-27477917D01*
X250510716Y-27490757D01*
X250509294Y-27496065D01*
X250509293Y-27496067D01*
X250456243Y-27694050D01*
X250451457Y-27711913D01*
X250431502Y-27940000D01*
X250451457Y-28168087D01*
X250452881Y-28173400D01*
X250452881Y-28173402D01*
X250493757Y-28325950D01*
X250510716Y-28389243D01*
X250513039Y-28394224D01*
X250513039Y-28394225D01*
X250605151Y-28591762D01*
X250605154Y-28591767D01*
X250607477Y-28596749D01*
X250738802Y-28784300D01*
X250900700Y-28946198D01*
X250905208Y-28949355D01*
X250905211Y-28949357D01*
X250969011Y-28994030D01*
X251088251Y-29077523D01*
X251093233Y-29079846D01*
X251093238Y-29079849D01*
X251127457Y-29095805D01*
X251180742Y-29142722D01*
X251200203Y-29210999D01*
X251179661Y-29278959D01*
X251127457Y-29324195D01*
X251093238Y-29340151D01*
X251093233Y-29340154D01*
X251088251Y-29342477D01*
X250991944Y-29409912D01*
X250905211Y-29470643D01*
X250905208Y-29470645D01*
X250900700Y-29473802D01*
X250738802Y-29635700D01*
X250735645Y-29640208D01*
X250735643Y-29640211D01*
X250686451Y-29710465D01*
X250607477Y-29823251D01*
X250605154Y-29828233D01*
X250605151Y-29828238D01*
X250528106Y-29993463D01*
X250510716Y-30030757D01*
X250509294Y-30036065D01*
X250509293Y-30036067D01*
X250480785Y-30142460D01*
X250451457Y-30251913D01*
X250431502Y-30480000D01*
X250451457Y-30708087D01*
X250452881Y-30713400D01*
X250452881Y-30713402D01*
X250505934Y-30911395D01*
X250510716Y-30929243D01*
X250513039Y-30934224D01*
X250513039Y-30934225D01*
X250605151Y-31131762D01*
X250605154Y-31131767D01*
X250607477Y-31136749D01*
X250657977Y-31208870D01*
X250721734Y-31299924D01*
X250738802Y-31324300D01*
X250900700Y-31486198D01*
X250905208Y-31489355D01*
X250905211Y-31489357D01*
X250970339Y-31534960D01*
X251088251Y-31617523D01*
X251093233Y-31619846D01*
X251093238Y-31619849D01*
X251245290Y-31690751D01*
X251295757Y-31714284D01*
X251301065Y-31715706D01*
X251301067Y-31715707D01*
X251511598Y-31772119D01*
X251511600Y-31772119D01*
X251516913Y-31773543D01*
X251616480Y-31782254D01*
X251685149Y-31788262D01*
X251685156Y-31788262D01*
X251687873Y-31788500D01*
X252202127Y-31788500D01*
X252204844Y-31788262D01*
X252204851Y-31788262D01*
X252273520Y-31782254D01*
X252373087Y-31773543D01*
X252378400Y-31772119D01*
X252378402Y-31772119D01*
X252588933Y-31715707D01*
X252588935Y-31715706D01*
X252594243Y-31714284D01*
X252644710Y-31690751D01*
X252796762Y-31619849D01*
X252796767Y-31619846D01*
X252801749Y-31617523D01*
X252919661Y-31534960D01*
X252984789Y-31489357D01*
X252984792Y-31489355D01*
X252989300Y-31486198D01*
X253151198Y-31324300D01*
X253168267Y-31299924D01*
X253232023Y-31208870D01*
X253282523Y-31136749D01*
X253284846Y-31131767D01*
X253284849Y-31131762D01*
X253376961Y-30934225D01*
X253376961Y-30934224D01*
X253379284Y-30929243D01*
X253384067Y-30911395D01*
X253437119Y-30713402D01*
X253437119Y-30713400D01*
X253438543Y-30708087D01*
X253458498Y-30480000D01*
X253438543Y-30251913D01*
X253409215Y-30142460D01*
X253380707Y-30036067D01*
X253380706Y-30036065D01*
X253379284Y-30030757D01*
X253361894Y-29993463D01*
X253284849Y-29828238D01*
X253284846Y-29828233D01*
X253282523Y-29823251D01*
X253203549Y-29710465D01*
X253154357Y-29640211D01*
X253154355Y-29640208D01*
X253151198Y-29635700D01*
X252989300Y-29473802D01*
X252984792Y-29470645D01*
X252984789Y-29470643D01*
X252898056Y-29409912D01*
X252801749Y-29342477D01*
X252796767Y-29340154D01*
X252796762Y-29340151D01*
X252762543Y-29324195D01*
X252709258Y-29277278D01*
X252689797Y-29209001D01*
X252710339Y-29141041D01*
X252762543Y-29095805D01*
X252796762Y-29079849D01*
X252796767Y-29079846D01*
X252801749Y-29077523D01*
X252920989Y-28994030D01*
X252984789Y-28949357D01*
X252984792Y-28949355D01*
X252989300Y-28946198D01*
X253151198Y-28784300D01*
X253282523Y-28596749D01*
X253284846Y-28591767D01*
X253284849Y-28591762D01*
X253376961Y-28394225D01*
X253376961Y-28394224D01*
X253379284Y-28389243D01*
X253396244Y-28325950D01*
X253437119Y-28173402D01*
X253437119Y-28173400D01*
X253438543Y-28168087D01*
X253458498Y-27940000D01*
X253438543Y-27711913D01*
X253433757Y-27694050D01*
X253380707Y-27496067D01*
X253380706Y-27496065D01*
X253379284Y-27490757D01*
X253373297Y-27477917D01*
X253284849Y-27288238D01*
X253284846Y-27288233D01*
X253282523Y-27283251D01*
X253197484Y-27161803D01*
X253154357Y-27100211D01*
X253154355Y-27100208D01*
X253151198Y-27095700D01*
X252989300Y-26933802D01*
X252984792Y-26930645D01*
X252984789Y-26930643D01*
X252898397Y-26870151D01*
X252801749Y-26802477D01*
X252796767Y-26800154D01*
X252796762Y-26800151D01*
X252762543Y-26784195D01*
X252709258Y-26737278D01*
X252689797Y-26669001D01*
X252710339Y-26601041D01*
X252762543Y-26555805D01*
X252796762Y-26539849D01*
X252796767Y-26539846D01*
X252801749Y-26537523D01*
X252952094Y-26432250D01*
X252984789Y-26409357D01*
X252984792Y-26409355D01*
X252989300Y-26406198D01*
X253151198Y-26244300D01*
X253282523Y-26056749D01*
X253284846Y-26051767D01*
X253284849Y-26051762D01*
X253376961Y-25854225D01*
X253376961Y-25854224D01*
X253379284Y-25849243D01*
X253424910Y-25678968D01*
X253437119Y-25633402D01*
X253437119Y-25633400D01*
X253438543Y-25628087D01*
X253458498Y-25400000D01*
X253438543Y-25171913D01*
X253437119Y-25166598D01*
X253380707Y-24956067D01*
X253380706Y-24956065D01*
X253379284Y-24950757D01*
X253371716Y-24934528D01*
X253284849Y-24748238D01*
X253284846Y-24748233D01*
X253282523Y-24743251D01*
X253203549Y-24630465D01*
X253154357Y-24560211D01*
X253154355Y-24560208D01*
X253151198Y-24555700D01*
X252989300Y-24393802D01*
X252984792Y-24390645D01*
X252984789Y-24390643D01*
X252884820Y-24320644D01*
X252801749Y-24262477D01*
X252796767Y-24260154D01*
X252796762Y-24260151D01*
X252762543Y-24244195D01*
X252709258Y-24197278D01*
X252689797Y-24129001D01*
X252710339Y-24061041D01*
X252762543Y-24015805D01*
X252796762Y-23999849D01*
X252796767Y-23999846D01*
X252801749Y-23997523D01*
X252930178Y-23907596D01*
X252984789Y-23869357D01*
X252984792Y-23869355D01*
X252989300Y-23866198D01*
X253151198Y-23704300D01*
X253157619Y-23695131D01*
X253209098Y-23621611D01*
X253282523Y-23516749D01*
X253284846Y-23511767D01*
X253284849Y-23511762D01*
X253376961Y-23314225D01*
X253376961Y-23314224D01*
X253379284Y-23309243D01*
X253399316Y-23234485D01*
X253437119Y-23093402D01*
X253437119Y-23093400D01*
X253438543Y-23088087D01*
X253458498Y-22860000D01*
X253438543Y-22631913D01*
X253423814Y-22576944D01*
X253380707Y-22416067D01*
X253380706Y-22416065D01*
X253379284Y-22410757D01*
X253376961Y-22405775D01*
X253284849Y-22208238D01*
X253284846Y-22208233D01*
X253282523Y-22203251D01*
X253151198Y-22015700D01*
X252989300Y-21853802D01*
X252984792Y-21850645D01*
X252984789Y-21850643D01*
X252819245Y-21734728D01*
X252801749Y-21722477D01*
X252796767Y-21720154D01*
X252796762Y-21720151D01*
X252762543Y-21704195D01*
X252709258Y-21657278D01*
X252689797Y-21589001D01*
X252710339Y-21521041D01*
X252762543Y-21475805D01*
X252796762Y-21459849D01*
X252796767Y-21459846D01*
X252801749Y-21457523D01*
X252919360Y-21375171D01*
X252984789Y-21329357D01*
X252984792Y-21329355D01*
X252989300Y-21326198D01*
X253151198Y-21164300D01*
X253282523Y-20976749D01*
X253284846Y-20971767D01*
X253284849Y-20971762D01*
X253376961Y-20774225D01*
X253376961Y-20774224D01*
X253379284Y-20769243D01*
X253381183Y-20762158D01*
X253437119Y-20553402D01*
X253437119Y-20553400D01*
X253438543Y-20548087D01*
X253458498Y-20320000D01*
X253438543Y-20091913D01*
X253433757Y-20074050D01*
X253380707Y-19876067D01*
X253380706Y-19876065D01*
X253379284Y-19870757D01*
X253376143Y-19864020D01*
X253284849Y-19668238D01*
X253284846Y-19668233D01*
X253282523Y-19663251D01*
X253189871Y-19530931D01*
X253154357Y-19480211D01*
X253154355Y-19480208D01*
X253151198Y-19475700D01*
X252989300Y-19313802D01*
X252984792Y-19310645D01*
X252984789Y-19310643D01*
X252847482Y-19214500D01*
X252801749Y-19182477D01*
X252796767Y-19180154D01*
X252796762Y-19180151D01*
X252762543Y-19164195D01*
X252709258Y-19117278D01*
X252689797Y-19049001D01*
X252710339Y-18981041D01*
X252762543Y-18935805D01*
X252796762Y-18919849D01*
X252796767Y-18919846D01*
X252801749Y-18917523D01*
X252921188Y-18833891D01*
X252984789Y-18789357D01*
X252984792Y-18789355D01*
X252989300Y-18786198D01*
X253151198Y-18624300D01*
X253184357Y-18576945D01*
X253241694Y-18495058D01*
X253282523Y-18436749D01*
X253284846Y-18431767D01*
X253284849Y-18431762D01*
X253376961Y-18234225D01*
X253376961Y-18234224D01*
X253379284Y-18229243D01*
X253401508Y-18146305D01*
X253437119Y-18013402D01*
X253437119Y-18013400D01*
X253438543Y-18008087D01*
X253458498Y-17780000D01*
X253438543Y-17551913D01*
X253409215Y-17442460D01*
X253380707Y-17336067D01*
X253380706Y-17336065D01*
X253379284Y-17330757D01*
X253361991Y-17293671D01*
X253284849Y-17128238D01*
X253284846Y-17128233D01*
X253282523Y-17123251D01*
X253160161Y-16948500D01*
X253154357Y-16940211D01*
X253154355Y-16940208D01*
X253151198Y-16935700D01*
X252989300Y-16773802D01*
X252984792Y-16770645D01*
X252984789Y-16770643D01*
X252905572Y-16715175D01*
X252801749Y-16642477D01*
X252796767Y-16640154D01*
X252796762Y-16640151D01*
X252762543Y-16624195D01*
X252709258Y-16577278D01*
X252689797Y-16509001D01*
X252710339Y-16441041D01*
X252762543Y-16395805D01*
X252796762Y-16379849D01*
X252796767Y-16379846D01*
X252801749Y-16377523D01*
X252938034Y-16282095D01*
X252984789Y-16249357D01*
X252984792Y-16249355D01*
X252989300Y-16246198D01*
X253151198Y-16084300D01*
X253282523Y-15896749D01*
X253284846Y-15891767D01*
X253284849Y-15891762D01*
X253376961Y-15694225D01*
X253376961Y-15694224D01*
X253379284Y-15689243D01*
X253408369Y-15580699D01*
X253437119Y-15473402D01*
X253437119Y-15473400D01*
X253438543Y-15468087D01*
X253458498Y-15240000D01*
X253438543Y-15011913D01*
X253379284Y-14790757D01*
X253376961Y-14785775D01*
X253284849Y-14588238D01*
X253284846Y-14588233D01*
X253282523Y-14583251D01*
X253177016Y-14432572D01*
X253154357Y-14400211D01*
X253154355Y-14400208D01*
X253151198Y-14395700D01*
X252989300Y-14233802D01*
X252984792Y-14230645D01*
X252984789Y-14230643D01*
X252862805Y-14145229D01*
X252801749Y-14102477D01*
X252796767Y-14100154D01*
X252796762Y-14100151D01*
X252762543Y-14084195D01*
X252709258Y-14037278D01*
X252689797Y-13969001D01*
X252710339Y-13901041D01*
X252762543Y-13855805D01*
X252796762Y-13839849D01*
X252796767Y-13839846D01*
X252801749Y-13837523D01*
X252924558Y-13751531D01*
X252984789Y-13709357D01*
X252984792Y-13709355D01*
X252989300Y-13706198D01*
X253151198Y-13544300D01*
X253159903Y-13531869D01*
X253279366Y-13361257D01*
X253282523Y-13356749D01*
X253284846Y-13351767D01*
X253284849Y-13351762D01*
X253376961Y-13154225D01*
X253376961Y-13154224D01*
X253379284Y-13149243D01*
X253417801Y-13005499D01*
X253437119Y-12933402D01*
X253437119Y-12933400D01*
X253438543Y-12928087D01*
X253458498Y-12700000D01*
X253438543Y-12471913D01*
X253426671Y-12427606D01*
X253380707Y-12256067D01*
X253380706Y-12256065D01*
X253379284Y-12250757D01*
X253361991Y-12213671D01*
X253284849Y-12048238D01*
X253284846Y-12048233D01*
X253282523Y-12043251D01*
X253151198Y-11855700D01*
X252989300Y-11693802D01*
X252984792Y-11690645D01*
X252984789Y-11690643D01*
X252939902Y-11659213D01*
X252895574Y-11603756D01*
X252888265Y-11533136D01*
X252899961Y-11510000D01*
X265771502Y-11510000D01*
X265791457Y-11738087D01*
X265792881Y-11743400D01*
X265792881Y-11743402D01*
X265844408Y-11935700D01*
X265850716Y-11959243D01*
X265853039Y-11964224D01*
X265853039Y-11964225D01*
X265945151Y-12161762D01*
X265945154Y-12161767D01*
X265947477Y-12166749D01*
X265950634Y-12171257D01*
X266070815Y-12342893D01*
X266078802Y-12354300D01*
X266240700Y-12516198D01*
X266245208Y-12519355D01*
X266245211Y-12519357D01*
X266299532Y-12557393D01*
X266428251Y-12647523D01*
X266433233Y-12649846D01*
X266433238Y-12649849D01*
X266630775Y-12741961D01*
X266635757Y-12744284D01*
X266641065Y-12745706D01*
X266641067Y-12745707D01*
X266851598Y-12802119D01*
X266851600Y-12802119D01*
X266856913Y-12803543D01*
X267085000Y-12823498D01*
X267313087Y-12803543D01*
X267318400Y-12802119D01*
X267318402Y-12802119D01*
X267528933Y-12745707D01*
X267528935Y-12745706D01*
X267534243Y-12744284D01*
X267539225Y-12741961D01*
X267736762Y-12649849D01*
X267736767Y-12649846D01*
X267741749Y-12647523D01*
X267870468Y-12557393D01*
X267924789Y-12519357D01*
X267924792Y-12519355D01*
X267929300Y-12516198D01*
X268090829Y-12354669D01*
X269277001Y-12354669D01*
X269277371Y-12361490D01*
X269282895Y-12412352D01*
X269286521Y-12427604D01*
X269331676Y-12548054D01*
X269340214Y-12563649D01*
X269416715Y-12665724D01*
X269429276Y-12678285D01*
X269531351Y-12754786D01*
X269546946Y-12763324D01*
X269667394Y-12808478D01*
X269682649Y-12812105D01*
X269733514Y-12817631D01*
X269740328Y-12818000D01*
X270312885Y-12818000D01*
X270328124Y-12813525D01*
X270329329Y-12812135D01*
X270331000Y-12804452D01*
X270331000Y-12799884D01*
X270839000Y-12799884D01*
X270843475Y-12815123D01*
X270844865Y-12816328D01*
X270852548Y-12817999D01*
X271429669Y-12817999D01*
X271436490Y-12817629D01*
X271487352Y-12812105D01*
X271502604Y-12808479D01*
X271623054Y-12763324D01*
X271638649Y-12754786D01*
X271740724Y-12678285D01*
X271753285Y-12665724D01*
X271829786Y-12563649D01*
X271838324Y-12548054D01*
X271883478Y-12427606D01*
X271887105Y-12412351D01*
X271892631Y-12361486D01*
X271893000Y-12354672D01*
X271893000Y-11782115D01*
X271888525Y-11766876D01*
X271887135Y-11765671D01*
X271879452Y-11764000D01*
X270857115Y-11764000D01*
X270841876Y-11768475D01*
X270840671Y-11769865D01*
X270839000Y-11777548D01*
X270839000Y-12799884D01*
X270331000Y-12799884D01*
X270331000Y-11782115D01*
X270326525Y-11766876D01*
X270325135Y-11765671D01*
X270317452Y-11764000D01*
X269295116Y-11764000D01*
X269279877Y-11768475D01*
X269278672Y-11769865D01*
X269277001Y-11777548D01*
X269277001Y-12354669D01*
X268090829Y-12354669D01*
X268091198Y-12354300D01*
X268099186Y-12342893D01*
X268219366Y-12171257D01*
X268222523Y-12166749D01*
X268224846Y-12161767D01*
X268224849Y-12161762D01*
X268316961Y-11964225D01*
X268316961Y-11964224D01*
X268319284Y-11959243D01*
X268325593Y-11935700D01*
X268377119Y-11743402D01*
X268377119Y-11743400D01*
X268378543Y-11738087D01*
X268398498Y-11510000D01*
X268378543Y-11281913D01*
X268370028Y-11250135D01*
X268366746Y-11237885D01*
X269277000Y-11237885D01*
X269281475Y-11253124D01*
X269282865Y-11254329D01*
X269290548Y-11256000D01*
X270312885Y-11256000D01*
X270328124Y-11251525D01*
X270329329Y-11250135D01*
X270331000Y-11242452D01*
X270331000Y-11237885D01*
X270839000Y-11237885D01*
X270843475Y-11253124D01*
X270844865Y-11254329D01*
X270852548Y-11256000D01*
X271874884Y-11256000D01*
X271890123Y-11251525D01*
X271891328Y-11250135D01*
X271892999Y-11242452D01*
X271892999Y-10665331D01*
X271892629Y-10658510D01*
X271887105Y-10607648D01*
X271883479Y-10592396D01*
X271838324Y-10471946D01*
X271829786Y-10456351D01*
X271753285Y-10354276D01*
X271740724Y-10341715D01*
X271638649Y-10265214D01*
X271623054Y-10256676D01*
X271502606Y-10211522D01*
X271487351Y-10207895D01*
X271436486Y-10202369D01*
X271429672Y-10202000D01*
X270857115Y-10202000D01*
X270841876Y-10206475D01*
X270840671Y-10207865D01*
X270839000Y-10215548D01*
X270839000Y-11237885D01*
X270331000Y-11237885D01*
X270331000Y-10220116D01*
X270326525Y-10204877D01*
X270325135Y-10203672D01*
X270317452Y-10202001D01*
X269740331Y-10202001D01*
X269733510Y-10202371D01*
X269682648Y-10207895D01*
X269667396Y-10211521D01*
X269546946Y-10256676D01*
X269531351Y-10265214D01*
X269429276Y-10341715D01*
X269416715Y-10354276D01*
X269340214Y-10456351D01*
X269331676Y-10471946D01*
X269286522Y-10592394D01*
X269282895Y-10607649D01*
X269277369Y-10658514D01*
X269277000Y-10665328D01*
X269277000Y-11237885D01*
X268366746Y-11237885D01*
X268320707Y-11066067D01*
X268320706Y-11066065D01*
X268319284Y-11060757D01*
X268306744Y-11033865D01*
X268224849Y-10858238D01*
X268224846Y-10858233D01*
X268222523Y-10853251D01*
X268091198Y-10665700D01*
X267929300Y-10503802D01*
X267924792Y-10500645D01*
X267924789Y-10500643D01*
X267832323Y-10435898D01*
X267741749Y-10372477D01*
X267736767Y-10370154D01*
X267736762Y-10370151D01*
X267539225Y-10278039D01*
X267539224Y-10278039D01*
X267534243Y-10275716D01*
X267528935Y-10274294D01*
X267528933Y-10274293D01*
X267318402Y-10217881D01*
X267318400Y-10217881D01*
X267313087Y-10216457D01*
X267085000Y-10196502D01*
X266856913Y-10216457D01*
X266851600Y-10217881D01*
X266851598Y-10217881D01*
X266641067Y-10274293D01*
X266641065Y-10274294D01*
X266635757Y-10275716D01*
X266630776Y-10278039D01*
X266630775Y-10278039D01*
X266433238Y-10370151D01*
X266433233Y-10370154D01*
X266428251Y-10372477D01*
X266337677Y-10435898D01*
X266245211Y-10500643D01*
X266245208Y-10500645D01*
X266240700Y-10503802D01*
X266078802Y-10665700D01*
X265947477Y-10853251D01*
X265945154Y-10858233D01*
X265945151Y-10858238D01*
X265863256Y-11033865D01*
X265850716Y-11060757D01*
X265849294Y-11066065D01*
X265849293Y-11066067D01*
X265799972Y-11250135D01*
X265791457Y-11281913D01*
X265771502Y-11510000D01*
X252899961Y-11510000D01*
X252920296Y-11469776D01*
X252981497Y-11433791D01*
X253012173Y-11430000D01*
X254000000Y-11430000D01*
X254000000Y-5212703D01*
X289990743Y-5212703D01*
X290028268Y-5497734D01*
X290104129Y-5775036D01*
X290105813Y-5778984D01*
X290202911Y-6006625D01*
X290216923Y-6039476D01*
X290241556Y-6080634D01*
X290355366Y-6270797D01*
X290364561Y-6286161D01*
X290544313Y-6510528D01*
X290752851Y-6708423D01*
X290986317Y-6876186D01*
X290990112Y-6878195D01*
X290990113Y-6878196D01*
X291011869Y-6889715D01*
X291240392Y-7010712D01*
X291340398Y-7047309D01*
X291447318Y-7086436D01*
X291510373Y-7109511D01*
X291791264Y-7170755D01*
X291819841Y-7173004D01*
X292014282Y-7188307D01*
X292014291Y-7188307D01*
X292016739Y-7188500D01*
X292172271Y-7188500D01*
X292174407Y-7188354D01*
X292174418Y-7188354D01*
X292382548Y-7174165D01*
X292382554Y-7174164D01*
X292386825Y-7173873D01*
X292391020Y-7173004D01*
X292391022Y-7173004D01*
X292537741Y-7142620D01*
X292668342Y-7115574D01*
X292939343Y-7019607D01*
X293194812Y-6887750D01*
X293198313Y-6885289D01*
X293198317Y-6885287D01*
X293313024Y-6804669D01*
X293430023Y-6722441D01*
X293617917Y-6547839D01*
X293637479Y-6529661D01*
X293637481Y-6529658D01*
X293640622Y-6526740D01*
X293822713Y-6304268D01*
X293972927Y-6059142D01*
X293977049Y-6049753D01*
X294086757Y-5799830D01*
X294088483Y-5795898D01*
X294167244Y-5519406D01*
X294207751Y-5234784D01*
X294207845Y-5216951D01*
X294209235Y-4951583D01*
X294209235Y-4951576D01*
X294209257Y-4947297D01*
X294171732Y-4662266D01*
X294095871Y-4384964D01*
X294025337Y-4219600D01*
X293984763Y-4124476D01*
X293984761Y-4124472D01*
X293983077Y-4120524D01*
X293835439Y-3873839D01*
X293655687Y-3649472D01*
X293447149Y-3451577D01*
X293213683Y-3283814D01*
X293199732Y-3276427D01*
X293120156Y-3234294D01*
X292959608Y-3149288D01*
X292689627Y-3050489D01*
X292408736Y-2989245D01*
X292377685Y-2986801D01*
X292185718Y-2971693D01*
X292185709Y-2971693D01*
X292183261Y-2971500D01*
X292027729Y-2971500D01*
X292025593Y-2971646D01*
X292025582Y-2971646D01*
X291817452Y-2985835D01*
X291817446Y-2985836D01*
X291813175Y-2986127D01*
X291808980Y-2986996D01*
X291808978Y-2986996D01*
X291672416Y-3015277D01*
X291531658Y-3044426D01*
X291260657Y-3140393D01*
X291005188Y-3272250D01*
X291001687Y-3274711D01*
X291001683Y-3274713D01*
X290949961Y-3311064D01*
X290769977Y-3437559D01*
X290754892Y-3451577D01*
X290574724Y-3619000D01*
X290559378Y-3633260D01*
X290377287Y-3855732D01*
X290227073Y-4100858D01*
X290111517Y-4364102D01*
X290032756Y-4640594D01*
X289992249Y-4925216D01*
X289992227Y-4929505D01*
X289992226Y-4929512D01*
X289991736Y-5023116D01*
X289990743Y-5212703D01*
X254000000Y-5212703D01*
X254000000Y-3810000D01*
X227330000Y-3810000D01*
X227330000Y-11430000D01*
X227462765Y-11430000D01*
X227530886Y-11450002D01*
X227577379Y-11503658D01*
X227587483Y-11573932D01*
X227585752Y-11583024D01*
X227583255Y-11589684D01*
X227582402Y-11597534D01*
X227582402Y-11597535D01*
X227579892Y-11620644D01*
X227576500Y-11651866D01*
X227576500Y-13748134D01*
X227583255Y-13810316D01*
X227634385Y-13946705D01*
X227721739Y-14063261D01*
X227838295Y-14150615D01*
X227846704Y-14153767D01*
X227846707Y-14153769D01*
X227862768Y-14159790D01*
X227919533Y-14202431D01*
X227944234Y-14268992D01*
X227929027Y-14338341D01*
X227907635Y-14366867D01*
X227878802Y-14395700D01*
X227875645Y-14400208D01*
X227875643Y-14400211D01*
X227852984Y-14432572D01*
X227747477Y-14583251D01*
X227745154Y-14588233D01*
X227745151Y-14588238D01*
X227653039Y-14785775D01*
X227650716Y-14790757D01*
X227591457Y-15011913D01*
X227571502Y-15240000D01*
X227591457Y-15468087D01*
X227592881Y-15473400D01*
X227592881Y-15473402D01*
X227621632Y-15580699D01*
X227650716Y-15689243D01*
X227653039Y-15694224D01*
X227653039Y-15694225D01*
X227745151Y-15891762D01*
X227745154Y-15891767D01*
X227747477Y-15896749D01*
X227878802Y-16084300D01*
X228040700Y-16246198D01*
X228045208Y-16249355D01*
X228045211Y-16249357D01*
X228091966Y-16282095D01*
X228228251Y-16377523D01*
X228233233Y-16379846D01*
X228233238Y-16379849D01*
X228267457Y-16395805D01*
X228320742Y-16442722D01*
X228340203Y-16510999D01*
X228319661Y-16578959D01*
X228267457Y-16624195D01*
X228233238Y-16640151D01*
X228233233Y-16640154D01*
X228228251Y-16642477D01*
X228124428Y-16715175D01*
X228045211Y-16770643D01*
X228045208Y-16770645D01*
X228040700Y-16773802D01*
X227878802Y-16935700D01*
X227875645Y-16940208D01*
X227875643Y-16940211D01*
X227869839Y-16948500D01*
X227747477Y-17123251D01*
X227745154Y-17128233D01*
X227745151Y-17128238D01*
X227668009Y-17293671D01*
X227650716Y-17330757D01*
X227649294Y-17336065D01*
X227649293Y-17336067D01*
X227620785Y-17442460D01*
X227591457Y-17551913D01*
X227571502Y-17780000D01*
X227591457Y-18008087D01*
X227592881Y-18013400D01*
X227592881Y-18013402D01*
X227628493Y-18146305D01*
X227650716Y-18229243D01*
X227653039Y-18234224D01*
X227653039Y-18234225D01*
X227745151Y-18431762D01*
X227745154Y-18431767D01*
X227747477Y-18436749D01*
X227788306Y-18495058D01*
X227845644Y-18576945D01*
X227878802Y-18624300D01*
X228040700Y-18786198D01*
X228045208Y-18789355D01*
X228045211Y-18789357D01*
X228108812Y-18833891D01*
X228228251Y-18917523D01*
X228233233Y-18919846D01*
X228233238Y-18919849D01*
X228267457Y-18935805D01*
X228320742Y-18982722D01*
X228340203Y-19050999D01*
X228319661Y-19118959D01*
X228267457Y-19164195D01*
X228233238Y-19180151D01*
X228233233Y-19180154D01*
X228228251Y-19182477D01*
X228182518Y-19214500D01*
X228045211Y-19310643D01*
X228045208Y-19310645D01*
X228040700Y-19313802D01*
X227961796Y-19392706D01*
X227899488Y-19426729D01*
X227828672Y-19421665D01*
X227783609Y-19392704D01*
X226730405Y-18339500D01*
X226696379Y-18277188D01*
X226693500Y-18250405D01*
X226693500Y-6428763D01*
X226694027Y-6417579D01*
X226695701Y-6410091D01*
X226693562Y-6342032D01*
X226693500Y-6338075D01*
X226693500Y-6310144D01*
X226692994Y-6306138D01*
X226692061Y-6294292D01*
X226690922Y-6258037D01*
X226690673Y-6250110D01*
X226685022Y-6230658D01*
X226681014Y-6211306D01*
X226679468Y-6199068D01*
X226679467Y-6199066D01*
X226678474Y-6191203D01*
X226662194Y-6150086D01*
X226658359Y-6138885D01*
X226646018Y-6096406D01*
X226641985Y-6089587D01*
X226641983Y-6089582D01*
X226635707Y-6078971D01*
X226627010Y-6061221D01*
X226619552Y-6042383D01*
X226593571Y-6006623D01*
X226587053Y-5996701D01*
X226568578Y-5965460D01*
X226568574Y-5965455D01*
X226564542Y-5958637D01*
X226550218Y-5944313D01*
X226537376Y-5929278D01*
X226525472Y-5912893D01*
X226491406Y-5884711D01*
X226482627Y-5876722D01*
X224747443Y-4141538D01*
X224713417Y-4079226D01*
X224712453Y-4030561D01*
X224713264Y-4025961D01*
X224714686Y-4020655D01*
X224715166Y-4015175D01*
X224732637Y-3815475D01*
X224733116Y-3810000D01*
X224714686Y-3599345D01*
X224659956Y-3395090D01*
X224636379Y-3344528D01*
X224572912Y-3208423D01*
X224572910Y-3208420D01*
X224570589Y-3203442D01*
X224449301Y-3030224D01*
X224299776Y-2880699D01*
X224126558Y-2759411D01*
X224121580Y-2757090D01*
X224121577Y-2757088D01*
X223939892Y-2672367D01*
X223939891Y-2672366D01*
X223934910Y-2670044D01*
X223929602Y-2668622D01*
X223929600Y-2668621D01*
X223735970Y-2616738D01*
X223735968Y-2616738D01*
X223730655Y-2615314D01*
X223520000Y-2596884D01*
X223309345Y-2615314D01*
X223304032Y-2616738D01*
X223304030Y-2616738D01*
X223110400Y-2668621D01*
X223110398Y-2668622D01*
X223105090Y-2670044D01*
X223100109Y-2672366D01*
X223100108Y-2672367D01*
X222918423Y-2757088D01*
X222918420Y-2757090D01*
X222913442Y-2759411D01*
X222740224Y-2880699D01*
X222590699Y-3030224D01*
X222469411Y-3203442D01*
X222467090Y-3208420D01*
X222467088Y-3208423D01*
X222403621Y-3344528D01*
X222380044Y-3395090D01*
X222325314Y-3599345D01*
X222306884Y-3810000D01*
X222325314Y-4020655D01*
X222326738Y-4025968D01*
X222326738Y-4025970D01*
X222357705Y-4141538D01*
X222380044Y-4224910D01*
X222382366Y-4229891D01*
X222382367Y-4229892D01*
X222456609Y-4389103D01*
X222469411Y-4416558D01*
X222590699Y-4589776D01*
X222740224Y-4739301D01*
X222913442Y-4860589D01*
X222918420Y-4862910D01*
X222918423Y-4862912D01*
X223100108Y-4947633D01*
X223105090Y-4949956D01*
X223110398Y-4951378D01*
X223110400Y-4951379D01*
X223304030Y-5003262D01*
X223304032Y-5003262D01*
X223309345Y-5004686D01*
X223520000Y-5023116D01*
X223730655Y-5004686D01*
X223735971Y-5003262D01*
X223740563Y-5002452D01*
X223811123Y-5010321D01*
X223851539Y-5037443D01*
X225389595Y-6575499D01*
X225423621Y-6637811D01*
X225426500Y-6664594D01*
X225426500Y-18486233D01*
X225425973Y-18497416D01*
X225424298Y-18504909D01*
X225424547Y-18512835D01*
X225424547Y-18512836D01*
X225426438Y-18572986D01*
X225426500Y-18576945D01*
X225426500Y-18604856D01*
X225426997Y-18608790D01*
X225426997Y-18608791D01*
X225427005Y-18608856D01*
X225427938Y-18620693D01*
X225429327Y-18664889D01*
X225434432Y-18682460D01*
X225434978Y-18684339D01*
X225438987Y-18703700D01*
X225441526Y-18723797D01*
X225444445Y-18731168D01*
X225444445Y-18731170D01*
X225457804Y-18764912D01*
X225461649Y-18776142D01*
X225465488Y-18789357D01*
X225473982Y-18818593D01*
X225478015Y-18825412D01*
X225478017Y-18825417D01*
X225484293Y-18836028D01*
X225492988Y-18853776D01*
X225500448Y-18872617D01*
X225505110Y-18879033D01*
X225505110Y-18879034D01*
X225526436Y-18908387D01*
X225532952Y-18918307D01*
X225550985Y-18948798D01*
X225555458Y-18956362D01*
X225569779Y-18970683D01*
X225582619Y-18985716D01*
X225594528Y-19002107D01*
X225622478Y-19025229D01*
X225628605Y-19030298D01*
X225637384Y-19038288D01*
X227311348Y-20712253D01*
X227318888Y-20720539D01*
X227323000Y-20727018D01*
X227328777Y-20732443D01*
X227372651Y-20773643D01*
X227375493Y-20776398D01*
X227395230Y-20796135D01*
X227398427Y-20798615D01*
X227407447Y-20806318D01*
X227439679Y-20836586D01*
X227446625Y-20840405D01*
X227446628Y-20840407D01*
X227457434Y-20846348D01*
X227473953Y-20857199D01*
X227489959Y-20869614D01*
X227497228Y-20872759D01*
X227497232Y-20872762D01*
X227530537Y-20887174D01*
X227541186Y-20892390D01*
X227579940Y-20913695D01*
X227587615Y-20915666D01*
X227587616Y-20915666D01*
X227599562Y-20918733D01*
X227618266Y-20925137D01*
X227618269Y-20925138D01*
X227636855Y-20933181D01*
X227644678Y-20934420D01*
X227644688Y-20934423D01*
X227674141Y-20939088D01*
X227738293Y-20969501D01*
X227757641Y-20991265D01*
X227834619Y-21101200D01*
X227878802Y-21164300D01*
X228040700Y-21326198D01*
X228045208Y-21329355D01*
X228045211Y-21329357D01*
X228110640Y-21375171D01*
X228228251Y-21457523D01*
X228233233Y-21459846D01*
X228233238Y-21459849D01*
X228267457Y-21475805D01*
X228320742Y-21522722D01*
X228340203Y-21590999D01*
X228319661Y-21658959D01*
X228267457Y-21704195D01*
X228233238Y-21720151D01*
X228233233Y-21720154D01*
X228228251Y-21722477D01*
X228210755Y-21734728D01*
X228045211Y-21850643D01*
X228045208Y-21850645D01*
X228040700Y-21853802D01*
X227878802Y-22015700D01*
X227875645Y-22020208D01*
X227875643Y-22020211D01*
X227768819Y-22172771D01*
X227713362Y-22217099D01*
X227665606Y-22226500D01*
X226374595Y-22226500D01*
X226306474Y-22206498D01*
X226285500Y-22189595D01*
X224190405Y-20094500D01*
X224156379Y-20032188D01*
X224153500Y-20005405D01*
X224153500Y-17607315D01*
X224173502Y-17539194D01*
X224207230Y-17504102D01*
X224295264Y-17442460D01*
X224299776Y-17439301D01*
X224449301Y-17289776D01*
X224570589Y-17116558D01*
X224590413Y-17074047D01*
X224657633Y-16929892D01*
X224657634Y-16929891D01*
X224659956Y-16924910D01*
X224669146Y-16890615D01*
X224713262Y-16725970D01*
X224713262Y-16725968D01*
X224714686Y-16720655D01*
X224733116Y-16510000D01*
X224714686Y-16299345D01*
X224659956Y-16095090D01*
X224636379Y-16044528D01*
X224572912Y-15908423D01*
X224572910Y-15908420D01*
X224570589Y-15903442D01*
X224449301Y-15730224D01*
X224299776Y-15580699D01*
X224126558Y-15459411D01*
X224121580Y-15457090D01*
X224121577Y-15457088D01*
X223939892Y-15372367D01*
X223939891Y-15372366D01*
X223934910Y-15370044D01*
X223929602Y-15368622D01*
X223929600Y-15368621D01*
X223735970Y-15316738D01*
X223735968Y-15316738D01*
X223730655Y-15315314D01*
X223520000Y-15296884D01*
X223309345Y-15315314D01*
X223304032Y-15316738D01*
X223304030Y-15316738D01*
X223110400Y-15368621D01*
X223110398Y-15368622D01*
X223105090Y-15370044D01*
X223100109Y-15372366D01*
X223100108Y-15372367D01*
X222918423Y-15457088D01*
X222918420Y-15457090D01*
X222913442Y-15459411D01*
X222740224Y-15580699D01*
X222590699Y-15730224D01*
X222469411Y-15903442D01*
X222467090Y-15908420D01*
X222467088Y-15908423D01*
X222403621Y-16044528D01*
X222380044Y-16095090D01*
X222325314Y-16299345D01*
X222306884Y-16510000D01*
X222325314Y-16720655D01*
X222326738Y-16725968D01*
X222326738Y-16725970D01*
X222370855Y-16890615D01*
X222380044Y-16924910D01*
X222382366Y-16929891D01*
X222382367Y-16929892D01*
X222449588Y-17074047D01*
X222469411Y-17116558D01*
X222590699Y-17289776D01*
X222740224Y-17439301D01*
X222744736Y-17442460D01*
X222832770Y-17504102D01*
X222877099Y-17559559D01*
X222886500Y-17607315D01*
X222886500Y-20241233D01*
X222885973Y-20252416D01*
X222884298Y-20259909D01*
X222884547Y-20267835D01*
X222884547Y-20267836D01*
X222886438Y-20327986D01*
X222886500Y-20331945D01*
X222886500Y-20359856D01*
X222886997Y-20363790D01*
X222886997Y-20363791D01*
X222887005Y-20363856D01*
X222887938Y-20375693D01*
X222889327Y-20419889D01*
X222894978Y-20439339D01*
X222898987Y-20458700D01*
X222901526Y-20478797D01*
X222904445Y-20486168D01*
X222904445Y-20486170D01*
X222917804Y-20519912D01*
X222921649Y-20531142D01*
X222933982Y-20573593D01*
X222938015Y-20580412D01*
X222938017Y-20580417D01*
X222944293Y-20591028D01*
X222952988Y-20608776D01*
X222960448Y-20627617D01*
X222965110Y-20634033D01*
X222965110Y-20634034D01*
X222986436Y-20663387D01*
X222992952Y-20673307D01*
X223015458Y-20711362D01*
X223029779Y-20725683D01*
X223042619Y-20740716D01*
X223054528Y-20757107D01*
X223065806Y-20766437D01*
X223088605Y-20785298D01*
X223097384Y-20793288D01*
X225556343Y-23252247D01*
X225563887Y-23260537D01*
X225568000Y-23267018D01*
X225573777Y-23272443D01*
X225617667Y-23313658D01*
X225620509Y-23316413D01*
X225640230Y-23336134D01*
X225643425Y-23338612D01*
X225652447Y-23346318D01*
X225684679Y-23376586D01*
X225691628Y-23380406D01*
X225702432Y-23386346D01*
X225718956Y-23397199D01*
X225734959Y-23409613D01*
X225775543Y-23427176D01*
X225786173Y-23432383D01*
X225824940Y-23453695D01*
X225832617Y-23455666D01*
X225832622Y-23455668D01*
X225844558Y-23458732D01*
X225863266Y-23465137D01*
X225881855Y-23473181D01*
X225889680Y-23474420D01*
X225889682Y-23474421D01*
X225925519Y-23480097D01*
X225937140Y-23482504D01*
X225972289Y-23491528D01*
X225979970Y-23493500D01*
X226000231Y-23493500D01*
X226019940Y-23495051D01*
X226039943Y-23498219D01*
X226047835Y-23497473D01*
X226053062Y-23496979D01*
X226083954Y-23494059D01*
X226095811Y-23493500D01*
X227665606Y-23493500D01*
X227733727Y-23513502D01*
X227768819Y-23547229D01*
X227875643Y-23699789D01*
X227878802Y-23704300D01*
X228040700Y-23866198D01*
X228045208Y-23869355D01*
X228045211Y-23869357D01*
X228099822Y-23907596D01*
X228228251Y-23997523D01*
X228233233Y-23999846D01*
X228233238Y-23999849D01*
X228267457Y-24015805D01*
X228320742Y-24062722D01*
X228340203Y-24130999D01*
X228319661Y-24198959D01*
X228267457Y-24244195D01*
X228233238Y-24260151D01*
X228233233Y-24260154D01*
X228228251Y-24262477D01*
X228145180Y-24320644D01*
X228045211Y-24390643D01*
X228045208Y-24390645D01*
X228040700Y-24393802D01*
X227878802Y-24555700D01*
X227875645Y-24560208D01*
X227875643Y-24560211D01*
X227768819Y-24712771D01*
X227713362Y-24757099D01*
X227665606Y-24766500D01*
X227408768Y-24766500D01*
X227397585Y-24765973D01*
X227390092Y-24764298D01*
X227382166Y-24764547D01*
X227382165Y-24764547D01*
X227322002Y-24766438D01*
X227318044Y-24766500D01*
X227290144Y-24766500D01*
X227286154Y-24767004D01*
X227274320Y-24767936D01*
X227230111Y-24769326D01*
X227222495Y-24771539D01*
X227222493Y-24771539D01*
X227210652Y-24774979D01*
X227191293Y-24778988D01*
X227189983Y-24779154D01*
X227171203Y-24781526D01*
X227163837Y-24784442D01*
X227163831Y-24784444D01*
X227130098Y-24797800D01*
X227118868Y-24801645D01*
X227084017Y-24811770D01*
X227076407Y-24813981D01*
X227069584Y-24818016D01*
X227058966Y-24824295D01*
X227041213Y-24832992D01*
X227033568Y-24836019D01*
X227022383Y-24840448D01*
X227012074Y-24847938D01*
X226986612Y-24866437D01*
X226976695Y-24872951D01*
X226938638Y-24895458D01*
X226924317Y-24909779D01*
X226909284Y-24922619D01*
X226892893Y-24934528D01*
X226873137Y-24958409D01*
X226864702Y-24968605D01*
X226856712Y-24977384D01*
X223851538Y-27982557D01*
X223789226Y-28016583D01*
X223740561Y-28017547D01*
X223735961Y-28016736D01*
X223730655Y-28015314D01*
X223725188Y-28014836D01*
X223725184Y-28014835D01*
X223525475Y-27997363D01*
X223520000Y-27996884D01*
X223309345Y-28015314D01*
X223304032Y-28016738D01*
X223304030Y-28016738D01*
X223110400Y-28068621D01*
X223110398Y-28068622D01*
X223105090Y-28070044D01*
X223100109Y-28072366D01*
X223100108Y-28072367D01*
X222918423Y-28157088D01*
X222918420Y-28157090D01*
X222913442Y-28159411D01*
X222740224Y-28280699D01*
X222590699Y-28430224D01*
X222469411Y-28603442D01*
X222467090Y-28608420D01*
X222467088Y-28608423D01*
X222403621Y-28744528D01*
X222380044Y-28795090D01*
X222378622Y-28800398D01*
X222378621Y-28800400D01*
X222340599Y-28942301D01*
X222325314Y-28999345D01*
X222306884Y-29210000D01*
X217113116Y-29210000D01*
X217094686Y-28999345D01*
X217079401Y-28942301D01*
X217041379Y-28800400D01*
X217041378Y-28800398D01*
X217039956Y-28795090D01*
X217016379Y-28744528D01*
X216952912Y-28608423D01*
X216952910Y-28608420D01*
X216950589Y-28603442D01*
X216829301Y-28430224D01*
X216679776Y-28280699D01*
X216506558Y-28159411D01*
X216501580Y-28157090D01*
X216501577Y-28157088D01*
X216319892Y-28072367D01*
X216319891Y-28072366D01*
X216314910Y-28070044D01*
X216309602Y-28068622D01*
X216309600Y-28068621D01*
X216115970Y-28016738D01*
X216115968Y-28016738D01*
X216110655Y-28015314D01*
X215900000Y-27996884D01*
X215689345Y-28015314D01*
X215684032Y-28016738D01*
X215684030Y-28016738D01*
X215490400Y-28068621D01*
X215490398Y-28068622D01*
X215485090Y-28070044D01*
X215480109Y-28072366D01*
X215480108Y-28072367D01*
X215298423Y-28157088D01*
X215298420Y-28157090D01*
X215293442Y-28159411D01*
X215120224Y-28280699D01*
X214970699Y-28430224D01*
X214967540Y-28434736D01*
X214905898Y-28522770D01*
X214850441Y-28567099D01*
X214802685Y-28576500D01*
X208358767Y-28576500D01*
X208347584Y-28575973D01*
X208340091Y-28574298D01*
X208332165Y-28574547D01*
X208332164Y-28574547D01*
X208272014Y-28576438D01*
X208268055Y-28576500D01*
X208240144Y-28576500D01*
X208236210Y-28576997D01*
X208236209Y-28576997D01*
X208236144Y-28577005D01*
X208224307Y-28577938D01*
X208192490Y-28578938D01*
X208188029Y-28579078D01*
X208180110Y-28579327D01*
X208162454Y-28584456D01*
X208160658Y-28584978D01*
X208141306Y-28588986D01*
X208134951Y-28589789D01*
X208121203Y-28591526D01*
X208113834Y-28594443D01*
X208113832Y-28594444D01*
X208080097Y-28607800D01*
X208068869Y-28611645D01*
X208026407Y-28623982D01*
X208019585Y-28628016D01*
X208019579Y-28628019D01*
X208008968Y-28634294D01*
X207991218Y-28642990D01*
X207979756Y-28647528D01*
X207979751Y-28647531D01*
X207972383Y-28650448D01*
X207954970Y-28663099D01*
X207936625Y-28676427D01*
X207926707Y-28682943D01*
X207908019Y-28693995D01*
X207888637Y-28705458D01*
X207874313Y-28719782D01*
X207859281Y-28732621D01*
X207842893Y-28744528D01*
X207814712Y-28778593D01*
X207806722Y-28787373D01*
X207612000Y-28982095D01*
X207549688Y-29016121D01*
X207522905Y-29019000D01*
X205961866Y-29019000D01*
X205899684Y-29025755D01*
X205763295Y-29076885D01*
X205646739Y-29164239D01*
X205559385Y-29280795D01*
X205508255Y-29417184D01*
X205501500Y-29479366D01*
X205501500Y-31480634D01*
X205508255Y-31542816D01*
X205511027Y-31550212D01*
X205511029Y-31550218D01*
X205513732Y-31557427D01*
X205518915Y-31628234D01*
X205484994Y-31690603D01*
X205422738Y-31724732D01*
X205351914Y-31719785D01*
X205306655Y-31690751D01*
X204159009Y-30543104D01*
X202600405Y-28984500D01*
X202566379Y-28922188D01*
X202563500Y-28895405D01*
X202563500Y-26028767D01*
X202564027Y-26017584D01*
X202565702Y-26010091D01*
X202564723Y-25978931D01*
X202563562Y-25942014D01*
X202563500Y-25938055D01*
X202563500Y-25910144D01*
X202562995Y-25906144D01*
X202562062Y-25894301D01*
X202561854Y-25887665D01*
X202560673Y-25850110D01*
X202555022Y-25830658D01*
X202551014Y-25811306D01*
X202549467Y-25799063D01*
X202548474Y-25791203D01*
X202545556Y-25783832D01*
X202532200Y-25750097D01*
X202528355Y-25738870D01*
X202521814Y-25716358D01*
X202516018Y-25696407D01*
X202511984Y-25689585D01*
X202511981Y-25689579D01*
X202505706Y-25678968D01*
X202497010Y-25661218D01*
X202492472Y-25649756D01*
X202492469Y-25649751D01*
X202489552Y-25642383D01*
X202463573Y-25606625D01*
X202457057Y-25596707D01*
X202438575Y-25565457D01*
X202434542Y-25558637D01*
X202420218Y-25544313D01*
X202407376Y-25529278D01*
X202395472Y-25512893D01*
X202361406Y-25484711D01*
X202352627Y-25476722D01*
X199851709Y-22975804D01*
X199817683Y-22913492D01*
X199822748Y-22842677D01*
X199825916Y-22834973D01*
X199829967Y-22825980D01*
X199898896Y-22581575D01*
X199910468Y-22490611D01*
X199930545Y-22332798D01*
X199930545Y-22332792D01*
X199930943Y-22329667D01*
X199933291Y-22240000D01*
X199914472Y-21986759D01*
X199885269Y-21857699D01*
X199859459Y-21743639D01*
X199858428Y-21739082D01*
X199856735Y-21734728D01*
X199768084Y-21506762D01*
X199768083Y-21506760D01*
X199766391Y-21502409D01*
X199756778Y-21485589D01*
X199642702Y-21285997D01*
X199642700Y-21285995D01*
X199640383Y-21281940D01*
X199483171Y-21082517D01*
X199325510Y-20934205D01*
X199301610Y-20911722D01*
X199301608Y-20911720D01*
X199298209Y-20908523D01*
X199270831Y-20889530D01*
X199093393Y-20766437D01*
X199093390Y-20766435D01*
X199089561Y-20763779D01*
X199085384Y-20761719D01*
X199085377Y-20761715D01*
X198865996Y-20653528D01*
X198865992Y-20653527D01*
X198861810Y-20651464D01*
X198735901Y-20611160D01*
X198677121Y-20571342D01*
X198649199Y-20506067D01*
X198661000Y-20436058D01*
X198708778Y-20383543D01*
X198742234Y-20369310D01*
X198743929Y-20368864D01*
X198777793Y-20359948D01*
X198897433Y-20308547D01*
X199006807Y-20261557D01*
X199006810Y-20261555D01*
X199011110Y-20259708D01*
X199015090Y-20257245D01*
X199015094Y-20257243D01*
X199223064Y-20128547D01*
X199223066Y-20128545D01*
X199227047Y-20126082D01*
X199288510Y-20074050D01*
X199417289Y-19965031D01*
X199417291Y-19965029D01*
X199420862Y-19962006D01*
X199588295Y-19771084D01*
X199600636Y-19751899D01*
X199723141Y-19561442D01*
X199725669Y-19557512D01*
X199775114Y-19447749D01*
X199821330Y-19393855D01*
X199889996Y-19373500D01*
X203845406Y-19373500D01*
X203913527Y-19393502D01*
X203934501Y-19410405D01*
X205236343Y-20712247D01*
X205243887Y-20720537D01*
X205248000Y-20727018D01*
X205253777Y-20732443D01*
X205297667Y-20773658D01*
X205300494Y-20776398D01*
X205320230Y-20796134D01*
X205323420Y-20798608D01*
X205332447Y-20806318D01*
X205364679Y-20836586D01*
X205375858Y-20842732D01*
X205382432Y-20846346D01*
X205398956Y-20857199D01*
X205414959Y-20869613D01*
X205455539Y-20887174D01*
X205466173Y-20892383D01*
X205504940Y-20913695D01*
X205512617Y-20915666D01*
X205512622Y-20915668D01*
X205524558Y-20918732D01*
X205543266Y-20925137D01*
X205561855Y-20933181D01*
X205569685Y-20934421D01*
X205569688Y-20934422D01*
X205578315Y-20935789D01*
X205642467Y-20966203D01*
X205670364Y-21002056D01*
X205721975Y-21101200D01*
X205725078Y-21105333D01*
X205725080Y-21105336D01*
X205863118Y-21289185D01*
X205866223Y-21293320D01*
X205869961Y-21296892D01*
X206023160Y-21443292D01*
X206039912Y-21459301D01*
X206076903Y-21484535D01*
X206121904Y-21539444D01*
X206130075Y-21609968D01*
X206098821Y-21673716D01*
X206074340Y-21694411D01*
X206072707Y-21695468D01*
X206068023Y-21698498D01*
X205890330Y-21860186D01*
X205866141Y-21890815D01*
X205744633Y-22044670D01*
X205744630Y-22044675D01*
X205741432Y-22048724D01*
X205738939Y-22053240D01*
X205738937Y-22053243D01*
X205627823Y-22254526D01*
X205625326Y-22259050D01*
X205623602Y-22263919D01*
X205623600Y-22263923D01*
X205546856Y-22480640D01*
X205545130Y-22485515D01*
X205544223Y-22490608D01*
X205544222Y-22490611D01*
X205519053Y-22631913D01*
X205502999Y-22722037D01*
X205501999Y-22803851D01*
X205500613Y-22917363D01*
X205500064Y-22962263D01*
X205536404Y-23199744D01*
X205560166Y-23272443D01*
X205609434Y-23423183D01*
X205609437Y-23423189D01*
X205611042Y-23428101D01*
X205613429Y-23432687D01*
X205613431Y-23432691D01*
X205673056Y-23547229D01*
X205721975Y-23641200D01*
X205725085Y-23645342D01*
X205850767Y-23812734D01*
X205866223Y-23833320D01*
X206039912Y-23999301D01*
X206112073Y-24048526D01*
X206231509Y-24130000D01*
X206238378Y-24134686D01*
X206243061Y-24136860D01*
X206243065Y-24136862D01*
X206451595Y-24233658D01*
X206451599Y-24233659D01*
X206456290Y-24235837D01*
X206687798Y-24300040D01*
X206692935Y-24300589D01*
X206880593Y-24320644D01*
X206880601Y-24320644D01*
X206883928Y-24321000D01*
X207118402Y-24321000D01*
X207120975Y-24320788D01*
X207120986Y-24320788D01*
X207221946Y-24312487D01*
X207296937Y-24306322D01*
X207529944Y-24247794D01*
X207716842Y-24166529D01*
X207745526Y-24154057D01*
X207745529Y-24154055D01*
X207750263Y-24151997D01*
X207890859Y-24061041D01*
X207947637Y-24024310D01*
X207947640Y-24024308D01*
X207951977Y-24021502D01*
X208129670Y-23859814D01*
X208216556Y-23749797D01*
X208275367Y-23675330D01*
X208275370Y-23675325D01*
X208278568Y-23671276D01*
X208292885Y-23645342D01*
X208392177Y-23465474D01*
X208392179Y-23465470D01*
X208394674Y-23460950D01*
X208396545Y-23455668D01*
X208473144Y-23239360D01*
X208473145Y-23239356D01*
X208474870Y-23234485D01*
X208480183Y-23204659D01*
X208516095Y-23003052D01*
X208516096Y-23003046D01*
X208517001Y-22997963D01*
X208518687Y-22860000D01*
X208519873Y-22762907D01*
X208519873Y-22762905D01*
X208519936Y-22757737D01*
X208483596Y-22520256D01*
X208422326Y-22332798D01*
X208410566Y-22296817D01*
X208410563Y-22296811D01*
X208408958Y-22291899D01*
X208374914Y-22226500D01*
X208300416Y-22083393D01*
X208298025Y-22078800D01*
X208199178Y-21947148D01*
X208156882Y-21890815D01*
X208156880Y-21890812D01*
X208153777Y-21886680D01*
X207999325Y-21739082D01*
X207983825Y-21724270D01*
X207983824Y-21724269D01*
X207980088Y-21720699D01*
X207943097Y-21695465D01*
X207898096Y-21640556D01*
X207889925Y-21570032D01*
X207921179Y-21506284D01*
X207945660Y-21485589D01*
X207947635Y-21484311D01*
X207951977Y-21481502D01*
X208129670Y-21319814D01*
X208249410Y-21168197D01*
X208275367Y-21135330D01*
X208275370Y-21135325D01*
X208278568Y-21131276D01*
X208297702Y-21096616D01*
X208392177Y-20925474D01*
X208392179Y-20925470D01*
X208394674Y-20920950D01*
X208396545Y-20915668D01*
X208473144Y-20699360D01*
X208473145Y-20699356D01*
X208474870Y-20694485D01*
X208475778Y-20689389D01*
X208516095Y-20463052D01*
X208516096Y-20463046D01*
X208517001Y-20457963D01*
X208518687Y-20320000D01*
X208519873Y-20222907D01*
X208519873Y-20222905D01*
X208519936Y-20217737D01*
X208483596Y-19980256D01*
X208433287Y-19826334D01*
X208410566Y-19756817D01*
X208410563Y-19756811D01*
X208408958Y-19751899D01*
X208405387Y-19745038D01*
X208300416Y-19543393D01*
X208298025Y-19538800D01*
X208181585Y-19383717D01*
X208156680Y-19317235D01*
X208171672Y-19247839D01*
X208221802Y-19197565D01*
X208238115Y-19190085D01*
X208248293Y-19186269D01*
X208248296Y-19186267D01*
X208256705Y-19183115D01*
X208373261Y-19095761D01*
X208460615Y-18979205D01*
X208511745Y-18842816D01*
X208518500Y-18780634D01*
X208518500Y-17269500D01*
X208538502Y-17201379D01*
X208592158Y-17154886D01*
X208644500Y-17143500D01*
X214802685Y-17143500D01*
X214870806Y-17163502D01*
X214905898Y-17197230D01*
X214970699Y-17289776D01*
X215120224Y-17439301D01*
X215124736Y-17442460D01*
X215212770Y-17504102D01*
X215257099Y-17559559D01*
X215266500Y-17607315D01*
X215266500Y-23032685D01*
X215246498Y-23100806D01*
X215212770Y-23135898D01*
X215120224Y-23200699D01*
X214970699Y-23350224D01*
X214849411Y-23523442D01*
X214847090Y-23528420D01*
X214847088Y-23528423D01*
X214769351Y-23695131D01*
X214760044Y-23715090D01*
X214758622Y-23720398D01*
X214758621Y-23720400D01*
X214714844Y-23883779D01*
X214705314Y-23919345D01*
X214686884Y-24130000D01*
X214705314Y-24340655D01*
X214706738Y-24345968D01*
X214706738Y-24345970D01*
X214757739Y-24536306D01*
X214760044Y-24544910D01*
X214762366Y-24549891D01*
X214762367Y-24549892D01*
X214846484Y-24730280D01*
X214849411Y-24736558D01*
X214970699Y-24909776D01*
X215120224Y-25059301D01*
X215293442Y-25180589D01*
X215298420Y-25182910D01*
X215298423Y-25182912D01*
X215411379Y-25235584D01*
X215485090Y-25269956D01*
X215490398Y-25271378D01*
X215490400Y-25271379D01*
X215684030Y-25323262D01*
X215684032Y-25323262D01*
X215689345Y-25324686D01*
X215900000Y-25343116D01*
X216110655Y-25324686D01*
X216115968Y-25323262D01*
X216115970Y-25323262D01*
X216309600Y-25271379D01*
X216309602Y-25271378D01*
X216314910Y-25269956D01*
X216388621Y-25235584D01*
X216501577Y-25182912D01*
X216501580Y-25182910D01*
X216506558Y-25180589D01*
X216679776Y-25059301D01*
X216829301Y-24909776D01*
X216950589Y-24736558D01*
X216953517Y-24730280D01*
X217037633Y-24549892D01*
X217037634Y-24549891D01*
X217039956Y-24544910D01*
X217042262Y-24536306D01*
X217093262Y-24345970D01*
X217093262Y-24345968D01*
X217094686Y-24340655D01*
X217113116Y-24130000D01*
X222306884Y-24130000D01*
X222325314Y-24340655D01*
X222326738Y-24345968D01*
X222326738Y-24345970D01*
X222377739Y-24536306D01*
X222380044Y-24544910D01*
X222382366Y-24549891D01*
X222382367Y-24549892D01*
X222466484Y-24730280D01*
X222469411Y-24736558D01*
X222590699Y-24909776D01*
X222740224Y-25059301D01*
X222913442Y-25180589D01*
X222918420Y-25182910D01*
X222918423Y-25182912D01*
X223031379Y-25235584D01*
X223105090Y-25269956D01*
X223110398Y-25271378D01*
X223110400Y-25271379D01*
X223304030Y-25323262D01*
X223304032Y-25323262D01*
X223309345Y-25324686D01*
X223520000Y-25343116D01*
X223730655Y-25324686D01*
X223735968Y-25323262D01*
X223735970Y-25323262D01*
X223929600Y-25271379D01*
X223929602Y-25271378D01*
X223934910Y-25269956D01*
X224008621Y-25235584D01*
X224121577Y-25182912D01*
X224121580Y-25182910D01*
X224126558Y-25180589D01*
X224299776Y-25059301D01*
X224449301Y-24909776D01*
X224570589Y-24736558D01*
X224573517Y-24730280D01*
X224657633Y-24549892D01*
X224657634Y-24549891D01*
X224659956Y-24544910D01*
X224662262Y-24536306D01*
X224713262Y-24345970D01*
X224713262Y-24345968D01*
X224714686Y-24340655D01*
X224733116Y-24130000D01*
X224714686Y-23919345D01*
X224705156Y-23883779D01*
X224661379Y-23720400D01*
X224661378Y-23720398D01*
X224659956Y-23715090D01*
X224650649Y-23695131D01*
X224572912Y-23528423D01*
X224572910Y-23528420D01*
X224570589Y-23523442D01*
X224449301Y-23350224D01*
X224299776Y-23200699D01*
X224126558Y-23079411D01*
X224121580Y-23077090D01*
X224121577Y-23077088D01*
X223939892Y-22992367D01*
X223939891Y-22992366D01*
X223934910Y-22990044D01*
X223929602Y-22988622D01*
X223929600Y-22988621D01*
X223735970Y-22936738D01*
X223735968Y-22936738D01*
X223730655Y-22935314D01*
X223520000Y-22916884D01*
X223309345Y-22935314D01*
X223304032Y-22936738D01*
X223304030Y-22936738D01*
X223110400Y-22988621D01*
X223110398Y-22988622D01*
X223105090Y-22990044D01*
X223100109Y-22992366D01*
X223100108Y-22992367D01*
X222918423Y-23077088D01*
X222918420Y-23077090D01*
X222913442Y-23079411D01*
X222740224Y-23200699D01*
X222590699Y-23350224D01*
X222469411Y-23523442D01*
X222467090Y-23528420D01*
X222467088Y-23528423D01*
X222389351Y-23695131D01*
X222380044Y-23715090D01*
X222378622Y-23720398D01*
X222378621Y-23720400D01*
X222334844Y-23883779D01*
X222325314Y-23919345D01*
X222306884Y-24130000D01*
X217113116Y-24130000D01*
X217094686Y-23919345D01*
X217085156Y-23883779D01*
X217041379Y-23720400D01*
X217041378Y-23720398D01*
X217039956Y-23715090D01*
X217030649Y-23695131D01*
X216952912Y-23528423D01*
X216952910Y-23528420D01*
X216950589Y-23523442D01*
X216829301Y-23350224D01*
X216679776Y-23200699D01*
X216587230Y-23135898D01*
X216542901Y-23080441D01*
X216533500Y-23032685D01*
X216533500Y-17607315D01*
X216553502Y-17539194D01*
X216587230Y-17504102D01*
X216675264Y-17442460D01*
X216679776Y-17439301D01*
X216829301Y-17289776D01*
X216950589Y-17116558D01*
X216970413Y-17074047D01*
X217037633Y-16929892D01*
X217037634Y-16929891D01*
X217039956Y-16924910D01*
X217049146Y-16890615D01*
X217093262Y-16725970D01*
X217093262Y-16725968D01*
X217094686Y-16720655D01*
X217113116Y-16510000D01*
X217094686Y-16299345D01*
X217039956Y-16095090D01*
X217016379Y-16044528D01*
X216952912Y-15908423D01*
X216952910Y-15908420D01*
X216950589Y-15903442D01*
X216829301Y-15730224D01*
X216679776Y-15580699D01*
X216506558Y-15459411D01*
X216501580Y-15457090D01*
X216501577Y-15457088D01*
X216319892Y-15372367D01*
X216319891Y-15372366D01*
X216314910Y-15370044D01*
X216309602Y-15368622D01*
X216309600Y-15368621D01*
X216115970Y-15316738D01*
X216115968Y-15316738D01*
X216110655Y-15315314D01*
X215900000Y-15296884D01*
X215689345Y-15315314D01*
X215684032Y-15316738D01*
X215684030Y-15316738D01*
X215490400Y-15368621D01*
X215490398Y-15368622D01*
X215485090Y-15370044D01*
X215480109Y-15372366D01*
X215480108Y-15372367D01*
X215298423Y-15457088D01*
X215298420Y-15457090D01*
X215293442Y-15459411D01*
X215120224Y-15580699D01*
X214970699Y-15730224D01*
X214967540Y-15734736D01*
X214905898Y-15822770D01*
X214850441Y-15867099D01*
X214802685Y-15876500D01*
X208358767Y-15876500D01*
X208347584Y-15875973D01*
X208340091Y-15874298D01*
X208332165Y-15874547D01*
X208332164Y-15874547D01*
X208272014Y-15876438D01*
X208268055Y-15876500D01*
X208240144Y-15876500D01*
X208236210Y-15876997D01*
X208236209Y-15876997D01*
X208236144Y-15877005D01*
X208224307Y-15877938D01*
X208192490Y-15878938D01*
X208188029Y-15879078D01*
X208180110Y-15879327D01*
X208162454Y-15884456D01*
X208160658Y-15884978D01*
X208141306Y-15888986D01*
X208134235Y-15889880D01*
X208121203Y-15891526D01*
X208113834Y-15894443D01*
X208113832Y-15894444D01*
X208080097Y-15907800D01*
X208068869Y-15911645D01*
X208026407Y-15923982D01*
X208019585Y-15928016D01*
X208019579Y-15928019D01*
X208008968Y-15934294D01*
X207991218Y-15942990D01*
X207979756Y-15947528D01*
X207979751Y-15947531D01*
X207972383Y-15950448D01*
X207965968Y-15955109D01*
X207936625Y-15976427D01*
X207926707Y-15982943D01*
X207908019Y-15993995D01*
X207888637Y-16005458D01*
X207874313Y-16019782D01*
X207859281Y-16032621D01*
X207842893Y-16044528D01*
X207814712Y-16078593D01*
X207806722Y-16087373D01*
X207612000Y-16282095D01*
X207549688Y-16316121D01*
X207522905Y-16319000D01*
X205961866Y-16319000D01*
X205899684Y-16325755D01*
X205763295Y-16376885D01*
X205646739Y-16464239D01*
X205559385Y-16580795D01*
X205508255Y-16717184D01*
X205501500Y-16779366D01*
X205501500Y-18780634D01*
X205508255Y-18842816D01*
X205511028Y-18850213D01*
X205511029Y-18850217D01*
X205513732Y-18857427D01*
X205518914Y-18928234D01*
X205484991Y-18990602D01*
X205422736Y-19024730D01*
X205351912Y-19019782D01*
X205306654Y-18990749D01*
X204663652Y-18347747D01*
X204656112Y-18339461D01*
X204652000Y-18332982D01*
X204602348Y-18286356D01*
X204599507Y-18283602D01*
X204579770Y-18263865D01*
X204576573Y-18261385D01*
X204567551Y-18253680D01*
X204535321Y-18223414D01*
X204528375Y-18219595D01*
X204528372Y-18219593D01*
X204517566Y-18213652D01*
X204501047Y-18202801D01*
X204492749Y-18196365D01*
X204485041Y-18190386D01*
X204477772Y-18187241D01*
X204477768Y-18187238D01*
X204444463Y-18172826D01*
X204433813Y-18167609D01*
X204395060Y-18146305D01*
X204375437Y-18141267D01*
X204356734Y-18134863D01*
X204345420Y-18129967D01*
X204345419Y-18129967D01*
X204338145Y-18126819D01*
X204330322Y-18125580D01*
X204330312Y-18125577D01*
X204294476Y-18119901D01*
X204282856Y-18117495D01*
X204247711Y-18108472D01*
X204247710Y-18108472D01*
X204240030Y-18106500D01*
X204219776Y-18106500D01*
X204200065Y-18104949D01*
X204187886Y-18103020D01*
X204180057Y-18101780D01*
X204172165Y-18102526D01*
X204136039Y-18105941D01*
X204124181Y-18106500D01*
X199893063Y-18106500D01*
X199824942Y-18086498D01*
X199778449Y-18032842D01*
X199775630Y-18026167D01*
X199768084Y-18006762D01*
X199768083Y-18006760D01*
X199766391Y-18002409D01*
X199745866Y-17966498D01*
X199642702Y-17785997D01*
X199642700Y-17785995D01*
X199640383Y-17781940D01*
X199483171Y-17582517D01*
X199399625Y-17503925D01*
X199301610Y-17411722D01*
X199301608Y-17411720D01*
X199298209Y-17408523D01*
X199249443Y-17374693D01*
X199093393Y-17266437D01*
X199093390Y-17266435D01*
X199089561Y-17263779D01*
X199044429Y-17241522D01*
X198934896Y-17187506D01*
X198882647Y-17139437D01*
X198864681Y-17070752D01*
X198886700Y-17003256D01*
X198941716Y-16958380D01*
X198990625Y-16948500D01*
X199468134Y-16948500D01*
X199530316Y-16941745D01*
X199666705Y-16890615D01*
X199783261Y-16803261D01*
X199870615Y-16686705D01*
X199921745Y-16550316D01*
X199928500Y-16488134D01*
X199928500Y-13991866D01*
X199921745Y-13929684D01*
X199870615Y-13793295D01*
X199783261Y-13676739D01*
X199666705Y-13589385D01*
X199530316Y-13538255D01*
X199468134Y-13531500D01*
X198979500Y-13531500D01*
X198911379Y-13511498D01*
X198864886Y-13457842D01*
X198853500Y-13405500D01*
X198853500Y-10374594D01*
X198873502Y-10306473D01*
X198890405Y-10285499D01*
X200885500Y-8290405D01*
X200947812Y-8256379D01*
X200974595Y-8253500D01*
X205568629Y-8253500D01*
X205636750Y-8273502D01*
X205680392Y-8321320D01*
X205721975Y-8401200D01*
X205725078Y-8405333D01*
X205725080Y-8405336D01*
X205863118Y-8589185D01*
X205866223Y-8593320D01*
X206039912Y-8759301D01*
X206076903Y-8784535D01*
X206121904Y-8839444D01*
X206130075Y-8909968D01*
X206098821Y-8973716D01*
X206074340Y-8994411D01*
X206072707Y-8995468D01*
X206068023Y-8998498D01*
X205890330Y-9160186D01*
X205866141Y-9190815D01*
X205744633Y-9344670D01*
X205744630Y-9344675D01*
X205741432Y-9348724D01*
X205738939Y-9353240D01*
X205738937Y-9353243D01*
X205627823Y-9554526D01*
X205625326Y-9559050D01*
X205623602Y-9563919D01*
X205623600Y-9563923D01*
X205563033Y-9734959D01*
X205545130Y-9785515D01*
X205544223Y-9790608D01*
X205544222Y-9790611D01*
X205505118Y-10010142D01*
X205502999Y-10022037D01*
X205502936Y-10027201D01*
X205500613Y-10217363D01*
X205500064Y-10262263D01*
X205536404Y-10499744D01*
X205566687Y-10592396D01*
X205609434Y-10723183D01*
X205609437Y-10723189D01*
X205611042Y-10728101D01*
X205613429Y-10732687D01*
X205613431Y-10732691D01*
X205707989Y-10914334D01*
X205721975Y-10941200D01*
X205725085Y-10945342D01*
X205849842Y-11111502D01*
X205866223Y-11133320D01*
X205869961Y-11136892D01*
X206021717Y-11281913D01*
X206039912Y-11299301D01*
X206044184Y-11302215D01*
X206232267Y-11430517D01*
X206238378Y-11434686D01*
X206243061Y-11436860D01*
X206243065Y-11436862D01*
X206451595Y-11533658D01*
X206451599Y-11533659D01*
X206456290Y-11535837D01*
X206687798Y-11600040D01*
X206692935Y-11600589D01*
X206880593Y-11620644D01*
X206880601Y-11620644D01*
X206883928Y-11621000D01*
X207118402Y-11621000D01*
X207120975Y-11620788D01*
X207120986Y-11620788D01*
X207221946Y-11612487D01*
X207296937Y-11606322D01*
X207529944Y-11547794D01*
X207672112Y-11485978D01*
X207745526Y-11454057D01*
X207745529Y-11454055D01*
X207750263Y-11451997D01*
X207951977Y-11321502D01*
X208129670Y-11159814D01*
X208226924Y-11036669D01*
X208275367Y-10975330D01*
X208275370Y-10975325D01*
X208278568Y-10971276D01*
X208286318Y-10957238D01*
X208392177Y-10765474D01*
X208392179Y-10765470D01*
X208394674Y-10760950D01*
X208430951Y-10658510D01*
X208473144Y-10539360D01*
X208473145Y-10539356D01*
X208474870Y-10534485D01*
X208475778Y-10529389D01*
X208516095Y-10303052D01*
X208516096Y-10303046D01*
X208517001Y-10297963D01*
X208519936Y-10057737D01*
X208483596Y-9820256D01*
X208427334Y-9648120D01*
X208410566Y-9596817D01*
X208410563Y-9596811D01*
X208408958Y-9591899D01*
X208399525Y-9573777D01*
X208300416Y-9383393D01*
X208298025Y-9378800D01*
X208153777Y-9186680D01*
X207980088Y-9020699D01*
X207943097Y-8995465D01*
X207898096Y-8940556D01*
X207889925Y-8870032D01*
X207921179Y-8806284D01*
X207945660Y-8785589D01*
X207947635Y-8784311D01*
X207951977Y-8781502D01*
X208129670Y-8619814D01*
X208190347Y-8542983D01*
X208275367Y-8435330D01*
X208275370Y-8435325D01*
X208278568Y-8431276D01*
X208375117Y-8256379D01*
X208392177Y-8225474D01*
X208392179Y-8225470D01*
X208394674Y-8220950D01*
X208474870Y-7994485D01*
X208517001Y-7757963D01*
X208519936Y-7517737D01*
X208483596Y-7280256D01*
X208438610Y-7142620D01*
X208410566Y-7056817D01*
X208410563Y-7056811D01*
X208408958Y-7051899D01*
X208398481Y-7031772D01*
X208300416Y-6843393D01*
X208298025Y-6838800D01*
X208181585Y-6683717D01*
X208156680Y-6617235D01*
X208171672Y-6547839D01*
X208221802Y-6497565D01*
X208238115Y-6490085D01*
X208248293Y-6486269D01*
X208248296Y-6486267D01*
X208256705Y-6483115D01*
X208373261Y-6395761D01*
X208460615Y-6279205D01*
X208511745Y-6142816D01*
X208518500Y-6080634D01*
X208518500Y-4569500D01*
X208538502Y-4501379D01*
X208592158Y-4454886D01*
X208644500Y-4443500D01*
X214802685Y-4443500D01*
X214870806Y-4463502D01*
X214905898Y-4497230D01*
X214970699Y-4589776D01*
X215120224Y-4739301D01*
X215124736Y-4742460D01*
X215212770Y-4804102D01*
X215257099Y-4859559D01*
X215266500Y-4907315D01*
X215266500Y-10332685D01*
X215246498Y-10400806D01*
X215212770Y-10435898D01*
X215120224Y-10500699D01*
X214970699Y-10650224D01*
X214849411Y-10823442D01*
X214847090Y-10828420D01*
X214847088Y-10828423D01*
X214782582Y-10966757D01*
X214760044Y-11015090D01*
X214758622Y-11020398D01*
X214758621Y-11020400D01*
X214746385Y-11066067D01*
X214705314Y-11219345D01*
X214686884Y-11430000D01*
X214705314Y-11640655D01*
X214706738Y-11645968D01*
X214706738Y-11645970D01*
X214740991Y-11773802D01*
X214760044Y-11844910D01*
X214762366Y-11849891D01*
X214762367Y-11849892D01*
X214815682Y-11964225D01*
X214849411Y-12036558D01*
X214970699Y-12209776D01*
X215120224Y-12359301D01*
X215293442Y-12480589D01*
X215298420Y-12482910D01*
X215298423Y-12482912D01*
X215480108Y-12567633D01*
X215485090Y-12569956D01*
X215490398Y-12571378D01*
X215490400Y-12571379D01*
X215684030Y-12623262D01*
X215684032Y-12623262D01*
X215689345Y-12624686D01*
X215900000Y-12643116D01*
X216110655Y-12624686D01*
X216115968Y-12623262D01*
X216115970Y-12623262D01*
X216309600Y-12571379D01*
X216309602Y-12571378D01*
X216314910Y-12569956D01*
X216319892Y-12567633D01*
X216501577Y-12482912D01*
X216501580Y-12482910D01*
X216506558Y-12480589D01*
X216679776Y-12359301D01*
X216829301Y-12209776D01*
X216950589Y-12036558D01*
X216984319Y-11964225D01*
X217037633Y-11849892D01*
X217037634Y-11849891D01*
X217039956Y-11844910D01*
X217059010Y-11773802D01*
X217093262Y-11645970D01*
X217093262Y-11645968D01*
X217094686Y-11640655D01*
X217113116Y-11430000D01*
X222306884Y-11430000D01*
X222325314Y-11640655D01*
X222326738Y-11645968D01*
X222326738Y-11645970D01*
X222360991Y-11773802D01*
X222380044Y-11844910D01*
X222382366Y-11849891D01*
X222382367Y-11849892D01*
X222435682Y-11964225D01*
X222469411Y-12036558D01*
X222590699Y-12209776D01*
X222740224Y-12359301D01*
X222913442Y-12480589D01*
X222918420Y-12482910D01*
X222918423Y-12482912D01*
X223100108Y-12567633D01*
X223105090Y-12569956D01*
X223110398Y-12571378D01*
X223110400Y-12571379D01*
X223304030Y-12623262D01*
X223304032Y-12623262D01*
X223309345Y-12624686D01*
X223520000Y-12643116D01*
X223730655Y-12624686D01*
X223735968Y-12623262D01*
X223735970Y-12623262D01*
X223929600Y-12571379D01*
X223929602Y-12571378D01*
X223934910Y-12569956D01*
X223939892Y-12567633D01*
X224121577Y-12482912D01*
X224121580Y-12482910D01*
X224126558Y-12480589D01*
X224299776Y-12359301D01*
X224449301Y-12209776D01*
X224570589Y-12036558D01*
X224604319Y-11964225D01*
X224657633Y-11849892D01*
X224657634Y-11849891D01*
X224659956Y-11844910D01*
X224679010Y-11773802D01*
X224713262Y-11645970D01*
X224713262Y-11645968D01*
X224714686Y-11640655D01*
X224733116Y-11430000D01*
X224714686Y-11219345D01*
X224673615Y-11066067D01*
X224661379Y-11020400D01*
X224661378Y-11020398D01*
X224659956Y-11015090D01*
X224637418Y-10966757D01*
X224572912Y-10828423D01*
X224572910Y-10828420D01*
X224570589Y-10823442D01*
X224449301Y-10650224D01*
X224299776Y-10500699D01*
X224126558Y-10379411D01*
X224121580Y-10377090D01*
X224121577Y-10377088D01*
X223939892Y-10292367D01*
X223939891Y-10292366D01*
X223934910Y-10290044D01*
X223929602Y-10288622D01*
X223929600Y-10288621D01*
X223735970Y-10236738D01*
X223735968Y-10236738D01*
X223730655Y-10235314D01*
X223520000Y-10216884D01*
X223309345Y-10235314D01*
X223304032Y-10236738D01*
X223304030Y-10236738D01*
X223110400Y-10288621D01*
X223110398Y-10288622D01*
X223105090Y-10290044D01*
X223100109Y-10292366D01*
X223100108Y-10292367D01*
X222918423Y-10377088D01*
X222918420Y-10377090D01*
X222913442Y-10379411D01*
X222740224Y-10500699D01*
X222590699Y-10650224D01*
X222469411Y-10823442D01*
X222467090Y-10828420D01*
X222467088Y-10828423D01*
X222402582Y-10966757D01*
X222380044Y-11015090D01*
X222378622Y-11020398D01*
X222378621Y-11020400D01*
X222366385Y-11066067D01*
X222325314Y-11219345D01*
X222306884Y-11430000D01*
X217113116Y-11430000D01*
X217094686Y-11219345D01*
X217053615Y-11066067D01*
X217041379Y-11020400D01*
X217041378Y-11020398D01*
X217039956Y-11015090D01*
X217017418Y-10966757D01*
X216952912Y-10828423D01*
X216952910Y-10828420D01*
X216950589Y-10823442D01*
X216829301Y-10650224D01*
X216679776Y-10500699D01*
X216587230Y-10435898D01*
X216542901Y-10380441D01*
X216533500Y-10332685D01*
X216533500Y-4907315D01*
X216553502Y-4839194D01*
X216587230Y-4804102D01*
X216675264Y-4742460D01*
X216679776Y-4739301D01*
X216829301Y-4589776D01*
X216950589Y-4416558D01*
X216963392Y-4389103D01*
X217037633Y-4229892D01*
X217037634Y-4229891D01*
X217039956Y-4224910D01*
X217062296Y-4141538D01*
X217093262Y-4025970D01*
X217093262Y-4025968D01*
X217094686Y-4020655D01*
X217113116Y-3810000D01*
X217094686Y-3599345D01*
X217039956Y-3395090D01*
X217016379Y-3344528D01*
X216952912Y-3208423D01*
X216952910Y-3208420D01*
X216950589Y-3203442D01*
X216829301Y-3030224D01*
X216679776Y-2880699D01*
X216506558Y-2759411D01*
X216501580Y-2757090D01*
X216501577Y-2757088D01*
X216319892Y-2672367D01*
X216319891Y-2672366D01*
X216314910Y-2670044D01*
X216309602Y-2668622D01*
X216309600Y-2668621D01*
X216115970Y-2616738D01*
X216115968Y-2616738D01*
X216110655Y-2615314D01*
X215900000Y-2596884D01*
X215689345Y-2615314D01*
X215684032Y-2616738D01*
X215684030Y-2616738D01*
X215490400Y-2668621D01*
X215490398Y-2668622D01*
X215485090Y-2670044D01*
X215480109Y-2672366D01*
X215480108Y-2672367D01*
X215298423Y-2757088D01*
X215298420Y-2757090D01*
X215293442Y-2759411D01*
X215120224Y-2880699D01*
X214970699Y-3030224D01*
X214955477Y-3051964D01*
X214905898Y-3122770D01*
X214850441Y-3167099D01*
X214802685Y-3176500D01*
X208358767Y-3176500D01*
X208347584Y-3175973D01*
X208340091Y-3174298D01*
X208332165Y-3174547D01*
X208332164Y-3174547D01*
X208272014Y-3176438D01*
X208268055Y-3176500D01*
X208240144Y-3176500D01*
X208236210Y-3176997D01*
X208236209Y-3176997D01*
X208236144Y-3177005D01*
X208224307Y-3177938D01*
X208192490Y-3178938D01*
X208188029Y-3179078D01*
X208180110Y-3179327D01*
X208162454Y-3184456D01*
X208160658Y-3184978D01*
X208141306Y-3188986D01*
X208134235Y-3189880D01*
X208121203Y-3191526D01*
X208113834Y-3194443D01*
X208113832Y-3194444D01*
X208080097Y-3207800D01*
X208068869Y-3211645D01*
X208026407Y-3223982D01*
X208019585Y-3228016D01*
X208019579Y-3228019D01*
X208008968Y-3234294D01*
X207991218Y-3242990D01*
X207979756Y-3247528D01*
X207979751Y-3247531D01*
X207972383Y-3250448D01*
X207965968Y-3255109D01*
X207936625Y-3276427D01*
X207926707Y-3282943D01*
X207908019Y-3293995D01*
X207888637Y-3305458D01*
X207874313Y-3319782D01*
X207859281Y-3332621D01*
X207842893Y-3344528D01*
X207814712Y-3378593D01*
X207806722Y-3387373D01*
X207612000Y-3582095D01*
X207549688Y-3616121D01*
X207522905Y-3619000D01*
X205961866Y-3619000D01*
X205899684Y-3625755D01*
X205763295Y-3676885D01*
X205646739Y-3764239D01*
X205559385Y-3880795D01*
X205508255Y-4017184D01*
X205501500Y-4079366D01*
X205501500Y-6080634D01*
X205508255Y-6142816D01*
X205559385Y-6279205D01*
X205646739Y-6395761D01*
X205763295Y-6483115D01*
X205783189Y-6490573D01*
X205839953Y-6533213D01*
X205864654Y-6599774D01*
X205849447Y-6669123D01*
X205837842Y-6686647D01*
X205820645Y-6708423D01*
X205741432Y-6808724D01*
X205738936Y-6813245D01*
X205738935Y-6813247D01*
X205679236Y-6921393D01*
X205628803Y-6971364D01*
X205568927Y-6986500D01*
X200738767Y-6986500D01*
X200727584Y-6985973D01*
X200720091Y-6984298D01*
X200712165Y-6984547D01*
X200712164Y-6984547D01*
X200652014Y-6986438D01*
X200648055Y-6986500D01*
X200620144Y-6986500D01*
X200616210Y-6986997D01*
X200616209Y-6986997D01*
X200616144Y-6987005D01*
X200604307Y-6987938D01*
X200572490Y-6988938D01*
X200568029Y-6989078D01*
X200560110Y-6989327D01*
X200542454Y-6994456D01*
X200540658Y-6994978D01*
X200521306Y-6998986D01*
X200514235Y-6999880D01*
X200501203Y-7001526D01*
X200493834Y-7004443D01*
X200493832Y-7004444D01*
X200460097Y-7017800D01*
X200448869Y-7021645D01*
X200406407Y-7033982D01*
X200399584Y-7038017D01*
X200399582Y-7038018D01*
X200388972Y-7044293D01*
X200371224Y-7052988D01*
X200352383Y-7060448D01*
X200345967Y-7065110D01*
X200345966Y-7065110D01*
X200316613Y-7086436D01*
X200306693Y-7092952D01*
X200275465Y-7111420D01*
X200275462Y-7111422D01*
X200268638Y-7115458D01*
X200254317Y-7129779D01*
X200239284Y-7142619D01*
X200222893Y-7154528D01*
X200206648Y-7174165D01*
X200194702Y-7188605D01*
X200186712Y-7197384D01*
X197827747Y-9556348D01*
X197819461Y-9563888D01*
X197812982Y-9568000D01*
X197807557Y-9573777D01*
X197766357Y-9617651D01*
X197763602Y-9620493D01*
X197743865Y-9640230D01*
X197741385Y-9643427D01*
X197733682Y-9652447D01*
X197703414Y-9684679D01*
X197699595Y-9691625D01*
X197699593Y-9691628D01*
X197693652Y-9702434D01*
X197682801Y-9718953D01*
X197670386Y-9734959D01*
X197667241Y-9742228D01*
X197667238Y-9742232D01*
X197652826Y-9775537D01*
X197647609Y-9786187D01*
X197626305Y-9824940D01*
X197624334Y-9832615D01*
X197624334Y-9832616D01*
X197621267Y-9844562D01*
X197614863Y-9863266D01*
X197606819Y-9881855D01*
X197605580Y-9889678D01*
X197605577Y-9889688D01*
X197599901Y-9925524D01*
X197597495Y-9937144D01*
X197586500Y-9979970D01*
X197586500Y-10000224D01*
X197584949Y-10019934D01*
X197581780Y-10039943D01*
X197582526Y-10047835D01*
X197585941Y-10083961D01*
X197586500Y-10095819D01*
X197586500Y-13405500D01*
X197566498Y-13473621D01*
X197512842Y-13520114D01*
X197460500Y-13531500D01*
X196971866Y-13531500D01*
X196909684Y-13538255D01*
X196773295Y-13589385D01*
X196656739Y-13676739D01*
X196569385Y-13793295D01*
X196518255Y-13929684D01*
X196511500Y-13991866D01*
X196511500Y-16488134D01*
X196518255Y-16550316D01*
X196569385Y-16686705D01*
X196656739Y-16803261D01*
X196773295Y-16890615D01*
X196909684Y-16941745D01*
X196971866Y-16948500D01*
X197450719Y-16948500D01*
X197518840Y-16968502D01*
X197565333Y-17022158D01*
X197575437Y-17092432D01*
X197545943Y-17157012D01*
X197503471Y-17188926D01*
X197389380Y-17241522D01*
X197385471Y-17244085D01*
X197180928Y-17378189D01*
X197180923Y-17378193D01*
X197177015Y-17380755D01*
X196987562Y-17549848D01*
X196825183Y-17745087D01*
X196693447Y-17962182D01*
X196691638Y-17966496D01*
X196691637Y-17966498D01*
X196605117Y-18172826D01*
X196595246Y-18196365D01*
X196594095Y-18200897D01*
X196594094Y-18200900D01*
X196572731Y-18285016D01*
X196532738Y-18442490D01*
X196507296Y-18695151D01*
X196507520Y-18699817D01*
X196507520Y-18699822D01*
X196510066Y-18752812D01*
X196519480Y-18948798D01*
X196536443Y-19034077D01*
X196566590Y-19185634D01*
X196569021Y-19197857D01*
X196570600Y-19202255D01*
X196570602Y-19202262D01*
X196613341Y-19321298D01*
X196654831Y-19436858D01*
X196657048Y-19440984D01*
X196772666Y-19656160D01*
X196775025Y-19660551D01*
X196777820Y-19664294D01*
X196777822Y-19664297D01*
X196924171Y-19860282D01*
X196924176Y-19860288D01*
X196926963Y-19864020D01*
X196930272Y-19867300D01*
X196930277Y-19867306D01*
X197069587Y-20005405D01*
X197107307Y-20042797D01*
X197111069Y-20045555D01*
X197111072Y-20045558D01*
X197307739Y-20189760D01*
X197312094Y-20192953D01*
X197316229Y-20195129D01*
X197316233Y-20195131D01*
X197426401Y-20253093D01*
X197536827Y-20311191D01*
X197708781Y-20371240D01*
X197766497Y-20412581D01*
X197792701Y-20478565D01*
X197779072Y-20548241D01*
X197729936Y-20599487D01*
X197702497Y-20611160D01*
X197619993Y-20635208D01*
X197389380Y-20741522D01*
X197365609Y-20757107D01*
X197180928Y-20878189D01*
X197180923Y-20878193D01*
X197177015Y-20880755D01*
X197118277Y-20933181D01*
X196996622Y-21041762D01*
X196987562Y-21049848D01*
X196825183Y-21245087D01*
X196693447Y-21462182D01*
X196691638Y-21466496D01*
X196691637Y-21466498D01*
X196600422Y-21684022D01*
X196595246Y-21696365D01*
X196594095Y-21700897D01*
X196594094Y-21700900D01*
X196585503Y-21734728D01*
X196532738Y-21942490D01*
X196507296Y-22195151D01*
X193548000Y-22195151D01*
X193548000Y-5212703D01*
X194740743Y-5212703D01*
X194778268Y-5497734D01*
X194854129Y-5775036D01*
X194855813Y-5778984D01*
X194952911Y-6006625D01*
X194966923Y-6039476D01*
X194991556Y-6080634D01*
X195105366Y-6270797D01*
X195114561Y-6286161D01*
X195294313Y-6510528D01*
X195502851Y-6708423D01*
X195736317Y-6876186D01*
X195740112Y-6878195D01*
X195740113Y-6878196D01*
X195761869Y-6889715D01*
X195990392Y-7010712D01*
X196090398Y-7047309D01*
X196197318Y-7086436D01*
X196260373Y-7109511D01*
X196541264Y-7170755D01*
X196569841Y-7173004D01*
X196764282Y-7188307D01*
X196764291Y-7188307D01*
X196766739Y-7188500D01*
X196922271Y-7188500D01*
X196924407Y-7188354D01*
X196924418Y-7188354D01*
X197132548Y-7174165D01*
X197132554Y-7174164D01*
X197136825Y-7173873D01*
X197141020Y-7173004D01*
X197141022Y-7173004D01*
X197287741Y-7142620D01*
X197418342Y-7115574D01*
X197689343Y-7019607D01*
X197944812Y-6887750D01*
X197948313Y-6885289D01*
X197948317Y-6885287D01*
X198063024Y-6804669D01*
X198180023Y-6722441D01*
X198367917Y-6547839D01*
X198387479Y-6529661D01*
X198387481Y-6529658D01*
X198390622Y-6526740D01*
X198572713Y-6304268D01*
X198722927Y-6059142D01*
X198727049Y-6049753D01*
X198836757Y-5799830D01*
X198838483Y-5795898D01*
X198917244Y-5519406D01*
X198957751Y-5234784D01*
X198957845Y-5216951D01*
X198959235Y-4951583D01*
X198959235Y-4951576D01*
X198959257Y-4947297D01*
X198921732Y-4662266D01*
X198845871Y-4384964D01*
X198775337Y-4219600D01*
X198734763Y-4124476D01*
X198734761Y-4124472D01*
X198733077Y-4120524D01*
X198585439Y-3873839D01*
X198405687Y-3649472D01*
X198197149Y-3451577D01*
X197963683Y-3283814D01*
X197949732Y-3276427D01*
X197870156Y-3234294D01*
X197709608Y-3149288D01*
X197439627Y-3050489D01*
X197158736Y-2989245D01*
X197127685Y-2986801D01*
X196935718Y-2971693D01*
X196935709Y-2971693D01*
X196933261Y-2971500D01*
X196777729Y-2971500D01*
X196775593Y-2971646D01*
X196775582Y-2971646D01*
X196567452Y-2985835D01*
X196567446Y-2985836D01*
X196563175Y-2986127D01*
X196558980Y-2986996D01*
X196558978Y-2986996D01*
X196422416Y-3015277D01*
X196281658Y-3044426D01*
X196010657Y-3140393D01*
X195755188Y-3272250D01*
X195751687Y-3274711D01*
X195751683Y-3274713D01*
X195699961Y-3311064D01*
X195519977Y-3437559D01*
X195504892Y-3451577D01*
X195324724Y-3619000D01*
X195309378Y-3633260D01*
X195127287Y-3855732D01*
X194977073Y-4100858D01*
X194861517Y-4364102D01*
X194782756Y-4640594D01*
X194742249Y-4925216D01*
X194742227Y-4929505D01*
X194742226Y-4929512D01*
X194741736Y-5023116D01*
X194740743Y-5212703D01*
X193548000Y-5212703D01*
X193548000Y-634000D01*
X193568002Y-565879D01*
X193621658Y-519386D01*
X193674000Y-508000D01*
X295276000Y-508000D01*
X295344121Y-528002D01*
G37*
%TD.AperFunction*%
%TD*%
M02*
